<?xml version="1.0" encoding="UTF-8" standalone="no"?>
<!DOCTYPE svg PUBLIC "-//W3C//DTD SVG 1.1//EN" "http://www.w3.org/Graphics/SVG/1.1/DTD/svg11.dtd">
<svg width="100%" height="100%" viewBox="0 0 1522 632" version="1.1" xmlns="http://www.w3.org/2000/svg" xmlns:xlink="http://www.w3.org/1999/xlink" xml:space="preserve" xmlns:serif="http://www.serif.com/" style="fill-rule:evenodd;clip-rule:evenodd;stroke-linejoin:round;stroke-miterlimit:2;">
    <g transform="matrix(1,0,0,1,-233,-530)">
        <g transform="matrix(1,0,0,1,39.024,114.877)">
            <g transform="matrix(0.847283,0,0,0.847217,73.3052,-1338.3)">
                <path d="M1549.11,2421.76L1549.11,2387.49C1519.82,2391.6 1506.93,2399.8 1506.93,2413.86C1506.93,2423.81 1515.72,2431.72 1526.26,2431.72C1532.71,2431.72 1540.03,2428.5 1549.11,2421.76ZM1593.62,2431.43L1593.62,2439.63C1584.83,2445.49 1578.98,2448.12 1573.42,2448.12C1565.22,2448.12 1558.48,2443.44 1552.04,2431.43C1532.41,2444.9 1524.5,2448.12 1516.01,2448.12C1501.37,2448.12 1488.77,2433.19 1488.77,2415.61C1488.77,2399.21 1498.43,2389.55 1518.06,2384.57L1549.11,2376.66L1549.11,2360.55C1549.11,2343.27 1542.95,2335.95 1528.03,2335.95C1516.59,2335.95 1506.05,2341.51 1494.92,2347.95L1492.87,2341.22C1507.22,2327.46 1519.23,2321.6 1533.29,2321.6C1552.33,2321.6 1568.44,2333.31 1568.44,2361.13L1568.44,2411.51C1568.44,2423.81 1574.87,2434.94 1583.66,2434.94C1586.3,2434.94 1588.65,2434.07 1593.62,2431.43ZM1357.9,2435.24L1357.9,2261.26L1335.35,2261.26L1335.35,2251.89L1377.24,2251.89L1377.24,2339.46C1395.11,2326.57 1407.11,2321.6 1420.29,2321.6C1440.21,2321.6 1456.02,2335.66 1456.02,2359.38L1456.02,2435.24L1478.58,2435.24L1478.58,2444.61L1414.43,2444.61L1414.43,2435.24L1436.69,2435.24L1436.69,2359.96C1436.69,2340.34 1422.05,2333.02 1409.45,2333.02C1398.62,2333.02 1390.12,2336.83 1377.24,2347.66L1377.24,2435.24L1399.2,2435.24L1399.2,2444.61L1335.35,2444.61L1335.35,2435.24L1357.9,2435.24ZM1212.95,2435.24L1212.95,2334.48L1189.81,2334.48L1189.81,2325.11L1232.28,2325.11L1232.28,2338.88C1250.74,2326.28 1261.57,2321.6 1274.75,2321.6C1294.67,2321.6 1310.48,2333.89 1310.48,2357.04L1310.48,2435.24L1332.16,2435.24L1332.16,2444.61L1269.48,2444.61L1269.48,2435.24L1291.15,2435.24L1291.15,2366.12C1291.15,2343.86 1283.54,2333.61 1266.26,2333.61C1254.25,2333.61 1243.7,2338 1232.28,2347.37L1232.28,2435.24L1253.37,2435.24L1253.37,2444.61L1189.81,2444.61L1189.81,2435.24L1212.95,2435.24ZM1092.12,2364.65L1154.79,2364.65C1153.33,2341.51 1137.81,2329.5 1120.82,2329.5C1105,2329.5 1092.7,2346.2 1092.12,2364.65ZM1175.88,2374.03L1092.12,2374.03C1089.78,2399.8 1102.95,2436.4 1138.68,2436.4C1151.57,2436.4 1162.41,2432.3 1177.93,2422.35L1175.88,2433.19C1160.94,2443.73 1148.06,2448.12 1131.95,2448.12C1096.21,2448.12 1071.03,2420.01 1071.03,2380.76C1071.03,2345.32 1092.12,2321.6 1123.75,2321.6C1151.57,2321.6 1172.37,2342.39 1175.88,2374.03ZM1022.12,2435.24L1022.12,2352.93C1013.04,2340.05 1000.74,2332.72 987.559,2332.72C965.594,2332.72 949.481,2353.52 949.481,2381.64C949.481,2405.07 962.661,2435.24 998.397,2435.24L1022.12,2435.24ZM1022.12,2336.24L1022.12,2261.26L999.862,2261.26L999.862,2251.89L1041.45,2251.89L1041.45,2435.24L1063.71,2435.24L1063.71,2444.61L994.002,2444.61C951.244,2444.61 928.396,2417.37 928.396,2383.39C928.396,2350.01 955.051,2321.6 986.389,2321.6C998.981,2321.6 1007.77,2325.4 1022.12,2336.24ZM886.981,2435.24L886.981,2261.26L865.015,2261.26L865.015,2251.89L906.314,2251.89L906.314,2435.24L927.693,2435.24L927.693,2444.61L865.015,2444.61L865.015,2435.24L886.981,2435.24ZM800.718,2370.22L771.721,2292.89L745.945,2370.22L800.718,2370.22ZM771.428,2265.66L783.146,2265.66L844.944,2433.48L859.879,2433.48L859.879,2444.61L807.747,2444.61L807.747,2433.48L823.565,2433.48L804.229,2381.34L742.141,2381.34L723.69,2433.48L740.089,2433.48L740.089,2444.61L697.62,2444.61L697.62,2433.48L712.265,2433.48L771.428,2265.66ZM1624.52,2435.24L1624.52,2334.48L1603.14,2334.48L1603.14,2325.11L1643.85,2325.11L1643.85,2342.09C1658.79,2328.92 1675.77,2321.6 1691.3,2321.6C1705.07,2321.6 1717.36,2329.8 1722.63,2342.09C1741.96,2327.46 1755.74,2321.6 1771.25,2321.6C1791.76,2321.6 1806.69,2334.48 1806.69,2362.3L1806.69,2435.24L1826.32,2435.24L1826.32,2444.61L1766.28,2444.61L1766.28,2435.24L1787.36,2435.24L1787.36,2365.24C1787.36,2344.44 1778.57,2333.61 1761.59,2333.61C1749.29,2333.61 1741.38,2337.12 1725.27,2349.42L1725.27,2435.24L1746.37,2435.24L1746.37,2444.61L1684.86,2444.61L1684.86,2435.24L1705.94,2435.24L1705.94,2361.72C1705.94,2343.86 1694.52,2333.61 1680.17,2333.61C1669.33,2333.61 1660.54,2337.41 1643.85,2349.42L1643.85,2435.24L1664.93,2435.24L1664.93,2444.61L1603.14,2444.61L1603.14,2435.24" style="fill:rgb(140,140,140);fill-rule:nonzero;"/>
            </g>
            <g transform="matrix(0.847283,0,0,0.847217,73.3052,-1209.94)">
                <path d="M467.597,2208.31C463.286,2204.09 469.843,2199.97 472.13,2203.36C473.743,2205.76 471.412,2210.03 467.597,2208.31ZM470.897,2193.46C472.914,2197.44 467.532,2200.05 465.122,2197.17C463.099,2193.2 468.482,2190.58 470.897,2193.46ZM492.546,2155.14C491.671,2156.08 490.748,2157.05 489.886,2158.09L489.313,2158.88L488.757,2159.74C488.38,2160.33 487.995,2160.9 487.561,2161.37C486.835,2162.15 486.015,2162.62 484.833,2162.27L486.149,2160.73C486.463,2160.36 486.769,2159.96 486.956,2159.57C487.147,2159.16 487.255,2158.67 487.016,2158.19L486.673,2157.49C485.838,2158.5 485.432,2159.1 484.975,2159.7C484.527,2160.3 484.053,2160.88 483.556,2161.31C482.651,2162.09 481.815,2162.32 480.859,2161.09C481.116,2160.34 481.314,2160.13 481.545,2159.89C481.987,2159.45 482.099,2159.31 482.181,2159.17C482.394,2158.78 482.352,2158.32 481.911,2158L481.261,2158.06C480.899,2158.41 480.503,2158.76 480.088,2159.11L478.781,2160.19C477.891,2160.92 476.964,2161.69 476.165,2162.57C474.585,2164.31 473.498,2166.47 474.073,2169.47C472.855,2171.71 469.697,2172.29 466.352,2172.34C460.127,2172.44 452.409,2172.61 445.482,2172.01C438.752,2171.42 432.943,2170.1 429.906,2167.41C430.131,2167.1 430.407,2166.77 430.713,2166.42L432.042,2165C432.481,2164.52 432.907,2164.05 433.234,2163.59C433.551,2163.15 433.827,2162.66 433.875,2162.18L433.971,2161.19L433.116,2161.69C432.468,2162.07 431.864,2162.61 431.299,2163.17L429.63,2164.87C428.618,2165.86 427.706,2166.53 426.745,2166.58C426.687,2166.22 426.784,2165.86 427.009,2165.48C427.31,2164.98 427.806,2164.48 428.374,2163.95L429.215,2163.17C429.488,2162.9 429.753,2162.63 429.975,2162.35C430.409,2161.8 430.76,2161.12 430.56,2160.35L430.357,2159.57C429.152,2160.59 428.593,2161.22 428.057,2161.87C427.529,2162.5 426.999,2163.17 426.45,2163.78C425.438,2164.9 424.469,2165.66 423.386,2165.74C423.328,2165.53 423.357,2165.29 423.465,2165C423.622,2164.58 423.928,2164.14 424.292,2163.66L424.833,2162.95L425.319,2162.26C425.576,2161.83 425.848,2161.24 425.58,2160.67L424.797,2160.5C424.161,2161.04 423.618,2161.66 422.989,2162.2C422.523,2162.61 422.028,2162.94 421.411,2163.14C421.311,2161.81 422.087,2160.73 423.024,2159.85C423.554,2159.35 424.102,2158.95 424.491,2158.64C425.071,2158.11 425.158,2158 425.204,2157.86L424.872,2156.99C423.921,2157.36 423.364,2157.75 422.855,2158.18C422.359,2158.59 421.876,2159.06 421.402,2159.5C420.569,2160.27 419.917,2160.75 419.324,2160.81C419.099,2159.7 419.853,2158.67 420.965,2157.54C421.564,2156.93 422.2,2156.35 422.679,2155.8C423.157,2155.24 423.6,2154.59 423.568,2153.86L423.513,2152.69L422.701,2153.53C421.351,2154.91 419.889,2156.19 418.47,2157.51C417.04,2158.84 415.629,2160.22 414.412,2161.82L414.442,2162.47C421.37,2170.02 434.445,2172.52 447.741,2174.17C456.951,2175.32 468.401,2174.43 476.322,2173.35C476.569,2171.41 476.106,2169.6 475.97,2167.91C475.844,2166.3 476.046,2165 476.89,2164.25C477.951,2164.06 478.676,2163.79 479.371,2163.61C480.036,2163.43 480.645,2163.33 481.545,2163.45C482.408,2163.57 483.071,2164.07 483.84,2164.64C484.206,2164.93 484.606,2165.23 485.034,2165.47C485.476,2165.71 485.965,2165.89 486.529,2165.93C489.709,2166.15 494.436,2162.39 496.405,2160.42C498.635,2158.19 501.072,2154.4 500.25,2150.88L499.267,2150.88C497.96,2156.42 494.305,2161.35 489.661,2162.33C490.098,2160.53 491.324,2159.13 492.62,2157.74L493.681,2156.59C494.032,2156.2 494.362,2155.81 494.646,2155.41C495.221,2154.6 495.654,2153.7 495.729,2152.68L495.859,2150.75L494.802,2152.36C494.189,2153.29 493.405,2154.2 492.546,2155.14ZM491.26,2210.18C491.215,2209.5 492.104,2210.65 493.031,2212.47C494.57,2215.52 494.795,2216.03 495.635,2217.79C496.895,2216.9 495.206,2211.84 494.668,2210.51C494.342,2209.7 494.056,2207.21 494.903,2208.29C495.811,2209.45 497.22,2214.43 497.287,2214.91C498.106,2213.8 497.501,2211.27 498.113,2209.96C500.556,2214.64 504.084,2218.17 508.829,2221.09C511.507,2222.74 514.774,2223.2 516.667,2224.8C519.701,2227.37 520.565,2234.95 515.839,2237.58C517.257,2230.03 511.691,2222.78 504.292,2223.98C499.521,2224.76 493.98,2233.51 491.095,2239.24C487.819,2245.76 485.655,2251.76 480.791,2256.97C478.044,2259.91 474.652,2261.94 471.308,2264.39C468.176,2266.68 465.822,2268.22 460.997,2270.16C459.942,2268.4 461.978,2266.2 461.411,2263.57C453.924,2265.71 442.223,2268.95 437.493,2274.28C433.501,2267.69 432.056,2254.82 434.608,2245.42C429.99,2241 425.464,2247.48 420.174,2247.49C419.398,2237.33 423.838,2229.8 429.247,2224.39C432.482,2221.16 436.972,2217.55 440.792,2217.79C438.472,2222.28 433.643,2224.44 430.484,2228.1C427.328,2231.76 424.983,2235.95 423.887,2241.71C429.272,2241.85 436.883,2240.7 440.38,2237.58C439.955,2245.24 433.291,2258.71 441.206,2264.39C448.386,2261.15 455.903,2259.96 460.174,2254.08C463.665,2249.27 463.439,2242.43 468.008,2237.58C471.367,2245.73 460.254,2254.14 466.771,2261.51C469.548,2261.47 470.595,2258.63 472.545,2256.97C476.486,2253.6 481.321,2251.2 481.613,2243.77C478.508,2250.7 474.088,2256.31 466.771,2259.03C463.441,2250.72 473.99,2243.93 468.421,2235.94C462.441,2239.93 463.36,2248.05 459.348,2253.26C455.107,2258.75 448.327,2259.39 441.206,2262.33C436.961,2253.69 441.069,2242.11 444.504,2235.11C445.962,2235.33 446.629,2234.76 446.978,2233.87C461.785,2233.94 465.13,2216.87 482.027,2219.03C484.356,2215.86 481.65,2210.93 481.205,2205.83C480.387,2196.45 479.968,2177.62 486.568,2176.15C487.359,2175.97 488.607,2176 489.452,2175.73C491.032,2175.22 492.598,2172.72 494.399,2174.08C496.618,2174.12 494.978,2175.87 495.221,2177.38C496.992,2175.58 496.293,2171.31 499.346,2170.78C499.04,2174.11 496.166,2178.41 498.935,2181.09C500.355,2174.66 506.423,2169.48 503.881,2161.71C499.772,2167.97 493.267,2171.93 485.738,2175.32C482.637,2176.72 479.968,2177.29 478.728,2180.68C480.014,2191.79 477.294,2205.14 481.205,2214.08C477.021,2219.15 470.53,2219 465.535,2222.33C459.897,2226.09 455.627,2233.89 445.741,2232.64C443.651,2228.36 444.187,2223.1 443.681,2218.2C441.061,2192.94 425.409,2177.23 409.042,2165.01C410.488,2158.47 415.893,2155.04 421.413,2150.58C432.788,2141.38 449.048,2133.85 467.597,2133.67C486.306,2133.5 508.392,2140.74 510.069,2159.65C511.119,2171.49 505.623,2181.08 501.409,2188.52C499.794,2191.36 497.743,2193.13 497.287,2197.59C497.179,2198.24 496.895,2198.92 496.977,2199.59C497.055,2200.27 496.727,2202.93 496.648,2202.24C496.558,2201.49 495.938,2200.36 496.159,2197.55C495.703,2197.11 495.505,2196.48 495.635,2195.53C494.205,2195.37 495.289,2197.74 494.585,2198.32C494.362,2199.83 494.107,2201.43 494.616,2202.91C494.937,2203.85 494.705,2206.16 494.384,2205.23C493.733,2203.34 492.911,2199.6 493.188,2197.69C493.195,2197.62 492.74,2196.35 492.747,2195.53C491.44,2195.82 491.155,2197.12 491.103,2198.66C491.473,2200.96 491.795,2204.76 490.928,2207.11C490.587,2208.04 490.17,2206.91 490.363,2205.93C490.928,2203.09 490.057,2201.07 489.698,2199.24C488.076,2205.56 489.728,2212.43 491.514,2216.97C492.456,2216.26 491.279,2210.51 491.26,2210.18ZM471.719,2138.62C468.83,2138.89 464.851,2138.08 462.646,2139.03C465.537,2138.76 469.514,2139.58 471.719,2138.62ZM476.254,2141.92C471.498,2141.82 464.614,2141.86 463.06,2143.16C466.46,2142.22 473.99,2142.64 476.254,2141.92ZM478.728,2145.22L470.071,2145.22C469.958,2146.07 468.244,2145.32 468.421,2146.45C471.364,2145.55 476.199,2146.54 478.728,2145.22ZM441.375,2178.59C436.428,2178.68 431.627,2176.34 428.082,2176.45C430.186,2179.21 437.667,2178.87 441.375,2178.59ZM444.377,2179.02C443.756,2179.26 442.161,2178.52 442.233,2179.45C442.856,2179.22 444.45,2179.95 444.377,2179.02ZM448.237,2179.45C447.178,2179.26 446.795,2179.41 446.78,2179.6C446.756,2179.88 447.658,2180.26 448.237,2179.45ZM452.527,2179.88C451.883,2179.95 450.943,2179.73 450.81,2180.31C451.453,2180.24 452.392,2180.46 452.527,2179.88ZM458.101,2180.31C455.906,2180.1 455.058,2180.33 455.063,2180.53C455.072,2180.79 456.399,2181.02 458.101,2180.31ZM449.864,2224.8C451.574,2209.59 447.783,2195.16 441.206,2188.93C446.714,2198.26 448.474,2211.35 449.864,2224.8ZM452.751,2202.12C451.503,2200.24 451.155,2198.28 450.688,2197.59C449.321,2195.55 450.313,2198.61 450.688,2200.47C451.322,2203.61 452.497,2208.8 453.164,2211.61C454.36,2208.66 453.003,2204.97 452.751,2202.12ZM442.443,2198.83C440.626,2195.02 442.859,2200.94 443.267,2202.12C445.295,2208 447.243,2215.76 446.567,2224.8C446.887,2224.71 447.046,2224.46 446.978,2223.98C447.761,2213.05 445.184,2204.58 442.443,2198.83ZM456.874,2205.83C456.984,2202.98 455.914,2201.3 454.814,2199.65C455.348,2201.86 455.753,2204.21 456.874,2205.83ZM481.926,2234.73C484.273,2231.02 487.486,2224.53 491.095,2224.39C488.764,2228.51 485.039,2233.45 484.501,2238C487.206,2231.08 492.986,2225.04 496.872,2220.68C495.818,2221.69 493.547,2221.48 492.336,2222.33C491.305,2221.99 491.032,2220.89 490.275,2220.27C490.098,2221.13 490.558,2221.36 490.689,2221.92C486.354,2224.73 483.432,2228.59 481.239,2233.54L480.47,2235.38C479.587,2237.94 478.119,2241.09 478.317,2243.36C479.266,2240.32 481.926,2234.73 481.926,2234.73ZM465.706,2181.33L466.665,2181.1C464.515,2180.83 459.469,2180.15 458.937,2181.09C461.482,2180.86 462.961,2181.69 465.415,2181.55L465.706,2181.33ZM469.711,2200.91C469.374,2200.92 469.035,2200.92 468.701,2200.97C467.054,2201.94 465.542,2202.31 465.122,2203.77C462.746,2212.03 475.926,2211.14 473.782,2203.77C473.356,2202.3 472.077,2201.89 469.711,2200.91ZM468.158,2189.6C468.842,2189.72 469.339,2189.76 469.838,2189.74C474.514,2189.5 475.373,2181.07 470.071,2181.09C471.178,2183.71 472.387,2182.51 472.545,2184.8C473.049,2192.16 461.306,2186.21 468.421,2181.92C467.627,2182.16 467.248,2182.27 466.932,2182.34L466.189,2182.51C464.326,2185.07 465.535,2188.72 468.158,2189.6ZM469.703,2191.01C469.269,2191.02 468.834,2190.99 468.398,2190.91C462.124,2190.27 462.124,2200.37 468.421,2199.65L469.68,2199.64C473.116,2198.14 473.124,2192.52 469.703,2191.01ZM304.303,2152.64C304.317,2150.84 303.945,2149.43 303.478,2148.1C299.58,2149.29 298.404,2153.2 296.881,2156.76C294.772,2155.61 295.646,2152.68 296.057,2151.4C297.253,2147.67 302.618,2144.19 305.54,2142.74C306.41,2144.21 306.194,2146.76 307.603,2147.69C311.277,2145.87 312.245,2141.34 316.674,2140.27C318.995,2142.21 319.087,2146.38 320.385,2149.34C320.252,2150.86 319.367,2151.62 319.148,2153.05C319.27,2153.89 320.264,2153.86 320.385,2154.7C321.328,2154 323.292,2154.31 324.095,2153.47C325.907,2157.26 321.465,2159.27 320.385,2162.12C319.216,2165.22 319.845,2168.39 318.735,2172.02C316.883,2170.62 317.25,2167.23 317.498,2165.01C317.859,2161.8 319.593,2158.93 320.385,2157.18C319.681,2155.94 318.885,2156.72 317.498,2156.76C316.381,2152.58 318.535,2147.3 315.849,2144.39C310.293,2146.81 307.99,2152.48 305.54,2158C304.255,2157.78 304.907,2155.61 304.303,2154.7C301.854,2155.12 301.58,2156.84 301.03,2160.02C300.806,2162.73 300.813,2165.47 300.526,2168.16C300.446,2168.9 299.442,2168.78 299.422,2168.04C299.126,2158.18 300.304,2152.49 304.303,2152.64ZM310.622,2177.02C310.056,2169.29 308.201,2160.89 312.363,2153.73C312.828,2152.93 314.029,2153.63 313.564,2154.43C309.609,2161.24 311.466,2169.57 312.006,2176.92C312.073,2177.84 310.689,2177.94 310.622,2177.02ZM295.179,2128.76C297.034,2125.86 300.335,2122.02 302.857,2119.72C303.16,2119.45 302.543,2121.05 302.241,2121.32C299.758,2123.58 296.9,2127.07 295.072,2129.93C294.854,2130.28 294.96,2129.11 295.179,2128.76ZM294.408,2130.37C294.839,2131.12 294.045,2131.84 293.828,2131.7C293.701,2131.61 293.772,2131.23 294.408,2130.37ZM361.147,2360.35C353.9,2356.46 349.323,2347.64 346.389,2340.42C346.104,2339.72 347.635,2340.38 347.92,2341.08C350.844,2348.27 356.342,2356.83 363.21,2360.51C363.875,2360.87 361.812,2360.7 361.147,2360.35ZM356.869,2346.15C353.564,2344.78 351.117,2339.91 348.843,2337.38C348.337,2336.82 349.99,2337.26 350.494,2337.82C352.568,2340.12 355.909,2344.75 358.814,2345.94C359.511,2346.23 357.566,2346.43 356.869,2346.15ZM356.662,2336.87C354.104,2335.8 350.866,2334.07 349.944,2330.94C349.731,2330.21 349.934,2329.11 350.147,2329.84C350.902,2332.4 355.726,2335.39 358.302,2336.46C358.999,2336.75 357.358,2337.16 356.662,2336.87ZM361.5,2347.12C361.947,2347.19 364.368,2348.05 364.719,2348.06C365.573,2348.12 363.458,2349.28 361.751,2348.41C361.614,2348.34 360.398,2347.58 360.245,2347.55C359.497,2347.44 360.755,2347.01 361.5,2347.12ZM354.293,2372.01C356.932,2375.96 358.609,2383.43 358.41,2388.1C358.391,2388.58 357.323,2385.88 357.343,2385.4C357.534,2380.88 355.509,2375.04 352.953,2371.22C352.686,2370.82 354.023,2371.62 354.293,2372.01ZM324.736,2324.08C321.773,2326.49 318.183,2330.63 319.785,2336.04C321.892,2334.63 321.289,2332.25 322.263,2330.26C324.344,2326.02 328.639,2323.14 333.806,2322.02C333.625,2321.65 333.444,2321.28 332.984,2321.19C329.287,2320.09 327.525,2321.82 324.736,2324.08ZM330.693,2306.04C331.288,2308.74 332.2,2311.13 333.58,2313.05C338.05,2312.17 338.568,2307.7 338.116,2302.32C337.992,2300.87 338.899,2298.43 337.292,2297.79C333.899,2299.76 337.087,2308.3 334.817,2311.4C332.253,2308.33 334.875,2300.07 332.756,2296.55C331.675,2298.77 330.683,2300.16 330.693,2306.04ZM326.985,2393.9C327.152,2393.36 325.354,2393.98 325.287,2393.96C320.463,2394.71 316.402,2389.89 311.871,2390.54C309.51,2393.41 311.109,2398.06 315.436,2399.4C320.357,2400.16 327.099,2396.66 326.985,2393.9ZM360.796,2275.53C366.654,2292.24 369.321,2311.62 364.068,2329.14C364.544,2329.23 364.376,2329.95 364.919,2329.96C371.333,2321.36 371.133,2303.47 368.218,2289.95C367.084,2284.7 365.143,2275.61 360.796,2275.53ZM363.088,2328.86C368.267,2311.59 365.642,2292.42 359.81,2275.8C358.106,2274.45 355.337,2272.28 353.374,2272.64C361.885,2285.71 364.568,2310.08 360.796,2330.37C362.384,2330.69 362.433,2329.47 363.088,2328.86ZM318.28,2114.32C318.193,2113.37 320.388,2110.88 319.897,2112.81C319.787,2113.25 319.471,2113.86 319.541,2114.3C320.353,2114.44 323.992,2113.89 324.095,2115.94C322.828,2120.31 321.334,2124.45 319.561,2128.31C321.758,2129.69 323.951,2131.07 324.508,2134.09C322.315,2136.14 318.83,2136.01 315.849,2136.97C313.11,2137.85 307.75,2140.69 307.75,2140.69C307.197,2141.16 306.489,2140.33 307.042,2139.86C311.388,2135.39 314.338,2133.12 319.974,2132.44C320.116,2128.72 314.537,2130.72 312.137,2129.55C315.133,2126.2 320.521,2123.12 319.561,2117.18C318.035,2116.45 316.805,2117.82 315.025,2118C313.325,2121.97 310.429,2124.66 307.603,2127.49C304.845,2130.24 301.346,2132.54 298.944,2135.32C295.842,2138.91 295.605,2143.88 291.519,2146.87C289.862,2146.33 290.348,2143.64 290.284,2141.51C290.673,2140.66 292.406,2141.16 292.345,2139.86C298.635,2129.51 310.751,2125 312.55,2110.17C308.57,2110.48 305.484,2112.08 302.654,2113.88C299.906,2115.63 297.782,2118.46 294.819,2118.83C295.855,2111.99 301.878,2109.14 309.665,2107.28C312.374,2106.63 315.294,2106.37 317.911,2105.63C320.652,2104.86 322.944,2103.03 324.921,2102.75C331.495,2101.79 336.042,2105.25 339.353,2108.11C339.241,2104.78 336.883,2103.7 336.466,2100.69C346.164,2100.47 349.31,2106.81 349.661,2115.94C360.979,2111.43 347.922,2097.17 344.04,2095.83C341.927,2095.1 338.918,2093.18 334.817,2092.85C312.467,2091.07 301.753,2100.89 294.408,2115.12C282.227,2138.7 292.67,2175.57 312.55,2186.45C314.423,2181.35 321.691,2178.71 322.448,2172.43C322.666,2170.61 321.526,2168.89 321.624,2167.07C321.818,2163.36 324.926,2159.34 326.984,2156.76C329.259,2153.91 332.05,2151.23 335.23,2149.34C336.119,2148.14 334.805,2147.3 336.054,2146.45L339.353,2146.45C337.531,2143.33 330.492,2145.42 326.158,2144.81C326.089,2140.47 326.244,2136.37 326.984,2132.85C328.883,2132.22 331.857,2131.8 333.58,2129.96C334.139,2128.18 333.774,2127.35 333.58,2125.43C330.423,2123.04 328.069,2125.75 324.508,2126.25C324.515,2119.78 326.177,2111.44 329.457,2106.87C327.536,2107.12 325.663,2108.59 325.745,2106.46C324.656,2107.43 323.4,2108.24 322.035,2108.93C321.216,2108.65 322.293,2106.47 320.798,2106.87C318.324,2108.39 316.21,2112.45 316.674,2115.53C317.069,2114.99 317.738,2114.72 318.28,2114.32ZM339.353,2115.53C336.377,2114.72 336.818,2108.89 333.993,2108.93C333.501,2108.94 331.043,2111.97 330.693,2112.64C329.449,2115.04 329.164,2118.77 329.044,2121.3C335.304,2121.39 341.766,2125.12 339.353,2131.2C332.231,2130.95 330.95,2136.54 329.457,2141.92C336.724,2140.54 344.709,2141.7 344.304,2149.34C342.364,2150.7 338.918,2150.56 336.466,2151.4C331.867,2156.15 326.277,2162.11 325.745,2169.55C333.974,2164.7 341.105,2156.63 351.311,2153.47C355.664,2152.12 361.067,2152.57 365.332,2149.75C362.661,2147.09 353.372,2144.66 353.374,2140.68C353.377,2135.97 360.979,2136.41 362.446,2132.02C358.018,2130.92 358.472,2126.29 353.787,2127.07C351.072,2127.53 350.416,2132.58 347.188,2132.44C345.565,2132.36 343.638,2130.41 343.478,2128.31C343.3,2126.01 345.509,2124.14 345.951,2120.89C346.063,2120.07 345.507,2118.63 345.54,2117.18C345.623,2113.46 347.018,2107.81 343.065,2107.28C342.473,2110.68 343.086,2115.27 339.353,2115.53ZM389.248,2127.9C386.971,2125.83 385.576,2122.81 383.476,2122.95C386.615,2129.3 389.785,2135.61 395.021,2139.86C395.014,2141.24 395.021,2142.61 396.671,2142.33C399.709,2134.93 392.908,2131.22 389.248,2127.9ZM372.754,2127.49C371.265,2126.78 370.959,2124.88 368.63,2125.01C368.835,2126.75 371.48,2128.2 372.754,2127.49ZM387.599,2143.57C384.173,2139.7 376.522,2139.25 369.455,2139.86C366.8,2140.09 363.439,2139.58 362.033,2141.51C374.835,2141.76 383.876,2145.78 394.196,2148.52C394.061,2146.38 390.87,2143.93 387.599,2143.57ZM382.65,2155.94C390.207,2155.29 397.811,2158.67 403.68,2155.94C397.896,2154.73 387.782,2152.82 382.65,2155.94ZM348.012,2216.14C345.301,2218.83 337.129,2224.55 333.169,2224.8C327.899,2225.14 323.71,2220.94 319.561,2218.2C320.706,2220.68 323.318,2223.62 326.158,2224.8C327.518,2225.37 329.5,2225.11 331.519,2225.63C333.122,2226.04 333.87,2226.99 335.23,2226.87C340.334,2226.4 342.675,2219.02 348.012,2219.44C349.097,2216.4 352.787,2215.97 352.55,2211.61C352.004,2211.6 352.173,2210.89 351.724,2210.78C350.936,2212.39 349.667,2214.5 348.012,2216.14ZM362.446,2223.98C359.395,2224.61 356.237,2223.86 355.849,2226.45C360.372,2225.46 367.004,2224.34 370.692,2222.74C371.99,2222.18 375.134,2221.32 373.578,2220.68C370.12,2221.11 366.257,2223.19 362.446,2223.98ZM324.921,2252.02C324.019,2244.84 322.332,2239.89 320.385,2234.29C318.519,2228.91 318.184,2224.48 312.55,2224.8C310.029,2231.22 307.35,2237.47 305.953,2245.01C311.81,2243.99 312.651,2237.96 315.025,2233.46C319.189,2242.36 322.657,2251.95 322.448,2265.22C326.877,2264.28 325.769,2258.76 324.921,2252.02ZM358.733,2230.99C358.864,2231.01 357.53,2231.63 356.955,2231.51C359.927,2236.27 371.105,2235.05 375.641,2232.64C376.388,2233.42 378.828,2234.65 380.177,2233.46C375.999,2229.93 368.215,2233.45 362.446,2232.64C360.871,2232.42 360.226,2231.26 358.733,2230.99ZM357.91,2257.38C353.06,2250.68 346.254,2245.94 336.054,2244.6C338.409,2247.99 340.011,2253.29 343.891,2255.32C345.079,2255.94 346.727,2255.55 348.012,2256.14C353.52,2258.66 354.986,2266.91 362.446,2266.86C362.734,2265.06 361.254,2265.03 361.209,2263.57C359.4,2263.13 359.854,2264.96 358.32,2264.8C354.098,2258.85 347.943,2254.84 342.654,2249.96C348.944,2247.77 354.014,2255.83 357.91,2257.38ZM342.654,2261.51C342.845,2260.21 342.293,2259.66 341.003,2259.85C341.053,2260.9 341.602,2261.45 342.654,2261.51ZM340.592,2264.8C340.86,2267.69 342.316,2269.4 345.127,2269.75C345.983,2267.51 342.517,2264.27 340.592,2264.8ZM345.951,2277.17C345.04,2276.3 345.882,2273.67 343.891,2273.87C342.396,2275.45 344.722,2278.37 345.951,2277.17ZM347.601,2294.49C343.265,2308.53 346.642,2324.58 357.084,2328.31C361.762,2313.16 358.98,2291.78 352.963,2280.06C352.156,2285.71 348.953,2290.11 347.601,2294.49ZM343.065,2288.3C345.837,2287.92 344.32,2283.24 344.714,2280.47L343.478,2280.47C342.716,2282.46 343.198,2285.69 343.065,2288.3ZM368.945,2344.29C365.799,2342.55 363.075,2342.24 361.62,2340.67C366.541,2341.34 365.315,2333.41 365.332,2332.84C350.22,2335.75 341.955,2320.02 343.065,2303.15C343.181,2301.39 344.26,2299.61 343.478,2297.79C343.295,2297.43 343.115,2297.05 342.654,2296.96C337.219,2302.56 343.485,2312.85 341.828,2320.88C341.406,2322.93 339.506,2324.03 339.353,2326.24C341.262,2330.17 343.605,2327.67 347.41,2337.42C346.564,2338.33 344.053,2336.11 343.891,2338.2C344.436,2344.92 348.593,2351.22 352.55,2355.93C356.548,2360.7 361.898,2365.21 369.455,2365.83C369.298,2363.92 368.743,2362.43 368.229,2360.89C364.654,2354.87 361.833,2355.45 362.033,2353.46C364.112,2353.28 363.991,2353.6 367.572,2352.24C368.151,2351.91 369.377,2351.01 369.455,2350.98C371.615,2348.86 370.946,2346.16 369.048,2344.34L368.945,2344.29ZM506.143,2248.62L496.797,2248.62C496.797,2251.2 498.891,2253.3 501.472,2253.3C504.054,2253.3 506.143,2251.2 506.143,2248.62ZM506.027,2429.18C506.027,2426.6 503.933,2424.51 501.356,2424.51C498.773,2424.51 496.681,2426.6 496.681,2429.18C496.681,2431.76 498.773,2433.85 501.356,2433.85C503.933,2433.85 506.027,2431.76 506.027,2429.18ZM536.255,2277.77C536.255,2275.19 534.161,2273.1 531.584,2273.1C529.001,2273.1 526.913,2275.19 526.913,2277.77C526.913,2280.35 529.001,2282.44 531.584,2282.44C534.161,2282.44 536.255,2280.35 536.255,2277.77ZM536.255,2338.22C536.255,2335.64 534.161,2333.55 531.584,2333.55C529.001,2333.55 526.913,2335.64 526.913,2338.22C526.913,2340.8 529.001,2342.89 531.584,2342.89C534.161,2342.89 536.255,2340.8 536.255,2338.22ZM536.255,2398.68C536.255,2396.1 534.161,2394.01 531.584,2394.01C529.001,2394.01 526.913,2396.1 526.913,2398.68C526.913,2401.26 529.001,2403.35 531.584,2403.35C534.161,2403.35 536.255,2401.26 536.255,2398.68ZM475.649,2277.77C475.649,2275.19 473.557,2273.1 470.977,2273.1C468.395,2273.1 466.305,2275.19 466.305,2277.77C466.305,2280.35 468.395,2282.44 470.977,2282.44C473.557,2282.44 475.649,2280.35 475.649,2277.77ZM475.649,2338.22C475.649,2335.64 473.557,2333.55 470.977,2333.55C468.395,2333.55 466.305,2335.64 466.305,2338.22C466.305,2340.8 468.395,2342.89 470.977,2342.89C473.557,2342.89 475.649,2340.8 475.649,2338.22ZM475.649,2398.68C475.649,2396.1 473.557,2394.01 470.977,2394.01C468.395,2394.01 466.305,2396.1 466.305,2398.68C466.305,2401.26 468.395,2403.35 470.977,2403.35C473.557,2403.35 475.649,2401.26 475.649,2398.68ZM415.039,2277.77C415.039,2275.19 412.948,2273.1 410.369,2273.1C407.789,2273.1 405.698,2275.19 405.698,2277.77C405.698,2280.35 407.789,2282.44 410.369,2282.44C412.948,2282.44 415.039,2280.35 415.039,2277.77ZM415.039,2338.22C415.039,2335.64 412.948,2333.55 410.369,2333.55C407.789,2333.55 405.698,2335.64 405.698,2338.22C405.698,2340.8 407.789,2342.89 410.369,2342.89C412.948,2342.89 415.039,2340.8 415.039,2338.22ZM415.039,2398.68C415.039,2396.1 412.948,2394.01 410.369,2394.01C407.789,2394.01 405.698,2396.1 405.698,2398.68C405.698,2401.26 407.789,2403.35 410.369,2403.35C412.948,2403.35 415.039,2401.26 415.039,2398.68ZM445.457,2308.18C445.457,2305.6 443.367,2303.51 440.785,2303.51C438.205,2303.51 436.115,2305.6 436.115,2308.18C436.115,2310.76 438.205,2312.85 440.785,2312.85C443.367,2312.85 445.457,2310.76 445.457,2308.18ZM445.457,2368.64C445.457,2366.06 443.367,2363.97 440.785,2363.97C438.205,2363.97 436.115,2366.06 436.115,2368.64C436.115,2371.22 438.205,2373.31 440.785,2373.31C443.367,2373.31 445.457,2371.22 445.457,2368.64ZM381.835,2303.28L381.835,2312.62C384.418,2312.62 386.508,2310.53 386.508,2307.95C386.508,2305.37 384.418,2303.28 381.835,2303.28ZM381.558,2363.91L381.558,2373.26C384.137,2373.26 386.228,2371.16 386.228,2368.58C386.228,2366 384.137,2363.91 381.558,2363.91ZM445.457,2429.1C445.457,2426.52 443.367,2424.43 440.785,2424.43C438.205,2424.43 436.115,2426.52 436.115,2429.1C436.115,2431.68 438.205,2433.77 440.785,2433.77C443.367,2433.77 445.457,2431.68 445.457,2429.1ZM506.027,2308.26C506.027,2305.68 503.933,2303.59 501.356,2303.59C498.773,2303.59 496.681,2305.68 496.681,2308.26C496.681,2310.84 498.773,2312.93 501.356,2312.93C503.933,2312.93 506.027,2310.84 506.027,2308.26ZM506.027,2368.72C506.027,2366.14 503.933,2364.05 501.356,2364.05C498.773,2364.05 496.681,2366.14 496.681,2368.72C496.681,2371.3 498.773,2373.39 501.356,2373.39C503.933,2373.39 506.027,2371.3 506.027,2368.72ZM559.233,2312.36L559.233,2303.02C556.654,2303.02 554.562,2305.1 554.562,2307.69C554.562,2310.26 556.654,2312.36 559.233,2312.36ZM559.176,2373.39L559.176,2364.05C556.595,2364.05 554.507,2366.14 554.507,2368.72C554.507,2371.3 556.595,2373.39 559.176,2373.39ZM475.649,2459.22C475.649,2456.64 473.557,2454.55 470.977,2454.55C468.395,2454.55 466.305,2456.64 466.305,2459.22C466.305,2461.8 468.395,2463.9 470.977,2463.9C473.557,2463.9 475.649,2461.8 475.649,2459.22ZM339.958,2391.68C343.078,2387.65 343.791,2381.22 346.114,2376.39C348.171,2380.73 345.582,2387.16 346.938,2392.06C350.808,2391.95 349.572,2386.72 353.123,2386.29C353.914,2387.48 352.215,2389.04 352.297,2390.82C356.288,2397.32 352.596,2407.38 352.71,2414.33C356.656,2414.15 358.199,2411.57 361.37,2410.62C364.848,2402.64 362.797,2389.14 362.606,2380.51C365.973,2382.37 367.96,2385.6 372.502,2386.29C374.406,2381.56 369.911,2373.97 368.878,2372.57C367.888,2371.14 367.478,2370.89 367.435,2370.81C362.6,2365.94 355.72,2362.79 350.9,2357.17C347.177,2352.83 344.632,2348.34 341.828,2342.33C341.754,2349.21 340.692,2355.11 338.17,2359.55C337.914,2360.2 337.27,2362.76 337.212,2363.46C337.165,2364.01 336.62,2362.02 336.667,2361.46C336.745,2360.53 338.994,2352.22 339.353,2348.51C339.704,2344.9 340.87,2338.59 336.466,2338.61C336.922,2343.55 336.803,2346.97 334.817,2353.04C334.387,2354.24 332.55,2358.33 332.227,2359.6C332.033,2360.35 332.203,2357.16 332.397,2356.4C332.73,2355.11 335.323,2345.48 334.404,2341.5C333.801,2338.47 330.783,2341.8 329.87,2342.74C327.632,2345.89 326.406,2350.49 326.191,2354.83C325.881,2360.92 319.921,2361.14 319.83,2361.69C320.831,2363.17 325.672,2361.78 326.571,2363.35C323.305,2368.06 323.129,2375.86 320.798,2381.5C326.068,2382.36 327.324,2377.04 330.282,2376.96C329.489,2379.98 328.941,2382.99 327.808,2385.62C326.707,2388.17 324.469,2390.31 324.465,2392.57C324.695,2392.61 324.822,2392.92 327.415,2392.39C332.235,2390.84 334.568,2386.8 336.054,2381.91C336.126,2381.63 336.502,2379.43 336.599,2379.15C336.861,2378.4 337.707,2380.73 337.443,2381.49C337.343,2381.78 336.048,2391.17 338.247,2393.35C339.192,2392.6 339.958,2391.68 339.958,2391.68ZM531.263,2267.12L550.964,2249.04L513.118,2248.97L531.263,2267.12ZM501.162,2257.63L481.366,2277.84L501.568,2297.63L521.36,2277.43L501.162,2257.63ZM381.987,2295.16L400.131,2277.43L381.987,2259.69L381.987,2295.16ZM541.979,2277.84L559.196,2295.73L559.176,2260.38L541.979,2277.84ZM410.027,2288.14L390.648,2307.52L410.853,2327.73L430.231,2307.52L410.027,2288.14ZM470.643,2288.14L451.263,2307.52L471.465,2327.73L490.849,2307.52L470.643,2288.14ZM531.263,2288.14L511.878,2307.52L532.084,2327.73L551.465,2307.52L531.263,2288.14ZM440.541,2318.25L420.748,2338.45L440.953,2358.24L460.746,2338.04L440.541,2318.25ZM501.162,2318.25L481.366,2338.45L501.568,2358.24L521.36,2338.04L501.162,2318.25ZM381.576,2356.18L400.131,2338.04L381.576,2319.89L381.576,2356.18ZM541.979,2338.45L559.285,2356.91L559.176,2321L541.979,2338.45ZM410.027,2348.76L390.648,2368.14L410.853,2388.35L430.231,2368.14L410.027,2348.76ZM470.643,2348.76L451.263,2368.14L471.465,2388.35L490.849,2368.14L470.643,2348.76ZM531.263,2348.76L511.878,2368.14L532.084,2388.35L551.465,2368.14L531.263,2348.76ZM440.541,2378.86L420.748,2399.07L440.953,2418.86L460.746,2398.66L440.541,2378.86ZM501.162,2378.86L481.366,2399.07L501.568,2418.86L521.36,2398.66L501.162,2378.86ZM388.173,2409.79C390.317,2407.86 400.131,2398.66 400.131,2398.66C400.131,2398.66 396.482,2395.42 395.595,2394.53C390.947,2389.89 386.615,2384.95 382.398,2381.34C383.108,2392.04 385.15,2401.4 388.173,2409.79ZM541.979,2399.07C541.979,2399.07 549.742,2405.59 553.531,2409.37C555.889,2401.29 559.215,2391.97 558.475,2382.16C554.061,2386.58 541.979,2399.07 541.979,2399.07ZM410.027,2409.37C410.027,2409.37 403.731,2416.5 396.419,2423.81C402.102,2431.05 408.835,2437.23 415.387,2443.6C421.609,2437.38 430.231,2429.58 430.231,2429.58L410.027,2409.37ZM470.643,2409.37L451.263,2428.76L471.465,2448.97L490.849,2428.76L470.643,2409.37ZM531.263,2409.37L511.878,2428.76C511.878,2428.76 521.578,2438.86 526.312,2443.6C530.347,2439.86 541.776,2428.6 545.282,2422.98C541.044,2418.75 531.263,2409.37 531.263,2409.37ZM337.042,2418.45C337,2418.79 336.808,2420.56 337.453,2421.75C338.524,2423.72 345.832,2424.97 348.587,2424.64C353.102,2424.09 358.556,2418.38 358.072,2415.15C352.783,2421.04 338.009,2410.21 337.042,2418.45ZM460.746,2459.27L440.541,2439.48C440.541,2439.48 432.698,2448.15 427.345,2453.5C435.119,2458.78 442.07,2464.89 450.438,2469.58L460.746,2459.27ZM501.162,2439.48L481.366,2459.68C481.366,2459.68 487.632,2465.13 492.085,2469.58C499.484,2463.78 507.648,2458.76 514.761,2452.68C509.165,2447.8 501.162,2439.48 501.162,2439.48ZM470.643,2469.99L462.808,2478.24L471.057,2482.78L478.892,2477.41L470.643,2469.99ZM338.025,2167.86C345.269,2162.81 356.816,2158.94 366.591,2157.2C369.911,2155.71 374.383,2155.37 376.053,2152.23C359.397,2153.16 344.965,2158.45 338.025,2167.86ZM385.131,2167.15C386.551,2166.01 386.917,2165.48 387.599,2164.19C382.465,2160.45 375.163,2164.35 368.63,2164.19C367.14,2164.58 368.056,2162.56 367.806,2161.71C365.558,2161.53 364.416,2162.45 362.033,2162.12C361.96,2159.03 366.249,2160.29 367.806,2158.83C367.794,2158.43 367.301,2158.51 366.982,2158.41C356.349,2159.3 346.175,2163.13 337.832,2169.37C330.535,2175.58 316.135,2191.16 322.448,2205.42C323.718,2208.3 328.031,2212.97 331.519,2214.91C333.197,2215.84 337.983,2217.33 340.179,2216.14C343.268,2214.47 346.781,2209.47 346.775,2203.77C354.152,2201.62 358.085,2206.11 360.383,2210.37C361.375,2209.7 362.253,2208.05 362.858,2206.66C364.133,2203.72 365.283,2198.17 360.796,2197.17C358.068,2196.57 355.955,2200.01 352.963,2199.65C350.934,2199.41 348.914,2197.23 349.25,2193.88C349.734,2189.04 356.955,2187.08 363.682,2188.93C371.338,2191.04 380.102,2203.85 373.168,2214.08C378.561,2215.28 385.327,2215.12 389.66,2217.38C387.726,2221.63 383.59,2223.68 381.001,2227.28C388.164,2228.77 394.369,2231.23 394.196,2240.06C391.044,2239.4 386.251,2238.78 381.826,2239.24C377.905,2239.64 374.759,2241.62 371.105,2242.12C359.976,2243.65 350.472,2237.35 338.529,2238.41C345.589,2242.45 354.448,2242.57 359.97,2247.49C366.283,2253.1 370.918,2262.83 370.692,2274.7C369.184,2275.25 367.729,2275.86 366.158,2276.35C368.863,2284.85 372.717,2294.83 373.168,2305.63C373.606,2316.18 369.551,2325.59 367.096,2334.09C366.895,2335.47 367.002,2336.87 366.556,2338.2C366.165,2339.57 367.169,2341.29 368.413,2342.3C368.54,2342.31 373.416,2345.37 374.817,2346.86C373.89,2349.27 367.118,2354.56 366.158,2354.69C366.524,2355.97 371.841,2363.4 371.928,2366.24C372.312,2368.41 368.962,2366.85 368.218,2367.89C367.879,2369.06 368.237,2369.39 368.63,2369.95C368.969,2370.29 369.268,2370.68 369.567,2371.15C371.972,2374.17 374.4,2377.24 375.388,2381.75C376.117,2337.61 375.691,2288.9 375.801,2242.79L418.273,2242.79L418.292,2248.93L392.68,2248.99L410.027,2267.12L431.242,2247.76C429.985,2253.91 430.198,2260.14 431.7,2266.09L420.748,2277.43L440.541,2297.63L467.521,2269.6C469.079,2268.72 470.654,2267.68 472.56,2266.29C475.926,2263.82 479.524,2261.63 482.398,2258.55C486.638,2254.01 490.64,2248.32 493.726,2242.79L565.899,2242.79L565.899,2312.06C565.899,2335.4 566.892,2358.62 565.899,2381.34C564.389,2415.64 549.466,2430.83 530.022,2447.72C512.057,2463.34 492.008,2477.85 471.057,2490.61C450.801,2478.57 430.609,2464.55 412.916,2449.37C395.5,2434.45 377.601,2417.18 376.214,2386.7C375.411,2387.95 374.921,2389.53 374.152,2390.82C370.908,2389.94 369.128,2387.6 366.319,2386.29C367.006,2402.11 364.066,2421.61 351.061,2426.28C346.528,2427.91 335.523,2425.91 334.567,2420.51C333.838,2416.4 336.078,2414.69 338.276,2412.68C341.97,2412.02 344.019,2413.76 346.525,2413.09C351.731,2411.7 352.864,2399.78 350.648,2393.71C349.015,2392.4 347.393,2396.36 346.114,2395.36C344.765,2394.37 344.866,2391.93 343.638,2390.82C342.37,2391.13 341.649,2391.5 340.179,2393.45C337.911,2395.94 337.352,2396.68 335.643,2397.99C334.966,2396.61 335.119,2394.39 334.404,2393.04C329.089,2396.08 323.318,2404.12 314.997,2400.82C309.325,2398.23 306.706,2394.22 310.939,2389.21C312.78,2387.41 317.923,2389.61 319.974,2390.57C322.849,2389.32 324.981,2387.33 325.745,2383.97C323.158,2383.45 319.927,2385.85 315.849,2385.21C315.899,2385.02 317.245,2382.49 317.911,2381.09C319.976,2376.72 321.046,2370.78 322.448,2365.42C321.243,2363.46 317.753,2363.78 316.674,2361.7C316.718,2361.43 318.791,2360.81 320.385,2359.64C322.133,2358.5 324.201,2357.39 324.906,2355.45C323.691,2350.49 319.576,2349.38 317.911,2345.62C312.139,2332.59 325.806,2318.01 319.561,2304.8C322.995,2303.86 326.537,2305.61 329.864,2308.89C329.87,2308.45 329.407,2304.75 329.313,2304.32C328.547,2300.76 330.654,2297.42 330.282,2294.08C329.907,2290.72 326.533,2289.63 327.395,2286.66C329.517,2286.02 332.037,2288.26 335.643,2287.48C335.917,2281.16 331.269,2279.76 331.519,2273.46C326.899,2273.3 326.131,2277.95 322.448,2277.59C318.313,2277.18 318.696,2271.3 315.849,2268.1C311.767,2274.03 302.762,2281.41 292.345,2275.93C290.019,2274.71 286.604,2272.6 287.398,2268.92C288.033,2267.75 290.036,2269.49 291.932,2269.75C298.794,2270.68 302.781,2268.66 305.54,2264.39C307.582,2261.23 310.388,2254.93 307.19,2252.02C305.006,2251.33 302.536,2255.31 298.944,2253.26C297.458,2251.26 300.588,2250.95 300.591,2249.13C297.825,2233.98 301.733,2219.51 310.902,2213.67C310.224,2206.31 309.953,2196.39 312.137,2190.58C296.515,2177.53 284.526,2159.34 286.572,2130.79C287.88,2112.55 303.1,2094.7 319.148,2090.79C332.138,2087.62 342.88,2091.86 350.032,2098.6C351.418,2099.95 352.239,2101.3 353.226,2102.52C356.779,2105.23 355.427,2113.42 353.787,2117.18C356.41,2118.54 360.25,2118.69 364.095,2118.83C365.812,2118.76 368.517,2118.06 366.571,2115.94C362.518,2112.14 365.621,2110.3 373.168,2112.64C375.267,2113.51 376.261,2114.41 378.527,2114.29C383.691,2114.02 387.513,2106.34 392.135,2106.46C395.442,2106.54 400.311,2111.64 396.258,2115.94C393.977,2117.18 391.02,2115.21 388.837,2116.35C387.383,2121.76 392.658,2123.73 397.084,2124.6C398.261,2125.85 397.66,2126.72 398.321,2127.9C399.682,2130.34 403.058,2131.3 404.093,2133.67C405.182,2136.18 404.727,2139.5 405.33,2142.33C405.876,2144.89 407.148,2148.63 407.804,2149.34C409.104,2150.34 410.815,2152.33 413.616,2151.46C414.274,2150.95 413.484,2152.13 412.783,2152.93C410.016,2156.39 405.607,2159.38 403.68,2164.19C398.399,2166.19 390.209,2165.28 385.95,2168.31L384.516,2169.38C383.031,2170.6 382.295,2171.26 381.413,2172.43C383.061,2176.28 387.734,2177.11 392.546,2177.8C392.369,2181.23 386.358,2182.3 385.126,2186.04C387.306,2190.35 395.929,2189.86 401.207,2189.75C400.761,2194.12 396.369,2194.54 396.258,2199.24C400.538,2201 408.327,2199.26 413.164,2200.47C413.023,2201.25 411.958,2201.04 408.63,2203.77C406.235,2205.74 404.387,2208.05 403.268,2211.2C407.675,2212.43 411.415,2214.32 416.876,2214.49C417.113,2214.52 417.37,2214.39 417.568,2214.38C420.156,2214.24 418.539,2215.26 417.834,2215.44C417.656,2215.48 406.513,2225.02 404.093,2232.64C406.285,2234.53 410.504,2232.48 412.339,2231.4C414.275,2232.08 416.618,2232.35 418.938,2232.64C416.836,2238.1 403.782,2234.55 400.796,2238C398.999,2227.24 406.255,2222.04 411.928,2217.38C408.889,2214.59 401.551,2216.01 396.671,2216.14C397.813,2210.28 401.811,2207.26 405.33,2203.77C401.629,2201.08 395.745,2202.78 391.722,2204.19C391.313,2199.52 392.865,2196.81 395.021,2194.7C390.693,2191.88 383.289,2192.14 379.764,2188.52C380.326,2183.86 383.806,2182.11 386.363,2179.45C383.643,2178.73 379.799,2179.13 376.466,2179.03C359.062,2180.76 340.618,2192.23 341.49,2211.37C341.531,2212.29 340.135,2212.47 340.135,2210.12C340.135,2189.92 358.493,2179.51 376.108,2177.64C377.84,2177.58 378.14,2177.61 378.94,2177.38C378.501,2175.07 377.126,2173.7 374.817,2173.26C374.817,2173.26 371.841,2172.96 370.825,2173.59C370.443,2173.82 369.87,2173.68 370.261,2173.46C371.574,2172.72 373.208,2172.72 374.453,2172.45C377.545,2171.18 380.607,2169.84 383.476,2168.31C383.476,2168.31 384.27,2168.03 385.131,2167.15ZM431.722,2021.51C433.649,2023.86 432.823,2027.27 434.196,2029.35C438.322,2035.6 447.664,2028.42 454.4,2030.17C454.349,2034.25 448.812,2032.8 444.918,2033.88C442.054,2034.68 439.533,2037.28 437.08,2037.6C430.009,2038.51 424.261,2033.52 424.298,2028.11C424.327,2024.27 427.384,2020.59 431.722,2021.51ZM439.689,2226.68C440.215,2226.03 442.612,2225.2 442.085,2225.84C441.627,2226.41 439.52,2228.36 439.048,2228.89C438.575,2230.14 437.24,2230.6 436.67,2231.81C437.582,2232.57 439.33,2230.64 440.792,2230.58C441.17,2232.12 441.727,2233.49 442.032,2235.11C438.9,2238.03 433.741,2238.92 428.01,2239.24C426.616,2231.82 431.963,2228.08 436.328,2224.94C436.365,2224.82 440.594,2221.92 440.594,2222.76C440.594,2223.08 437.792,2225.28 437.413,2225.55C435.804,2227.87 435.386,2227.92 434.608,2229.34C436.372,2229.59 439.21,2227.26 439.689,2226.68ZM367.395,2174.08C367.522,2173.52 368.426,2173.74 369.042,2173.67C368.915,2174.23 368.011,2174.01 367.395,2174.08ZM334.69,2204.75C337.287,2189.45 350.64,2177.66 365.147,2174.17C365.586,2174.07 366.683,2174.26 366.244,2174.37C351.943,2177.81 337.795,2189.86 335.359,2204.86C334.796,2208.33 334.615,2205.19 334.69,2204.75ZM437.906,2210.78C437.605,2211.91 438.725,2211.61 438.73,2212.43C437.162,2214.46 430.162,2214.45 421.221,2221.27C420.736,2221.64 420.897,2220.31 421.238,2219.81C421.905,2218.81 422.995,2218.42 423.956,2217.82C423.956,2217.82 432.477,2212.36 437.906,2210.78ZM427.598,2193.46L427.598,2195.94C424.823,2195.58 424.414,2195.29 418.995,2195.13L417.907,2195.13C417.061,2195.13 417.061,2193.86 417.907,2193.86C417.907,2193.86 425.15,2192.49 427.598,2193.46ZM411.701,2187.61L411.701,2185.55C414.301,2186.14 416.323,2186.56 420.773,2186.79C421.552,2186.97 423.258,2186.22 422.833,2187.61C423.416,2188.93 414.803,2187.53 411.701,2187.61ZM435.019,2204.6L435.019,2207.07C430.181,2206.65 426.192,2210.53 423.063,2207.07C426.121,2205.32 430.081,2204.47 435.019,2204.6ZM432.133,2201.3C428.331,2202.26 420.706,2203.06 418.113,2200.47C421.275,2197.13 425.296,2198.1 430.484,2198.83C429.767,2200.92 432.274,2199.78 432.133,2201.3ZM513.78,2099.04C502.215,2097.4 497.986,2088.44 492.336,2080.89C484.732,2081.98 487.748,2091.37 490.275,2098.21C492.68,2104.72 496.117,2111.14 495.822,2120.35C493.248,2119.48 489.777,2118.23 486.979,2117.59C486.31,2107.88 480.649,2100.9 480.791,2089.55C480.918,2079.26 488.592,2072.16 497.287,2073.06C509.225,2074.29 511.111,2087.16 513.78,2099.04ZM399.554,2056C406.206,2054.47 412.857,2058.71 413.06,2065.76C413.306,2074.23 406.108,2078.08 399.178,2076.26C388.894,2073.58 389.43,2058.34 399.554,2056ZM490.689,2033.88C488.772,2032.92 487.834,2030.97 485.738,2030.17C486.029,2032.5 488.185,2035.14 490.689,2033.88ZM491.514,2053.68C488.555,2052.53 488.212,2045.68 487.39,2044.6C487.584,2048.54 488.163,2054.27 491.514,2053.68ZM449.864,2063.57C452.702,2059.53 459.396,2057.16 460.586,2052.85C458.169,2057.31 451.034,2059.24 449.864,2063.57ZM468.008,2057.8C466.285,2057.59 465.214,2058.03 464.297,2058.62C463.636,2060.04 463.034,2063.67 463.472,2064.81C465.68,2063.03 467.4,2060.76 470.48,2059.86C469.985,2057.56 471.352,2054.98 470.897,2054.09C470.101,2055.5 469.016,2056.61 468.008,2057.8ZM473.367,2068.93C472.25,2072.72 468.424,2074.7 468.008,2077.59C472.989,2074.36 475.881,2064.73 474.193,2058.21C473.636,2062.19 474.3,2065.77 473.367,2068.93ZM459.76,2062.75C460.05,2061.66 461.638,2061.88 461.823,2060.68C460.75,2060.74 459.133,2062.36 459.76,2062.75ZM446.978,2073.47C445.66,2073.41 446.071,2071.63 445.329,2070.99C444.359,2072.5 442.702,2073.32 442.855,2075.94C444.405,2076.87 445.25,2074.09 447.389,2074.29C447.436,2075.07 448.754,2074.58 448.627,2075.53C447.711,2077.91 445.263,2078.76 444.092,2080.89C445.984,2080.86 446.748,2079.7 449.038,2080.07C450.154,2080.19 449.779,2081.8 450.688,2082.13C454.405,2079.52 453.872,2070.47 455.226,2066.87C452.523,2069.12 449.99,2071.53 446.978,2073.47ZM465.122,2073.47C465.273,2075.09 468.001,2070.44 467.597,2070.17C466.706,2071.2 466.295,2072.72 465.122,2073.47ZM469.148,2087.64C469.238,2087.13 469.305,2086.54 469.35,2086.03C469.49,2084.42 471.114,2082.92 471.01,2083.66L470.429,2088.16C470.166,2101.9 479.631,2105.9 482.389,2116.61C478.429,2116.18 477.959,2112.25 475.791,2110.02C475.284,2110.13 474.879,2110.67 475.395,2111.49C476.023,2112.72 477.249,2114.55 477.943,2115.12C478.691,2115.74 476.763,2114.96 475.937,2114.46C474.488,2113.56 473.34,2111.09 473.201,2110.86C471.585,2111.86 474.932,2113.17 473.318,2114.55C471.367,2114.03 470.825,2112.1 469.606,2110.84C469.206,2110.85 469.29,2111.35 469.195,2111.67C469.305,2112.14 469.665,2112.57 469.7,2113.08C469.744,2113.75 469.864,2114.68 468.692,2113.14C468.624,2113.05 467.111,2111.14 467.133,2110.43C466.069,2110.74 467.436,2113.48 465.898,2113.32C464.351,2113.35 464.489,2111.7 464.246,2110.43C463.74,2110.61 463.4,2110.96 463.423,2111.67L463.758,2112.8L464.121,2113.95C464.121,2113.95 464.232,2115.46 463.234,2114.01L462.788,2113.13C462.62,2112.63 461.338,2111.14 461.36,2110.43C460.418,2111.14 461.208,2113.58 460.946,2114.97C458.742,2114.56 458.795,2111.9 457.649,2110.43C456.71,2111 457.496,2113.3 457.238,2114.55C454.924,2113.43 453.541,2111.38 451.876,2109.61C450.586,2111.6 453.245,2113.17 453.113,2115.38C452.825,2116.19 452.088,2115.74 450.638,2116.2C447.004,2111.04 438.407,2110.84 437.442,2103.01C440.242,2102.11 443.238,2104.13 446.104,2103.01C445.64,2101.96 445.089,2101 444.454,2100.12C443.354,2101.81 441.12,2103.36 437.03,2101.77C436.329,2101.5 434.763,2099.68 433.733,2098.89C430.928,2096.72 429.255,2096.27 431.259,2092.7C432.812,2092.52 433.137,2093.57 433.733,2094.35C434.928,2091.75 437.084,2094.46 437.442,2091.88C440.698,2092.19 441.381,2095.09 442.392,2097.65C443.702,2095.43 439.576,2092.85 441.981,2090.64C443.756,2091.33 443.776,2093.79 444.867,2095.17C447.096,2094.58 444.133,2091.73 445.279,2091.05C445.407,2089.09 446.66,2091.78 447.752,2091.46C448.646,2091.53 447.941,2090 448.164,2089.4C450.569,2091.07 449.764,2087.93 451.05,2087.34C451.93,2087.15 451.835,2087.93 451.876,2088.58C452.514,2087.97 452.741,2086.97 452.701,2085.69C444.673,2091.55 428.867,2089.62 421.774,2096.41C414.43,2097.16 412.83,2092.16 405.693,2092.7C404.8,2091.4 404.59,2090.33 403.219,2089.4C399.733,2087.03 392.042,2088.24 390.435,2085.28C389.062,2082.74 391.083,2078.07 393.321,2076.2C396.921,2078.29 403.221,2079.92 407.343,2077.03C409.788,2079.11 412.684,2081.78 417.239,2082.39C423.063,2083.17 428.974,2081.24 432.908,2079.09C431.618,2077.83 429.859,2079.6 427.96,2079.09C428.315,2074.5 431.441,2072.68 434.145,2070.43C431.831,2067.87 431.564,2073.68 428.371,2072.91C428.369,2065.89 433.443,2063.96 437.03,2060.53C438.187,2060.04 439.876,2060.08 441.568,2060.12C441.805,2058.37 440.457,2058.21 439.505,2057.65C437.566,2057.63 437.674,2059.67 436.207,2060.12C433.314,2059.98 430.62,2060.03 429.61,2061.77C429.255,2063.78 430.789,2063.89 430.433,2065.9C422.181,2066.55 420.996,2054.49 411.054,2056.82C408.323,2053.51 402.01,2052.49 396.208,2053.53C395.485,2041.11 413.205,2054.35 415.588,2045.69C428.148,2043.12 436.579,2061.71 447.338,2052.29C451.111,2052.35 453.25,2050.78 455.999,2049.81C456.73,2047.64 456.667,2044.94 456.825,2043.22C458.981,2043.4 460.437,2044.28 463.009,2044.04L463.009,2046.93C463.905,2046.04 464.176,2044.52 464.66,2043.22C466.063,2043.19 466.196,2044.43 466.721,2045.28C468.453,2044.67 468.423,2042.31 469.606,2041.15C471.136,2040.87 470.635,2042.6 471.255,2043.22C472.929,2041.59 472.982,2038.35 474.554,2036.62C475.806,2036.6 474.954,2038.69 476.206,2038.68C478.877,2037.05 476.195,2033.52 475.38,2031.67C471.813,2037.11 469.427,2043.65 460.946,2043.22C456.172,2042.97 448.378,2038.09 446.927,2045.28C445.273,2045.68 443.309,2045.78 441.155,2045.69C440.665,2042.81 440.665,2039.91 441.155,2037.03C444.013,2032.59 458.396,2037.52 455.588,2028.78C450.866,2025.31 447.44,2031.6 441.155,2030.43C443.58,2025.26 433.859,2013.75 441.568,2012.29C444.125,2011.81 447.036,2016.21 449.815,2015.59C453.407,2014.79 451.277,2008.75 454.35,2007.34C457.704,2007.84 459.392,2010 463.009,2010.23C466.167,2008.41 463.463,2001.4 467.955,2001.57C468.886,2001.6 471.607,2005.2 471.666,2005.28C473.205,2007.35 474.166,2009.5 474.554,2009.82C477.203,2011.92 481.426,2011.23 485.689,2011.88C487.21,2012.11 491.149,2012.73 491.462,2014.35C491.529,2014.7 487.266,2019.05 486.926,2020.95C485.615,2028.25 491.989,2031.1 498.882,2030.85C499.638,2037.44 490.49,2037.17 489.399,2041.98C488.212,2047.23 495.154,2054.51 501.356,2054.35C501.461,2062.46 489.72,2060.19 486.515,2057.24C482.009,2053.08 486.306,2044.26 483.215,2039.09C483.578,2046.27 479.659,2052.15 476.621,2057.24C475.765,2062.95 478.751,2065.74 478.265,2070.02C477.196,2079.55 462.565,2083.56 458.886,2092.29C457.698,2092.24 456.187,2092.51 455.588,2091.88C455.773,2085.6 458.813,2082.18 460.535,2077.44C456.525,2077.42 458.676,2083.56 455.176,2084.04C456.341,2087.59 453.962,2092.59 456.825,2094.76C457.69,2093.01 459.61,2092.32 462.186,2092.29C463.292,2091.88 462.613,2089.69 463.423,2088.99C464.613,2087.79 464.398,2090.11 465.485,2090.22C466.397,2089.63 466.052,2087.77 466.721,2086.92C467.975,2087.32 467.618,2089.33 468.37,2090.22C469.539,2090.29 468.852,2089.09 469.148,2087.64ZM483.675,2052.03C485.099,2054.68 482.479,2056.51 482.853,2059.45C483.093,2060.81 484.411,2060.04 485.327,2059.86C486.246,2062.79 487.546,2065.34 487.39,2069.35C485.147,2072.45 479.771,2070.54 478.728,2067.7C478.758,2060.85 477.782,2053.01 483.675,2052.03ZM501.217,2173.17C501.138,2172.37 501.419,2170.06 501.542,2169.27C501.64,2168.62 502.604,2167.45 502.503,2168.1C502.394,2168.8 502.245,2170.84 502.312,2171.56C502.38,2172.22 501.282,2173.83 501.217,2173.17ZM524.857,2194.87C524.304,2194.58 522.87,2193.15 522.474,2192.73C521.704,2191.9 521.447,2190.45 521.914,2190.85L522.553,2191.47C523.524,2192.51 525.403,2195.14 524.857,2194.87ZM531.681,2182.77C532.458,2183.5 533.975,2185.26 534.965,2185.69C535.436,2185.89 535.94,2187.07 535.47,2186.87C534.326,2186.37 532.749,2184.88 531.868,2184.05C531.49,2183.7 531.307,2182.42 531.681,2182.77ZM592.046,2199.9C590.328,2187.93 579.907,2176.77 568.708,2172.38C568.35,2172.24 569.814,2172.23 570.174,2172.37C581.546,2176.83 590.702,2186.75 592.509,2198.94C592.774,2200.74 592.106,2200.28 592.046,2199.9ZM500.1,2206.78C506.355,2218.92 521.039,2218.58 533.485,2217.97C535.416,2217.87 537.651,2218.96 535.047,2219.05C522.826,2219.5 504.868,2219.39 498.624,2206.17C497.683,2204.17 499.708,2206.02 500.1,2206.78ZM416.053,2174.91C409.17,2176.3 402.844,2173.91 398.321,2171.61C399.199,2169.53 400.764,2171.3 402.855,2171.2C405.274,2171.09 408.376,2169.65 410.279,2169.96C413.106,2170.42 414.511,2173.26 416.053,2174.91ZM409.866,2178.21L419.351,2178.21L419.351,2180.68C416.677,2179.37 410.24,2181.82 409.866,2178.21ZM462.389,2130.23C463.12,2130.71 461.645,2130.72 460.917,2130.24L460.04,2129.89C459.516,2129.99 459.498,2131.12 460.04,2131.13C459.977,2132.16 458.643,2131.25 458.391,2131.13C455.863,2133.83 449.706,2132.89 445.607,2134.02C444.626,2132.39 443.451,2130.95 441.897,2129.89C441.459,2131.81 443.931,2132.19 442.72,2133.61C440.318,2133.54 440.346,2131.03 438.598,2130.31C436.936,2132.27 440.574,2132.44 439.835,2134.84C438.603,2134.84 438.431,2133.77 437.361,2133.61C436.499,2133.85 437.957,2135.16 437.773,2136.08C434.77,2135.23 433.766,2132.39 431.175,2131.13C431.49,2132.75 434.229,2135.49 435.71,2137.32C432.861,2138.64 431.413,2135.02 429.113,2134.43C429.304,2137.32 430.943,2135.92 431.002,2138.18C431.158,2143.93 414.519,2148.88 413.444,2140.2C413.188,2138.14 413.933,2134.74 415.505,2132.37C420.54,2124.77 443.015,2118.84 454.266,2117.94C469.314,2116.73 483.074,2118.93 494.264,2123.71C501.912,2126.98 507.065,2128.73 510.35,2134.43C510.062,2136.89 510.241,2139.82 507.872,2140.2C507.188,2138 506.624,2135.68 504.987,2134.43C503.915,2136.4 507.483,2138.87 505.809,2141.44C503.306,2141.61 503.516,2139.07 502.926,2137.32C501.311,2136.94 502.626,2139.49 501.689,2139.79C497.402,2138.3 498.169,2131.77 495.094,2129.07C495.729,2129.67 496.095,2134.1 496.117,2135.04C496.129,2135.58 495.752,2136.06 495.737,2135.52C495.718,2134.71 494.354,2132.28 494.264,2131.96C493.345,2132.14 494.1,2133.99 493.853,2134.84C489.646,2135.07 490.098,2130.62 488.487,2128.24C488.107,2128.55 488.264,2131.83 488.353,2132.49C488.435,2133.07 487.703,2131.04 486.852,2129.87C483.093,2126.64 480.664,2122.05 474.888,2120.82C473.613,2124.8 479.378,2127.19 477.36,2131.96C474.772,2130.14 473.767,2126.75 471.999,2124.12C471.104,2124.05 471.025,2124.6 471.585,2126.18C472.713,2128.1 473.153,2129.16 473.647,2130.31C472.776,2130.1 471.839,2129.35 470.349,2126.6C469.525,2124.78 469.73,2123.91 468.289,2123.71C468.302,2127.41 470.869,2128.55 470.762,2132.37C466.6,2130.81 464.971,2124.92 462.101,2122.88C462.667,2125.47 465.352,2129.12 466.394,2130.35C466.96,2131.02 464.331,2129.98 463.267,2128.79C462.161,2127.55 461.539,2126.17 460.481,2123.67C459.826,2122.66 459.803,2122.98 459.215,2122.88C459.01,2125.57 462.128,2130.06 462.389,2130.23ZM590.726,2354.56C594.647,2350.29 597.991,2343.86 599.818,2338.41C600.035,2337.77 600.647,2338.96 600.439,2339.6C598.57,2345.16 594.564,2351.68 590.529,2356.08C590.081,2356.57 590.275,2355.05 590.726,2354.56ZM592.737,2372.78C594.385,2365 596.321,2359.14 599.421,2351.88C599.613,2351.43 600.706,2350.64 600.516,2351.08C597.427,2358.32 594.542,2366.6 593.1,2374.35C593.01,2374.82 592.472,2374.02 592.737,2372.78ZM589.423,2347.26C591.03,2344.1 594.28,2342.01 595.176,2336.97C595.289,2336.32 596.066,2337.69 595.902,2338.32C594.953,2342.01 591.231,2345.09 589.487,2349.04C589.222,2349.64 589.124,2347.84 589.423,2347.26ZM623.85,2119.84C623.876,2119.25 624.448,2118.23 624.418,2118.82C624.396,2119.31 625.57,2124.1 624.702,2125.01C621.242,2124.21 620.147,2121.04 616.456,2120.48C615.914,2120.62 615.75,2120.18 615.219,2121.3C614.898,2122.68 616.318,2125.49 616.751,2126.16C620.667,2130.91 615.137,2136.16 610.268,2136.56C609.555,2131.99 614.117,2132.71 616.041,2130.79C616.172,2129.28 616.751,2128.55 614.337,2124.53C609.447,2118.14 620.645,2116.86 623.05,2121.3C623.806,2123.18 623.832,2120.19 623.85,2119.84ZM608.288,2411.28C606.572,2411.82 605.855,2411.96 602.889,2412.68C596.118,2413.65 590.947,2410.13 586.752,2407.45C587.465,2409.39 588.639,2412.08 590.873,2414.05C595.954,2418.51 610.213,2422.28 610.664,2412.81C610.751,2410.87 608.288,2411.28 608.288,2411.28ZM608.27,2410.21C610.567,2408.88 612.207,2410.53 612.731,2412.4C613.553,2415.35 610.556,2419.46 608.605,2420.23C605.803,2421.35 601.701,2420.99 599.123,2420.64C593.832,2419.94 588.317,2416.06 585.1,2411.99C580.74,2406.46 581.756,2400.03 578.506,2394.25C577.194,2393.35 576.294,2395.7 573.966,2395.08C574.294,2387.73 571.47,2377.69 576.025,2372.4C575.509,2369.62 571.462,2370.37 569.429,2369.1C568.784,2365.24 572.95,2362.76 574.38,2359.62L569.022,2359.62C568.17,2353 572.303,2352.69 570.651,2342.74C568.933,2338.36 569.836,2336.34 570.255,2334.05C572.998,2334.61 573.505,2337.4 576.443,2337.76C576.137,2336.13 574.825,2334.16 573.551,2331.99C569.672,2325.38 566.078,2316.01 566.881,2304.04C567.77,2290.77 572.692,2282.05 573.551,2280.03C571.182,2277.68 571.011,2274.48 569.844,2269.72C569.317,2267.58 568.223,2265.33 568.192,2263.95C568.107,2259.27 571.787,2253.95 573.966,2249.52C576.428,2244.51 578.998,2239.89 581.8,2237.15C567.652,2240.03 558.523,2238.8 539.586,2236.39C536.784,2236.21 535.077,2236.34 533.616,2236.76C532.585,2237.06 536.015,2233.86 537.658,2232.5C543.08,2226.84 544.497,2224.72 550.459,2222.72C548.689,2219.13 546.484,2215.97 545.516,2211.58C548.834,2209.95 552.798,2208.97 557.888,2209.11C553.366,2204.96 551.476,2195.23 552.522,2185.19C554.914,2181.67 558.568,2179.42 562.006,2176.94C560.57,2175.09 557.85,2174.5 555.825,2173.23C552.59,2172.47 549.526,2172.4 546.604,2172.65C544.978,2175.05 539.031,2175.76 536.959,2173.36C536.449,2172.89 536.026,2172.86 535.671,2172.85C534.983,2172.83 534.341,2172.34 534.931,2172.27C535.745,2172.16 536.788,2172.39 537.315,2172.54C539.535,2172.85 542.232,2173.18 543.45,2171.58C542.434,2167.52 539.355,2165.51 537.677,2162.1C543.074,2162.75 543.275,2168.6 546.339,2171.58C549.268,2171.41 552.409,2171.46 555.437,2172.07C572.236,2175.12 583.848,2182.79 589.076,2198.94C590.02,2201.85 589.222,2202.29 589.076,2201.68C588.339,2198.66 585.557,2191.8 581.391,2188.08C579.599,2193.73 581.569,2201.47 585.1,2203.75C586.322,2204.53 591.216,2205.52 592.936,2204.99C601.383,2202.35 605.123,2190.86 601.596,2179.83C600.127,2175.24 596.282,2171.44 592.525,2167.87C588.907,2164.44 585.118,2161.84 580.565,2159.21C569.21,2152.66 557.698,2150.86 543.039,2150.14C542.232,2150.21 541.384,2150.06 540.584,2150.17C541.698,2152.06 543.544,2153.23 543.865,2155.91C544.717,2156.99 544.736,2158.89 544.691,2160.86C543.326,2161.48 541.553,2159.47 540.154,2158.8C538.705,2158.1 537.21,2157.55 535.671,2157.19C534.8,2156.98 535.107,2155.68 535.977,2155.88C537.625,2156.27 539.206,2156.86 540.737,2157.56L542.628,2157.56L542.628,2156.33C540.831,2152.62 536.097,2151.86 531.494,2150.96C532.771,2148.45 536.561,2150.98 538.093,2148.9L540.154,2148.9C540.976,2148.82 541.837,2148.98 542.665,2148.86C543.214,2148.2 544.593,2148.37 544.691,2147.25C539.736,2144.67 530.089,2146.17 527.783,2150.14C528.777,2155.22 535.223,2156.96 533.145,2163.75C530.478,2163.94 530.478,2161.47 527.783,2161.69C526.712,2164.14 528.935,2166.85 529.02,2169.52C528.011,2170.3 526.068,2170.14 524.898,2170.76C525.082,2175.11 526.988,2177.74 526.957,2182.31C524.57,2182.36 522.153,2182.44 520.77,2181.48C519.021,2183.51 518.326,2186.59 517.126,2189.17C517.71,2193.74 521.779,2197.38 526.247,2198.82C528.258,2199.2 528.662,2199.76 529.724,2197.39C530.067,2195.83 530.474,2194.51 530.32,2193C530.38,2190.2 529.409,2188.04 528.19,2186.43C530.119,2185.3 532.222,2187.18 533.377,2188.31C534.304,2188.89 535.331,2189.27 536.303,2189.76C538.346,2189.98 539.437,2189.25 540.132,2188.12C540.371,2182.77 539.669,2182.44 539.706,2182.32C538.687,2180.49 537.416,2178.24 538.093,2176.12C539.407,2176.12 539.688,2175.83 541.806,2176.53C549.331,2180.39 550.923,2190.75 547.688,2199.34C540.633,2218.09 517.707,2219.17 502.996,2207.26C501.752,2206.25 500.755,2205.35 499.562,2204.47C498.875,2203.96 500.332,2203.64 503.807,2206.26C518.547,2217.35 539.863,2216.47 546.484,2198.88C549.601,2190.61 547.896,2181.2 541.257,2177.77L540.976,2182.24C541.489,2184.75 541.553,2184.57 541.422,2188.04C541.116,2190.83 541.238,2192.63 538.503,2198.39C529.685,2212.6 510.569,2209.59 499.354,2200.96C498.67,2200.43 500.309,2199.87 500.994,2200.39C512.012,2208.87 529.188,2210.9 537.341,2197.68C537.726,2196.26 538.519,2195.26 538.919,2193.85C538.705,2192 532.323,2189.32 532.323,2189.32C531.658,2190.4 533.361,2189.85 530.441,2200.48C528.497,2200.56 527.324,2200.54 525.821,2200.1C521.047,2198.55 516.455,2194.59 515.79,2189.33C514.344,2188.17 512.348,2187.56 510.877,2186.43C506.28,2176.31 514.201,2162.88 510.055,2152.2C512.106,2150.41 514.8,2149.25 516.238,2146.84C513.417,2147.32 512.573,2149.77 510.055,2150.55C508.462,2148.98 507.656,2146.62 506.751,2144.37C517.176,2140.78 516.87,2126.14 525.305,2120.45C528.184,2118.52 532.144,2118.99 536.03,2117.15C535.582,2115.36 534.662,2114.41 534.79,2113.03C531.576,2112.56 532.338,2116.07 529.02,2115.5C524.903,2111.49 530.294,2106.12 533.145,2103.96C543.032,2103.14 546.503,2108.74 547.987,2116.33C551.285,2115.05 555.563,2110.66 559.536,2113.85C559.715,2117.74 555.336,2117.07 555.406,2120.86C556.778,2122.45 559.173,2120.35 561.595,2120.04C564.546,2119.67 567.961,2120.32 571.077,2120.04C573.864,2124.16 575.038,2133.82 569.022,2133.65C566.952,2133.59 566.048,2131.36 564.483,2129.93C562.928,2131.13 561.296,2132.25 560.361,2134.06C564.83,2135.64 569.045,2137.47 568.603,2143.96C562.865,2141.41 558.811,2145.75 554.999,2147.67C558.778,2149.53 563.059,2150.05 566.957,2150.96C579.306,2153.88 589.565,2158.74 597.882,2165.81C602.314,2156.23 595.323,2148.64 587.988,2146.84C589.273,2144.72 590.888,2142.1 593.758,2141.48C597.954,2140.58 602.448,2143.46 605.718,2143.13C605.182,2141.22 603.744,2137.4 602.007,2136.12C600.05,2134.69 596.959,2135.43 594.997,2133.65C594.516,2125.61 600.64,2124.17 606.132,2122.1C604.428,2117.34 601.301,2114.01 597.06,2111.79C595.386,2111.91 595.274,2113.58 594.169,2114.26C593.533,2113.72 592.158,2113.9 591.74,2113.12C591.023,2112.82 590.597,2112.28 590.013,2111.78C586.527,2110.08 585.156,2102.7 587.159,2098.18C583.826,2099.45 579.566,2103.49 579.328,2107.67C578.95,2114.26 585.791,2117.76 587.159,2122.93C582.047,2123.9 576.973,2122.5 573.551,2120.04C567.348,2115.58 566.994,2104.31 571.492,2097.77C573.954,2094.2 578.191,2092.29 583.041,2090.76C586.673,2089.4 590.544,2088.87 594.326,2088.56C623.013,2088.84 641.082,2110.27 642.417,2138.59C643.149,2154.09 637.72,2165.65 631.283,2173.64C627.236,2178.68 622.625,2185.86 617.26,2190.55C615.256,2192.3 612.533,2193.42 611.901,2195.5C611.398,2197.18 612.058,2199.33 611.901,2200.86C611.274,2207.02 609.002,2212.04 607.368,2216.12C610.616,2216.22 614.053,2215 617.26,2216.12C619.535,2216.91 622.169,2219.62 623.45,2221.48C626.652,2226.13 627.012,2233.32 626.746,2239.21C626.612,2242.18 625.557,2245.63 626.335,2248.69C627.041,2251.47 630.68,2252.98 631.283,2255.29C629.611,2259.44 623.469,2258.77 620.562,2256.53C618.163,2254.68 618.637,2251.68 616.438,2250.76C613.818,2253.59 616.967,2257.86 616.852,2261.89C619.039,2263.92 619.221,2267.06 622.213,2267.66C625.345,2268.3 627.926,2264.89 631.283,2266.01C634.241,2269.03 631.01,2273.45 629.635,2275.91C625.854,2277.45 623.327,2279.31 618.5,2278.8C615.19,2278.44 612.607,2275.03 610.011,2277.33C609.442,2278.04 608.067,2282.1 608.292,2283.55C607.665,2288.51 612.368,2290.41 612.316,2294.46C612.275,2297.42 610.164,2298.39 609.016,2301.48C607.029,2302.44 602.74,2302.61 604.066,2305.6C606.804,2306.3 608.961,2301.49 612.731,2303.12C610.974,2309.26 615.653,2312.01 617.678,2316.32C619.666,2320.55 621.325,2325.73 620.562,2332.81C620.301,2335.24 619.747,2338.88 618.089,2341.47C615.017,2346.28 604.828,2346.28 609.838,2353.02C611.946,2355.85 616.963,2358.52 620.147,2358.8C620.786,2364.79 616.123,2365.48 612.316,2367.04C613.489,2371.43 620.928,2371.4 620.973,2375.7C621.018,2379.37 615.604,2380.18 611.079,2381.07C612.207,2383.64 613.979,2388.18 617.678,2388.48C620.88,2388.75 622.842,2384.96 626.335,2386.42C628.722,2388.5 626.988,2394.43 624.687,2395.9C618.418,2399.92 604.907,2394.08 602.419,2390.55C600.778,2390.69 600.953,2392.65 600.356,2393.84C598.846,2394.12 598.776,2392.95 597.471,2393.02C596.776,2395.22 595.578,2396.9 595.819,2400.03C593.915,2399.74 592.783,2398.67 590.873,2398.38C589.296,2406.55 595.408,2410.61 602.419,2411.57C602.419,2411.57 604.1,2412.19 608.27,2410.21ZM591.804,2306.38C591.882,2306.09 591,2303.04 590.066,2302.74C588.657,2307.05 588.335,2315.35 591.303,2316.76C590.895,2315.79 590.573,2314.74 590.477,2313.46C591.086,2310.91 595.895,2312.55 597.49,2310.98L597.49,2306.04C596.522,2305.21 594.864,2305.09 592.951,2305.21C592.827,2305.55 592.771,2305.93 592.678,2306.18C592.12,2307.76 591.605,2307.11 591.804,2306.38ZM572.408,2343.6C574.724,2351.33 572.071,2351.71 571.907,2356.73C574.13,2357.23 577.638,2355.81 578.091,2357.14C577.183,2361.73 573.087,2363.14 572.318,2367.86C575.031,2368.65 578.7,2369.03 581.8,2368.28C577.415,2373.35 574.657,2382.15 576.854,2391.37C579.899,2391.52 579.798,2386.35 581.8,2386.83C581.483,2390.58 582.488,2393.02 583.863,2395.08C584.731,2392.51 584.536,2388.88 586.337,2387.24C588.945,2390.13 590.319,2394.25 593.347,2396.73C594.953,2395.03 593.847,2390.63 594.169,2387.66C596.015,2388.56 596.372,2390.95 599.123,2390.95C600.348,2383.93 594.949,2380.02 594.997,2372.82C595.97,2372.69 595.768,2371.38 597.06,2371.57C601.268,2375.2 609.409,2379.61 616.852,2376.11C616.438,2374.65 614.648,2374.53 613.553,2373.64C610.213,2370.9 607.186,2366.76 605.718,2363.74C609.484,2365.05 615.78,2364.99 617.678,2362.09C616.22,2358.7 612.895,2359.79 610.257,2357.97C609.042,2357.13 606.738,2354.32 605.718,2352.6C602.631,2347.44 603.42,2340.36 605.303,2333.23C601.978,2331.63 594.953,2331.36 591.699,2333.23C591.126,2332.97 591.635,2331.64 590.873,2331.58C588.324,2335.21 585.067,2338.14 581.8,2341.06C577.597,2341.42 574.919,2341.6 571.794,2338.8C571.794,2340.17 571.936,2342.5 572.408,2343.6ZM613.979,2394.28C617.521,2394.56 628.103,2396.44 625.113,2389.33C620.154,2389.73 617.133,2392.07 613.979,2394.28ZM615.63,2390.57C614.689,2388.88 612.836,2388.31 611.509,2386.86C608.194,2383.22 606.753,2377.95 600.785,2377.79L599.96,2377.79C601.182,2385.59 606.148,2393.75 615.63,2390.57ZM608.21,2345.21C610.803,2343.27 611.98,2336.42 607.799,2335.32C607.193,2338.38 606.341,2342.79 608.21,2345.21ZM593.36,2325.83C595.139,2324.23 595.154,2319.39 592.129,2319.23C591.362,2321.61 592.756,2323.65 593.36,2325.83ZM600.378,2310.98C601.073,2309.9 601.753,2308.63 601.768,2306.86C601.659,2306.27 601.088,2305.74 599.96,2306.04C599.766,2307.32 597.845,2310.74 600.378,2310.98ZM585.118,2334.91C586.61,2331.35 588.717,2329.5 588.829,2325.42C588.938,2321.51 586.628,2317.54 586.355,2313.46C586.232,2311.7 586.726,2309.78 586.763,2308.1C586.938,2300.38 584.394,2291.19 583.052,2285.42C575.704,2297.94 573.94,2325.11 585.118,2334.91ZM593.78,2301.09C600.035,2304.28 610.391,2301.34 609.447,2293.25C606.946,2292.68 607.56,2295.21 605.322,2294.9C601.685,2294.74 598.962,2295.01 596.664,2294.08C589.872,2291.33 590.402,2283.07 587.181,2276.76C586.121,2286.35 586.665,2297.47 593.78,2301.09ZM596.254,2275.11C598.45,2275.05 598.398,2272.16 598.726,2270.57C600.49,2262.06 601.574,2251.34 600.785,2242.53C600.7,2242.21 600.442,2242.05 599.96,2242.12C597.414,2251.55 596.933,2265.2 596.254,2275.11ZM589.651,2249.54C586.673,2254.85 582.683,2259.99 581.404,2265.62C588.645,2256.64 594.033,2245.82 599.549,2235.11C599.967,2235.11 600.065,2234.39 599.549,2234.29C595.611,2238.54 592.682,2244.15 589.651,2249.54ZM613.157,2266.86C606.898,2258.88 611.669,2242.23 608.621,2231.4C608.094,2231.38 608.049,2230.87 607.381,2230.99C603.569,2242.16 604.421,2261.9 613.157,2266.86ZM613.157,2246.66C616.154,2246.2 613.964,2243.09 616.871,2242.53C617.655,2245.73 619.658,2247.72 622.229,2249.13C618.799,2242.39 617.334,2233.68 615.63,2225.22C615.103,2225.19 615.062,2224.68 614.397,2224.8C613.321,2231.17 612.686,2240.12 613.157,2246.66ZM566.974,2227.28C562.442,2227.38 558.575,2226.2 556.662,2229.75C569.927,2234.43 586.695,2230.45 591.714,2220.68C591.664,2220.17 591.59,2219.7 590.892,2219.85C584.477,2223.05 576.159,2227.07 566.974,2227.28ZM606.974,2220.68L608.621,2220.68C608.434,2219.9 609.182,2218.2 607.799,2218.62C608.105,2219.89 606.662,2219.41 606.974,2220.68ZM569.448,2205.83C567.521,2205.82 566.504,2203.22 564.912,2204.19C567.565,2208.68 571.488,2211.9 574.395,2216.14C570.464,2219.65 562.468,2216.28 557.488,2217.38C563.486,2222.83 577.481,2224.01 583.467,2217.79C577.089,2215.51 573.416,2210.52 569.448,2205.83ZM585.118,2214.08C586.27,2214.6 590.059,2215.78 591.303,2213.67C582.858,2214.51 581.749,2204.56 577.695,2199.65C578.019,2205.12 580.759,2212.12 585.118,2214.08ZM566.974,2186.45C565.57,2193.03 568.066,2198.67 571.096,2202.12C569.388,2191.89 576.08,2190.06 579.757,2185.22C576.334,2181.75 571.365,2185.99 566.974,2186.45ZM612.334,2181.51C612.63,2180.81 614.517,2179.61 613.157,2178.62C612.902,2179.36 611.61,2181.15 612.334,2181.51ZM514.194,2175.73C513.843,2178.92 514.761,2182.27 514.194,2184.39C515.622,2183.64 515.128,2181.29 515.428,2179.85C515.808,2178.03 516.481,2176.48 516.667,2174.91C516.578,2174.59 516.656,2174.1 516.252,2174.08C515.587,2174.65 514.949,2175.25 514.194,2175.73ZM522.852,2166.25C521.495,2165.27 519.616,2164.81 519.141,2162.95C519.878,2162.45 521.541,2162.88 522.026,2162.12C519.69,2161.44 517.5,2160.6 515.428,2159.65C513.275,2164.64 519.074,2168.56 522.852,2166.25ZM548.072,2133.68C551.05,2132.95 553.994,2130.46 554.188,2128.31C552.088,2130.06 549.889,2131.71 547.59,2133.26L546.604,2133.93C543.861,2136.01 541.422,2137.53 538.522,2139.45C542.665,2137.36 548.543,2141.04 553.366,2139.45L550.064,2139.45C548.383,2138.65 545.924,2138.64 544.705,2137.38C544.96,2135.71 546.103,2135.39 546.978,2134.34L548.072,2133.68ZM547.59,2125.43C548.98,2125.16 551.424,2125.96 552.127,2125.01C550.258,2124.86 548.912,2124.33 547.59,2125.43ZM532.334,2126.25L532.334,2127.9C529.514,2130.72 527.549,2134.17 524.911,2137.38C522.855,2139.89 520.673,2141.99 519.552,2144.39C525.097,2138.14 530.69,2130.63 537.697,2126.25C538.34,2125.85 540.543,2125.62 540.169,2124.19C538.53,2125.51 535.518,2127.41 533.982,2127.49C533.982,2127.07 533.65,2127 533.571,2126.66C534.192,2124.26 537.894,2124.94 538.522,2122.54C535.857,2123.18 534.715,2125.33 532.334,2126.25ZM619.345,2148.52C619.553,2145.62 621.646,2145.38 621.404,2143.16C620.989,2139.34 615.309,2139.63 613.157,2136.97C628.752,2135.27 630.725,2150.74 631.712,2165.01C632.048,2159.64 633.086,2153.01 632.127,2147.69C631.902,2146.23 633.583,2146.68 633.364,2145.22C632.675,2141.5 630.195,2137.39 631.301,2133.26C636.326,2135.11 636.289,2142.02 636.658,2148.52C636.793,2149.49 638.616,2148.76 638.31,2150.17C638.168,2152.91 635.526,2155.35 637.073,2158.41C641.591,2153.47 638.303,2144.53 638.725,2137.8C638.833,2136.02 639.786,2134.09 639.547,2132.44C639.14,2129.61 633.998,2122.51 631.712,2120.48C629.496,2118.5 626.608,2117.71 624.291,2116.76C626.033,2112.94 630.433,2117.67 633.775,2115.94C635.052,2116.72 634.529,2119.31 636.247,2119.65C635.852,2117.89 634.896,2116.85 634.188,2115.12C633.056,2112.36 630.636,2110.41 628.416,2107.69C626.708,2105.61 625.435,2103 623.88,2101.51C617.035,2094.97 607.096,2091.22 594.602,2090.38C590.94,2090.56 587.255,2091.11 583.833,2092.4C578.782,2095.48 571.085,2100.24 571.096,2108.93C571.103,2114.38 574.331,2119.33 581.404,2119.65C573.103,2110.15 579.783,2096.3 590.066,2095.32C588.25,2100.09 589.43,2107.35 591.303,2110.99C591.687,2111.36 592.162,2111.92 592.662,2112.18C595.252,2110.97 597.598,2105.28 601.2,2104.39C606.057,2103.2 613.284,2105.12 616.871,2107.69C619.221,2109.38 622.188,2112.87 621.404,2115.94C617.505,2115.72 617.528,2111.57 614.397,2110.58C613.429,2112.68 610.504,2108.72 608.21,2107.69C605.976,2108.92 603.77,2108.21 600.785,2108.11C599.279,2110.82 601.873,2112.13 603.263,2113.47C606.371,2116.45 609.861,2119.28 610.683,2125.01C605.049,2125.7 599.504,2126.48 598.312,2131.61C600.953,2134.31 604.758,2134.15 606.974,2137.8C607.717,2139.03 608.942,2141.35 609.447,2143.16C609.981,2145.08 610.889,2147.99 609.032,2148.93C604.294,2148.34 601.134,2141.65 593.78,2145.22C595.484,2147.32 597.86,2148.26 599.549,2150.58C602.911,2155.2 603.809,2163.15 602.022,2169.96C604.443,2173.32 606.693,2176.84 609.447,2179.85C611.236,2177.38 613.299,2175.42 613.157,2172.43C612.873,2166.45 602.714,2162.8 605.322,2155.12C605.322,2155.12 607.082,2156 609.936,2155.07C613.007,2153.12 609.6,2147.13 612.334,2144.81C612.783,2145.73 618.047,2148.03 619.345,2148.52ZM614.696,2147.98L613.157,2147.69C612.327,2152.1 616.056,2154.14 614.805,2157.59C613.068,2157.41 612.731,2155.82 610.268,2156.35C610.115,2156.36 607.844,2157.41 607.381,2158.41C608.696,2160.64 610.825,2161.74 612.334,2163.78C615.94,2168.65 616.818,2175.12 618.515,2181.92C620.569,2179.29 621.765,2175.98 621.404,2170.78C621.142,2167.04 619.411,2163.01 620.995,2160.47C624.65,2163 623.896,2169.94 625.524,2174.5C627.706,2170.17 629.784,2160.41 627.998,2153.88C627.244,2151.1 625.069,2147.35 621.818,2147.69C620.839,2149.19 622.184,2153 620.578,2153.88C618.768,2151.8 616.833,2149.86 614.779,2148.03L614.696,2147.98ZM577.28,2278.82C575.289,2281.09 574.369,2283 572.744,2287.07C567.281,2302.16 570.48,2322.32 577.695,2333.67C578.827,2335.44 579.59,2338.86 582.23,2337.79C582.866,2335.51 580.18,2336.54 579.343,2335.73C575.972,2328.7 571.989,2322.28 571.921,2311.94C571.794,2310.81 571.881,2309.16 571.854,2308.03C571.84,2307.28 572.583,2305.42 572.602,2306.17C572.62,2307.08 573.569,2310.98 573.569,2310.98C573.966,2304.15 575.464,2298.08 577.28,2292.43C579.118,2286.71 581.404,2281.47 582.646,2276.35C581.203,2279.29 579.892,2277.75 577.28,2278.82ZM609.024,2276.66C609.413,2273.27 606.742,2272.94 605.303,2271.38C604.122,2277.75 602.919,2284.1 597.471,2286.22C595.484,2285.59 594.59,2283.88 592.11,2283.74C592.442,2289.65 598.599,2291.75 604.892,2290.34C604.754,2286.7 608.336,2279.28 609.024,2276.66ZM613.157,2320.06C610.369,2317.79 608.605,2316.07 604.907,2317.17C604.45,2317.26 604.268,2317.63 604.085,2317.99C609.256,2319.11 613.553,2322 615.63,2326.24C616.602,2328.23 616.001,2330.61 618.108,2332.02C619.71,2326.61 616.119,2322.47 613.157,2320.06ZM608.883,2486.26C609.772,2488.2 611.636,2488.27 613.358,2487.48C614.48,2486.96 616.049,2485.85 615.365,2484.35C614.64,2482.77 612.331,2483.51 609.913,2483.93C607.485,2484.35 604.911,2484.52 603.652,2481.77C602.277,2478.78 604.443,2476.06 607.088,2474.85C610.13,2473.45 613.553,2473.49 615.1,2476.86L611.991,2478.29C611.079,2476.59 609.622,2476.7 608.086,2477.41C607.066,2477.88 606.076,2478.86 606.64,2480.08C607.156,2481.21 607.918,2481.03 612.014,2480.29C613.202,2480.07 616.781,2479.24 618.305,2482.55C619.535,2485.23 618.35,2488.21 614.379,2490.04C611.146,2491.52 607.381,2491.32 605.77,2487.69L608.883,2486.26ZM600.602,2487.86C601.552,2492.11 599.504,2494.73 595.305,2495.67C591.086,2496.61 588.171,2495.12 587.218,2490.85L585.041,2481.1L588.49,2480.33L590.663,2490.09C591.052,2491.8 591.867,2493.39 594.658,2492.77C597.121,2492.22 597.672,2490.97 597.15,2488.64L594.971,2478.88L598.428,2478.11L600.602,2487.86ZM571.623,2489.49L575.442,2488.84C576.995,2488.59 577.728,2487.78 577.459,2486.18C577.197,2484.65 576.244,2484.12 574.69,2484.38L570.868,2485.02L571.623,2489.49ZM566.93,2482.9L575.479,2481.47C578.322,2480.99 580.452,2482.66 580.851,2485.06C581.17,2486.92 580.65,2488.45 579.013,2489.45C580.792,2489.62 581.577,2491.24 581.95,2492.82C582.189,2493.81 582.481,2495.68 583.251,2496.46L579.765,2497.05C579.179,2496.12 578.961,2494.58 578.572,2493.35C578.045,2491.72 577.276,2491.09 575.523,2491.39L572.037,2491.97L573.081,2498.17L569.59,2498.76L566.93,2482.9ZM554.726,2488.39L549.996,2489.3L549.432,2486.39L562.363,2483.88L562.928,2486.79L558.197,2487.72L560.693,2500.58L557.222,2501.25L554.726,2488.39ZM544.908,2496.3C545.916,2496.3 546.798,2497.18 546.798,2498.22C546.798,2499.16 545.916,2500.11 544.926,2500.11C543.868,2500.11 542.987,2499.25 542.987,2498.22C542.987,2497.16 543.868,2496.3 544.908,2496.3ZM528.198,2501.39L531.681,2499.69C533.096,2499 533.571,2498.02 532.858,2496.56C532.17,2495.16 531.113,2494.93 529.693,2495.62L526.21,2497.32L528.198,2501.39ZM521.832,2496.41L529.619,2492.6C532.211,2491.33 534.722,2492.33 535.794,2494.52C536.627,2496.22 536.561,2497.83 535.275,2499.26C537.031,2498.9 538.242,2500.24 539.057,2501.65C539.557,2502.53 540.371,2504.24 541.332,2504.77L538.152,2506.33C537.33,2505.6 536.683,2504.19 535.958,2503.11C534.994,2501.7 534.08,2501.32 532.48,2502.11L529.304,2503.66L532.065,2509.3L528.889,2510.85L521.832,2496.41ZM522.197,2508.65C524.395,2512.4 523.251,2515.53 519.537,2517.7C515.804,2519.88 512.573,2519.34 510.361,2515.58L505.317,2506.95L508.366,2505.17L513.417,2513.79C514.298,2515.31 515.569,2516.58 518.035,2515.14C520.214,2513.86 520.352,2512.5 519.148,2510.44L514.097,2501.81L517.15,2500.02L522.197,2508.65ZM499.895,2523.38C502.805,2522.11 502.821,2519.16 501.756,2516.7C500.631,2514.12 498.456,2512.12 495.542,2513.38C492.635,2514.66 492.62,2517.6 493.741,2520.19C494.81,2522.64 496.981,2524.65 499.895,2523.38ZM494.362,2510.66C498.919,2508.67 503.089,2510.91 504.995,2515.29C506.844,2519.54 505.645,2524.12 501.079,2526.11C496.517,2528.09 492.351,2525.85 490.498,2521.6C488.592,2517.22 489.792,2512.64 494.362,2510.66ZM482.666,2519.93C483.683,2519.93 484.564,2520.81 484.564,2521.85C484.564,2522.79 483.683,2523.74 482.693,2523.74C481.635,2523.74 480.754,2522.89 480.754,2521.85C480.754,2520.79 481.635,2519.93 482.666,2519.93ZM468.632,2517.04L472.16,2516.87L472.798,2529.96L480.626,2529.58L480.768,2532.55L469.409,2533.1L468.632,2517.04ZM455.084,2515.28L458.584,2515.79L456.674,2528.76L464.427,2529.91L463.995,2532.85L452.745,2531.19L455.084,2515.28ZM440.6,2520.06L444.484,2521.56L444.718,2515.33C440.638,2520.08 440.6,2520.06 440.6,2520.06ZM444.466,2510.99L447.848,2512.29L447.667,2529.45L444.245,2528.13L444.399,2524.35L438.791,2522.18L436.325,2525.08L432.984,2523.79L444.466,2510.99ZM431.487,2512.16C432.501,2512.16 433.38,2513.04 433.38,2514.08C433.38,2515.02 432.501,2515.96 431.51,2515.96C430.452,2515.96 429.574,2515.11 429.574,2514.08C429.574,2513.02 430.452,2512.16 431.487,2512.16ZM415.344,2506.17C414.202,2507.98 415.166,2509.57 416.766,2510.58C417.813,2511.24 419.604,2511.95 420.482,2510.56C421.409,2509.09 419.527,2507.56 417.863,2505.77C416.183,2503.96 414.639,2501.89 416.248,2499.34C418.004,2496.56 421.473,2496.88 423.929,2498.44C426.768,2500.23 428.595,2503.11 426.61,2506.25L423.717,2504.43C424.655,2502.73 423.758,2501.58 422.33,2500.67C421.378,2500.07 420.02,2499.78 419.299,2500.92C418.637,2501.97 419.201,2502.51 422.057,2505.53C422.891,2506.41 425.54,2508.96 423.593,2512.05C422.017,2514.54 418.878,2515.17 415.185,2512.84C412.175,2510.94 410.294,2507.67 412.451,2504.34L415.344,2506.17ZM409.197,2491.71L412.441,2493.12L406.051,2507.87L402.808,2506.46L409.197,2491.71ZM400.428,2495.88C401.441,2495.88 402.321,2496.76 402.321,2497.79C402.321,2498.74 401.441,2499.68 400.45,2499.68C399.393,2499.68 398.515,2498.83 398.515,2497.79C398.515,2496.74 399.393,2495.88 400.428,2495.88ZM383.254,2497.41L386.336,2498.09C388.335,2498.54 390.521,2497.72 391.289,2494.25C391.989,2491.08 391.338,2488.82 387.907,2488.06L385.445,2487.52L383.254,2497.41ZM382.635,2483.85L389.408,2485.35C393.477,2486.25 395.967,2489.47 394.816,2494.68C393.807,2499.24 390.726,2502.11 385.935,2501.05L379.162,2499.55L382.635,2483.85ZM368.222,2494.64C371.387,2494.9 372.797,2492.3 373.016,2489.64C373.246,2486.83 372.274,2484.04 369.111,2483.78C365.947,2483.52 364.536,2486.12 364.308,2488.92C364.088,2491.6 365.057,2494.39 368.222,2494.64ZM369.354,2480.82C374.315,2481.22 376.93,2485.17 376.539,2489.93C376.16,2494.55 372.939,2498.01 367.979,2497.61C363.018,2497.2 360.403,2493.26 360.783,2488.64C361.171,2483.88 364.394,2480.41 369.354,2480.82ZM353.865,2493.11C352.4,2494.5 350.708,2494.86 349.17,2494.63C344.251,2493.88 341.914,2489.77 342.607,2485.18C343.324,2480.46 346.777,2477.23 351.698,2477.97C354.947,2478.46 357.717,2480.94 357.549,2484.6L354.208,2484.09C354.076,2482.27 352.899,2481.16 351.253,2480.91C348.113,2480.43 346.528,2482.93 346.104,2485.71C345.705,2488.36 346.478,2491.21 349.617,2491.68C351.888,2492.03 353.387,2491.01 353.921,2488.83L350.403,2488.3L350.799,2485.69L357.478,2486.71L356.176,2495.3L353.949,2494.97L353.865,2493.11ZM338.055,2481.97C339.069,2481.97 339.947,2482.84 339.947,2483.88C339.947,2484.82 339.069,2485.76 338.079,2485.76C337.019,2485.76 336.142,2484.92 336.142,2483.88C336.142,2482.82 337.019,2481.97 338.055,2481.97ZM320.76,2470.25L324.058,2471.46L326.647,2483.89C330.359,2473.76 330.402,2473.78 330.402,2473.78L333.509,2474.92L327.979,2490.02L324.658,2488.8L322.081,2476.4C318.375,2486.5 318.334,2486.48 318.334,2486.48L315.227,2485.34L320.76,2470.25ZM313.725,2467.07L316.858,2468.71L309.398,2482.95L306.265,2481.32L313.725,2467.07ZM622.617,2472.15L618.455,2474.59L616.954,2472.02L628.334,2465.37L629.828,2467.94L625.666,2470.37L632.28,2481.69L629.224,2483.47L622.617,2472.15ZM368.125,2445.77C367.055,2444.41 365.791,2442.99 364.682,2441.55C364.418,2441.4 364.118,2441.28 363.682,2441.29C366.724,2446.84 371.512,2452.93 375.601,2458.25C376.199,2459.03 377.443,2460.71 378.155,2461.5C378.359,2461.72 379.327,2462.84 379.764,2461.49C379.958,2459.32 377.384,2458.79 376.053,2457.37C373.061,2454.18 370.718,2449.58 368.125,2445.77ZM364.955,2439.8C365.896,2441.13 367.084,2442.51 368.166,2443.82C369.259,2444.05 369.683,2442.61 369.818,2441.99C368.786,2440.87 365.762,2437.7 364.919,2437.58C364.786,2438.31 364.852,2439.15 364.955,2439.8ZM371.028,2441.39C371.878,2441.46 372.5,2441.61 373.498,2441.55C373.313,2442.08 372.439,2442.78 372.342,2443.35C373.569,2444.28 374.041,2445.73 375.08,2446.82C375.497,2447.37 377.288,2447.91 377.651,2447.21C376.366,2445.28 374.925,2443.38 373.498,2441.55C371.413,2438.86 369.289,2436.2 367.454,2433.38L366.571,2433.45C364.807,2435.25 366.933,2435.85 367.395,2437.58C368.56,2438.89 369.853,2440.09 371.028,2441.39ZM368.63,2432.81C371.766,2437.61 375.897,2442.16 379.06,2446.98C379.667,2446.87 380.221,2446.78 380.489,2446.48C378.265,2442.37 371.176,2431.46 368.63,2431.8L368.63,2432.81ZM373.746,2447.24C373.113,2446.41 372.551,2445.33 371.811,2444.69C371.047,2445.49 372.945,2447.43 373.746,2447.24ZM381.609,2445.82C382.88,2445.48 383.104,2445.09 383.138,2444.32C381.879,2442.48 375.254,2433.3 372.342,2431.39C372.439,2432.94 379.452,2441.86 381.609,2445.82ZM383.99,2439.41C382.366,2437.7 381.217,2435.62 379.895,2433.68C378.697,2432.82 377.19,2430.78 375.641,2431.8C377.64,2433.24 378.916,2435.4 380.177,2437.58C381.619,2439.39 382.714,2441.35 383.958,2443.22C384.694,2441.83 384.563,2440.54 383.99,2439.41ZM381.772,2434.18C382.618,2435.49 383.446,2436.82 384.462,2438.01C384.965,2436.35 383.071,2435.23 381.772,2434.18ZM318.677,2449.99C318.991,2449.24 319.563,2448.58 319.72,2447.83C319.04,2448.32 317.093,2450.98 318.677,2449.99ZM318.982,2451C319.066,2451.76 319.303,2453.28 319.851,2453.61C320.792,2451.86 324.947,2446.32 323.684,2445.41C323.234,2446.3 319.152,2450.99 318.982,2451ZM352.55,2450.77C351.276,2451.28 349.314,2451.11 349.25,2452.84C351.661,2454.76 355.096,2452.59 356.673,2451.18C359.957,2448.26 362.447,2441.53 361.209,2437.58C357.814,2441.47 355.425,2446.37 352.55,2450.77ZM375.228,2450.36C375.168,2453.6 378.761,2455.89 381.826,2457.78C386.492,2460.67 392.432,2463.05 399.558,2461.49C393.302,2458.4 388.825,2453.54 385.95,2447.06C383.274,2449.18 379.037,2450.57 375.228,2450.36ZM324.508,2457.37C326.386,2455.75 328.661,2453.22 329.87,2450.36C330.077,2449.87 331.362,2447.92 329.87,2447.89C329.478,2448.66 323.738,2455.9 324.508,2457.37ZM329.044,2445.82C326.21,2445.67 322.139,2452.89 321.26,2454.57C321.375,2454.82 321.607,2454.96 321.624,2455.31C323.531,2456.03 328.601,2446.9 329.044,2445.82ZM332.734,2454.07C331.801,2455.34 328.986,2459.79 328.633,2461.08C330.191,2461.27 330.569,2460.27 331.519,2459.84C334.438,2454.94 337.354,2452.07 337.292,2449.53C336.75,2449.39 336.644,2448.81 336.054,2448.71C334.912,2450.46 334.09,2452.54 332.734,2454.07ZM332.345,2449.95C331.013,2452.88 327.8,2456.12 327.395,2458.61C328.663,2459.62 335.052,2448.55 332.345,2449.95ZM333.58,2462.73C335.676,2459.12 338.041,2455.66 340.216,2452.07C340.24,2451.47 339.984,2451.14 339.353,2451.18C338.164,2452.75 331.59,2461.98 331.932,2463.14C332.791,2463.32 333.023,2462.86 333.58,2462.73ZM363.213,2448.8C365.876,2452.19 374.43,2464.33 377.29,2463.97C373.202,2457.47 367.938,2449.96 362.858,2445.82C362.672,2446.77 362.55,2447.03 363.213,2448.8ZM367.806,2469.74C368.594,2468.99 367.966,2468.27 367.816,2467.34C365.078,2464.25 359.356,2456.28 359.146,2457.37C360.051,2458.49 366.443,2470.82 367.806,2469.74ZM356.26,2456.13C349.798,2457.04 345.736,2453.55 341.828,2452.42C339.246,2456.32 335.231,2463.63 335.23,2463.97C344.034,2467.48 362.192,2470.08 365.184,2469.83C365.184,2469.83 357.424,2458.18 356.26,2456.13ZM372.571,2466.3C372.838,2466.14 373.139,2466.01 373.578,2466.03C374.509,2464.59 363.111,2451.12 362.446,2450.77C363.716,2456.05 371.753,2465.16 372.571,2466.3ZM371.258,2467.21C370.516,2466.18 363.374,2456 359.97,2452.84C359.402,2455.03 366.225,2463.13 368.941,2466.2C369.795,2466.96 370.374,2468.22 371.258,2467.21ZM590.805,2450.85C579.581,2441.65 580.628,2446.26 582.646,2449.12C583.295,2450.05 586.143,2452.79 587.592,2453.24C588.657,2453.59 591.788,2454.71 592.359,2452.44C592.247,2452.22 592.035,2451.66 590.805,2450.85ZM606.148,2463.4C604.279,2459.62 601.648,2456.13 599.515,2452.44C595.408,2454.36 591.5,2456.49 585.118,2456.13C583.631,2458.13 578.972,2466.36 577.826,2468.01C577.789,2468.07 577.194,2468.99 577.28,2469.74C580.104,2469.95 595.578,2467.87 606.148,2463.97L606.148,2463.4ZM600.857,2451.72C603.057,2455.52 606.113,2459.58 608.001,2463.49L609.032,2463.14C609.779,2462.38 609.66,2462.19 609.013,2461.21C608.86,2461.16 603.289,2452.08 601.2,2451.18L600.857,2451.72ZM604.496,2448.71C602.904,2451.54 609.249,2459.24 610.332,2460.92C611.243,2461.39 611.778,2461.85 612.746,2460.67C612.873,2460.61 606.559,2449.61 604.496,2448.71ZM613.571,2448.3C614.345,2449.11 617.378,2454.85 619.345,2455.72C620.502,2453.21 616.561,2449.14 616.434,2448.95C615.055,2447.36 613.994,2445.08 612.334,2446.24C612.814,2446.85 613.081,2447.57 613.571,2448.3ZM621.818,2453.24C622.199,2448.6 619.441,2447.1 616.871,2445.41C616.699,2446.41 616.759,2446.72 617.282,2447.47C617.282,2447.47 620.062,2452.15 621.818,2453.24ZM562.147,2446.99L572.77,2432.78C571.742,2430.13 570.248,2432.92 569.448,2433.87C566.388,2437.99 563.432,2442.36 560.448,2446.55C560.735,2446.91 561.595,2446.89 562.147,2446.99ZM573.569,2433.87C570.203,2438.34 566.784,2442.77 563.44,2447.27C564.053,2447.8 565.234,2447.52 565.973,2447.12C566.489,2446.67 567.147,2446.13 567.984,2445.05C568.089,2444.91 568.424,2443.65 568.555,2443.61C568.622,2443.18 567.625,2443.06 567.591,2442.33C568.955,2441.68 569.067,2441.66 569.762,2441.7C570.576,2440.28 575.497,2436.59 575.636,2434.69C575.501,2433.7 574.53,2432.87 573.569,2433.87ZM559.469,2445.78C562.431,2441.62 569.029,2432.21 569.033,2431.39C565.838,2432.87 559.476,2442.4 557.806,2444.14C558.262,2444.88 558.785,2445.41 559.469,2445.78ZM557.349,2443.18C558.859,2441.48 559.757,2439.3 561.299,2437.61C561.654,2436.68 566.564,2432.02 564.912,2431.39C563.342,2432.16 561.751,2432.91 560.787,2434.28C559.726,2435.74 558.739,2437.28 557.686,2438.83C556.977,2440.2 556.24,2441.71 557.349,2443.18ZM557.099,2438.06L559.98,2433.74C559.226,2435.2 555.979,2436.2 557.077,2437.99L557.099,2438.06ZM547.179,2458.2C545.502,2459.57 543.024,2460.01 541.817,2461.91C550.156,2462.61 554.652,2460.58 559.139,2457.78C561.991,2456 565.809,2454.13 566.145,2450.36C562.035,2450.77 558.146,2448.84 555.018,2447.06C552.888,2451.7 550.639,2455.37 547.179,2458.2ZM569.466,2444.88C568.902,2445.61 567.729,2446.52 567.565,2447.41C568.533,2447.01 570.441,2444.78 569.466,2444.88ZM576.615,2441.68C575.486,2442.64 575.149,2444.09 573.708,2444.99C570.98,2448.66 569,2452.83 566.145,2456.13C564.471,2458.08 561.661,2459.07 561.198,2461.91C562.752,2461.84 564.232,2459.7 565.738,2457.78C568.155,2454.7 570.946,2450.85 573.569,2447.47C575.203,2445.38 577.422,2443.33 576.899,2441.37L576.615,2441.68ZM572.856,2443.61C573.947,2442.93 574.545,2441.3 575.625,2440.4C576.604,2438.89 577.07,2438.11 576.047,2437.58C575.509,2438.23 575.049,2438.62 574.34,2439.42C573.267,2440.32 572.034,2441.18 571.309,2442.26C571.825,2442.7 572.004,2443.47 572.688,2443.74L572.856,2443.61ZM567.961,2461.17C570.427,2458.14 575.605,2451.95 575.658,2451.91C576.928,2450.17 578.804,2447.76 577.695,2445.41C574.043,2450.34 568.507,2456.48 564.912,2462.32C564.916,2462.32 562.973,2463.76 564.502,2463.97C566.677,2464.05 566.878,2462.23 567.961,2461.17ZM568.712,2466.38C569.247,2465.53 569.874,2464.64 570.674,2463.91C574.074,2459.57 578.073,2455.65 578.521,2450.77C577.892,2451.5 577.706,2451.79 576.771,2453.09C574.463,2456.33 571.619,2459.22 569.127,2462.29C567.722,2464.63 566.131,2465.81 568.712,2466.38ZM580.463,2458.47C577.855,2461.62 575.516,2465.03 572.819,2468.09C572.508,2469.34 572.886,2469.14 573.569,2470.15C575.038,2469.68 581.995,2458.39 581.404,2457.37C581.144,2457.56 580.687,2458.08 580.463,2458.47ZM571.604,2467.02C574.305,2463.95 576.644,2460.54 579.256,2457.39C579.652,2456.98 582.847,2454.24 580.583,2452.84C577.967,2457.03 570.614,2466.41 570.109,2467.2C570.554,2467.69 570.996,2467.54 571.477,2467.2L571.604,2467.02ZM612.102,2454.92L611.505,2454.09C608.934,2448.55 605.329,2446.76 609.447,2452.84C610.377,2453.85 613.291,2460.71 614.397,2458.61C613.739,2457.75 612.26,2455.16 612.102,2454.92ZM613.37,2454.08C615.653,2457.76 616.135,2457.69 617.282,2456.96C616.138,2455.49 613.276,2450.27 612.611,2449.5C611.37,2448.19 610.174,2446.87 609.555,2447.72C610.406,2449.48 613.37,2454.08 613.37,2454.08ZM549.336,2477.81C527.346,2482.24 512.468,2496.87 491.892,2504.76C481.202,2510.4 461.38,2510.66 450.277,2505.2C429.699,2497.66 412.681,2482.06 390.878,2477.5C379.872,2474.94 350.067,2469.72 347.005,2468.89C337.288,2467.65 316.625,2462.02 315.436,2451.6C314.472,2443.12 322.111,2441.41 330.282,2443.76C331.303,2443.82 330.983,2443.26 330.282,2443.35C327.052,2440.43 319.359,2441.76 316.261,2443.76C311.485,2447.9 309.11,2463.18 292.345,2475.93C306.334,2495.86 329.64,2502.43 359.146,2506.03C368.689,2507.19 378.916,2507.14 388.012,2509.33C395.055,2511.02 401.809,2515.17 407.804,2518.81C413.737,2522.41 419.381,2526.42 425.535,2529.95C431.891,2533.59 438.606,2535.72 446.152,2538.19C454.059,2540.78 461.638,2542.68 470.48,2542.73C479.631,2542.78 487.333,2540.84 495.221,2538.19C502.779,2535.65 509.747,2533.33 515.839,2529.95C521.959,2526.55 527.63,2522.41 533.571,2518.81C539.505,2515.23 545.876,2511.09 552.951,2509.33C562.222,2507.01 572.684,2507.1 582.23,2506.03C611.446,2502.74 635.41,2495.61 649.033,2475.51C643.993,2470.52 638.444,2466.04 635.014,2459.43C630.986,2454.84 629.806,2448.47 625.585,2444.11C622.685,2441.51 612.32,2440.47 610.683,2443.76C619.329,2441.14 626.549,2443.7 625.939,2451.18C625.491,2456.76 618.967,2460.58 613.979,2463.14C608.06,2466.19 601.526,2467.93 596.011,2468.49C592.256,2469.53 584.335,2470.79 584.215,2470.74C559.902,2474.79 549.336,2477.81 549.336,2477.81ZM491.514,2503.55C512.169,2495.61 529.39,2480.28 551.521,2475.84C560.739,2473.47 562.529,2472.76 568.211,2471.39C565.965,2468.28 560.413,2464.9 557.077,2461.49C552.582,2464.39 542.609,2465.79 538.108,2461.91C540.858,2457.68 543.876,2458.07 546.768,2455.31C549.249,2452.94 551.028,2449.61 552.127,2446.65C553.397,2443.26 552.941,2439.14 554.603,2435.51C556.759,2430.82 563.866,2427.74 569.859,2428.5C572.856,2428.89 576.08,2430.98 578.11,2432.63C583.706,2437.21 587.38,2445.17 592.129,2450.36C592.435,2450.5 592.617,2450.6 592.811,2450.73C600.968,2453.01 605.351,2441.18 612.334,2439.64C617.326,2438.54 621.69,2439.34 626.405,2443.07C630.774,2447.69 631.989,2453.79 635.829,2458.21C639.484,2462.06 642.981,2466.59 647.793,2470.57C649.586,2472.05 651.522,2472.74 651.918,2474.28C653.614,2480.88 644.192,2488.05 638.725,2492.01C632.111,2496.79 625.733,2500.96 619.345,2503.55C603.562,2509.96 584.772,2510.31 566.145,2511.8C547.62,2513.28 535.118,2522.85 522.852,2529.95C516.447,2533.65 509.651,2537.24 501.824,2539.84C490.887,2543.48 480.23,2547.1 464.297,2546.03C455.805,2545.46 447.742,2542.99 440.38,2540.67C425.944,2536.1 415.272,2527.6 402.443,2520.46C392.57,2514.96 382.824,2512.01 368.218,2510.98C354.614,2510.01 341.44,2509.42 329.87,2506.03C322.845,2503.97 316.039,2500.83 309.665,2496.96C303.78,2493.38 297.008,2489.28 293.169,2484.59C291.435,2482.47 288.721,2478.33 289.459,2474.69C290.133,2471.36 295.185,2468.91 298.118,2466.44C307.39,2458.63 310.399,2447.29 315.055,2442.95C319.1,2439.17 324.571,2438.88 329.044,2440.05C335.78,2441.81 339.431,2451.23 345.951,2451.18C349.951,2451.16 352.86,2445.4 355.849,2441.29C359.41,2436.39 364.415,2429.49 371.105,2428.5C376.206,2427.76 383.923,2430.34 386.363,2435.1C387.751,2437.82 387.394,2440.9 388.012,2443.35C389.013,2447.32 391.464,2452.16 394.196,2454.9C396.841,2457.54 398.868,2458.91 402.855,2461.49C399.388,2466.15 389.239,2464.18 384.713,2461.91C382.895,2462.21 380.474,2464.37 378.527,2466.03C376.508,2467.76 374.395,2469.63 372.754,2471.39C371.949,2472.28 381.047,2474.12 391.093,2476.26C413.046,2480.84 430.007,2496.43 450.693,2503.98C463.021,2508.01 479.55,2507.83 491.514,2503.55" style="fill:rgb(140,140,140);fill-rule:nonzero;"/>
            </g>
            <g transform="matrix(0.847283,0,0,0.847217,73.3052,-911.283)">
                <path d="M1663.31,2053.16C1663.31,2029.74 1643.59,2013.1 1623.56,2013.1C1602.92,2013.1 1588.75,2028.51 1588.75,2047.61C1588.75,2072.88 1607.55,2091.06 1626.64,2091.06C1646.99,2091.06 1663.31,2073.19 1663.31,2053.16ZM1568.42,2194.59L1566.26,2187.19C1645.13,2169.94 1660.54,2111.08 1663.63,2082.12C1650.68,2099.68 1634.65,2104.62 1621.72,2104.62C1593.67,2104.62 1572.73,2085.2 1572.73,2054.7C1572.73,2026.97 1590.6,2001.39 1625.72,2001.39C1652.22,2001.39 1684.57,2018.03 1684.57,2067.02C1684.57,2128.65 1636.51,2185.65 1568.42,2194.59ZM1486.49,2002.32L1566.29,2002.32L1565.37,2015.88L1502.21,2015.88L1486.49,2087.35C1529.02,2090.75 1542.26,2116.01 1542.26,2136.35C1542.26,2161 1524.4,2182.57 1486.18,2182.57C1468.01,2182.57 1450.44,2176.72 1438.12,2168.39L1441.81,2161.92C1457.53,2169.63 1466.46,2173.33 1481.26,2173.33C1512.99,2173.33 1521.31,2152.68 1521.31,2139.43C1521.31,2108.93 1490.5,2099.07 1465.84,2097.84L1486.49,2002.32ZM1393.89,2012.18L1393.89,2004.47L1443.81,2004.47L1443.81,2012.18L1427.79,2012.18L1423.17,2122.49L1438.88,2122.49L1438.88,2130.19L1388.65,2130.19L1388.65,2122.49L1404.99,2122.49L1409.61,2012.18L1393.89,2012.18ZM1701.08,2028.2L1701.08,2002.32L1809.53,2002.32L1809.53,2004.47L1722.64,2186.58L1698.61,2186.58L1788.89,2015.88L1708.78,2015.88L1708.78,2028.2L1701.08,2028.2ZM1278.2,2101.81L1300.49,2101.81C1299.97,2093.58 1294.45,2089.31 1288.41,2089.31C1282.78,2089.31 1278.41,2095.25 1278.2,2101.81ZM1307.99,2105.14L1278.2,2105.14C1277.37,2114.31 1282.05,2127.33 1294.76,2127.33C1299.34,2127.33 1303.2,2125.87 1308.72,2122.33L1307.99,2126.19C1302.68,2129.94 1298.09,2131.5 1292.36,2131.5C1279.66,2131.5 1270.7,2121.5 1270.7,2107.55C1270.7,2094.94 1278.2,2086.5 1289.45,2086.5C1299.34,2086.5 1306.74,2093.89 1307.99,2105.14ZM1250.62,2126.92L1250.62,2097.64C1247.39,2093.06 1243.01,2090.46 1238.32,2090.46C1230.51,2090.46 1224.78,2097.85 1224.78,2107.86C1224.78,2116.19 1229.47,2126.92 1242.18,2126.92L1250.62,2126.92ZM1250.62,2091.71L1250.62,2065.04L1242.7,2065.04L1242.7,2061.71L1257.49,2061.71L1257.49,2126.92L1265.4,2126.92L1265.4,2130.25L1240.62,2130.25C1225.41,2130.25 1217.28,2120.56 1217.28,2108.48C1217.28,2096.61 1226.76,2086.5 1237.91,2086.5C1242.39,2086.5 1245.51,2087.86 1250.62,2091.71ZM1173.18,2126.92L1173.18,2091.08L1164.95,2091.08L1164.95,2087.75L1180.06,2087.75L1180.06,2092.65C1186.62,2088.17 1190.47,2086.5 1195.16,2086.5C1202.24,2086.5 1207.87,2090.88 1207.87,2099.11L1207.87,2126.92L1215.58,2126.92L1215.58,2130.25L1193.29,2130.25L1193.29,2126.92L1201,2126.92L1201,2102.34C1201,2094.42 1198.29,2090.77 1192.14,2090.77C1187.87,2090.77 1184.12,2092.34 1180.06,2095.67L1180.06,2126.92L1187.55,2126.92L1187.55,2130.25L1164.95,2130.25L1164.95,2126.92L1173.18,2126.92ZM1149.85,2087.75L1149.85,2126.92L1157.35,2126.92L1157.35,2130.25L1142.97,2130.25L1142.97,2125.14C1137.35,2129.52 1132.76,2131.5 1128.08,2131.5C1120.99,2131.5 1115.16,2127.12 1115.16,2117.75L1115.16,2091.08L1107.14,2091.08L1107.14,2087.75L1122.03,2087.75L1122.03,2117.12C1122.03,2124.1 1126.93,2127.33 1131.2,2127.33C1134.85,2127.33 1138.39,2125.77 1142.97,2122.33L1142.97,2091.08L1135.16,2091.08L1135.16,2087.75L1149.85,2087.75ZM1063.1,2109C1063.1,2120.56 1069.56,2128.69 1078.62,2128.69C1087.79,2128.69 1094.14,2120.56 1094.14,2109.1C1094.14,2097.44 1087.79,2089.31 1078.62,2089.31C1069.56,2089.31 1063.1,2097.44 1063.1,2109ZM1055.6,2109C1055.6,2096.09 1065.39,2086.5 1078.62,2086.5C1091.85,2086.5 1101.64,2096.09 1101.64,2109C1101.64,2121.92 1091.85,2131.5 1078.62,2131.5C1065.39,2131.5 1055.6,2121.92 1055.6,2109ZM1032.93,2126.92L1032.93,2091.71L1025.85,2091.71L1025.85,2087.75L1032.93,2087.75L1032.93,2081.19C1032.93,2067.23 1040.02,2058.48 1055.54,2058.48C1057.62,2058.48 1059.81,2058.58 1062.2,2058.9L1062.2,2071.08L1060.54,2071.08C1059.29,2064.63 1056.68,2062.12 1051.69,2062.12C1044.08,2062.12 1039.81,2067.86 1039.81,2078.48L1039.81,2087.75L1049.81,2087.75L1049.81,2091.71L1039.81,2091.71L1039.81,2126.92L1047.93,2126.92L1047.93,2130.25L1025.23,2130.25L1025.23,2126.92L1032.93,2126.92ZM1348.15,2091.71L1348.15,2065.04L1340.24,2065.04L1340.24,2061.71L1355.03,2061.71L1355.03,2126.92L1362.94,2126.92L1362.94,2130.25L1338.15,2130.25C1322.95,2130.25 1314.82,2120.56 1314.82,2108.48C1314.82,2096.61 1324.3,2086.5 1335.44,2086.5C1339.92,2086.5 1343.05,2087.86 1348.15,2091.71ZM1348.15,2126.92L1348.15,2097.64C1344.92,2093.06 1340.55,2090.46 1335.86,2090.46C1328.05,2090.46 1322.32,2097.85 1322.32,2107.86C1322.32,2116.19 1327,2126.92 1339.72,2126.92" style="fill:rgb(140,140,140);fill-rule:nonzero;"/>
            </g>
        </g>
    </g>
</svg>
