<?xml version="1.0" encoding="UTF-8" standalone="no"?>
<!DOCTYPE svg PUBLIC "-//W3C//DTD SVG 1.1//EN" "http://www.w3.org/Graphics/SVG/1.1/DTD/svg11.dtd">
<svg width="100%" height="100%" viewBox="0 0 1405 632" version="1.1" xmlns="http://www.w3.org/2000/svg" xmlns:xlink="http://www.w3.org/1999/xlink" xml:space="preserve" xmlns:serif="http://www.serif.com/" style="fill-rule:evenodd;clip-rule:evenodd;stroke-linejoin:round;stroke-miterlimit:2;">
    <g transform="matrix(1,0,0,1,-4252,-530)">
        <g transform="matrix(2.64141,0,0,2.64141,4165.37,592.02)">
            <g>
                <path d="M153.66,60.96L137.4,60.96L137.4,149.49L181.72,149.49L187.02,135.78L153.66,135.78L153.66,60.96Z" style="fill:rgb(140,140,140);fill-rule:nonzero;"/>
            </g>
            <g>
                <g>
                    <path d="M223.64,60.56L189.25,149.49L205.24,149.49L213.43,127.33L245,127.33L253.73,149.49L271.06,149.49L235.46,60.56L223.64,60.56ZM218.41,114.02L229.35,84.81L239.9,114.02L218.41,114.02Z" style="fill:rgb(140,140,140);fill-rule:nonzero;"/>
                </g>
            </g>
            <g>
                <path d="M128.22,134.05L126.99,130.82C122.48,133.26 117.83,135.06 112.83,136C110.39,136.46 107.87,136.73 105.23,136.73C100.9,136.73 96.98,135.93 93.5,134.51C93.02,134.31 92.56,134.1 92.09,133.88C77.04,126.93 67.8,112.15 67.8,92.83C67.8,85.48 69.36,78.7 72.14,72.69C63.18,81.06 58.08,92.91 58.08,106.09C58.08,131.35 74.47,150.83 102.68,150.83C112.22,150.83 121.62,148.41 131.43,142.5L128.92,135.87L128.22,134.05Z" style="fill:rgb(140,140,140);fill-rule:nonzero;"/>
            </g>
            <g>
                <path d="M76.85,114.38C76.11,111.43 75.68,108.31 75.68,105.02C75.68,88.36 85.89,73.45 106.44,73.45C112.63,73.45 118.33,74.62 124.05,77.23C125.65,77.96 127.26,78.79 128.87,79.76L128.87,79.4L129,64.98C123.76,62.03 115.43,60.14 106.03,60.14C94.8,60.14 85.16,63.25 77.49,68.45L77.43,68.57C73.59,75.51 71.64,83.26 71.64,91.6C71.65,99.99 73.44,107.73 76.85,114.38Z" style="fill:rgb(140,140,140);fill-rule:nonzero;"/>
            </g>
            <g>
                <path d="M293.74,81.78C293.74,75.79 299.45,72.66 306.66,72.66C314.01,72.66 319.46,74.45 326.4,78.26C326.4,78.26 326.37,65.84 326.37,62.81C321.2,60.59 315.36,59.19 305.85,59.19C287.08,59.19 276.6,70.48 276.6,83.82C276.6,90.76 278.91,95.93 282.45,99.87C293.33,112.12 315.1,114.43 315.1,127.22C315.1,134.7 307.21,137.56 300.27,137.56C291.84,137.56 284.9,134.16 280,130.76L273.33,142.87C279.32,146.95 288.3,151.03 300.95,151.03C318.64,151.03 332.51,141.1 332.51,125.32C332.52,97.42 293.74,98.38 293.74,81.78Z" style="fill:rgb(140,140,140);fill-rule:nonzero;"/>
            </g>
            <g>
                <path d="M428.17,135.91L414.23,135.92L414.23,111.06L437.51,111.06C437.38,109.47 437.29,107.86 437.29,106.23C437.29,103.26 437.56,100.35 437.98,97.5L414.23,97.5L414.23,74.53L442.84,74.53L447.27,60.96L397.97,60.96L397.97,149.49L447.28,149.49L442.85,135.92L428.17,135.92L428.17,135.91Z" style="fill:rgb(140,140,140);fill-rule:nonzero;"/>
            </g>
            <g>
                <path d="M350.55,81.78C350.55,75.79 356.26,72.66 363.47,72.66C370.82,72.66 376.27,74.45 383.21,78.26C383.21,78.26 383.38,64.69 383.38,62.89C378.16,60.62 372.29,59.18 362.65,59.18L362.53,59.18C343.83,59.23 333.4,70.5 333.4,83.8C333.4,90.74 335.71,95.91 339.25,99.86C350.13,112.11 371.9,114.42 371.9,127.21C371.9,134.69 364.01,137.55 357.07,137.55C349.78,137.55 343.61,135.01 338.9,132.12C337.97,136.9 335.69,141 332.34,144.27C338.25,147.83 346.56,151.02 357.74,151.02C375.43,151.02 389.3,141.09 389.3,125.31C389.32,97.42 350.55,98.38 350.55,81.78Z" style="fill:rgb(140,140,140);fill-rule:nonzero;"/>
            </g>
            <g>
                <path d="M509.98,158.73C510.36,158.82 510.75,158.91 511.14,158.98C510.75,158.91 510.36,158.82 509.98,158.73Z" style="fill:rgb(140,140,140);fill-rule:nonzero;"/>
            </g>
            <g>
                <path d="M508.83,158.41C509.09,158.49 509.37,158.56 509.64,158.63C509.37,158.56 509.1,158.49 508.83,158.41Z" style="fill:rgb(140,140,140);fill-rule:nonzero;"/>
            </g>
            <g>
                <g>
                    <path d="M526.45,157.79C526.37,157.82 526.28,157.85 526.19,157.87C525.65,158.05 525.1,158.22 524.56,158.36C523.99,158.51 523.42,158.64 522.85,158.76C522.51,158.83 522.18,158.91 521.84,158.97C521.82,158.97 521.81,158.97 521.79,158.98C521.64,159 521.49,159.02 521.35,159.04C520.67,159.15 519.98,159.24 519.28,159.3L519.25,159.3C518.53,159.36 517.8,159.4 517.07,159.4C516.91,159.4 516.77,159.38 516.61,159.37C516.56,159.37 516.52,159.36 516.47,159.36C515.91,159.35 515.37,159.31 514.84,159.26C514.79,159.26 514.74,159.25 514.69,159.24C514.18,159.19 513.69,159.12 513.2,159.04C513.07,159.02 512.94,159 512.81,158.97C512.42,158.9 512.03,158.81 511.65,158.72C511.54,158.69 511.43,158.66 511.31,158.63L511.32,158.63C511.05,158.56 510.77,158.49 510.51,158.4C510.32,158.34 510.13,158.27 509.95,158.21C509.78,158.15 509.62,158.1 509.45,158.04C509.61,158.1 509.78,158.15 509.95,158.21C509.42,158.03 508.9,157.84 508.4,157.63C508.33,157.6 508.25,157.57 508.18,157.54C507.64,157.3 507.11,157.05 506.59,156.78C506.44,156.7 506.29,156.62 506.15,156.54C505.7,156.29 505.25,156.04 504.81,155.76C504.56,155.6 504.31,155.42 504.06,155.25C503.71,155.01 503.36,154.78 503.01,154.53C502.42,154.09 501.84,153.64 501.27,153.16C500.62,152.62 499.99,152.06 499.35,151.48L499.37,151.48C498.95,151.08 498.57,150.7 498.25,150.38C495.25,147.34 492.16,142.16 490.17,138.5C489.2,138.44 488.26,138.35 487.33,138.21C487.32,138.21 487.3,138.21 487.29,138.2C487.16,138.18 487.04,138.15 486.91,138.13C486.14,138 485.37,137.85 484.63,137.67C485.06,137.78 485.5,137.88 485.95,137.96C485.51,137.87 485.07,137.77 484.63,137.67C484.59,137.66 484.56,137.65 484.52,137.64C483.68,137.43 482.85,137.18 482.05,136.89C481.99,136.87 481.93,136.85 481.87,136.83C481.1,136.55 480.34,136.24 479.61,135.89C479.52,135.85 479.44,135.81 479.35,135.77C478.65,135.43 477.97,135.06 477.31,134.66C477.2,134.59 477.09,134.53 476.99,134.46C476.36,134.07 475.75,133.65 475.16,133.2C475.03,133.1 474.9,132.99 474.77,132.89C474.22,132.45 473.68,132 473.17,131.52C473.02,131.38 472.87,131.23 472.72,131.08C472.24,130.61 471.78,130.13 471.34,129.61C471.18,129.42 471.02,129.22 470.86,129.02C470.46,128.52 470.06,128.02 469.69,127.49C469.52,127.24 469.36,126.98 469.19,126.73C468.86,126.22 468.53,125.7 468.22,125.16C468.04,124.85 467.89,124.52 467.72,124.19C467.45,123.67 467.18,123.15 466.94,122.6C466.77,122.22 466.63,121.81 466.47,121.42C466.26,120.9 466.05,120.38 465.87,119.84C465.72,119.38 465.59,118.89 465.45,118.42C465.3,117.91 465.14,117.4 465.02,116.87C464.89,116.31 464.79,115.72 464.68,115.15C464.59,114.67 464.48,114.2 464.4,113.7C464.35,113.35 464.3,113 464.26,112.64C464.3,113 464.34,113.36 464.4,113.7C464.29,113 464.23,112.27 464.15,111.55C464.11,111.14 464.05,110.74 464.02,110.33C463.93,109.17 463.89,107.99 463.89,106.77C463.89,86.75 475.44,74.66 492.1,74.66C493.46,74.66 494.77,74.77 496.05,74.93C500.29,75.5 503.52,76.8 504.41,77.18C507.51,78.51 510.2,80.22 512.49,82.23C512.35,82.04 512.23,81.83 512.09,81.64C505.41,72.64 494.93,66.34 481.38,64.34C479.48,64.06 477.62,63.91 475.78,63.84C475.75,63.85 475.72,63.86 475.69,63.87C474.19,64.4 472.74,65 471.34,65.67C471.32,65.68 471.3,65.69 471.28,65.7C471.25,65.71 471.22,65.73 471.19,65.74C469.83,66.4 468.53,67.12 467.27,67.9C467.14,67.98 467.01,68.05 466.88,68.13C465.74,68.85 464.66,69.64 463.6,70.46C463.4,70.61 463.19,70.75 462.99,70.91C461.8,71.87 460.66,72.9 459.58,73.99C457.57,76.07 455.76,78.36 454.19,80.84C454.01,81.12 453.84,81.41 453.66,81.7C449.27,88.95 446.82,97.68 446.82,107.17C446.82,120.87 451.79,132.69 460.66,140.89C465.5,145.46 471.68,148.68 478.66,150.56C486.72,161.84 497.47,172.05 512.78,172.05C518.96,172.05 525.14,171.24 530.11,168.96L526.45,157.79ZM492.06,74.64C493.45,74.64 494.77,74.75 496.01,74.91C494.73,74.75 493.42,74.64 492.06,74.64Z" style="fill:rgb(140,140,140);fill-rule:nonzero;"/>
                </g>
            </g>
            <g>
                <path d="M512.69,76.95C519.49,86.1 521.78,98.14 519.88,111.03C519.8,111.59 519.49,113.66 519.39,114.19C519.38,114.22 519.38,114.25 519.37,114.28C519.2,115.27 519,116.24 518.77,117.18C518.77,117.2 518.76,117.22 518.76,117.23C518.52,118.18 518.25,119.1 517.95,119.99C517.94,120.01 517.94,120.03 517.93,120.05C517.63,120.94 517.3,121.79 516.93,122.62C516.92,122.65 516.9,122.67 516.89,122.7C516.53,123.51 516.14,124.3 515.73,125.05C515.7,125.1 515.67,125.15 515.64,125.2C515.23,125.93 514.81,126.63 514.35,127.3C514.3,127.38 514.24,127.45 514.18,127.53C513.74,128.16 513.28,128.77 512.8,129.35C512.71,129.46 512.6,129.56 512.51,129.67C512.05,130.2 511.58,130.72 511.08,131.21C510.93,131.35 510.78,131.48 510.63,131.62C510.17,132.05 509.7,132.48 509.21,132.87C509,133.04 508.77,133.19 508.55,133.36C508.1,133.69 507.66,134.03 507.19,134.33C506.89,134.52 506.57,134.69 506.26,134.87C505.85,135.11 505.44,135.36 505.02,135.58C504.62,135.78 504.2,135.96 503.79,136.14C503.43,136.3 503.07,136.48 502.7,136.62C502.19,136.82 501.65,136.99 501.12,137.16C500.83,137.25 500.55,137.36 500.25,137.45C499.6,137.63 498.93,137.78 498.25,137.92C498.06,137.96 497.87,138.01 497.68,138.05C496.87,138.2 496.04,138.31 495.2,138.39C495.13,138.4 495.06,138.41 494.99,138.42C496.82,141.54 499.1,145.08 501.23,147.33C502.07,148.22 503.25,149.29 504.63,150.36C508.42,149.38 511.92,147.97 515.13,146.18C515.36,146.05 515.59,145.93 515.82,145.8C516.39,145.47 516.94,145.12 517.49,144.77C517.88,144.52 518.27,144.26 518.65,144C519.09,143.69 519.54,143.38 519.97,143.06C520.47,142.69 520.96,142.3 521.44,141.9C521.76,141.64 522.08,141.39 522.39,141.12C523.19,140.43 523.97,139.71 524.72,138.96C532.91,130.9 537.21,119.21 537.21,106.32C537.21,93.29 533.05,81.74 524.99,73.68C517.06,65.76 505.78,61.05 492.08,61.05C491.05,61.05 490.05,61.13 489.04,61.19C499.18,64.08 507.22,69.59 512.69,76.95Z" style="fill:rgb(140,140,140);fill-rule:nonzero;"/>
            </g>
        </g>
    </g>
</svg>
