<?xml version="1.0" encoding="UTF-8" standalone="no"?>
<!DOCTYPE svg PUBLIC "-//W3C//DTD SVG 1.1//EN" "http://www.w3.org/Graphics/SVG/1.1/DTD/svg11.dtd">
<svg width="100%" height="100%" viewBox="0 0 1881 632" version="1.1" xmlns="http://www.w3.org/2000/svg" xmlns:xlink="http://www.w3.org/1999/xlink" xml:space="preserve" xmlns:serif="http://www.serif.com/" style="fill-rule:evenodd;clip-rule:evenodd;stroke-linejoin:round;stroke-miterlimit:2;">
    <g transform="matrix(1,0,0,1,-6399,-530)">
        <g transform="matrix(1.011,0,0,1.011,6192.4,-583.633)">
            <g transform="matrix(1.0087,0,0,1.0087,-581.47,-351.153)">
                <g transform="matrix(3.27198,0,0,3.27198,79.0318,501.257)">
                    <path d="M270.88,324.34C271.84,324.34 272.61,323.57 272.61,322.62C272.61,321.67 271.84,320.89 270.88,320.89C269.93,320.89 269.15,321.66 269.15,322.62C269.15,323.57 269.93,324.34 270.88,324.34Z" style="fill:rgb(140,140,140);fill-rule:nonzero;"/>
                </g>
                <g transform="matrix(3.27198,0,0,3.27198,79.0318,501.257)">
                    <path d="M293.95,323.39C294.37,323.39 294.72,323.04 294.72,322.62C294.72,322.2 294.38,321.85 293.95,321.85C293.53,321.85 293.18,322.19 293.18,322.62C293.18,323.04 293.52,323.39 293.95,323.39Z" style="fill:rgb(140,140,140);fill-rule:nonzero;"/>
                </g>
                <g transform="matrix(3.27198,0,0,3.27198,79.0318,501.257)">
                    <path d="M247.81,346.26C248.13,346.26 248.39,346 248.39,345.68C248.39,345.36 248.13,345.1 247.81,345.1C247.49,345.1 247.24,345.36 247.24,345.68C247.24,346 247.5,346.26 247.81,346.26Z" style="fill:rgb(140,140,140);fill-rule:nonzero;"/>
                </g>
                <g transform="matrix(3.27198,0,0,3.27198,79.0318,501.257)">
                    <path d="M270.88,358.99C278.23,358.99 284.18,353.04 284.18,345.69C284.18,338.34 278.23,332.39 270.88,332.39C263.53,332.39 257.58,338.34 257.58,345.69C257.58,353.03 263.53,358.99 270.88,358.99Z" style="fill:rgb(140,140,140);fill-rule:nonzero;"/>
                </g>
                <g transform="matrix(3.27198,0,0,3.27198,79.0318,501.257)">
                    <path d="M293.95,354.32C298.72,354.32 302.59,350.45 302.59,345.69C302.59,340.92 298.72,337.06 293.95,337.06C289.18,337.06 285.32,340.93 285.32,345.69C285.31,350.45 289.18,354.32 293.95,354.32Z" style="fill:rgb(140,140,140);fill-rule:nonzero;"/>
                </g>
                <g transform="matrix(3.27198,0,0,3.27198,79.0318,501.257)">
                    <path d="M224.75,368.94C224.86,368.94 224.94,368.86 224.94,368.75C224.94,368.64 224.85,368.56 224.75,368.56C224.65,368.56 224.56,368.65 224.56,368.75C224.56,368.86 224.64,368.94 224.75,368.94Z" style="fill:rgb(140,140,140);fill-rule:nonzero;"/>
                </g>
                <g transform="matrix(3.27198,0,0,3.27198,79.0318,501.257)">
                    <path d="M247.81,371.95C249.58,371.95 251.01,370.52 251.01,368.75C251.01,366.98 249.58,365.55 247.81,365.55C246.05,365.55 244.61,366.98 244.61,368.75C244.62,370.52 246.05,371.95 247.81,371.95Z" style="fill:rgb(140,140,140);fill-rule:nonzero;"/>
                </g>
                <g transform="matrix(3.27198,0,0,3.27198,79.0318,501.257)">
                    <path d="M270.88,374.57C274.09,374.57 276.7,371.96 276.7,368.75C276.7,365.54 274.09,362.93 270.88,362.93C267.67,362.93 265.06,365.54 265.06,368.75C265.06,371.96 267.67,374.57 270.88,374.57Z" style="fill:rgb(140,140,140);fill-rule:nonzero;"/>
                </g>
                <g transform="matrix(3.27198,0,0,3.27198,79.0318,501.257)">
                    <path d="M293.95,375.34C297.59,375.34 300.54,372.39 300.54,368.75C300.54,365.11 297.59,362.16 293.95,362.16C290.31,362.16 287.36,365.11 287.36,368.75C287.36,372.39 290.31,375.34 293.95,375.34Z" style="fill:rgb(140,140,140);fill-rule:nonzero;"/>
                </g>
                <g transform="matrix(3.27198,0,0,3.27198,79.0318,501.257)">
                    <path d="M317.01,369.84C317.61,369.84 318.1,369.35 318.1,368.75C318.1,368.15 317.61,367.66 317.01,367.66C316.41,367.66 315.92,368.15 315.92,368.75C315.93,369.35 316.41,369.84 317.01,369.84Z" style="fill:rgb(140,140,140);fill-rule:nonzero;"/>
                </g>
                <g transform="matrix(3.27198,0,0,3.27198,79.0318,501.257)">
                    <path d="M224.75,393.61C225.74,393.61 226.54,392.81 226.54,391.82C226.54,390.83 225.74,390.03 224.75,390.03C223.76,390.03 222.96,390.83 222.96,391.82C222.96,392.8 223.76,393.61 224.75,393.61Z" style="fill:rgb(140,140,140);fill-rule:nonzero;"/>
                </g>
                <g transform="matrix(3.27198,0,0,3.27198,79.0318,501.257)">
                    <path d="M247.81,405.44C255.33,405.44 261.43,399.34 261.43,391.82C261.43,384.3 255.33,378.2 247.81,378.2C240.29,378.2 234.19,384.3 234.19,391.82C234.19,399.34 240.29,405.44 247.81,405.44Z" style="fill:rgb(140,140,140);fill-rule:nonzero;"/>
                </g>
                <g transform="matrix(3.27198,0,0,3.27198,79.0318,501.257)">
                    <path d="M270.88,400.07C275.44,400.07 279.13,396.38 279.13,391.82C279.13,387.26 275.44,383.57 270.88,383.57C266.32,383.57 262.63,387.27 262.63,391.82C262.63,396.37 266.32,400.07 270.88,400.07Z" style="fill:rgb(140,140,140);fill-rule:nonzero;"/>
                </g>
                <g transform="matrix(3.27198,0,0,3.27198,79.0318,501.257)">
                    <path d="M293.95,406.78C302.22,406.78 308.92,400.08 308.92,391.81C308.92,383.54 302.22,376.84 293.95,376.84C285.68,376.84 278.98,383.54 278.98,391.81C278.98,400.08 285.68,406.78 293.95,406.78Z" style="fill:rgb(140,140,140);fill-rule:nonzero;"/>
                </g>
                <g transform="matrix(3.27198,0,0,3.27198,79.0318,501.257)">
                    <path d="M317.01,399.04C321,399.04 324.24,395.8 324.24,391.81C324.24,387.82 321,384.58 317.01,384.58C313.02,384.58 309.78,387.82 309.78,391.81C309.79,395.81 313.02,399.04 317.01,399.04Z" style="fill:rgb(140,140,140);fill-rule:nonzero;"/>
                </g>
                <g transform="matrix(3.27198,0,0,3.27198,79.0318,501.257)">
                    <path d="M224.75,415.01C224.82,415.01 224.88,414.95 224.88,414.88C224.88,414.81 224.82,414.75 224.75,414.75C224.68,414.75 224.62,414.81 224.62,414.88C224.62,414.95 224.68,415.01 224.75,415.01Z" style="fill:rgb(140,140,140);fill-rule:nonzero;"/>
                </g>
                <g transform="matrix(3.27198,0,0,3.27198,79.0318,501.257)">
                    <path d="M247.81,417.5C249.26,417.5 250.43,416.33 250.43,414.88C250.43,413.43 249.26,412.26 247.81,412.26C246.36,412.26 245.19,413.43 245.19,414.88C245.19,416.33 246.37,417.5 247.81,417.5Z" style="fill:rgb(140,140,140);fill-rule:nonzero;"/>
                </g>
                <g transform="matrix(3.27198,0,0,3.27198,79.0318,501.257)">
                    <path d="M270.88,422.49C275.08,422.49 278.49,419.08 278.49,414.88C278.49,410.68 275.08,407.27 270.88,407.27C266.68,407.27 263.27,410.68 263.27,414.88C263.27,419.08 266.68,422.49 270.88,422.49Z" style="fill:rgb(140,140,140);fill-rule:nonzero;"/>
                </g>
                <g transform="matrix(3.27198,0,0,3.27198,79.0318,501.257)">
                    <path d="M293.95,424.54C299.28,424.54 303.61,420.22 303.61,414.88C303.61,409.55 299.29,405.22 293.95,405.22C288.62,405.22 284.29,409.54 284.29,414.88C284.29,420.21 288.61,424.54 293.95,424.54Z" style="fill:rgb(140,140,140);fill-rule:nonzero;"/>
                </g>
                <g transform="matrix(3.27198,0,0,3.27198,79.0318,501.257)">
                    <path d="M317.01,423.26C321.64,423.26 325.39,419.51 325.39,414.88C325.39,410.25 321.64,406.5 317.01,406.5C312.38,406.5 308.63,410.25 308.63,414.88C308.63,419.51 312.39,423.26 317.01,423.26Z" style="fill:rgb(140,140,140);fill-rule:nonzero;"/>
                </g>
                <g transform="matrix(3.27198,0,0,3.27198,79.0318,501.257)">
                    <path d="M340.08,415.39C340.36,415.39 340.59,415.16 340.59,414.88C340.59,414.6 340.36,414.37 340.08,414.37C339.8,414.37 339.57,414.6 339.57,414.88C339.57,415.16 339.8,415.39 340.08,415.39Z" style="fill:rgb(140,140,140);fill-rule:nonzero;"/>
                </g>
                <g transform="matrix(3.27198,0,0,3.27198,79.0318,501.257)">
                    <path d="M247.81,442.17C250.14,442.17 252.03,440.28 252.03,437.95C252.03,435.62 250.14,433.73 247.81,433.73C245.48,433.73 243.59,435.62 243.59,437.95C243.59,440.28 245.48,442.17 247.81,442.17Z" style="fill:rgb(140,140,140);fill-rule:nonzero;"/>
                </g>
                <g transform="matrix(3.27198,0,0,3.27198,79.0318,501.257)">
                    <path d="M270.88,450.1C277.59,450.1 283.03,444.66 283.03,437.95C283.03,431.24 277.59,425.8 270.88,425.8C264.17,425.8 258.73,431.24 258.73,437.95C258.73,444.66 264.17,450.1 270.88,450.1Z" style="fill:rgb(140,140,140);fill-rule:nonzero;"/>
                </g>
                <g transform="matrix(3.27198,0,0,3.27198,79.0318,501.257)">
                    <path d="M293.95,442.42C296.42,442.42 298.43,440.41 298.43,437.94C298.43,435.47 296.42,433.46 293.95,433.46C291.48,433.46 289.47,435.46 289.47,437.94C289.47,440.42 291.47,442.42 293.95,442.42Z" style="fill:rgb(140,140,140);fill-rule:nonzero;"/>
                </g>
                <g transform="matrix(3.27198,0,0,3.27198,79.0318,501.257)">
                    <path d="M317.01,452.53C325.06,452.53 331.59,446 331.59,437.95C331.59,429.9 325.06,423.37 317.01,423.37C308.96,423.37 302.43,429.9 302.43,437.95C302.43,446 308.96,452.53 317.01,452.53Z" style="fill:rgb(140,140,140);fill-rule:nonzero;"/>
                </g>
                <g transform="matrix(3.27198,0,0,3.27198,79.0318,501.257)">
                    <path d="M340.08,441.98C342.3,441.98 344.11,440.18 344.11,437.95C344.11,435.72 342.3,433.92 340.08,433.92C337.85,433.92 336.05,435.72 336.05,437.95C336.05,440.17 337.85,441.98 340.08,441.98Z" style="fill:rgb(140,140,140);fill-rule:nonzero;"/>
                </g>
                <g transform="matrix(3.27198,0,0,3.27198,79.0318,501.257)">
                    <path d="M247.81,461.14C247.88,461.14 247.94,461.08 247.94,461.01C247.94,460.94 247.88,460.88 247.81,460.88C247.74,460.88 247.68,460.94 247.68,461.01C247.69,461.08 247.74,461.14 247.81,461.14Z" style="fill:rgb(140,140,140);fill-rule:nonzero;"/>
                </g>
                <g transform="matrix(3.27198,0,0,3.27198,79.0318,501.257)">
                    <path d="M270.88,461.59C271.2,461.59 271.46,461.33 271.46,461.01C271.46,460.69 271.2,460.43 270.88,460.43C270.56,460.43 270.3,460.69 270.3,461.01C270.3,461.33 270.56,461.59 270.88,461.59Z" style="fill:rgb(140,140,140);fill-rule:nonzero;"/>
                </g>
                <g transform="matrix(3.27198,0,0,3.27198,79.0318,501.257)">
                    <path d="M293.95,461.46C294.2,461.46 294.4,461.26 294.4,461.01C294.4,460.76 294.2,460.56 293.95,460.56C293.7,460.56 293.5,460.76 293.5,461.01C293.5,461.26 293.7,461.46 293.95,461.46Z" style="fill:rgb(140,140,140);fill-rule:nonzero;"/>
                </g>
                <g transform="matrix(3.27198,0,0,3.27198,79.0318,501.257)">
                    <path d="M317.01,464.53C318.95,464.53 320.53,462.95 320.53,461.01C320.53,459.07 318.96,457.49 317.01,457.49C315.07,457.49 313.49,459.07 313.49,461.01C313.5,462.96 315.07,464.53 317.01,464.53Z" style="fill:rgb(140,140,140);fill-rule:nonzero;"/>
                </g>
                <g transform="matrix(3.27198,0,0,3.27198,79.0318,501.257)">
                    <path d="M340.08,461.59C340.4,461.59 340.65,461.33 340.65,461.01C340.65,460.69 340.39,460.43 340.08,460.43C339.77,460.43 339.5,460.69 339.5,461.01C339.5,461.33 339.76,461.59 340.08,461.59Z" style="fill:rgb(140,140,140);fill-rule:nonzero;"/>
                </g>
            </g>
            <g transform="matrix(3.43929,0,0,3.43929,348.681,-278.54)">
                <path d="M105,521.85L132.67,521.85L132.67,514.74L112.94,514.74L112.94,507.11L130.07,507.11L130.07,500L112.94,500L112.94,492.63L132.41,492.63L132.41,485.52L105,485.52L105,521.85ZM144.45,521.85L152.6,521.85L155.92,513.7L171.29,513.7L174.61,521.85L182.97,521.85L167.4,485.25L160.03,485.25L144.45,521.85ZM158.78,506.64L163.61,494.86L168.44,506.64L158.78,506.64ZM210.23,522.42C219.99,522.42 226.17,517.02 226.17,506.02L226.17,485.51L218.18,485.51L218.18,506.33C218.18,512.09 215.22,515.05 210.34,515.05C205.46,515.05 202.5,511.99 202.5,506.07L202.5,485.51L194.51,485.51L194.51,506.28C194.5,516.97 200.47,522.42 210.23,522.42ZM256.02,522.11L258.41,522.11L274.4,485.51L271.54,485.51L257.26,518.94L243.04,485.51L240.03,485.51L256.02,522.11ZM281.56,521.85L284.36,521.85L288.98,511.68L310.42,511.68L315.04,521.85L318,521.85L301.08,485.25L298.48,485.25L281.56,521.85ZM290.12,509.24L299.72,488.22L309.27,509.24L290.12,509.24ZM338.87,521.85L341.57,521.85L341.57,488L354.24,488L354.24,485.51L326.2,485.51L326.2,488L338.87,488L338.87,521.85ZM370.59,521.85L373.29,521.85L373.29,485.51L370.59,485.51L370.59,521.85ZM408.85,522.47C419.86,522.47 427.17,513.59 427.17,503.68C427.22,503.63 427.22,503.63 427.17,503.58C427.17,493.66 419.95,484.89 408.95,484.89C397.94,484.89 390.62,493.77 390.62,503.68L390.62,503.78C390.63,513.7 397.84,522.47 408.85,522.47ZM408.95,520.03C399.97,520.03 393.43,512.66 393.43,503.68L393.43,503.58C393.43,494.6 399.87,487.33 408.85,487.33C417.83,487.33 424.37,494.7 424.37,503.68L424.37,503.78C424.37,512.77 417.93,520.03 408.95,520.03ZM444.15,521.85L446.75,521.85L446.75,489.56L472.34,521.85L474.37,521.85L474.37,485.51L471.77,485.51L471.77,517.12L446.7,485.51L444.16,485.51L444.16,521.85L444.15,521.85Z" style="fill:rgb(140,140,140);fill-rule:nonzero;"/>
            </g>
        </g>
    </g>
</svg>
