<?xml version="1.0" encoding="UTF-8" standalone="no"?>
<!DOCTYPE svg PUBLIC "-//W3C//DTD SVG 1.1//EN" "http://www.w3.org/Graphics/SVG/1.1/DTD/svg11.dtd">
<svg width="100%" height="100%" viewBox="0 0 1569 632" version="1.1" xmlns="http://www.w3.org/2000/svg" xmlns:xlink="http://www.w3.org/1999/xlink" xml:space="preserve" xmlns:serif="http://www.serif.com/" style="fill-rule:evenodd;clip-rule:evenodd;stroke-linejoin:round;stroke-miterlimit:2;">
    <g transform="matrix(1,0,0,1,-2184,-530)">
        <g transform="matrix(1.22296,0,0,1.22296,2027.51,450.892)">
            <path d="M1154.63,123.37C1161.75,108.47 1168.86,93.55 1176.2,78.75C1178.37,93.86 1180.32,109 1182.44,124.11C1197.02,118.96 1211.5,113.49 1226.33,109.06C1216.01,121.96 1205.76,134.92 1195.71,148.03C1206.62,156.59 1217.54,165.13 1228.45,173.7C1213.77,175.04 1199.07,176.16 1184.37,177.28C1183.64,192.96 1182.95,208.65 1181.83,224.31C1173.67,212.87 1165.42,201.49 1157.54,189.86C1145.39,200.83 1133.1,211.71 1121.64,223.4C1120.64,221.78 1122.03,220.14 1122.39,218.55C1126.5,204.32 1130.51,190.06 1134.59,175.83C1120.38,173.92 1106.17,172.06 1091.96,170.15C1105.8,162.18 1119.7,154.34 1133.55,146.4C1127.77,132.88 1122.18,119.28 1116.52,105.71C1129.24,111.55 1141.89,117.56 1154.63,123.37Z" style="fill:rgb(140,140,140);fill-rule:nonzero;"/>
            <path d="M739.71,211.48C752.05,210.53 764.41,209.66 776.76,208.82C767.91,255.37 759.11,301.92 750.25,348.46C746.44,367.86 738.24,387.09 723.53,400.72C708.06,415.05 686.67,421.02 666.01,421.92C646.57,422.99 626.04,420.3 609.4,409.51C598.35,402.7 590.14,391.61 586.66,379.12C581.8,362.36 584.34,344.35 590.19,328.19C598.26,306.57 615.71,288.86 636.87,279.8C665.46,266.69 697.76,268.57 728.4,269.6C732.15,250.22 735.91,230.85 739.71,211.48M641.52,313.45C630.35,325.1 625.07,341.1 623.38,356.87C622.49,365.96 624.14,375.76 630.01,383.01C635.88,390.02 645.06,393.34 653.97,394.03C667.63,395.43 682.54,393.38 693.49,384.48C702.95,377.1 708,365.56 710.41,354.09C714.42,334.31 718.47,314.54 722.56,294.78C709.39,293.4 696.04,292.72 682.88,294.51C667.72,296.63 652.2,302.02 641.52,313.45Z" style="fill:rgb(140,140,140);fill-rule:nonzero;"/>
            <path d="M837.22,275.29C855.33,270.23 874.51,268.89 893.13,271.59C904.23,273.31 915.49,277.28 923.63,285.32C932.6,294.55 934.58,308.89 931.08,320.93C928.14,331.63 919.93,340.03 910.71,345.75C897.33,354.04 881.65,357.72 866.17,359.53C846,361.73 825.62,360.01 805.69,356.56C804.24,371.31 809.74,387.06 821.44,396.46C828.77,402 837.63,405.14 846.44,407.41C866.01,412.26 886.38,411.25 906.27,409.3L905.19,410.08C887.41,422.37 865.49,427.85 844.02,427.44C828.28,427.17 812.21,424.36 798.29,416.7C786,410.03 775.67,399.25 770.58,386.12C767.3,377.51 766.23,368.12 767.14,358.97C768.22,340.47 775.11,322.3 786.85,307.93C799.68,292.09 817.67,280.83 837.22,275.29M842.59,299.59C828.05,306.39 817.13,319.37 810.77,333.91C832.27,337.47 854.78,339.19 875.97,332.95C883.03,331.08 889.72,326.93 893.7,320.69C896.68,316.13 897.24,310.22 895.56,305.08C893.72,300.04 889.07,296.34 883.95,295.03C870.2,291.4 855.37,293.7 842.59,299.59Z" style="fill:rgb(140,140,140);fill-rule:nonzero;"/>
            <path d="M1196.58,270.76C1216.69,268.36 1237.9,269.63 1256.39,278.52C1271.78,285.67 1283.8,300.29 1286.66,317.16C1290.21,337.23 1284.8,358.11 1274.44,375.4C1263.93,393.33 1247.02,406.97 1228.13,415.29C1212.44,422.29 1195.2,425.46 1178.07,425.41C1162.62,425.56 1146.94,422.79 1133.06,415.83C1119.85,409.1 1109.16,396.96 1105.37,382.5C1102.85,372.61 1102.69,362.19 1104.43,352.16C1108.03,331.32 1118.89,311.82 1134.79,297.85C1151.87,282.64 1173.88,273.23 1196.58,270.76M1197.53,296.83C1176.5,300.54 1159.08,316.43 1150.7,335.7C1145.81,346.71 1143.64,358.95 1144.78,370.96C1145.82,381.14 1152.71,390.66 1162.36,394.3C1179.68,401.03 1200.01,398.44 1215.67,388.68C1233.27,377.5 1244.35,357.49 1246.21,336.9C1247.81,324.18 1243.74,309.77 1232.58,302.44C1222.42,295.54 1209.32,294.58 1197.53,296.83Z" style="fill:rgb(140,140,140);fill-rule:nonzero;"/>
            <path d="M477.55,271.79C498.67,269.09 521.28,270.18 540.39,280.44C555.38,288.1 566.3,303.37 568.22,320.15C571.57,350.11 557.4,380.73 534,399.32C515.14,414.45 491.16,422.73 467.08,423.57C449.19,424.39 430.52,422.19 414.69,413.3C400.44,405.66 390.03,391.08 387.9,375.01C385.7,357.49 389.63,339.48 397.87,323.95C413.26,294.33 445.06,275.94 477.55,271.79M482.54,296.72C471.93,298.23 461.77,302.71 453.5,309.53C437.93,322.26 428.48,341.98 427.78,362.03C427.46,369.54 428.84,377.45 433.29,383.68C438.07,390.38 445.88,394.3 453.84,395.73C467.52,398.1 482.08,396.12 494.3,389.37C508.52,381.83 519.08,368.34 524.13,353.17C527.28,343.49 529.36,333.03 527.24,322.9C525.6,314.92 521.33,307.15 514.35,302.68C505.07,296.54 493.37,295.17 482.54,296.72Z" style="fill:rgb(140,140,140);fill-rule:nonzero;"/>
            <path d="M277.56,280.56C296.91,273.83 317.61,271.78 338.01,272.08C355.7,271.94 373.4,273.33 390.85,276.29C388.11,283.27 385.62,290.34 383.17,297.42C356.49,295.53 329.23,293.7 302.95,299.92C296.13,301.75 288.42,304.19 284.72,310.73C283.05,313.34 282.91,316.73 284.5,319.41C286.77,323.63 291.4,325.8 295.8,327.1C313.4,331.91 332.23,331.56 349.23,338.66C357.89,341.85 365.86,348.54 368.23,357.75C370.53,368.09 369.16,379.15 364.81,388.77C359.67,400.38 349.32,408.88 337.93,413.98C320.41,421.89 300.94,423.66 281.96,424.25C258.4,424.67 234.85,421.54 212.02,415.78C213.9,408.33 215.8,400.88 217.69,393.43C246.29,396.93 275.6,401.43 304.16,395.14C311.95,393.18 320.11,389.61 324.52,382.53C327.36,377.89 328.83,371.37 325.32,366.68C322.1,361.99 316.47,360.02 311.16,358.85C294.75,354.83 277.41,355.21 261.45,349.27C254.55,346.7 247.78,342.41 244.4,335.64C239.22,324.75 240.99,311.41 247.58,301.52C254.55,291.1 266.16,284.98 277.56,280.56Z" style="fill:rgb(140,140,140);fill-rule:nonzero;"/>
            <path d="M939.55,272.07C951.06,272.16 962.58,271.97 974.09,272.15C978.91,277.25 982.64,283.4 987.21,288.77C997.56,301.88 1008.41,314.58 1019.6,326.97C1011.64,334.85 1002.92,341.92 994.17,348.9C974.42,324.43 956.31,298.67 939.55,272.07Z" style="fill:rgb(140,140,140);fill-rule:nonzero;"/>
            <path d="M1014.61,373.76C1024.28,367.48 1032.63,359.51 1041.56,352.29C1063.42,376.08 1085.43,399.73 1107.58,423.25C1092.72,423.25 1077.86,423.12 1063,423.04C1060.52,423.33 1058.77,421.35 1057.09,419.88C1042.4,405.01 1027.84,389.97 1014.61,373.76Z" style="fill:rgb(140,140,140);fill-rule:nonzero;"/>
            <path d="M1116.67,227.66C1118.03,226.01 1119.47,224.42 1121.17,223.08C1120.88,224.08 1120.55,225.06 1120.19,226.03C1105.33,273.88 1078.45,318.23 1041.56,352.29C1032.63,359.51 1024.28,367.48 1014.61,373.76C982.47,395.59 944.34,409.87 905.19,410.08L906.27,409.3C918.69,401.31 931.61,394.1 943.81,385.75C961.19,374.3 977.88,361.85 994.17,348.9C1002.92,341.92 1011.64,334.85 1019.6,326.97C1054.61,296.59 1086.67,262.95 1116.67,227.66Z" style="fill:rgb(140,140,140);fill-rule:nonzero;"/>
        </g>
    </g>
</svg>
