<?xml version="1.0" encoding="utf-8"?>
<!-- Generated by IcoMoon.io -->
<!DOCTYPE svg PUBLIC "-//W3C//DTD SVG 1.1//EN" "http://www.w3.org/Graphics/SVG/1.1/DTD/svg11.dtd">
<svg version="1.1" xmlns="http://www.w3.org/2000/svg" xmlns:xlink="http://www.w3.org/1999/xlink" width="26" height="32" viewBox="0 0 26 32">
<path fill="#696969" d="M7.962 7.762c-0.1-0.401-0.15-0.851-0.15-1.252 0-2.754 2.203-4.958 4.958-4.958s4.958 2.203 4.958 4.958c0 0.451-0.050 0.851-0.15 1.252h1.552c0.1-0.401 0.15-0.851 0.15-1.252-0.050-3.606-2.955-6.51-6.51-6.51s-6.46 2.905-6.46 6.46c0 0.451 0.050 0.851 0.15 1.252h1.502v0.050z"></path>
<path fill="#d4d4d4" d="M22.736 32h-19.931c-1.552 0-2.804-1.252-2.804-2.804v-0.2l3.105-19.080c0.050-1.502 1.302-2.704 2.804-2.704h13.671c1.502 0 2.754 1.202 2.804 2.704l3.155 19.23c0 1.552-1.252 2.854-2.804 2.854zM1.502 29.196c0 0.701 0.601 1.302 1.302 1.302h19.931c0.701 0 1.302-0.551 1.302-1.252l-3.105-19.28c0-0.701-0.601-1.302-1.302-1.302h-13.671c-0.701 0-1.302 0.601-1.302 1.302v0.1l-3.155 19.13z"></path>
</svg>
