<svg xmlns="http://www.w3.org/2000/svg" width="267" height="46" viewBox="0 0 267 46"><g transform="translate(0 0)"><g fill-rule="evenodd" stroke-linejoin="round" class="nc-icon-wrapper" fill="#7b2727"><path d="M23.978 11.9a11.989 11.989 0 1 0-13.862 11.99v-8.497H7.118V11.9h2.998V9.248a4.24 4.24 0 0 1 4.496-4.705 17.87 17.87 0 0 1 2.682.24V7.78h-1.498a1.738 1.738 0 0 0-1.949 1.888v2.263h3.327l-.54 3.492h-2.772v8.392a11.989 11.989 0 0 0 10.116-11.914z" fill-rule="nonzero"></path></g></g><g transform="translate(24 0)"><g fill-rule="evenodd" stroke-linejoin="round" class="nc-icon-wrapper" fill="#7b2727"><g transform="matrix(.03692 0 0 .03692 0 -2.77)"><path d="M717.478 237.167c.317 7.033.477 14.099.477 21.196 0 216.471-164.783 466.07-466.053 466.07-92.515 0-178.629-27.12-251.119-73.6a331.864 331.864 0 0 0 39.081 2.297c76.752 0 147.372-26.186 203.452-70.132-71.699-1.314-132.182-48.678-153.029-113.756 10.013 1.917 20.263 2.947 30.829 2.947 14.921 0 29.4-2.011 43.151-5.75-74.93-15.051-131.406-81.251-131.406-160.617 0-.697 0-1.378.017-2.059 22.083 12.26 47.334 19.628 74.2 20.482-43.959-29.368-72.87-79.507-72.87-136.347 0-30.018 8.062-58.153 22.176-82.343 80.793 99.103 201.471 164.306 337.613 171.15-2.788-11.992-4.247-24.491-4.247-37.338 0-90.454 73.345-163.8 163.8-163.8 47.145 0 89.694 19.897 119.57 51.722 37.324-7.334 72.364-20.973 104.014-39.747-12.229 38.258-38.178 70.352-72.014 90.628 33.139-3.961 64.728-12.767 94.097-25.789-21.955 32.841-49.739 61.688-81.739 84.786z" fill-rule="nonzero" id="1679850489362-7905436__7935ec95c421cee6d86eb22ecd12f847" serif:id="1679850489362-7905436_7935ec95c421cee6d86eb22ecd12f847"></path></g></g></g><g transform="translate(54 0)"><g fill-rule="evenodd" stroke-linejoin="round" class="nc-icon-wrapper" fill="#7b2727"><path d="M16.85 0h-9.7C3.23.003.003 3.229 0 7.15v9.7C.002 20.772 3.229 24 7.15 24.002h9.7c3.922-.004 7.148-3.23 7.15-7.152v-9.7C24 3.228 20.773.002 16.85 0zm4.738 16.85c-.001 2.599-2.139 4.737-4.738 4.738h-9.7c-2.598 0-4.736-2.138-4.736-4.736V7.149c0-2.597 2.138-4.735 4.735-4.735h9.701c2.598.001 4.736 2.139 4.737 4.736v9.7z" fill-rule="nonzero"></path><path d="M12.001 5.795a6.211 6.211 0 0 0-6.206 6.206 6.212 6.212 0 0 0 6.206 6.206A6.212 6.212 0 0 0 18.207 12 6.211 6.211 0 0 0 12 5.795zm0 9.997a3.81 3.81 0 0 1-3.792-3.791A3.81 3.81 0 0 1 12 8.21H12A3.81 3.81 0 0 1 15.792 12 3.81 3.81 0 0 1 12 15.792zM18.22 4.354c.815 0 1.486.672 1.486 1.487 0 .816-.672 1.487-1.487 1.487-.816 0-1.487-.67-1.487-1.486 0-.82.556-1.488 1.488-1.488z" fill-rule="nonzero"></path></g></g><g transform="translate(78 0)"><g fill-rule="evenodd" stroke-linejoin="round" class="nc-icon-wrapper" fill="#7b2727"><path d="M17.25 0H6.75C3 0 0 3 0 6.75v10.5C0 21 3 24 6.75 24h10.5C21 24 24 21 24 17.25V6.75C24 3 21 0 17.25 0zM9 18.75c0 .45-.3.75-.75.75h-3c-.45 0-.75-.3-.75-.75v-9c0-.45.3-.75.75-.75h3c.45 0 .75.3.75.75v9zM6.75 8.25C5.475 8.25 4.5 7.275 4.5 6s.975-2.25 2.25-2.25S9 4.725 9 6s-.975 2.25-2.25 2.25zm12.75 10.5c0 .45-.3.75-.75.75H16.5c-.45 0-.75-.3-.75-.75v-4.875c0-.6-.525-1.125-1.125-1.125s-1.125.525-1.125 1.125v4.875c0 .45-.3.75-.75.75H10.5c-.45 0-.75-.3-.75-.75v-9c0-.45.3-.75.75-.75h3a.68.68 0 0 1 .525.225c.45-.15.9-.225 1.35-.225 2.25 0 4.125 1.875 4.125 4.125v5.625z" fill-rule="nonzero"></path></g></g><g transform="translate(102 0)"><g fill-rule="evenodd" stroke-linejoin="round" class="nc-icon-wrapper" fill="#7b2727"><path d="M11.987.027C5.384.027.012 5.4.012 12.002c0 5.146 3.264 9.544 7.829 11.234-.131-1.172-.111-3.092.106-4.021.203-.873 1.313-5.565 1.313-5.565s-.335-.67-.335-1.661c0-1.557.902-2.719 2.025-2.719.956 0 1.416.718 1.416 1.577 0 .961-.611 2.396-.928 3.727-.263 1.114.56 2.024 1.658 2.024 1.99 0 3.52-2.099 3.52-5.127 0-2.68-1.926-4.554-4.676-4.554-3.185 0-5.054 2.39-5.054 4.858 0 .962.37 1.994.833 2.555a.336.336 0 0 1 .078.32c-.085.354-.274 1.115-.311 1.27-.05.206-.163.248-.375.15-1.398-.651-2.272-2.695-2.272-4.337 0-3.53 2.565-6.774 7.397-6.774 3.883 0 6.9 2.767 6.9 6.465 0 3.858-2.432 6.963-5.808 6.963-1.135 0-2.2-.59-2.565-1.286 0 0-.562 2.138-.698 2.662-.236.906-1.244 2.783-1.75 3.636 1.158.374 2.391.578 3.672.578 6.604 0 11.975-5.371 11.975-11.975C23.962 5.4 18.591.027 11.987.027z" fill-rule="nonzero"></path></g></g><g transform="translate(126 0)"><g fill-rule="evenodd" stroke-linejoin="round" class="nc-icon-wrapper" fill="#7b2727"><path d="M29.867 32H0l1.333-8.467c.467-1.067 4-3.267 8.067-4.933l.533-1c-.467-.733-.867-1.6-1.267-2.733-.867-.533-1.533-1.6-1.733-2.933-.267-1.467-.067-2.6.533-3.333-.267-1.2-.067-3 .467-4.4.067-.2.133-.333.2-.467.467-1.133 1.133-1.867 1.933-2.2.4-.133.667-.2.8-.267.2-.067.267-.067.8-.4.733-.533 1.733-.8 2.867-.867h.733c1.2.067 2.133.333 2.867.867.333.133.667.267 1.067.467.133.067.333.067.6.2.6.267 1.067.667 1.467 1.4.8.867 1.333 1.933 1.4 2.933.133 1.333 0 2.267-.2 2.933.6.733.733 1.867.467 3.267-.267 1.333-.867 2.4-1.733 2.933-.4 1.067-.8 2-1.267 2.733l.533 1c4 1.667 7.6 3.867 8.067 4.933l.067.2 1.267 8.133-.001.001zM2.333 30h25.2l-.867-5.667c-.533-.533-3-2.267-7.267-4l-.333-.133-1.467-2.8.4-.533c.533-.667 1-1.667 1.467-3l.133-.467.467-.2c.333-.133.8-.733.933-1.6.2-.933.067-1.6-.2-1.8l-.4-.267v-.867l.133-.2c.133-.267.333-.933.267-2.467-.067-.733-.533-1.4-.933-1.8l-.267-.2c-.267-.467-.533-.6-.6-.667-.2-.067-.333-.133-.4-.133h-.133l-.133-.067c-.333-.2-.667-.333-1-.467l-.2-.067c-.067 0-.067-.067-.133-.067-.333-.333-1-.467-1.8-.533h-.534c-.8.067-1.4.2-1.867.533-.8.533-1.067.6-1.467.667-.133 0-.267.067-.467.133s-.533.467-.867 1.2l-.067.133c-.067.067-.067.2-.133.267-.533 1.333-.533 2.867-.333 3.4l.067.2v1l-.4.267c-.267.2-.4.867-.2 1.8.133.867.6 1.467.933 1.6l.467.2.133.467c.4 1.333.867 2.333 1.467 3l.4.533-1.467 2.8-.333.133c-4.267 1.733-6.733 3.467-7.267 4l-.933 5.667.001.002z" fill="#7b2727" fill-rule="nonzero"></path></g></g><g transform="translate(156 0)"><g fill-rule="evenodd" stroke-linejoin="round" class="nc-icon-wrapper" fill="#7b2727"><path d="M23.23 8l3.6 11.3h11.65l-9.42 6.99 3.6 11.29-9.43-6.98-9.41 6.98 3.6-11.29-9.42-6.99h11.63l3.6-11.3z" fill="#7b2727"></path></g></g><g transform="translate(204 0)"><g fill-rule="evenodd" class="nc-icon-wrapper" fill="#7b2727"><path d="M26.751.607c-2.426 0-4.754.873-6.5 2.522-.678.582-1.26 1.358-1.745 2.037-.485-.679-1.068-1.455-1.746-2.037-1.746-1.65-4.074-2.522-6.5-2.522C4.924.607.56 4.972.56 10.308c0 3.59 1.165 6.5 3.784 9.507C8.127 24.278 17.827 31.07 18.215 31.36c.098.097.194.097.291.097.098 0 .194 0 .292-.097.388-.291 10.088-7.082 13.872-11.545 2.62-3.104 3.784-5.917 3.784-9.507 0-5.336-4.365-9.701-9.701-9.701h-.002zm5.239 18.626c-3.396 3.978-11.836 9.992-13.484 11.156-1.65-1.164-10.09-7.276-13.484-11.156-2.426-2.91-3.493-5.53-3.493-8.925 0-4.85 3.88-8.731 8.731-8.731 2.134 0 4.269.776 5.821 2.23.776.777 1.455 1.65 1.94 2.62.194.291.68.291.874 0 .485-.97 1.165-1.843 1.94-2.62a8.988 8.988 0 0 1 5.918-2.23c4.85 0 8.731 3.88 8.731 8.731 0 3.395-1.067 6.015-3.493 8.925h-.001z" fill="#7b2727" fill-rule="nonzero" stroke="#7b2727" stroke-width=".9736804"></path></g></g><g transform="translate(241 0)"><g fill-rule="evenodd" stroke-linejoin="round" class="nc-icon-wrapper" fill="#7b2727"><path d="M19.233 7.212h.348a2.813 2.813 0 0 1 2.804 2.704l3.155 19.23c0 1.552-1.252 2.854-2.804 2.854H2.805a2.8 2.8 0 0 1-2.804-2.804v-.2l3.105-19.08A2.813 2.813 0 0 1 5.91 7.212h.452a5.173 5.173 0 0 1-.052-.752C6.31 2.905 9.215 0 12.77 0s6.46 2.904 6.51 6.51c0 .224-.016.464-.047.702zm-11.374 0h9.824c.03-.224.045-.456.045-.702a4.937 4.937 0 0 0-4.958-4.958A4.937 4.937 0 0 0 7.812 6.51c0 .224.016.464.047.702zM1.502 29.196c0 .701.601 1.302 1.302 1.302h19.931c.701 0 1.302-.551 1.302-1.252l-3.105-19.28c0-.701-.601-1.302-1.302-1.302H5.959c-.701 0-1.302.601-1.302 1.302v.1l-3.155 19.13z" fill="#7b2727"></path></g></g></svg>