<svg xmlns="http://www.w3.org/2000/svg" width="30" height="32"><g transform="translate(0 0)"><g fill-rule="evenodd" stroke-linejoin="round" class="nc-icon-wrapper" fill="#d4d4d4"><path d="M29.867 32H0l1.333-8.467c.467-1.067 4-3.267 8.067-4.933l.533-1c-.467-.733-.867-1.6-1.267-2.733-.867-.533-1.533-1.6-1.733-2.933-.267-1.467-.067-2.6.533-3.333-.267-1.2-.067-3 .467-4.4.067-.2.133-.333.2-.467.467-1.133 1.133-1.867 1.933-2.2.4-.133.667-.2.8-.267.2-.067.267-.067.8-.4.733-.533 1.733-.8 2.867-.867h.733c1.2.067 2.133.333 2.867.867.333.133.667.267 1.067.467.133.067.333.067.6.2.6.267 1.067.667 1.467 1.4.8.867 1.333 1.933 1.4 2.933.133 1.333 0 2.267-.2 2.933.6.733.733 1.867.467 3.267-.267 1.333-.867 2.4-1.733 2.933-.4 1.067-.8 2-1.267 2.733l.533 1c4 1.667 7.6 3.867 8.067 4.933l.067.2 1.267 8.133-.001.001zM2.333 30h25.2l-.867-5.667c-.533-.533-3-2.267-7.267-4l-.333-.133-1.467-2.8.4-.533c.533-.667 1-1.667 1.467-3l.133-.467.467-.2c.333-.133.8-.733.933-1.6.2-.933.067-1.6-.2-1.8l-.4-.267v-.867l.133-.2c.133-.267.333-.933.267-2.467-.067-.733-.533-1.4-.933-1.8l-.267-.2c-.267-.467-.533-.6-.6-.667-.2-.067-.333-.133-.4-.133h-.133l-.133-.067c-.333-.2-.667-.333-1-.467l-.2-.067c-.067 0-.067-.067-.133-.067-.333-.333-1-.467-1.8-.533h-.534c-.8.067-1.4.2-1.867.533-.8.533-1.067.6-1.467.667-.133 0-.267.067-.467.133s-.533.467-.867 1.2l-.067.133c-.067.067-.067.2-.133.267-.533 1.333-.533 2.867-.333 3.4l.067.2v1l-.4.267c-.267.2-.4.867-.2 1.8.133.867.6 1.467.933 1.6l.467.2.133.467c.4 1.333.867 2.333 1.467 3l.4.533-1.467 2.8-.333.133c-4.267 1.733-6.733 3.467-7.267 4l-.933 5.667.001.002z" fill="#d4d4d4" fill-rule="nonzero"></path></g></g></svg>