<?xml version="1.0" encoding="utf-8"?>
<!-- Generated by IcoMoon.io -->
<!DOCTYPE svg PUBLIC "-//W3C//DTD SVG 1.1//EN" "http://www.w3.org/Graphics/SVG/1.1/DTD/svg11.dtd">
<svg version="1.1" xmlns="http://www.w3.org/2000/svg" xmlns:xlink="http://www.w3.org/1999/xlink" width="37" height="32" viewBox="0 0 37 32">
<path fill="#d4d4d4" stroke="#d4d4d4" stroke-width="1.0063" stroke-miterlimit="10" stroke-linecap="butt" stroke-linejoin="miter" d="M27.17 0c-2.516 0-4.931 0.906-6.742 2.616-0.704 0.604-1.308 1.409-1.811 2.113-0.503-0.704-1.107-1.509-1.811-2.113-1.811-1.711-4.226-2.616-6.742-2.616-5.535 0-10.063 4.528-10.063 10.063 0 3.723 1.208 6.742 3.925 9.862 3.925 4.629 13.987 11.673 14.39 11.975 0.101 0.101 0.201 0.101 0.302 0.101s0.201 0 0.302-0.101c0.403-0.302 10.465-7.346 14.39-11.975 2.717-3.22 3.925-6.138 3.925-9.862 0-5.535-4.528-10.063-10.063-10.063zM32.604 19.321c-3.522 4.126-12.277 10.365-13.987 11.572-1.711-1.208-10.465-7.547-13.987-11.572-2.516-3.019-3.623-5.736-3.623-9.258 0-5.031 4.025-9.057 9.057-9.057 2.214 0 4.428 0.805 6.038 2.314 0.805 0.805 1.509 1.711 2.013 2.717 0.201 0.302 0.704 0.302 0.906 0 0.503-1.006 1.208-1.912 2.013-2.717 1.711-1.509 3.925-2.314 6.138-2.314 5.031 0 9.057 4.025 9.057 9.057 0 3.522-1.107 6.239-3.623 9.258z"></path>
</svg>
