<?xml version="1.0" encoding="UTF-8" standalone="no"?>
<!DOCTYPE svg PUBLIC "-//W3C//DTD SVG 1.1//EN" "http://www.w3.org/Graphics/SVG/1.1/DTD/svg11.dtd">
<svg width="100%" height="100%" viewBox="0 0 600 400" version="1.1" xmlns="http://www.w3.org/2000/svg" xmlns:xlink="http://www.w3.org/1999/xlink" xml:space="preserve" xmlns:serif="http://www.serif.com/" style="fill-rule:evenodd;clip-rule:evenodd;stroke-linejoin:round;stroke-miterlimit:2;">
    <g transform="matrix(0.115643,0,0,0.115643,212.983,183.746)">
        <g>
            <g>
                <g>
                    <path d="M1224.93,136.661C1207.38,178.357 1196.45,209.123 1168.99,243.448C1149.67,255.907 1133.39,261.761 1110.76,252.857C1106.95,249.552 1094.23,236.84 1089.91,237.857C1063.99,265.827 1035.75,254.127 1013.89,228.961C1012.11,225.652 1010.58,220.061 1006.27,220.061C994.052,257.177 958.719,255.907 933.548,230.736C914.219,251.082 900.49,258.448 877.356,238.111C873.79,233.723 872.527,231.061 869.219,234.552C856.669,250.286 838.748,258.665 821.356,256.723C797.544,254.052 790.369,238.507 780.481,220.061C746.919,261.507 668.861,279.807 660.719,208.873C641.227,221.786 620.114,233.465 598.935,243.448C575.035,251.336 488.589,281.077 474.351,238.111C442.555,249.794 389.493,283.948 366.539,234.552C348.897,245.565 332.526,263.469 311.622,255.402C305.518,252.352 300.689,247.265 294.585,244.215C267.38,261.248 244.239,259.219 230.255,229.215C229.493,229.215 228.726,229.215 227.714,228.961C196.947,258.194 146.355,274.719 108.976,247.769C80.243,248.282 38.005,250.836 52.022,212.173C66.297,189.869 89.397,212.436 109.739,227.432C142.793,217.519 189.322,199.969 189.322,158.782C184.239,143.019 182.968,142.761 168.218,136.661C150.672,143.277 126.518,156.24 106.685,150.648C91.426,126.236 146.864,119.119 160.585,118.107C187.855,109.427 260.922,36.923 216.018,25.04C142.285,25.04 87.364,89.623 60.155,153.186C47.193,174.798 41.851,201.757 33.968,225.398C30.155,244.977 36.168,270.336 14.901,270.148C0.443,267.277 1.076,256.044 4.222,239.64C28.372,148.102 102.11,0.631 217.543,5.206C256.955,18.177 254.155,56.315 232.039,86.323C219.564,102.565 197.593,118.652 190.085,124.707C210.935,138.948 219.135,156.202 209.41,177.09C197.047,203.644 165.418,224.64 132.618,238.873C132.618,248.561 164.422,246.315 190.797,232.74C201.46,227.252 211.368,220.165 218.814,212.436C227.855,204.54 225.935,196.415 226.189,187.261C228.36,144.523 275.514,20.465 330.435,47.927C357.614,71.073 296.455,143.202 278.06,168.444C267.38,182.432 256.193,196.669 245.255,210.394C241.53,257.602 291.926,224.057 305.518,203.532C310.86,199.461 336.539,144.544 350.772,163.357C347.726,185.227 327.385,205.565 315.18,223.623C312.635,260.994 357.389,217.261 366.03,209.123C374.935,198.448 384.339,187.261 389.426,175.569C397.63,157.623 423.851,151.665 413.068,175.569C400.36,193.111 374.172,218.277 390.951,240.144C409.135,253.736 449.43,234.552 468.501,221.077C470.53,193.865 479.689,170.482 501.305,153.698C508.843,150.132 519.101,147.494 525.455,153.611C543.255,185.902 509.947,209.632 488.33,226.669C488.33,272.186 606.06,220.311 623.851,210.648C648.011,193.865 665.302,182.432 676.231,154.211C686.406,136.407 730.894,45.886 761.665,76.657C774.311,103.394 724.798,141.49 706.498,166.157C668.348,195.902 670.64,251.84 728.615,236.59C754.29,225.652 773.106,207.602 781.498,180.398C783.786,159.29 790.652,133.611 806.919,119.119C851.923,107.173 813.031,178.357 802.094,193.361C796.756,209.382 798.277,224.569 808.702,236.327C838.706,253.873 855.236,228.448 862.861,202.515C862.861,166.915 860.323,130.557 860.323,94.707C863.877,83.265 864.39,75.898 877.094,75.898C906.856,103.098 885.494,177.09 886.511,215.227C893.881,232.007 897.44,236.84 914.473,227.686C922.106,217.007 924.644,178.869 943.719,200.986C950.077,220.061 958.465,242.682 982.361,225.902C998.386,207.094 994.819,165.394 989.481,141.74C985.411,137.682 968.377,138.698 962.273,138.186C954.648,118.865 971.681,119.369 986.177,118.615C986.436,106.148 979.056,83.265 997.115,83.265C1006.77,85.557 1007.03,107.173 1008.04,115.302C1033.98,120.386 1062.71,114.032 1088.64,119.623C1127.55,145.561 1020.5,139.969 1013.38,139.969C1012.88,140.477 1012.11,141.236 1011.35,141.998C1010.08,176.327 1018.22,252.857 1071.36,233.536C1081.28,220.061 1085.09,203.532 1094.49,189.29C1117.63,168.186 1156.78,158.019 1159.33,199.969C1155.01,213.198 1137.71,198.194 1134.66,192.09C1091.95,192.09 1092.97,243.711 1137.97,240.144C1186.54,222.094 1191.87,159.548 1216.53,119.623C1254.94,92.169 1246.54,181.415 1233.07,194.882C1230.02,211.161 1223.41,237.857 1246.79,218.277C1256.96,195.394 1284.68,183.19 1307.82,195.394C1330.95,220.815 1339.6,224.64 1373.41,230.736C1389.43,230.99 1405.45,231.24 1421.72,231.502C1429.61,230.99 1528.77,207.348 1507.41,243.194C1504.87,244.727 1502.32,246.248 1499.78,247.769C1455.03,251.586 1410.03,250.569 1365.28,250.569C1339.86,245.49 1313.66,237.344 1299.93,212.436C1276.04,199.461 1264.34,219.798 1249.85,238.111C1216.28,256.923 1212.72,227.432 1212.72,200.736C1217.04,183.19 1227.98,154.97 1225.94,136.661L1224.93,136.661ZM484.682,214.906C487.736,204.735 497.141,175.743 512.145,175.743C515.449,185.919 492.824,211.852 484.682,214.906ZM242.116,191.256C246.186,148.289 269.837,112.689 296.274,79.893C341.278,43.531 275.682,147.018 272.628,152.614C263.22,165.068 255.595,182.614 242.116,191.256Z" style="fill:white;"/>
                </g>
                <path d="M927.859,236.263C911.592,224.559 918.963,204.479 940.58,210.834C940.58,218.204 950.751,223.038 939.051,234.734C936.259,235.75 936.259,235.75 927.859,236.263Z" style="fill:white;"/>
                <g transform="matrix(1,0,0,1,1409,139.293)">
                    <text x="0px" y="0px" style="font-family:'ArialMT', 'Arial', sans-serif;font-size:95.864px;fill:white;">®</text>
                </g>
            </g>
        </g>
    </g>
</svg>
