<?xml version="1.0" encoding="UTF-8" standalone="no"?>
<!DOCTYPE svg PUBLIC "-//W3C//DTD SVG 1.1//EN" "http://www.w3.org/Graphics/SVG/1.1/DTD/svg11.dtd">
<svg width="100%" height="100%" viewBox="0 0 35 35" version="1.1" xmlns="http://www.w3.org/2000/svg" xmlns:xlink="http://www.w3.org/1999/xlink" xml:space="preserve" xmlns:serif="http://www.serif.com/" style="fill-rule:evenodd;clip-rule:evenodd;stroke-linejoin:round;stroke-miterlimit:2;">
    <g transform="matrix(1,0,0,1,-65.322,-124.385)">
        <g>
            <path d="M82.572,136.341L87.521,139.198L87.607,139.249L93.406,135.904L82.662,129.697L82.572,129.646L72.211,135.651L72.123,135.702L72.123,147.775L82.484,153.765L82.572,153.812L93.406,147.562L87.699,144.267L87.607,144.216L82.572,147.122L77.922,144.425L77.922,139.05L82.572,136.341ZM87.988,149.813L87.988,145.319L91.879,147.563L87.988,149.813ZM83.334,147.563L87.227,145.319L87.227,149.813L83.334,147.563ZM82.955,152.719L82.955,148.227L86.846,150.475L82.955,152.719ZM77.158,139.492L77.158,143.989L73.265,141.74L77.158,139.492ZM72.885,141.081L72.885,136.585L76.778,138.834L72.885,141.081ZM76.777,144.646L72.884,146.898L72.884,142.398L76.777,144.646ZM77.158,145.311L77.158,149.801L73.265,147.553L77.158,145.311ZM77.158,133.679L77.158,138.171L73.265,135.923L77.158,133.679ZM82.191,130.748L82.191,135.239L78.302,132.995L82.191,130.748ZM81.814,135.901L77.921,138.148L77.921,133.654L81.814,135.901ZM82.955,135.239L82.955,130.748L86.846,132.995L82.955,135.239ZM83.334,135.901L87.227,133.654L87.227,138.148L83.334,135.901ZM81.811,147.563L77.922,149.813L77.922,145.319L81.811,147.563ZM78.303,150.475L82.192,148.227L82.192,152.717L78.303,150.475ZM87.988,138.148L87.988,133.654L91.879,135.905L87.988,138.148Z" style="fill:white;fill-rule:nonzero;"/>
            <path d="M82.672,124.385C73.106,124.385 65.322,132.167 65.322,141.732C65.322,151.299 73.105,159.078 82.672,159.078C92.236,159.078 100.02,151.299 100.02,141.732C100.02,132.167 92.236,124.385 82.672,124.385ZM82.672,158.24C73.57,158.24 66.166,150.834 66.166,141.732C66.166,132.629 73.57,125.223 82.672,125.223C91.772,125.223 99.176,132.629 99.176,141.732C99.176,150.834 91.771,158.24 82.672,158.24Z" style="fill:white;fill-rule:nonzero;"/>
        </g>
    </g>
</svg>
