<?xml version="1.0" encoding="UTF-8" standalone="no"?>
<!DOCTYPE svg PUBLIC "-//W3C//DTD SVG 1.1//EN" "http://www.w3.org/Graphics/SVG/1.1/DTD/svg11.dtd">
<svg width="100%" height="100%" viewBox="0 0 600 400" version="1.1" xmlns="http://www.w3.org/2000/svg" xmlns:xlink="http://www.w3.org/1999/xlink" xml:space="preserve" xmlns:serif="http://www.serif.com/" style="fill-rule:evenodd;clip-rule:evenodd;stroke-miterlimit:1;">
    <g transform="matrix(0.158371,0,0,0.158371,175.362,72.1817)">
        <g>
            <path d="M607.932,1048L621.848,1048L621.848,1043.59L607.932,1043.59L607.932,1032.13L634.365,1032.13L634.365,1027.72L603.523,1027.72L603.523,1065.27L635.467,1065.27L635.467,1060.87L607.932,1060.87L607.932,1048Z" style="fill:white;fill-rule:nonzero;"/>
            <path d="M683.506,1045.55C682.186,1044.71 680.678,1044.12 678.977,1043.77C677.271,1043.42 675.555,1043.24 673.816,1043.24L669.262,1043.24C668.125,1043.24 666.927,1043.22 665.656,1043.17C664.387,1043.12 663.21,1042.94 662.127,1042.62C661.041,1042.3 660.148,1041.81 659.45,1041.14C658.748,1040.47 658.396,1039.5 658.396,1038.24C658.396,1037.5 658.615,1036.73 659.047,1035.91C659.482,1035.09 660.166,1034.35 661.102,1033.68C662.033,1033.01 663.246,1032.45 664.732,1032C666.215,1031.55 668.01,1031.33 670.114,1031.33C671.816,1031.33 673.324,1031.48 674.645,1031.77C675.961,1032.08 677.138,1032.46 678.174,1032.93C679.207,1033.39 680.135,1033.9 680.951,1034.43C681.769,1034.96 682.513,1035.45 683.179,1035.88L685.935,1032.43C685.467,1032.09 684.783,1031.62 683.881,1031C682.98,1030.39 681.88,1029.77 680.577,1029.18C679.275,1028.57 677.757,1028.05 676.022,1027.59C674.285,1027.15 672.349,1026.92 670.212,1026.92C667.341,1026.92 664.879,1027.26 662.828,1027.95C660.774,1028.63 659.098,1029.52 657.795,1030.62C656.496,1031.72 655.535,1032.95 654.917,1034.28C654.298,1035.62 653.992,1036.93 653.992,1038.24C653.992,1040.01 654.334,1041.48 655.018,1042.67C655.701,1043.85 656.637,1044.82 657.82,1045.57C659.008,1046.32 660.4,1046.86 662.001,1047.17C663.605,1047.49 665.308,1047.65 667.11,1047.65L675.019,1047.65C675.954,1047.65 676.922,1047.76 677.922,1048C678.926,1048.23 679.844,1048.61 680.678,1049.12C681.51,1049.64 682.196,1050.31 682.729,1051.12C683.266,1051.94 683.531,1052.94 683.531,1054.1C683.531,1055.21 683.229,1056.22 682.628,1057.13C682.027,1058.05 681.16,1058.85 680.027,1059.51C678.89,1060.18 677.49,1060.71 675.82,1061.09C674.151,1061.47 672.266,1061.67 670.161,1061.67C667.726,1061.67 665.649,1061.41 663.93,1060.89C662.21,1060.37 660.734,1059.76 659.497,1059.04C658.263,1058.32 657.244,1057.58 656.446,1056.81C655.644,1056.05 654.96,1055.41 654.392,1054.91L651.236,1058.01C651.772,1058.62 652.521,1059.36 653.492,1060.26C654.46,1061.16 655.687,1062.05 657.169,1062.92C658.655,1063.79 660.45,1064.53 662.552,1065.15C664.656,1065.76 667.143,1066.07 670.014,1066.07C672.316,1066.07 674.543,1065.83 676.695,1065.34C678.851,1064.86 680.761,1064.13 682.43,1063.14C684.1,1062.16 685.435,1060.92 686.435,1059.41C687.436,1057.91 687.936,1056.14 687.936,1054.1C687.936,1052.04 687.528,1050.3 686.708,1048.9C685.892,1047.5 684.822,1046.38 683.506,1045.55Z" style="fill:white;fill-rule:nonzero;"/>
            <path d="M703.906,1032.13L717.625,1032.13L717.625,1065.27L722.029,1065.27L722.029,1032.13L735.748,1032.13L735.748,1027.72L703.906,1027.72L703.906,1032.13Z" style="fill:white;fill-rule:nonzero;"/>
            <rect x="798.804" y="1028.63" width="4.93" height="36.55" style="fill:white;"/>
            <path d="M861.062,1045.08C858.165,1045.96 855.24,1046.39 852.287,1046.39C849.821,1046.39 847.754,1046.17 846.09,1045.72C844.427,1045.27 843.093,1044.73 842.082,1044.1C841.074,1043.46 840.354,1042.77 839.922,1042.02C839.495,1041.28 839.277,1040.58 839.277,1039.95C839.277,1039.17 839.588,1038.34 840.204,1037.48C840.82,1036.62 841.727,1035.84 842.924,1035.13C844.12,1034.42 845.623,1033.83 847.436,1033.36C849.249,1032.9 851.368,1032.66 853.802,1032.66C856.529,1032.66 858.81,1032.99 860.639,1033.67C862.472,1034.34 863.975,1035.14 865.15,1036.08C866.332,1037.01 867.234,1038 867.871,1039.02C868.507,1040.05 868.994,1040.92 869.329,1041.63C866.714,1043.05 863.954,1044.2 861.062,1045.08ZM869.47,1033.22C867.621,1031.53 865.369,1030.21 862.713,1029.21C860.059,1028.22 857.053,1027.72 853.689,1027.72C851.48,1027.72 849.241,1027.98 846.961,1028.48C844.68,1028.99 842.605,1029.74 840.736,1030.72C838.867,1031.71 837.336,1032.96 836.139,1034.45C834.942,1035.95 834.346,1037.68 834.346,1039.67C834.346,1041.87 834.906,1043.71 836.026,1045.19C837.15,1046.67 838.589,1047.86 840.346,1048.78C842.102,1049.7 844.052,1050.35 846.203,1050.74C848.351,1051.13 850.453,1051.32 852.508,1051.32C855.574,1051.32 858.612,1050.91 861.621,1050.09C864.627,1049.27 867.496,1048.19 870.228,1046.84C870.228,1048.19 869.889,1049.68 869.216,1051.32C868.543,1052.98 867.496,1054.52 866.078,1055.98C864.655,1057.44 862.854,1058.67 860.667,1059.66C858.479,1060.65 855.856,1061.14 852.791,1061.14C850.324,1061.14 847.896,1060.7 845.502,1059.83C843.109,1058.95 840.869,1057.79 838.773,1056.38L835.918,1060.41C836.478,1060.78 837.223,1061.29 838.157,1061.92C839.092,1062.56 840.252,1063.19 841.635,1063.81C843.017,1064.42 844.624,1064.95 846.457,1065.4C848.286,1065.84 850.381,1066.07 852.734,1066.07C855.985,1066.07 858.986,1065.54 861.734,1064.47C864.479,1063.41 866.852,1061.97 868.854,1060.16C870.852,1058.34 872.402,1056.24 873.507,1053.85C874.606,1051.46 875.158,1048.92 875.158,1046.22C875.158,1043.73 874.676,1041.35 873.7,1039.11C872.729,1036.86 871.319,1034.9 869.47,1033.22Z" style="fill:white;fill-rule:nonzero;"/>
            <path d="M930.362,1056.63C929.734,1057.5 928.831,1058.28 927.639,1058.96C926.446,1059.62 924.932,1060.16 923.094,1060.55C921.257,1060.95 919.146,1061.14 916.761,1061.14C914.037,1061.14 911.749,1060.8 909.896,1060.13C908.043,1059.45 906.527,1058.66 905.352,1057.72C904.175,1056.79 903.276,1055.8 902.66,1054.77C902.043,1053.75 901.568,1052.88 901.229,1052.17C903.844,1050.75 906.608,1049.6 909.492,1048.72C912.394,1047.84 915.326,1047.4 918.275,1047.4C920.741,1047.4 922.805,1047.62 924.464,1048.04C926.124,1048.48 927.461,1049.01 928.477,1049.65C929.492,1050.29 930.201,1050.97 930.637,1051.72C931.071,1052.47 931.281,1053.18 931.281,1053.85C931.281,1054.82 930.975,1055.75 930.362,1056.63ZM930.217,1045.02C928.461,1044.1 926.511,1043.45 924.352,1043.06C922.208,1042.66 920.097,1042.47 918.05,1042.47C914.988,1042.47 911.942,1042.88 908.945,1043.7C905.932,1044.52 903.063,1045.61 900.331,1046.96C900.331,1045.61 900.67,1044.11 901.342,1042.47C902.016,1040.83 903.063,1039.28 904.48,1037.82C905.898,1036.36 907.704,1035.14 909.896,1034.15C912.071,1033.15 914.698,1032.66 917.776,1032.66C920.242,1032.66 922.659,1033.1 925.061,1033.98C927.445,1034.85 929.686,1036.01 931.78,1037.42L934.648,1033.39C934.085,1033.02 933.328,1032.51 932.409,1031.87C931.475,1031.24 930.314,1030.62 928.928,1030C927.542,1029.38 925.931,1028.84 924.109,1028.4C922.272,1027.95 920.178,1027.72 917.824,1027.72C914.569,1027.72 911.572,1028.25 908.832,1029.33C906.076,1030.39 903.707,1031.82 901.705,1033.64C899.707,1035.45 898.155,1037.55 897.052,1039.95C895.951,1042.34 895.4,1044.88 895.4,1047.57C895.4,1050.08 895.883,1052.45 896.858,1054.69C897.829,1056.93 899.239,1058.9 901.089,1060.57C902.941,1062.26 905.189,1063.6 907.85,1064.59C910.492,1065.58 913.506,1066.07 916.873,1066.07C919.307,1066.07 921.676,1065.83 923.996,1065.34C926.301,1064.86 928.38,1064.12 930.186,1063.13C932.006,1062.14 933.457,1060.9 934.553,1059.4C935.664,1057.91 936.212,1056.15 936.212,1054.13C936.212,1051.96 935.648,1050.13 934.536,1048.63C933.408,1047.14 931.974,1045.93 930.217,1045.02Z" style="fill:white;fill-rule:nonzero;"/>
            <path d="M990.764,1057.5C990.239,1058.25 989.401,1058.89 988.266,1059.43C987.121,1059.97 985.631,1060.39 983.777,1060.69C981.932,1060.99 979.676,1061.14 977.024,1061.14C971.94,1061.14 968.121,1060.56 965.559,1059.4C962.996,1058.25 961.715,1056.76 961.715,1054.97C961.715,1053.81 962.158,1052.81 963.036,1051.97C963.915,1051.13 965.075,1050.44 966.51,1049.9C967.951,1049.36 969.571,1048.96 971.36,1048.72C973.157,1048.48 974.986,1048.36 976.855,1048.36C979.023,1048.36 981.014,1048.48 982.826,1048.72C984.639,1048.96 986.194,1049.36 987.483,1049.9C988.773,1050.44 989.771,1051.14 990.481,1052C991.19,1052.86 991.545,1053.89 991.545,1055.09C991.545,1055.94 991.279,1056.75 990.764,1057.5ZM965.083,1035.74C965.494,1035.14 966.179,1034.62 967.13,1034.17C968.08,1033.73 969.338,1033.36 970.885,1033.08C972.432,1032.8 974.374,1032.66 976.687,1032.66C978.483,1032.66 980.135,1032.76 981.65,1032.97C983.165,1033.17 984.454,1033.49 985.518,1033.92C986.581,1034.35 987.411,1034.89 988.016,1035.55C988.611,1036.2 988.91,1036.96 988.91,1037.82C988.91,1038.38 988.732,1038.99 988.378,1039.64C988.023,1040.29 987.387,1040.9 986.469,1041.46C985.558,1042.02 984.325,1042.49 982.77,1042.86C981.223,1043.23 979.248,1043.42 976.855,1043.42C975.059,1043.42 973.406,1043.29 971.892,1043.03C970.377,1042.77 969.072,1042.4 967.968,1041.91C966.863,1041.42 966.01,1040.82 965.39,1040.08C964.777,1039.36 964.463,1038.51 964.463,1037.54C964.463,1036.94 964.672,1036.34 965.083,1035.74ZM993.873,1048.86C993.141,1048.12 992.351,1047.48 991.488,1046.96C990.626,1046.43 989.845,1045.98 989.136,1045.61C989.506,1045.35 989.957,1045 990.481,1044.57C991.005,1044.14 991.513,1043.62 992.02,1043C992.527,1042.39 992.955,1041.65 993.31,1040.79C993.664,1039.93 993.842,1038.94 993.842,1037.82C993.842,1036.32 993.559,1035.03 993.003,1033.95C992.439,1032.86 991.689,1031.95 990.764,1031.2C989.828,1030.46 988.773,1029.86 987.588,1029.41C986.412,1028.96 985.188,1028.6 983.922,1028.34C982.648,1028.08 981.408,1027.92 980.191,1027.84C978.975,1027.76 977.863,1027.72 976.855,1027.72C974.647,1027.72 972.504,1027.88 970.409,1028.17C968.314,1028.47 966.461,1029 964.857,1029.75C963.254,1030.5 961.965,1031.5 960.99,1032.77C960.015,1034.04 959.531,1035.65 959.531,1037.59C959.531,1038.75 959.709,1039.77 960.063,1040.65C960.418,1041.53 960.853,1042.28 961.353,1042.92C961.86,1043.56 962.384,1044.1 962.924,1044.55C963.463,1044.99 963.906,1045.35 964.245,1045.61C963.383,1045.95 962.513,1046.38 961.635,1046.92C960.756,1047.47 959.95,1048.12 959.225,1048.86C958.492,1049.61 957.904,1050.48 957.461,1051.47C957.01,1052.46 956.783,1053.59 956.783,1054.86C956.783,1056.73 957.251,1058.36 958.186,1059.74C959.12,1061.12 960.458,1062.29 962.198,1063.24C963.931,1064.19 966.042,1064.9 968.531,1065.37C971.014,1065.84 973.793,1066.07 976.855,1066.07C979.958,1066.07 982.722,1065.81 985.155,1065.29C987.58,1064.76 989.635,1064.02 991.319,1063.07C993.003,1062.12 994.284,1060.98 995.162,1059.66C996.041,1058.33 996.477,1056.86 996.477,1055.25C996.477,1053.83 996.227,1052.6 995.719,1051.55C995.219,1050.5 994.599,1049.61 993.873,1048.86Z" style="fill:white;fill-rule:nonzero;"/>
            <path d="M917.75,625.787C913.569,611.719 903.253,601.543 890.827,599.229C880.958,597.401 874.975,598.175 871.792,599.082C875.717,594.026 883.451,589.948 883.553,589.897C883.937,589.692 884.154,589.245 884.052,588.811C883.949,588.376 883.566,588.063 883.118,588.044C882.453,588.024 881.789,588.012 881.124,588.012C847.328,588.012 835.053,615.975 828.93,645.329C829.995,615.912 836.259,599.899 848.196,584.202C850.041,585.391 852.119,585.973 854.189,585.973C857.59,585.973 860.951,584.419 863.125,581.485C863.278,581.281 863.342,581.019 863.304,580.757C863.266,580.501 863.125,580.271 862.92,580.111C859.871,577.876 856.063,577.422 852.736,578.554C853.583,577.547 854.445,576.537 855.339,575.516L855.34,575.516C863.943,566.777 868.48,566.094 871.191,565.679C872.547,565.474 873.723,565.295 874.745,564.266C876.267,562.726 877.123,560.699 877.11,558.711C877.098,557.075 876.496,555.579 875.41,554.512C872.904,552.038 868.532,552.39 865.669,555.311C864.685,556.308 864.441,557.389 864.147,558.635C863.619,560.9 862.754,564.536 856.34,571.59C856.498,570.81 856.581,570.009 856.566,569.194C856.516,566.234 855.314,563.474 853.179,561.415C852.795,561.057 852.182,561.063 851.799,561.44C847.677,565.705 847.679,572.445 851.709,576.719C849.325,579.53 847.116,582.298 845.084,585.09C845.301,583.852 845.318,582.575 845.1,581.3C844.602,578.386 842.99,575.842 840.574,574.135C840.127,573.815 839.514,573.924 839.206,574.365C837.506,576.781 836.842,579.715 837.34,582.63C837.838,585.538 839.443,588.076 841.85,589.783C831.449,605.847 826.588,623.987 826.804,656.896C825.839,662.813 825.042,668.643 824.287,674.167C821.744,692.346 810.52,696.168 810.047,696.321C809.574,696.469 809.293,696.941 809.382,697.428C809.459,697.894 809.867,698.239 810.341,698.239C810.354,698.239 810.366,698.239 810.379,698.232C820.823,697.811 833.837,691.489 839.092,675.03C840.472,670.716 841.764,666.268 843.003,661.966C850.354,636.59 857.334,612.518 882.058,612.518C883.924,612.518 885.893,612.658 887.977,612.939C898.434,614.371 903.93,622.029 903.969,628.855C903.994,633.438 901.488,638.712 894.368,639.76C894.062,639.805 893.806,639.983 893.652,640.246C893.512,640.508 893.486,640.821 893.602,641.103C893.665,641.269 895.071,644.566 899.98,644.566C900.172,644.566 900.363,644.561 900.568,644.554C898.842,646.107 895.685,648.242 890.546,649.508C888.871,649.917 886.686,650.217 884.141,650.563C872.585,652.147 855.122,654.531 850.597,671.904C849.65,678.827 852.335,683.544 854.752,686.286C857.845,689.771 861.686,691.469 864.42,691.947C864.454,691.956 864.482,691.977 864.518,691.981C864.578,691.989 864.634,691.992 864.692,692C864.727,692.005 864.766,692.016 864.799,692.02C864.813,692.026 864.825,692.026 864.838,692.026C864.864,692.03 864.886,692.021 864.912,692.022C865.278,692.06 865.637,692.084 865.976,692.084C871.102,692.084 873.543,688.108 873.953,685.181C874.029,684.644 873.658,684.146 873.121,684.075C873.07,684.068 873.02,684.063 872.98,684.063C872.495,684.063 872.073,684.42 872.01,684.912C871.984,684.969 871.173,690.757 864.952,690.051C863.035,689.728 861.976,688.412 861.424,687.341C860.172,684.932 860.262,681.557 861.616,678.942C865.656,671.195 875.614,671.278 882.901,671.457C883.233,671.457 883.553,671.464 883.886,671.464C894.879,671.464 903.547,668.517 909.645,662.7C918.811,653.963 921.917,639.817 917.75,625.787Z" style="fill:white;fill-rule:nonzero;"/>
            <path d="M717.096,671.457C724.408,671.349 734.354,671.201 738.381,678.942C739.749,681.557 739.826,684.938 738.573,687.348C738.021,688.419 736.961,689.736 735.053,690.053C728.912,690.829 728.001,684.976 727.988,684.912C727.924,684.42 727.502,684.063 727.017,684.063C726.979,684.063 726.927,684.068 726.876,684.075C726.339,684.146 725.969,684.644 726.045,685.181C726.454,688.108 728.896,692.084 734.021,692.084C734.359,692.084 734.716,692.06 735.08,692.022C735.113,692.021 735.14,692.031 735.172,692.026C735.242,692.017 735.315,692.002 735.387,691.991C735.418,691.987 735.447,691.986 735.479,691.981C735.49,691.98 735.5,691.973 735.511,691.971C741.372,690.973 751.094,684.274 749.375,671.79C744.875,654.531 727.412,652.147 715.856,650.563C713.313,650.217 711.126,649.917 709.451,649.508C704.313,648.242 701.168,646.107 699.441,644.554C699.634,644.561 699.838,644.566 700.018,644.566C704.926,644.566 706.332,641.269 706.396,641.103C706.512,640.821 706.486,640.508 706.346,640.246C706.191,639.983 705.936,639.805 705.629,639.76C698.509,638.712 696.003,633.438 696.029,628.855C696.067,622.029 701.577,614.371 712.034,612.939C741.615,608.888 749.094,634.672 756.994,661.966C758.234,666.268 759.525,670.716 760.906,675.03C766.16,691.489 779.174,697.811 789.618,698.232C789.631,698.239 789.644,698.239 789.656,698.239C790.13,698.239 790.539,697.894 790.615,697.428C790.705,696.941 790.424,696.469 789.951,696.321C789.478,696.168 778.254,692.346 775.709,674.167C774.958,668.659 774.163,662.847 773.202,656.949C773.416,624.001 768.557,605.848 758.157,589.782C760.571,588.075 762.16,585.54 762.67,582.63C763.169,579.722 762.504,576.787 760.804,574.365C760.65,574.154 760.42,574.014 760.164,573.969C759.909,573.892 759.641,573.981 759.436,574.135C755.832,576.681 754.218,581 754.922,585.084C752.889,582.294 750.682,579.527 748.299,576.716C750.196,574.705 751.271,572.107 751.318,569.328C751.369,566.369 750.258,563.569 748.199,561.44C748.02,561.255 747.777,561.146 747.509,561.141L747.496,561.141C747.24,561.141 746.997,561.242 746.818,561.422C743.996,564.146 742.947,568.012 743.674,571.595C737.246,564.531 736.391,560.889 735.863,558.628C735.568,557.382 735.313,556.308 734.342,555.311C731.452,552.396 727.105,552.025 724.588,554.512C722.095,556.979 722.401,561.352 725.252,564.266C726.275,565.295 727.451,565.474 728.818,565.679C731.529,566.094 736.067,566.777 744.671,575.516L744.672,575.516C745.563,576.535 746.424,577.544 747.27,578.549C746.639,578.334 745.985,578.167 745.311,578.065C742.421,577.625 739.468,578.359 737.09,580.117C736.655,580.438 736.566,581.051 736.886,581.485C739.059,584.419 742.408,585.973 745.796,585.973C747.869,585.973 749.96,585.389 751.809,584.197C763.746,599.896 770.011,615.917 771.076,645.37C764.956,616.001 752.688,588.012 718.886,588.012C718.221,588.012 717.557,588.024 716.892,588.044C716.444,588.063 716.061,588.376 715.959,588.811C715.856,589.245 716.074,589.692 716.457,589.897C716.56,589.948 724.307,594.026 728.23,599.082C725.048,598.193 719.064,597.401 709.17,599.229C696.744,601.543 686.428,611.726 682.248,625.794C678.08,639.824 681.199,653.963 690.365,662.7C696.463,668.517 705.118,671.464 716.111,671.464C716.444,671.464 716.764,671.457 717.096,671.457Z" style="fill:white;fill-rule:nonzero;"/>
            <path d="M791.715,682.183C791.715,692.659 799.743,694.257 799.82,694.27C799.884,694.282 799.935,694.289 799.998,694.289C800.063,694.289 800.113,694.282 800.178,694.27C800.254,694.257 808.295,692.659 808.295,682.183C808.295,671.253 814.354,617.657 827.151,598.04C827.33,597.771 827.369,597.427 827.24,597.133C827.113,596.832 826.857,596.615 826.537,596.545C826.192,596.468 819.366,595.017 814.841,598.137C815.672,588.83 816.988,557.746 800.805,534.333C800.446,533.796 799.551,533.796 799.193,534.333C783.021,557.753 784.326,588.836 785.156,598.137C780.631,595.017 773.805,596.468 773.46,596.545C773.141,596.615 772.885,596.832 772.757,597.133C772.629,597.434 772.667,597.771 772.846,598.04C785.643,617.65 791.715,671.253 791.715,682.183Z" style="fill:white;fill-rule:nonzero;"/>
            <path d="M829.964,711.112C830.193,710.927 830.334,710.646 830.334,710.352L830.334,697.978C830.334,697.6 830.117,697.255 829.771,697.089C829.401,696.929 829.005,696.98 828.736,697.217C822.613,702.195 811.875,705.161 799.998,705.161C788.123,705.161 777.385,702.195 771.261,697.217C770.954,696.98 770.584,696.929 770.226,697.089C769.881,697.255 769.663,697.6 769.663,697.978L769.663,710.352C769.663,710.646 769.804,710.927 770.033,711.112C773.801,714.179 779.17,715.972 784.816,716.992C783.691,719.342 782.174,721.813 780.267,724.251C777.026,720.694 771.512,720.138 767.604,723.123C767.4,723.282 767.26,723.519 767.234,723.774C767.195,724.037 767.272,724.292 767.426,724.503C769.279,726.9 772.066,728.159 774.879,728.159C775.619,728.159 776.359,728.072 777.085,727.897C775.717,729.299 774.21,730.656 772.564,731.938C772.335,732.109 772.104,732.282 771.875,732.455C771.21,732.781 766.186,735.113 761.813,732.832C755.665,729.643 741.525,734.788 740.925,735.018C740.593,735.14 740.35,735.427 740.286,735.772C740.234,736.117 740.363,736.469 740.631,736.692C743.84,739.364 748.813,741.147 754.348,741.147C758.247,741.147 762.44,740.253 766.479,738.156C767.881,737.424 769.242,736.615 770.567,735.75C770.482,736.037 770.41,736.33 770.354,736.629C769.867,739.09 770.379,741.589 771.772,743.666C771.964,743.947 772.271,744.101 772.59,744.101C772.782,744.101 772.974,744.043 773.141,743.928C775.224,742.535 776.63,740.406 777.104,737.945C777.539,735.734 777.165,733.496 776.076,731.558C781.312,726.938 784.79,721.834 786.844,717.325C791.006,717.94 795.226,718.173 799.008,718.205C798.941,727.505 797.877,733.666 792.764,740.707C791.255,742.777 789.375,744.842 787.023,747.021C786.32,747.667 785.502,748.229 784.646,748.831C782.895,750.045 781.092,751.298 779.992,753.388C779.264,754.75 779.059,756.297 779.43,757.639C779.902,759.371 781.398,760.682 783.047,760.835C783.176,760.848 783.303,760.854 783.431,760.854C785.809,760.854 787.816,758.872 789.158,757.345C791.536,754.603 793.377,751.336 794.706,748.799C796.082,746.195 797.58,742.92 798.771,739.246C797.88,753.545 794.678,761.687 792.635,766.843C791.498,769.726 790.666,771.803 790.666,773.727C790.666,779.755 794.859,784.663 799.998,784.663C805.138,784.663 809.331,779.755 809.331,773.727C809.331,771.803 808.5,769.726 807.362,766.843C805.319,761.687 802.117,753.545 801.227,739.246C802.417,742.92 803.916,746.195 805.291,748.799C806.736,751.528 808.525,754.68 810.84,757.345C812.182,758.872 814.188,760.854 816.566,760.854C816.694,760.854 816.822,760.848 816.95,760.835C818.6,760.682 820.095,759.371 820.567,757.646C820.938,756.328 820.746,754.781 820.018,753.388C818.918,751.305 817.116,750.052 815.377,748.844C814.508,748.242 813.689,747.674 812.986,747.021C810.635,744.842 808.756,742.777 807.247,740.707C802.133,733.654 801.057,727.492 800.99,718.205C804.771,718.173 808.991,717.94 813.153,717.325C815.207,721.834 818.687,726.938 823.927,731.554C821.565,735.772 822.798,741.188 826.87,743.928C827.036,744.043 827.229,744.101 827.42,744.101C827.483,744.101 827.548,744.095 827.611,744.082C827.867,744.03 828.084,743.877 828.238,743.666C829.857,741.248 830.2,738.341 829.427,735.746C830.755,736.612 832.124,737.423 833.543,738.156C837.57,740.253 841.764,741.147 845.662,741.147C851.197,741.147 856.17,739.364 859.379,736.692C859.647,736.469 859.775,736.117 859.725,735.772C859.66,735.427 859.418,735.14 859.085,735.018C858.484,734.794 844.269,729.661 838.184,732.832C833.761,735.127 828.724,732.749 828.123,732.448C827.893,732.282 827.676,732.109 827.445,731.938C825.801,730.66 824.296,729.306 822.928,727.908C823.641,728.081 824.375,728.172 825.119,728.172C825.516,728.172 825.937,728.141 826.346,728.089C828.826,727.764 831.037,726.491 832.571,724.503C832.904,724.068 832.814,723.455 832.393,723.123C828.483,720.13 822.976,720.694 819.737,724.258C817.826,721.818 816.308,719.345 815.18,716.992C820.828,715.972 826.196,714.179 829.964,711.112Z" style="fill:white;fill-rule:nonzero;"/>
            <path d="M870.297,573.828C870.297,574.921 871.191,575.81 872.277,575.81C873.364,575.81 874.26,574.921 874.26,573.828C874.26,572.735 873.364,571.847 872.277,571.847C871.191,571.847 870.297,572.735 870.297,573.828Z" style="fill:white;fill-rule:nonzero;"/>
            <path d="M880.689,569.853C881.776,569.853 882.671,568.964 882.671,567.871C882.671,566.777 881.776,565.883 880.689,565.883C879.604,565.883 878.708,566.777 878.708,567.871C878.708,568.964 879.604,569.853 880.689,569.853Z" style="fill:white;fill-rule:nonzero;"/>
            <path d="M881.061,575.413C879.974,575.413 879.078,576.302 879.078,577.395C879.078,578.487 879.974,579.376 881.061,579.376C882.146,579.376 883.042,578.487 883.042,577.395C883.042,576.302 882.146,575.413 881.061,575.413Z" style="fill:white;fill-rule:nonzero;"/>
            <path d="M729.714,573.828C729.714,572.735 728.818,571.847 727.72,571.847C726.633,571.847 725.738,572.735 725.738,573.828C725.738,574.921 726.633,575.81 727.72,575.81C728.818,575.81 729.714,574.921 729.714,573.828Z" style="fill:white;fill-rule:nonzero;"/>
            <path d="M837.697,718.176C837.953,718.284 838.222,718.335 838.478,718.335C838.733,718.335 838.977,718.29 839.206,718.194C839.692,718.003 840.088,717.632 840.293,717.14C840.51,716.654 840.523,716.117 840.318,715.625C839.922,714.615 838.849,714.085 837.762,714.513C837.275,714.705 836.88,715.075 836.676,715.567C836.458,716.054 836.445,716.59 836.649,717.076C836.842,717.574 837.212,717.965 837.697,718.176Z" style="fill:white;fill-rule:nonzero;"/>
            <path d="M846.314,724.126C846.57,724.234 846.838,724.286 847.094,724.286C847.35,724.286 847.593,724.241 847.822,724.146C848.309,723.953 848.705,723.583 848.909,723.091C849.127,722.604 849.139,722.068 848.935,721.576C848.539,720.566 847.452,720.061 846.378,720.464C845.893,720.655 845.496,721.026 845.291,721.519C845.074,722.004 845.062,722.541 845.266,723.026C845.457,723.525 845.828,723.915 846.314,724.126Z" style="fill:white;fill-rule:nonzero;"/>
            <path d="M760.778,718.194C761.021,718.284 761.264,718.335 761.52,718.335C761.788,718.335 762.069,718.277 762.325,718.162C762.811,717.945 763.182,717.556 763.348,717.082C763.553,716.59 763.539,716.054 763.322,715.567C763.117,715.075 762.722,714.705 762.248,714.513C761.213,714.098 760.088,714.615 759.679,715.625C759.475,716.117 759.487,716.654 759.704,717.14C759.909,717.632 760.305,718.003 760.778,718.194Z" style="fill:white;fill-rule:nonzero;"/>
            <path d="M752.903,724.286C753.172,724.286 753.44,724.229 753.696,724.12C754.182,723.909 754.553,723.525 754.757,723.014C755.141,721.998 754.629,720.854 753.632,720.464C752.545,720.035 751.459,720.579 751.063,721.576C751.05,721.582 751.05,721.589 751.05,721.595C750.666,722.611 751.178,723.756 752.162,724.146C752.404,724.234 752.66,724.286 752.903,724.286Z" style="fill:white;fill-rule:nonzero;"/>
            <path d="M781.68,767.016C781.193,767.227 780.823,767.61 780.631,768.103C780.427,768.595 780.439,769.131 780.657,769.623C780.861,770.103 781.245,770.48 781.744,770.678C781.974,770.768 782.217,770.813 782.459,770.813C783.239,770.813 783.993,770.34 784.301,769.56C784.709,768.55 784.211,767.399 783.201,766.99C782.702,766.811 782.152,766.805 781.68,767.016Z" style="fill:white;fill-rule:nonzero;"/>
            <path d="M817.538,770.813C817.781,770.813 818.023,770.768 818.254,770.678C818.752,770.486 819.136,770.109 819.354,769.623C819.558,769.145 819.57,768.607 819.379,768.115C819.188,767.623 818.816,767.232 818.33,767.021C817.832,766.792 817.295,766.805 816.797,766.99C815.787,767.399 815.288,768.55 815.697,769.566C816.004,770.34 816.745,770.813 817.538,770.813Z" style="fill:white;fill-rule:nonzero;"/>
            <path d="M719.32,569.853C720.407,569.853 721.303,568.964 721.303,567.871C721.303,566.777 720.407,565.883 719.32,565.883C718.234,565.883 717.339,566.777 717.339,567.871C717.339,568.964 718.234,569.853 719.32,569.853Z" style="fill:white;fill-rule:nonzero;"/>
            <path d="M718.938,579.376C720.023,579.376 720.919,578.487 720.919,577.395C720.919,576.302 720.023,575.413 718.938,575.413C717.851,575.413 716.955,576.302 716.955,577.395C716.955,578.487 717.851,579.376 718.938,579.376Z" style="fill:white;fill-rule:nonzero;"/>
            <g transform="matrix(0.24,0,0,0.24,-102.778,-371.329)">
                <g transform="matrix(1,0,0,1,1087.63,5476.73)">
                    <text x="0px" y="0px" style="font-family:'CormorantGaramond-Medium', 'Cormorant Garamond';font-weight:500;font-size:666.667px;fill:white;">H</text>
                </g>
                <g transform="matrix(1,0,0,1,1607.63,5476.73)">
                    <text x="0px" y="0px" style="font-family:'CormorantGaramond-Medium', 'Cormorant Garamond';font-weight:500;font-size:666.667px;fill:white;">O<tspan x="524px 998px 1341.33px 1714.66px 1884px 2053.33px 2222.66px 2392px 2561.33px 3031.33px 3555.33px 4054px 4491.33px " y="0px 0px 0px 0px 0px 0px 0px 0px 0px 0px 0px 0px 0px ">USE     CONTI</tspan></text>
                </g>
            </g>
            <g transform="matrix(0.173793,0,0,2e-06,538.448,943.684)">
                <path d="M1122.85,1884.63L1889.04,1875.83" style="fill:none;stroke:white;stroke-width:19.8px;"/>
            </g>
            <g transform="matrix(0.24,0,0,0.24,722.251,919.097)">
                <text x="0px" y="0px" style="font-family:'CormorantGaramond-Medium', 'Cormorant Garamond';font-weight:500;font-size:500px;fill:white;">OF</text>
            </g>
        </g>
    </g>
</svg>
