<?xml version="1.0" encoding="UTF-8" standalone="no"?>
<!DOCTYPE svg PUBLIC "-//W3C//DTD SVG 1.1//EN" "http://www.w3.org/Graphics/SVG/1.1/DTD/svg11.dtd">
<svg width="100%" height="100%" viewBox="0 0 600 400" version="1.1" xmlns="http://www.w3.org/2000/svg" xmlns:xlink="http://www.w3.org/1999/xlink" xml:space="preserve" xmlns:serif="http://www.serif.com/" style="fill-rule:evenodd;clip-rule:evenodd;stroke-linejoin:round;stroke-miterlimit:2;">
    <g transform="matrix(0.086072,0,0,0.086072,229.669,174.799)">
        <g>
            <path d="M25.729,1.008L0,1.008L0,152.621L93.108,152.621L93.108,128.613L25.729,128.613L25.729,1.008Z" style="fill:white;fill-rule:nonzero;"/>
            <path d="M155.746,88.35L218.125,88.35L218.125,64.446L155.746,64.446L155.746,24.983L219.95,24.983L219.95,1.008L130,1.008L130,152.621L221.387,152.621L221.387,128.613L155.746,128.613L155.746,88.35Z" style="fill:white;fill-rule:nonzero;"/>
            <path d="M350.625,81.475L315.592,81.475L332.988,42.987L350.625,81.475ZM325.296,0L255.4,152.621L282.988,152.621L304.617,105.383L361.508,105.383L383.142,152.621L410.554,152.621L340.833,0L325.296,0Z" style="fill:white;fill-rule:nonzero;"/>
            <path d="M407.763,24.983L458.992,24.983L458.992,152.621L484.738,152.621L484.738,24.983L535.971,24.983L535.971,1.008L407.763,1.008L407.763,24.983Z" style="fill:white;fill-rule:nonzero;"/>
            <path d="M673.038,63.975L597.342,63.975L597.342,1.008L571.617,1.008L571.617,152.621L597.342,152.621L597.342,87.987L673.038,87.987L673.038,152.621L698.767,152.621L698.767,1.008L673.037,1.008L673.037,63.975L673.038,63.975Z" style="fill:white;fill-rule:nonzero;"/>
            <path d="M768.317,88.35L830.712,88.35L830.712,64.446L768.317,64.446L768.317,24.983L832.571,24.983L832.571,1.008L742.637,1.008L742.637,152.621L833.958,152.621L833.958,128.613L768.317,128.613L768.317,88.35Z" style="fill:white;fill-rule:nonzero;"/>
            <path d="M901.512,24.983L917.571,24.983C926.425,24.983 933.488,26.788 938.404,30.417C942.571,33.733 944.633,38.142 944.633,44.008C944.633,47.292 944.096,50.104 943.004,52.275C941.892,54.446 940.329,56.354 938.196,57.883C935.954,59.567 933.108,60.85 929.617,61.804C926.129,62.725 921.683,63.229 916.596,63.229L901.513,63.229L901.513,24.983L901.512,24.983ZM961.597,93.179L955.488,84.321C954.343,82.758 953.28,81.475 952.243,80.121C951.93,79.704 951.563,79.342 951.18,78.904C954.672,76.596 958.038,73.783 961.18,70.592C967.83,63.871 971.113,54.929 971.113,44.183C971.113,37.5 969.93,31.25 967.468,25.729C964.951,20.175 961.147,15.383 956.097,11.529C951.218,7.9 945.451,5.208 939.009,3.558C932.743,1.858 925.538,1.008 917.78,1.008L875.801,1.008L875.801,152.621L901.513,152.621L901.513,87.171L914.759,87.171C921.826,87.171 926.997,89.062 930.226,92.9C932.397,95.279 934.601,98.092 936.701,101.25C938.943,104.425 941.355,107.917 943.822,111.788L970.001,152.621L1000.52,152.621L967.326,101.546C965.451,98.767 963.526,95.954 961.597,93.179Z" style="fill:white;fill-rule:nonzero;"/>
            <path d="M1149.41,1.008L1115.33,1.008L1060.75,57.846L1060.75,1.008L1035,1.008L1035,152.621L1060.75,152.621L1060.75,94.392L1120.84,151.875L1121.57,152.621L1156.77,152.621L1077.43,76.321L1149.41,1.008Z" style="fill:white;fill-rule:nonzero;"/>
            <rect x="1189.79" y="1.008" width="25.571" height="151.617" style="fill:white;"/>
            <path d="M1374.64,107.413C1368.94,100.833 1363.23,94.254 1357.64,87.813C1350.45,79.633 1343.3,71.475 1336.08,63.3C1327.29,53.696 1318.51,43.8 1309.9,33.871C1301.29,23.925 1292.21,13.175 1282.97,1.963L1282.22,1.008L1262.02,1.008L1262.02,152.621L1287.8,152.621L1287.8,46.042L1380.4,152.621L1400.4,152.621L1400.4,1.008L1374.64,1.008L1374.64,107.413Z" style="fill:white;fill-rule:nonzero;"/>
            <path d="M1475.38,24.983L1504.77,24.983C1521.93,24.983 1535.57,29.792 1545.43,39.254C1555.26,48.717 1560.19,61.371 1560.19,76.963C1560.19,92.604 1555.22,105.208 1545.22,114.533C1535.26,123.854 1521.49,128.612 1504.4,128.612L1475.38,128.612L1475.38,24.983ZM1581.34,45.658C1577.63,36.408 1571.94,28.212 1564.56,21.321C1557.06,14.375 1548.35,9.217 1538.61,5.987C1528.92,2.675 1517.9,1.008 1505.8,1.008L1449.63,1.008L1449.63,152.621L1507.22,152.621C1519.25,152.621 1530.34,150.85 1540.07,147.467C1549.84,143.975 1558.45,138.612 1565.68,131.458C1579.72,117.221 1586.74,98.975 1586.74,76.962C1586.74,65.433 1584.93,54.896 1581.34,45.658Z" style="fill:white;fill-rule:nonzero;"/>
            <path d="M1615.73,22.379C1616.16,22.1 1616.34,21.667 1616.34,21.112C1616.34,20.746 1616.27,20.467 1616.16,20.312C1616.09,20.175 1615.9,20.071 1615.76,19.929C1615.56,19.863 1615.15,19.721 1614.78,19.654C1614.34,19.567 1613.93,19.567 1613.35,19.567L1611.18,19.567L1611.18,22.917L1612.92,22.917C1613.73,22.917 1614.41,22.812 1614.85,22.742C1615.28,22.604 1615.59,22.483 1615.73,22.379ZM1619.65,28.925L1621.32,32.517L1617.01,32.517C1616.48,31.096 1615.97,29.967 1615.56,29.15C1615.09,28.333 1614.7,27.725 1614.34,27.292C1614.03,26.946 1613.73,26.683 1613.28,26.475C1612.85,26.267 1612.31,26.163 1611.65,26.163L1611.18,26.163L1611.18,32.517L1607.56,32.517L1607.56,16.267L1614.03,16.267C1615.09,16.267 1615.97,16.404 1616.77,16.546C1617.52,16.771 1618.23,17.05 1618.78,17.55C1619.76,18.508 1620.21,19.617 1620.21,20.988C1620.21,21.929 1619.97,22.813 1619.46,23.525C1619.01,24.342 1618.33,24.913 1617.45,25.363C1617.83,25.658 1618.16,26.042 1618.4,26.371C1618.65,26.787 1618.87,27.221 1619.08,27.588C1619.26,28.108 1619.46,28.471 1619.65,28.925ZM1623.49,33.838C1626.27,31.163 1627.62,27.933 1627.62,24.2C1627.62,20.367 1626.27,17.187 1623.56,14.512C1620.89,11.821 1617.66,10.504 1613.86,10.504C1610.07,10.504 1606.88,11.821 1604.24,14.512C1601.49,17.187 1600.12,20.367 1600.12,24.2C1600.12,27.933 1601.49,31.162 1604.2,33.838C1606.88,36.513 1610.11,37.796 1613.86,37.796C1617.66,37.796 1620.89,36.513 1623.49,33.838ZM1626.68,11.321C1630.24,14.879 1632.03,19.183 1632.03,24.2C1632.03,29.15 1630.24,33.454 1626.68,36.979C1623.09,40.521 1618.82,42.308 1613.86,42.308C1608.9,42.308 1604.7,40.521 1601.08,36.979C1597.52,33.454 1595.78,29.15 1595.78,24.2C1595.78,19.183 1597.52,14.879 1601.08,11.321C1604.7,7.862 1608.9,6.025 1613.86,6.025C1618.82,6.025 1623.09,7.863 1626.68,11.321Z" style="fill:white;fill-rule:nonzero;"/>
            <path d="M945.488,365.087L945.488,386.788C962.988,387.187 979.792,386.579 995.088,387.187C988.213,403.404 976.008,415.85 955.017,418.279L933.958,418.279L933.958,438.558C938.054,438.488 942.137,438.488 946.092,438.488C943.558,453.317 933.454,461.179 919.688,465.279L919.688,334.029C961.996,334.392 1008.11,334.167 1046.88,333.958C1040.5,370.921 988.613,364.808 945.488,365.088L945.488,365.087ZM894.792,545.345L691.908,545.345L691.908,277.636L894.792,277.636L894.792,545.345ZM640.713,438.486C644.654,438.486 648.679,438.486 652.796,438.557L652.796,418.278L631.738,418.278C610.746,415.849 598.508,403.403 591.65,387.186C606.946,386.578 623.767,387.186 641.321,386.786L641.321,365.086C598.125,364.807 546.217,370.92 539.879,333.957C578.7,334.166 624.738,334.391 667.067,334.028L667.067,465.278C653.3,461.111 643.263,453.316 640.713,438.486ZM1067.93,313.886C1065.62,313.853 1063.25,313.853 1060.78,313.782L1025.88,313.782C998.317,314.007 968.229,314.461 942.675,313.782L919.688,313.782L919.688,255.416L667.067,255.416L667.067,313.782L644.079,313.782C618.508,314.461 588.367,314.007 560.867,313.782L525.971,313.782C523.454,313.853 521.096,313.853 518.783,313.886C514.808,352.741 537.429,377.828 568.387,386.786C575.883,413.228 592.396,430.695 619.55,437.482C619.617,437.62 619.687,437.691 619.687,437.811L619.967,437.811C623.804,464.878 642.658,482.778 667.067,490.536L667.067,567.653L698.733,567.653L698.733,599.632L699.408,599.632L699.237,599.424L716.667,592.132L733.925,599.424L733.767,599.632L734.512,599.632L734.512,567.653L919.687,567.653L919.687,490.57C944.096,482.778 962.917,464.878 966.771,437.811L967.012,437.811C967.117,437.691 967.117,437.62 967.154,437.482C994.375,430.695 1010.83,413.228 1018.32,386.786C1049.3,377.828 1071.92,352.741 1067.93,313.886Z" style="fill:white;fill-rule:nonzero;"/>
            <path d="M839.896,465.017L772.517,465.017L772.517,337.413L746.717,337.413L746.717,489.029L839.896,489.029L839.896,465.017Z" style="fill:white;fill-rule:nonzero;"/>
        </g>
    </g>
</svg>
