<?xml version="1.0" encoding="UTF-8" standalone="no"?>
<!DOCTYPE svg PUBLIC "-//W3C//DTD SVG 1.1//EN" "http://www.w3.org/Graphics/SVG/1.1/DTD/svg11.dtd">
<svg width="100%" height="100%" viewBox="0 0 600 400" version="1.1" xmlns="http://www.w3.org/2000/svg" xmlns:xlink="http://www.w3.org/1999/xlink" xml:space="preserve" xmlns:serif="http://www.serif.com/" style="fill-rule:evenodd;clip-rule:evenodd;stroke-linejoin:round;stroke-miterlimit:2;">
    <g id="__150955432" transform="matrix(0.00726228,0,0,0.00726228,226.618,180.488)">
        <path d="M5201,33.201C5324,-3.799 5463,-20.799 5581,41.201C5682,83.201 5740,183.201 5796,272.201C5755,329.201 5708,406.201 5623,388.201C5433,362.201 5274,199.201 5072,240.201C4887,300.201 4747,475.201 4723,668.201C4701,799.201 4712,934.201 4697,1066.2C4687,1163.2 4645,1258.2 4655,1356.2C4791,1503.2 5022,1433.2 5192,1500.2C5264,1541.2 5290,1625.2 5312,1700.2C5176,1726.2 5039,1690.2 4902,1684.2C4801,1679.2 4709,1755.2 4683,1850.2C4606,2105.2 4625,2377.2 4643,2639.2C4650,2754.2 4622,2879.2 4681,2984.2C4765,3169.2 5013,3227.2 5065,3431.2C4802,3453.2 4538,3423.2 4275,3438.2C4231,3442.2 4205,3401.2 4175,3377.2C4236,3279.2 4313,3188.2 4353,3079.2C4368,2906.2 4361,2732.2 4355,2559.2C4341,2354.2 4354,2148.2 4332,1943.2C4342,1831.2 4244,1761.2 4200,1669.2C4259,1583.2 4373,1518.2 4372,1402.2C4406,1114.2 4428,815.201 4568,554.201C4633,422.201 4747,320.201 4873,248.201C4986,182.201 5077,79.201 5201,33.201Z" style="fill:white;fill-rule:nonzero;"/>
        <path d="M3337,117.201C3422,112.201 3532,130.201 3573,215.201C3630,370.201 3487,529.201 3335,532.201C3262,533.201 3186,514.201 3134,460.201C3078,418.201 3041,336.201 3077,271.201C3131,182.201 3234,126.201 3337,117.201Z" style="fill:white;fill-rule:nonzero;"/>
        <path d="M886,387.201C1050,350.201 1215,293.201 1386,305.201C1463,328.201 1557,451.201 1480,520.201C1361,578.201 1210,547.201 1099,626.201C1009,717.201 1033,855.201 1023,970.201C1005,1236.2 1029,1504.2 993,1768.2C972,1926.2 975,2086.2 961,2245.2C948,2341.2 898,2432.2 908,2531.2C928,2718.2 991,2905.2 1110,3052.2C1172,3121.2 1252,3180.2 1347,3191.2C1438,3197.2 1519,3146.2 1610,3145.2C1790,3145.2 1969,3188.2 2148,3173.2C2268,3098.2 2379,2981.2 2529,2973.2C2531,3063.2 2547,3159.2 2508,3243.2C2456,3351.2 2338,3435.2 2215,3422.2C2037,3403.2 1860,3376.2 1681,3367.2C1338,3344.2 995,3368.2 652,3376.2C492,3383.2 338,3443.2 177,3431.2C89,3423.2 59,3323.2 44,3251.2C195,3163.2 375,3210.2 540,3191.2C602,3156.2 603,3070.2 622,3010.2C674,2712.2 633,2409.2 629,2109.2C630,1880.2 655,1649.2 616,1422.2C579,1240.2 641,1050.2 584,871.201C541,719.201 437,596.201 330,485.201C341,466.201 351,446.201 362,427.201C537,420.201 715,429.201 887,387.201L886,387.201Z" style="fill:white;fill-rule:nonzero;"/>
        <path d="M10116,409.201C10218,366.201 10304,458.201 10343,541.201C10412,721.201 10445,912.201 10516,1091.2C10617,1351.2 10696,1619.2 10776,1887.2C10847,2095.2 10841,2321.2 10910,2530.2C10996,2826.2 11151,3094.2 11298,3362.2C11187,3394.2 11071,3398.2 10957,3385.2C10789,3366.2 10624,3416.2 10457,3410.2C10386,3399.2 10325,3359.2 10262,3328.2C10278,3300.2 10290,3269.2 10315,3248.2C10419,3191.2 10568,3193.2 10644,3090.2C10696,2940.2 10624,2783.2 10594,2637.2C10543,2472.2 10544,2271.2 10396,2154.2C10306,2068.2 10178,2112.2 10070,2126.2C9940,2154.2 9788,2157.2 9693,2264.2C9601,2362.2 9598,2502.2 9548,2620.2C9492,2756.2 9409,2903.2 9469,3053.2C9467,3120.2 9537,3134.2 9581,3163.2C9674,3216.2 9798,3258.2 9823,3377.2C9572,3446.2 9309,3404.2 9052,3402.2C8978,3391.2 8886,3417.2 8825,3362.2C8795,3324.2 8762,3274.2 8777,3223.2C8849,3146.2 8975,3157.2 9047,3076.2C9237,2877.2 9267,2591.2 9355,2343.2C9460,2049.2 9568,1752.2 9607,1441.2C9604,1335.2 9705,1276.2 9734,1182.2C9780,1022.2 9791,852.201 9862,699.201C9909,581.201 9971,431.201 10113,408.201L10116,409.201ZM10010,1083.2C9967,1097.2 9891,1086.2 9886,1146.2C9877,1280.2 9889,1417.2 9838,1544.2C9824,1642.2 9743,1760.2 9807,1856.2C9896,1949.2 10043,1903.2 10156,1891.2C10215,1872.2 10302,1858.2 10316,1788.2C10322,1649.2 10232,1535.2 10179,1414.2C10135,1330.2 10113,1237.2 10083,1148.2C10072,1116.2 10050,1073.2 10009,1082.2L10010,1083.2Z" style="fill:white;fill-rule:nonzero;"/>
        <path d="M18755,770.201C18968,752.201 19188,753.201 19392,825.201C19690,911.201 19926,1131.2 20113,1369.2C20212,1499.2 20310,1638.2 20350,1799.2C20388,1940.2 20348,2084.2 20341,2226.2C20330,2345.2 20367,2461.2 20369,2580.2C20358,2699.2 20287,2797.2 20235,2901.2C20175,3026.2 20195,3184.2 20098,3291.2C19926,3485.2 19728,3662.2 19487,3764.2C19253,3857.2 18996,3844.2 18749,3847.2C18623,3848.2 18489,3850.2 18374,3789.2C18206,3705.2 18018,3650.2 17876,3523.2C17761,3426.2 17642,3326.2 17567,3193.2C17479,3043.2 17380,2898.2 17318,2735.2C17296,2616.2 17304,2493.2 17302,2373.2C17306,2199.2 17289,2017.2 17351,1850.2C17412,1692.2 17503,1550.2 17582,1401.2C17630,1311.2 17683,1215.2 17776,1164.2C17911,1081.2 18010,949.201 18148,870.201C18345,810.201 18552,797.201 18756,771.201L18755,770.201ZM18936,936.201C18767,951.201 18597,957.201 18430,985.201C18240,1014.2 18085,1132.2 17926,1230.2C17853,1274.2 17774,1325.2 17743,1409.2C17684,1564.2 17630,1721.2 17572,1876.2C17501,2080.2 17444,2301.2 17495,2517.2C17549,2743.2 17663,2950.2 17781,3149.2C17872,3252.2 18004,3304.2 18115,3383.2C18303,3520.2 18526,3603.2 18753,3647.2C18911,3667.2 19064,3608.2 19221,3599.2C19322,3587.2 19435,3598.2 19526,3541.2C19727,3431.2 19880,3254.2 20015,3072.2C20083,2938.2 20108,2788.2 20143,2644.2C20161,2547.2 20184,2446.2 20170,2347.2C20152,2186.2 20089,2036.2 20048,1881.2C20006,1739.2 19979,1592.2 19915,1458.2C19833,1384.2 19727,1342.2 19640,1275.2C19504,1187.2 19430,1022.2 19273,963.201C19166,916.201 19048,933.201 18936,939.201L18936,936.201Z" style="fill:white;fill-rule:nonzero;"/>
        <path d="M13737,1403.2C13783,1360.2 13846,1350.2 13906,1340.2C13928,1392.2 13948,1454.2 14004,1478.2C14109,1525.2 14223,1491.2 14333,1487.2C14414,1486.2 14493,1509.2 14567,1538.2C14546,1590.2 14541,1662.2 14485,1691.2C14344,1768.2 14167,1709.2 14027,1789.2C13965,1829.2 13901,1899.2 13928,1980.2C13976,2238.2 13930,2500.2 13962,2759.2C13975,2869.2 13918,3010.2 14012,3095.2C14140,3152.2 14298,3109.2 14419,3189.2C14505,3260.2 14445,3424.2 14333,3428.2C14109,3472.2 13843,3437.2 13680,3260.2C13622,3199.2 13629,3111.2 13627,3032.2C13636,2842.2 13568,2659.2 13576,2469.2C13575,2294.2 13632,2108.2 13552,1942.2C13518,1857.2 13454,1787.2 13419,1703.2C13528,1606.2 13619,1490.2 13736,1403.2L13737,1403.2Z" style="fill:white;fill-rule:nonzero;"/>
        <path d="M17990,1393.2C18263,1378.2 18538,1383.2 18812,1392.2C18954,1404.2 19114,1417.2 19222,1522.2C19277,1588.2 19327,1658.2 19377,1728.2C19410,1774.2 19388,1834.2 19367,1881.2C19295,2000.2 19186,2090.2 19096,2195.2C19212,2402.2 19343,2601.2 19475,2799.2C19510,2857.2 19579,2875.2 19636,2904.2C19702,2931.2 19759,2973.2 19813,3019.2C19795,3045.2 19778,3071.2 19761,3098.2C19600,3086.2 19418,3099.2 19284,2991.2C19073,2821.2 19023,2530.2 18839,2338.2C18787,2285.2 18713,2255.2 18638,2263.2C18589,2270.2 18564,2320.2 18562,2365.2C18554,2497.2 18589,2626.2 18586,2758.2C18586,2810.2 18592,2879.2 18651,2898.2C18749,2925.2 18854,2934.2 18943,2987.2C18917,3032.2 18885,3084.2 18829,3093.2C18671,3111.2 18516,3074.2 18359,3072.2C18245,3073.2 18131,3125.2 18018,3090.2C17975,3078.2 17944,3043.2 17913,3013.2C17938,2988.2 17962,2959.2 17996,2946.2C18101,2905.2 18208,2866.2 18304,2807.2C18260,2495.2 18253,2177.2 18294,1865.2C18291,1792.2 18330,1702.2 18273,1641.2C18199,1543.2 18059,1596.2 17966,1531.2C17916,1498.2 17937,1413.2 17990,1395.2L17990,1393.2ZM18627,1556.2C18599,1568.2 18570,1589.2 18569,1622.2C18560,1768.2 18561,1915.2 18576,2061.2C18581,2094.2 18602,2130.2 18639,2133.2C18736,2141.2 18834,2138.2 18931,2139.2C19009,2025.2 19077,1893.2 19052,1750.2C19011,1571.2 18787,1495.2 18627,1556.2Z" style="fill:white;fill-rule:nonzero;"/>
        <path d="M6337,1407.2C6501,1378.2 6662,1433.2 6814,1487.2C6898,1521.2 6987,1558.2 7043,1633.2C7093,1719.2 7119,1817.2 7134,1914.2C7128,1960.2 7084,1990.2 7041,2000.2C6843,2048.2 6641,1992.2 6442,1998.2C6283,2000.2 6117,1995.2 5965,2049.2C5869,2091.2 5871,2216.2 5870,2303.2C5850,2502.2 5914,2695.2 5999,2872.2C6144,3107.2 6477,3232.2 6732,3108.2C6842,3063.2 6936,2990.2 7036,2926.2C7104,2876.2 7239,2924.2 7206,3027.2C7188,3135.2 7099,3216.2 7018,3283.2C6910,3351.2 6805,3433.2 6677,3457.2C6515,3496.2 6333,3518.2 6179,3441.2C5998,3348.2 5870,3183.2 5753,3021.2C5692,2929.2 5634,2834.2 5599,2730.2C5578,2645.2 5601,2556.2 5607,2470.2C5629,2290.2 5607,2101.2 5679,1930.2C5758,1772.2 5903,1662.2 6036,1552.2C6126,1487.2 6221,1417.2 6336,1408.2L6337,1407.2ZM6268,1645.2C6190,1653.2 6117,1691.2 6053,1734.2C6017,1760.2 5989,1812.2 6017,1854.2C6064,1936.2 6175,1922.2 6255,1922.2C6395,1914.2 6538,1925.2 6677,1900.2C6774,1882.2 6814,1726.2 6720,1679.2C6579,1614.2 6416,1638.2 6267,1645.2L6268,1645.2Z" style="fill:white;fill-rule:nonzero;"/>
        <path d="M15045,1696.2C15233,1448.2 15573,1368.2 15870,1405.2C15931,1423.2 16004,1453.2 16016,1523.2C16032,1622.2 16033,1726.2 16005,1823.2C15992,1864.2 15961,1918.2 15904,1887.2C15805,1818.2 15761,1695.2 15666,1623.2C15553,1592.2 15420,1600.2 15323,1670.2C15260,1722.2 15245,1814.2 15276,1888.2C15309,2011.2 15418,2090.2 15513,2166.2C15670,2292.2 15851,2388.2 15988,2538.2C16061,2625.2 16126,2717.2 16185,2814.2C16211,2859.2 16202,2915.2 16187,2962.2C16092,3190.2 15895,3367.2 15668,3460.2C15469,3528.2 15247,3495.2 15056,3413.2C14991,3374.2 14900,3334.2 14893,3248.2C14906,3165.2 14975,3105.2 15027,3042.2C15100,3096.2 15164,3163.2 15238,3216.2C15332,3277.2 15449,3260.2 15555,3262.2C15708,3249.2 15839,3100.2 15817,2944.2C15806,2796.2 15688,2693.2 15568,2624.2C15355,2499.2 15142,2349.2 15025,2124.2C14953,1991.2 14949,1819.2 15045,1697.2L15045,1696.2Z" style="fill:white;fill-rule:nonzero;"/>
        <path d="M11833,1666.2C11874,1546.2 12008,1462.2 12131,1461.2C12237,1528.2 12311,1656.2 12442,1678.2C12558,1638.2 12645,1542.2 12758,1493.2C12799,1479.2 12838,1510.2 12873,1527.2C12944,1578.2 13026,1648.2 13013,1748.2C13001,1800.2 12957,1836.2 12930,1880.2C12773,1864.2 12619,1808.2 12460,1820.2C12369,1847.2 12289,1919.2 12262,2011.2C12229,2156.2 12306,2295.2 12311,2439.2C12305,2592.2 12281,2745.2 12297,2897.2C12335,3045.2 12473,3128.2 12573,3232.2C12616,3274.2 12608,3357.2 12551,3383.2C12428,3429.2 12294,3410.2 12167,3422.2C12064,3421.2 11958,3455.2 11857,3421.2C11815,3405.2 11780,3354.2 11797,3310.2C11851,3215.2 11974,3160.2 11985,3041.2C12013,2871.2 11979,2698.2 11987,2527.2C11981,2314.2 12012,2082.2 11904,1888.2C11869,1819.2 11832,1748.2 11835,1668.2L11833,1666.2Z" style="fill:white;fill-rule:nonzero;"/>
        <path d="M3133,1550.2C3234,1524.2 3334,1494.2 3434,1465.2C3480,1555.2 3517,1654.2 3508,1757.2C3485,2110.2 3486,2464.2 3492,2817.2C3499,2890.2 3459,2970.2 3500,3038.2C3543,3129.2 3622,3194.2 3681,3273.2C3710,3308.2 3689,3358.2 3690,3400.2C3488,3397.2 3286,3405.2 3083,3407.2C3033,3404.2 2976,3378.2 2958,3328.2C2941,3278.2 3003,3261.2 3038,3245.2C3107,3215.2 3200,3201.2 3235,3124.2C3268,2937.2 3258,2745.2 3267,2556.2C3277,2366.2 3276,2173.2 3228,1988.2C3190,1853.2 3046,1759.2 3054,1609.2C3059,1571.2 3100,1558.2 3132,1549.2L3133,1550.2Z" style="fill:white;fill-rule:nonzero;"/>
        <path d="M7132,4219.2C7158,4219.2 7209,4220.2 7235,4220.2C7235,4343.2 7235,4466.2 7234,4590.2C7326,4562.2 7428,4542.2 7521,4573.2C7637,4616.2 7694,4742.2 7691,4860.2C7713,4994.2 7643,5141.2 7521,5202.2C7394,5259.2 7261,5182.2 7131,5213.2C7118,4882.2 7118,4551.2 7131,4220.2L7132,4219.2ZM7235,4673.2L7235,5113.2C7328,5126.2 7445,5163.2 7516,5084.2C7577,5033.2 7592,4948.2 7582,4873.2C7586,4797.2 7556,4715.2 7485,4679.2C7411,4627.2 7318,4663.2 7235,4673.2Z" style="fill:white;fill-rule:nonzero;"/>
        <path d="M8027,4219.2C8062,4221.2 8098,4223.2 8133,4225.2C8139,4557.2 8144,4890.2 8129,5222.2C8103,5222.2 8052,5221.2 8026,5221.2L8026,4220.2L8027,4219.2Z" style="fill:white;fill-rule:nonzero;"/>
        <path d="M9749,4219.2C9784,4221.2 9820,4222.2 9855,4225.2C9858,4352.2 9859,4478.2 9859,4605.2C9969,4575.2 10105,4513.2 10202,4600.2C10263,4643.2 10273,4721.2 10279,4789.2C10292,4931.2 10290,5073.2 10287,5216.2C10247,5216.2 10209,5217.2 10169,5218.2C10165,5071.2 10170,4924.2 10162,4777.2C10154,4731.2 10131,4677.2 10080,4666.2C10006,4649.2 9930,4672.2 9859,4692.2C9858,4866.2 9859,5041.2 9855,5215.2C9819,5217.2 9783,5220.2 9747,5222.2C9746,4888.2 9746,4554.2 9747,4220.2L9749,4219.2Z" style="fill:white;fill-rule:nonzero;"/>
        <path d="M11882,4219.2C11908,4219.2 11959,4220.2 11985,4220.2L11985,5214.2C11903,5180.2 11818,5203.2 11736,5222.2C11595,5249.2 11445,5142.2 11429,4998.2C11380,4832.2 11455,4611.2 11636,4565.2C11714,4551.2 11795,4564.2 11872,4576.2C11873,4457.2 11875,4338.2 11882,4219.2ZM11647,4660.2C11526,4709.2 11505,4874.2 11539,4984.2C11570,5120.2 11754,5181.2 11863,5099.2C11888,4957.2 11869,4807.2 11873,4663.2C11798,4650.2 11720,4625.2 11646,4660.2L11647,4660.2Z" style="fill:white;fill-rule:nonzero;"/>
        <path d="M13825,4683.2C13756,4500.2 13910,4267.2 14109,4276.2C14199,4262.2 14295,4294.2 14352,4366.2C14438,4470.2 14440,4616.2 14438,4744.2C14419,4893.2 14377,5073.2 14233,5150.2C14130,5226.2 13994,5216.2 13873,5224.2L13873,5130.2C13990,5120.2 14124,5121.2 14217,5038.2C14272,4974.2 14295,4890.2 14311,4810.2C14234,4843.2 14155,4882.2 14068,4873.2C13961,4862.2 13854,4791.2 13824,4685.2L13825,4683.2ZM14059,4378.2C13982,4410.2 13910,4491.2 13927,4580.2C13915,4707.2 14066,4809.2 14183,4767.2C14300,4747.2 14351,4596.2 14303,4497.2C14266,4404.2 14155,4347.2 14059,4379.2L14059,4378.2Z" style="fill:white;fill-rule:nonzero;"/>
        <path d="M14846,4443.2C14916,4295.2 15110,4238.2 15258,4294.2C15426,4367.2 15447,4575.2 15442,4733.2C15427,4890.2 15380,5065.2 15236,5152.2C15132,5229.2 14994,5212.2 14873,5222.2C14875,5199.2 14878,5154.2 14879,5131.2C14988,5114.2 15112,5121.2 15204,5049.2C15274,4989.2 15290,4892.2 15313,4807.2C15205,4860.2 15075,4902.2 14961,4839.2C14817,4770.2 14773,4576.2 14846,4441.2L14846,4443.2ZM15059,4379.2C14954,4419.2 14899,4551.2 14937,4656.2C14989,4759.2 15132,4821.2 15234,4748.2C15322,4703.2 15339,4582.2 15304,4498.2C15267,4405.2 15156,4349.2 15059,4379.2Z" style="fill:white;fill-rule:nonzero;"/>
        <path d="M15817,4595.2C15795,4424.2 15956,4268.2 16124,4277.2C16257,4254.2 16383,4358.2 16417,4483.2C16472,4698.2 16448,4953.2 16286,5118.2C16175,5220.2 16014,5219.2 15873,5223.2C15877,5192.2 15882,5161.2 15888,5130.2C15976,5119.2 16072,5125.2 16153,5082.2C16261,5038.2 16292,4912.2 16314,4809.2C16222,4850.2 16116,4898.2 16014,4858.2C15900,4828.2 15807,4716.2 15818,4595.2L15817,4595.2ZM16060,4378.2C15936,4423.2 15873,4617.2 15980,4711.2C16064,4812.2 16242,4795.2 16303,4678.2C16389,4531.2 16225,4320.2 16060,4379.2L16060,4378.2Z" style="fill:white;fill-rule:nonzero;"/>
        <path d="M8469,4290.2L8609,4290.2C8607,4332.2 8609,4375.2 8609,4417.2C8564,4414.2 8521,4414.2 8476,4412.2C8473,4371.2 8471,4331.2 8469,4291.2L8469,4290.2Z" style="fill:white;fill-rule:nonzero;"/>
        <path d="M12860,4376.2C12973,4322.2 13093,4283.2 13220,4285.2C13221,4560.2 13220,4834.2 13221,5109.2C13273,5109.2 13377,5110.2 13429,5110.2L13429,5221.2C13250,5221.2 13072,5222.2 12893,5218.2C12890,5182.2 12888,5146.2 12886,5110.2C12960,5110.2 13035,5109.2 13109,5109.2C13109,4872.2 13110,4635.2 13108,4399.2C13039,4424.2 12971,4452.2 12902,4476.2C12888,4443.2 12874,4410.2 12860,4377.2L12860,4376.2Z" style="fill:white;fill-rule:nonzero;"/>
        <path d="M5658,4387.2C5693,4387.2 5727,4387.2 5762,4386.2C5762,4446.2 5763,4506.2 5763,4566.2C5815,4566.2 5919,4567.2 5971,4567.2L5971,4649.2C5919,4649.2 5814,4650.2 5762,4650.2C5771,4792.2 5740,4940.2 5779,5078.2C5808,5155.2 5907,5124.2 5972,5127.2C5978,5153.2 5983,5179.2 5988,5205.2C5898,5217.2 5792,5244.2 5712,5185.2C5611,5047.2 5673,4861.2 5649,4703.2C5656,4647.2 5552,4651.2 5583,4588.2C5662,4550.2 5642,4456.2 5658,4385.2L5658,4387.2Z" style="fill:white;fill-rule:nonzero;"/>
        <path d="M4246,4563.2C4333,4538.2 4425,4557.2 4496,4611.2C4564,4707.2 4559,4830.2 4574,4941.2C4421,4942.2 4267,4942.2 4114,4944.2C4136,5002.2 4161,5064.2 4217,5098.2C4307,5149.2 4415,5134.2 4511,5116.2C4517,5143.2 4523,5169.2 4529,5196.2C4413,5214.2 4285,5253.2 4172,5199.2C3916,5077.2 3971,4627.2 4245,4563.2L4246,4563.2ZM4244,4659.2C4158,4681.2 4141,4784.2 4115,4857.2C4232,4859.2 4348,4858.2 4465,4857.2C4450,4805.2 4437,4752.2 4417,4703.2C4382,4646.2 4301,4644.2 4244,4660.2L4244,4659.2Z" style="fill:white;fill-rule:nonzero;"/>
        <path d="M4916,4623.2C5026,4534.2 5179,4544.2 5309,4577.2C5299,4606.2 5289,4634.2 5278,4663.2C5185,4653.2 5058,4606.2 4989,4696.2C4949,4723.2 4979,4774.2 5011,4791.2C5115,4848.2 5253,4858.2 5328,4961.2C5381,5066.2 5295,5194.2 5185,5211.2C5071,5245.2 4955,5208.2 4843,5183.2C4849,5154.2 4856,5125.2 4862,5096.2C4951,5113.2 5042,5143.2 5133,5133.2C5192,5126.2 5220,5064.2 5235,5015.2C5137,4965.2 5029,4934.2 4931,4884.2C4835,4835.2 4834,4686.2 4915,4623.2L4916,4623.2Z" style="fill:white;fill-rule:nonzero;"/>
        <path d="M6301,4591.2C6415,4566.2 6543,4527.2 6653,4580.2C6695,4606.2 6751,4633.2 6748,4692.2C6776,4867.2 6763,5046.2 6757,5222.2C6719,5207.2 6683,5194.2 6648,5176.2C6563,5212.2 6465,5252.2 6376,5204.2C6296,5175.2 6250,5095.2 6261,5012.2C6256,4943.2 6326,4906.2 6378,4879.2C6468,4848.2 6566,4851.2 6661,4839.2C6649,4776.2 6645,4685.2 6573,4660.2C6489,4646.2 6403,4663.2 6319,4669.2C6313,4643.2 6306,4617.2 6301,4591.2ZM6419,4960.2C6372,4980.2 6376,5044.2 6359,5082.2C6401,5100.2 6442,5121.2 6486,5133.2C6546,5137.2 6601,5111.2 6653,5084.2C6653,5044.2 6652,4963.2 6651,4923.2C6574,4934.2 6491,4925.2 6419,4960.2Z" style="fill:white;fill-rule:nonzero;"/>
        <path d="M9001,4626.2C9115,4537.2 9272,4543.2 9405,4577.2C9395,4606.2 9384,4635.2 9374,4665.2C9280,4653.2 9155,4606.2 9085,4697.2C9045,4724.2 9075,4775.2 9107,4792.2C9209,4848.2 9340,4858.2 9418,4954.2C9475,5037.2 9415,5155.2 9333,5195.2C9207,5246.2 9064,5230.2 8940,5182.2C8946,5154.2 8953,5126.2 8959,5097.2C9048,5114.2 9139,5144.2 9230,5134.2C9291,5127.2 9312,5063.2 9329,5014.2C9212,4954.2 9079,4923.2 8973,4843.2C8940,4773.2 8950,4685.2 9001,4626.2Z" style="fill:white;fill-rule:nonzero;"/>
        <path d="M10602,4809.2C10620,4666.2 10757,4548.2 10901,4555.2C10985,4545.2 11068,4593.2 11108,4665.2C11145,4752.2 11131,4849.2 11143,4941.2C10994,4942.2 10846,4942.2 10697,4944.2C10716,4999.2 10733,5064.2 10790,5094.2C10880,5154.2 10992,5124.2 11093,5127.2C11099,5150.2 11105,5173.2 11112,5196.2C10978,5220.2 10809,5264.2 10694,5162.2C10581,5085.2 10591,4927.2 10601,4809.2L10602,4809.2ZM10765,4695.2C10720,4736.2 10713,4802.2 10697,4857.2C10809,4858.2 10921,4858.2 11033,4858.2C11022,4804.2 11024,4744.2 10994,4696.2C10934,4631.2 10827,4638.2 10766,4695.2L10765,4695.2Z" style="fill:white;fill-rule:nonzero;"/>
        <path d="M8485,4567.2L8596,4567.2L8596,5221.2C8560,5219.2 8525,5217.2 8489,5215.2C8483,4999.2 8484,4783.2 8485,4567.2Z" style="fill:white;fill-rule:nonzero;"/>
        <path d="M0,4751.2C106,4738.2 214,4735.2 321,4738.2C1013,4738.2 1706,4739.2 2398,4738.2C2483,4741.2 2575,4726.2 2656,4757.2C2731,4814.2 2800,4883.2 2844,4968.2C2691,4987.2 2536,4977.2 2382,4979.2C1695,4979.2 1008,4978.2 320,4980.2C268,4979.2 206,4981.2 166,4942.2C104,4885.2 42,4825.2 0,4752.2L0,4751.2Z" style="fill:white;fill-rule:nonzero;"/>
        <path d="M17597,4750.2C17745,4732.2 17894,4741.2 18043,4739.2C18715,4738.2 19387,4741.2 20059,4738.2C20134,4741.2 20224,4724.2 20282,4783.2C20341,4839.2 20400,4896.2 20440,4967.2C20278,4988.2 20115,4978.2 19953,4980.2C19270,4981.2 18586,4979.2 17902,4981.2C17853,4977.2 17798,4981.2 17761,4945.2C17698,4888.2 17634,4828.2 17596,4751.2L17597,4750.2Z" style="fill:white;fill-rule:nonzero;"/>
        <path d="M17709,5556.2C17731,5549.2 17739,5556.2 17732,5579.2C17709,5586.2 17701,5578.2 17709,5556.2Z" style="fill:white;fill-rule:nonzero;"/>
    </g>
</svg>
