<?xml version="1.0" encoding="UTF-8" standalone="no"?><!DOCTYPE svg PUBLIC "-//W3C//DTD SVG 1.1//EN" "http://www.w3.org/Graphics/SVG/1.1/DTD/svg11.dtd"><svg width="100%" height="100%" viewBox="0 0 48 30" version="1.1" xmlns="http://www.w3.org/2000/svg" xmlns:xlink="http://www.w3.org/1999/xlink" xml:space="preserve" xmlns:serif="http://www.serif.com/" style="fill-rule:evenodd;clip-rule:evenodd;stroke-linejoin:round;stroke-miterlimit:1.41421;"><g><path d="M3.082,23.933c0,0 23.378,-5.743 40.699,-1.697l0.054,-0.187c0,0 -15.114,-4.463 -40.463,0.973" style="fill:#8c8c8c;fill-rule:nonzero;"/><path d="M14.273,12.663l0,0.952c0.086,-0.191 0.196,-0.449 0.489,-0.694c0.319,-0.272 0.784,-0.422 1.237,-0.422c0.232,0 0.464,0.042 0.696,0.123c0.722,0.272 0.93,0.843 1.016,1.087c0.563,-1.046 1.456,-1.195 1.933,-1.195c0.587,0 1.101,0.218 1.444,0.557c0.611,0.598 0.635,1.25 0.635,2.882l0,3.752l-1.797,0l0,-3.331c0,-1.129 -0.025,-1.36 -0.209,-1.658c-0.195,-0.327 -0.477,-0.395 -0.746,-0.395c-0.489,0 -0.734,0.353 -0.771,0.408c-0.196,0.34 -0.196,0.924 -0.196,1.495l0,3.48l-1.798,0l0,-3.547c0,-0.762 0,-1.102 -0.183,-1.415c-0.135,-0.23 -0.404,-0.421 -0.734,-0.421c-0.159,0 -0.319,0.041 -0.465,0.123c-0.527,0.298 -0.539,0.815 -0.539,2.148l0,3.113l-1.799,0l0,-7.042" style="fill:#8c8c8c;fill-rule:nonzero;"/><path d="M28.876,12.663l1.834,0l-1.834,7.041l-1.677,0l-1.065,-4.757l-1.051,4.757l-1.701,0l-1.835,-7.041l1.835,0l0.967,4.404l0.991,-4.404l1.59,0l0.979,4.404" style="fill:#8c8c8c;fill-rule:nonzero;"/><path d="M34.58,19.704l1.762,0l0,-7.055l-1.725,0l0,0.911c-0.318,-0.679 -0.868,-1.074 -1.566,-1.074c-1.199,0 -2.765,1.034 -2.765,3.807c0,2.202 1.125,3.561 2.63,3.561c1.028,0 1.444,-0.598 1.664,-0.924m-0.092,-2.828c0,0.639 -0.086,1.251 -0.465,1.713c-0.319,0.367 -0.673,0.394 -0.783,0.394c-0.355,0 -0.759,-0.217 -1.004,-0.829c-0.146,-0.353 -0.196,-0.775 -0.196,-1.21c0,-0.544 0.075,-1.101 0.38,-1.549c0.22,-0.314 0.562,-0.517 0.893,-0.517c0.269,0 0.538,0.135 0.722,0.353c0.232,0.259 0.453,0.734 0.453,1.645Z" style="fill:#8c8c8c;fill-rule:nonzero;"/><path d="M40.495,12.663l1.828,0l-2.011,6.987c-0.147,0.489 -0.379,1.292 -0.734,1.686c-0.331,0.354 -0.722,0.517 -2.178,0.517c-0.208,0 -0.293,-0.014 -0.477,-0.027l0,-1.564l0.477,0c0.171,0 0.575,0 0.758,-0.176c0.147,-0.123 0.27,-0.422 0.27,-0.708c0,-0.149 -0.074,-0.422 -0.135,-0.598l-1.957,-6.117l1.957,0l1.15,4.744" style="fill:#8c8c8c;fill-rule:nonzero;"/><path d="M7.329,10.085l-3.02,9.619l2.219,0l0.563,-2.043l2.833,0l0.577,2.043l2.231,0l-3.146,-9.619m-1.116,2.113l0.965,3.705l-1.879,0l0.914,-3.705Z" style="fill:#8c8c8c;fill-rule:nonzero;"/></g><g transform="matrix(0.24,0,0,0.24,-389.727,-96.9589)"><text x="1135.82px" y="286.174px" style="font-family:'Varela';font-size:20.833px;">A personalised journal, notebook or reﬁllable journal is the perfect addition to your corporate merchandise, event or</text><text x="1113.26px" y="319.507px" style="font-family:'Varela';font-size:20.833px;">simply a personalised gift for your clients with your corporate logo. Our handmade products are the perfect solution and</text><text x="1489.84px" y="352.84px" style="font-family:'Varela';font-size:20.833px;">are available to ﬁt a wide variety of budgets.</text></g></svg>