<?xml version="1.0" encoding="UTF-8" standalone="no"?><!DOCTYPE svg PUBLIC "-//W3C//DTD SVG 1.1//EN" "http://www.w3.org/Graphics/SVG/1.1/DTD/svg11.dtd"><svg width="100%" height="100%" viewBox="0 0 52 30" version="1.1" xmlns="http://www.w3.org/2000/svg" xmlns:xlink="http://www.w3.org/1999/xlink" xml:space="preserve" xmlns:serif="http://www.serif.com/" style="fill-rule:evenodd;clip-rule:evenodd;stroke-linejoin:round;stroke-miterlimit:1.41421;"><g><g><path d="M5.679,10.492c0.803,-0.493 1.766,-0.648 2.695,-0.638c0.338,-0.01 0.675,0.027 1.011,0.064c0.378,0.042 0.745,0.143 1.122,0.189c0.164,0.016 0.33,0.008 0.491,0.045c0.052,0.091 0.019,0.194 0.011,0.29c-0.047,0.404 -0.056,0.811 -0.052,1.217c0.002,0.095 -0.015,0.189 -0.034,0.282c-0.029,0.001 -0.088,0.003 -0.117,0.004c-0.047,-0.271 -0.076,-0.555 -0.219,-0.796c-0.155,-0.272 -0.439,-0.433 -0.711,-0.567c-0.725,-0.321 -1.537,-0.367 -2.318,-0.315c-0.567,0.051 -1.126,0.243 -1.586,0.584c-0.551,0.384 -0.877,1.015 -1.029,1.655c-0.326,1.296 -0.035,2.738 0.794,3.791c0.618,0.729 1.524,1.209 2.475,1.309c0.244,0.023 0.49,0.046 0.734,0.016c0.302,-0.025 0.611,-0.065 0.888,-0.195c0.137,-0.061 0.228,-0.194 0.245,-0.342c0.002,-0.476 0.001,-0.952 0.001,-1.428c-0.002,-0.226 0.009,-0.452 -0.017,-0.677c-0.009,-0.222 0.016,-0.481 -0.153,-0.654c-0.204,-0.17 -0.487,-0.168 -0.739,-0.179c-0.001,-0.042 -0.002,-0.084 -0.002,-0.127c0.062,-0.009 0.124,-0.018 0.187,-0.027c0.384,0.027 0.771,0.011 1.156,0.031c0.339,-0.018 0.68,-0.003 1.018,-0.032c0.06,0.01 0.121,0.02 0.181,0.03c0,0.04 0,0.08 0,0.12c-0.132,0.012 -0.263,0.033 -0.395,0.048c-0.131,0.045 -0.248,0.138 -0.281,0.277c-0.075,0.265 -0.058,0.544 -0.071,0.816c-0.004,0.667 0.001,1.333 -0.002,2c-0.001,0.125 -0.008,0.288 -0.146,0.34c-0.877,0.434 -1.885,0.51 -2.848,0.442c-1.013,-0.078 -2.036,-0.41 -2.811,-1.085c-0.694,-0.622 -1.096,-1.522 -1.225,-2.434c-0.079,-0.649 -0.032,-1.316 0.16,-1.942c0.261,-0.859 0.816,-1.641 1.587,-2.112Z" style="fill:#8c8c8c;fill-rule:nonzero;"/><path d="M44.007,11.034c0.061,-0.039 0.145,-0.005 0.17,0.062c0.136,0.276 0.245,0.565 0.364,0.849c0.437,1.069 0.868,2.139 1.304,3.208c0.155,0.385 0.314,0.769 0.471,1.153c0.138,0.321 0.255,0.653 0.437,0.953c0.098,0.156 0.211,0.315 0.376,0.407c0.167,0.094 0.363,0.124 0.553,0.121c0.021,0.008 0.065,0.024 0.086,0.032c-0.001,0.029 -0.001,0.058 -0.001,0.087c-0.181,0.066 -0.375,0.027 -0.562,0.033c-0.467,0.005 -0.934,-0.008 -1.4,-0.037c-0.009,-0.018 -0.027,-0.056 -0.037,-0.074c0.101,-0.043 0.218,-0.133 0.156,-0.257c-0.28,-0.704 -0.567,-1.406 -0.852,-2.108c-0.227,-0.006 -0.454,0 -0.681,-0.004c-0.26,0.002 -0.519,0.003 -0.779,0c-0.158,0.002 -0.316,0.002 -0.474,0c-0.104,0.001 -0.208,0.002 -0.312,0.004c-0.152,0.344 -0.262,0.706 -0.4,1.056c-0.109,0.342 -0.292,0.671 -0.292,1.037c-0.01,0.112 0.091,0.201 0.194,0.22c0.096,0.012 0.195,0.005 0.289,0.033c0,0.036 0,0.072 0,0.107c-0.24,0.057 -0.49,0.006 -0.734,0.001c-0.328,-0.026 -0.654,0.026 -0.981,0.023c-0.121,0.002 -0.245,0.015 -0.359,-0.03c0,-0.033 0.001,-0.066 0.002,-0.099c0.189,-0.049 0.396,-0.015 0.575,-0.108c0.285,-0.134 0.425,-0.439 0.535,-0.717c0.742,-1.902 1.48,-3.806 2.221,-5.708c0.035,-0.085 0.07,-0.173 0.131,-0.244m-0.141,1.486c-0.079,0.177 -0.127,0.366 -0.199,0.547c-0.228,0.669 -0.48,1.33 -0.695,2.003c0.646,0.008 1.292,0.003 1.938,0.002c-0.051,-0.178 -0.121,-0.351 -0.186,-0.525c-0.257,-0.687 -0.511,-1.376 -0.771,-2.063c-0.03,0.01 -0.08,-0.008 -0.087,0.036Z" style="fill:#8c8c8c;fill-rule:nonzero;"/><path d="M19.916,11.059c0.166,-0.012 0.267,0.138 0.377,0.238c0.972,1.014 1.935,2.038 2.917,3.043c0.737,0.772 1.477,1.542 2.2,2.328c-0.002,-1.038 -0.051,-2.074 -0.053,-3.111c-0.035,-0.508 -0.015,-1.018 -0.036,-1.527c-0.026,-0.21 -0.006,-0.485 -0.218,-0.609c-0.196,-0.079 -0.416,-0.077 -0.625,-0.084c-0.014,-0.041 -0.022,-0.082 -0.024,-0.124c0.102,-0.038 0.213,-0.037 0.321,-0.035c0.473,0.024 0.948,0.037 1.422,0.004c0.119,-0.01 0.239,-0.004 0.355,0.025c0,0.028 0,0.056 0,0.085c-0.016,0.01 -0.048,0.032 -0.064,0.043c-0.158,0.005 -0.337,0.008 -0.461,0.121c-0.075,0.068 -0.084,0.174 -0.109,0.267c-0.023,0.87 -0.004,1.742 -0.016,2.612c-0.008,0.553 0.018,1.108 -0.018,1.66c0.001,0.531 0.002,1.062 0,1.593c-0.007,0.144 0.018,0.297 -0.046,0.432c-0.171,-0.032 -0.288,-0.166 -0.416,-0.27c-0.429,-0.381 -0.832,-0.789 -1.239,-1.193c-0.993,-0.986 -1.951,-2.005 -2.915,-3.018c-0.316,-0.339 -0.641,-0.67 -0.949,-1.017c0.019,1.136 0.066,2.271 0.078,3.407c0.043,0.463 -0.008,0.933 0.073,1.394c0.028,0.138 0.074,0.292 0.203,0.368c0.195,0.106 0.425,0.068 0.634,0.117c0,0.035 0,0.068 0.001,0.103c-0.062,0.019 -0.125,0.036 -0.19,0.033c-0.227,-0.008 -0.455,0 -0.682,-0.023c-0.42,-0.037 -0.841,0.047 -1.261,0.014c-0.063,-0.011 -0.045,-0.079 -0.051,-0.125c0.188,-0.052 0.416,-0.007 0.574,-0.147c0.132,-0.15 0.111,-0.366 0.126,-0.552c0.022,-0.122 0.012,-0.247 0.014,-0.37c0,-1.739 0,-3.478 0,-5.217c0.003,-0.157 -0.011,-0.326 0.078,-0.465Z" style="fill:#8c8c8c;fill-rule:nonzero;"/><path d="M30.393,11.108c0.577,-0.082 1.17,-0.059 1.738,0.07c0.707,0.17 1.382,0.534 1.851,1.098c0.378,0.446 0.613,1.005 0.693,1.582c0.086,0.627 0.031,1.278 -0.191,1.872c-0.344,0.972 -1.146,1.761 -2.117,2.103c-0.341,0.113 -0.695,0.197 -1.054,0.215c-0.386,0.008 -0.775,0.016 -1.154,-0.066c-0.673,-0.127 -1.311,-0.45 -1.791,-0.942c-0.86,-0.905 -1.203,-2.289 -0.817,-3.482c0.183,-0.586 0.513,-1.128 0.961,-1.549c0.51,-0.491 1.183,-0.799 1.881,-0.901m-1.27,1.002c-0.435,0.427 -0.652,1.026 -0.734,1.619c-0.025,0.29 -0.056,0.583 -0.021,0.873c0.011,0.398 0.101,0.788 0.227,1.164c0.22,0.596 0.61,1.143 1.153,1.485c0.549,0.358 1.225,0.483 1.872,0.412c0.453,-0.073 0.896,-0.251 1.243,-0.557c0.418,-0.359 0.669,-0.876 0.794,-1.405c0.092,-0.473 0.135,-0.958 0.087,-1.438c-0.048,-0.616 -0.225,-1.232 -0.581,-1.742c-0.327,-0.476 -0.817,-0.833 -1.368,-1.004c-0.267,-0.073 -0.543,-0.124 -0.821,-0.116c-0.673,0.004 -1.374,0.216 -1.851,0.709Z" style="fill:#8c8c8c;fill-rule:nonzero;"/><path d="M16.847,11.21c0.31,-0.015 0.639,0.019 0.929,-0.112c0.077,0.067 0.031,0.174 0.018,0.258c-0.072,0.287 -0.042,0.588 -0.104,0.876c-0.007,0.077 -0.089,0.059 -0.144,0.064c-0.019,-0.21 -0.005,-0.501 -0.242,-0.594c-0.473,-0.161 -0.982,-0.107 -1.473,-0.127c-0.354,0.006 -0.708,-0.014 -1.062,-0.003c-0.046,0.038 -0.031,0.103 -0.035,0.155c0.001,0.78 0,1.56 0,2.34c-0.005,0.046 0.011,0.124 0.075,0.112c0.578,0.002 1.157,0.001 1.737,-0.007c0.227,-0.037 0.474,0.015 0.688,-0.091c0.081,-0.055 0.147,-0.131 0.23,-0.184c0.074,0.092 0.01,0.204 -0.001,0.305c-0.045,0.268 -0.062,0.54 -0.069,0.811c-0.012,0.077 -0.005,0.169 -0.07,0.224c-0.143,0.016 -0.081,-0.171 -0.098,-0.259c-0.033,-0.098 -0.045,-0.214 -0.134,-0.279c-0.141,-0.102 -0.321,-0.11 -0.488,-0.124c-0.505,-0.033 -1.014,-0.011 -1.52,-0.033c-0.116,0.002 -0.233,0.001 -0.348,0.014c-0.003,0.74 0,1.479 -0.002,2.219c-0.001,0.142 0.02,0.293 0.107,0.41c0.106,0.146 0.274,0.233 0.444,0.281c0.342,0.096 0.699,0.115 1.053,0.11c0.332,-0.002 0.679,0.016 0.992,-0.113c0.22,-0.093 0.334,-0.327 0.366,-0.552c0.017,-0.075 0.025,-0.212 0.136,-0.184c0.028,0.046 0.045,0.098 0.036,0.153c-0.026,0.251 -0.058,0.503 -0.1,0.753c-0.024,0.096 -0.04,0.211 -0.124,0.276c-0.074,0.052 -0.169,0.046 -0.255,0.049c-0.881,-0.002 -1.763,-0.001 -2.643,-0.043c-0.215,-0.005 -0.43,-0.01 -0.645,-0.002c-0.27,0.002 -0.541,0.05 -0.811,0.019c-0.015,-0.017 -0.046,-0.052 -0.062,-0.07c0.015,-0.018 0.044,-0.055 0.058,-0.073c0.15,-0.021 0.337,-0.006 0.449,-0.126c0.101,-0.187 0.104,-0.408 0.131,-0.615c0.03,-0.372 0.018,-0.746 0.025,-1.12c-0.002,-1.264 0.004,-2.528 -0.004,-3.792c-0.013,-0.204 0.006,-0.423 -0.088,-0.611c-0.143,-0.212 -0.435,-0.174 -0.658,-0.19c-0.018,-0.042 -0.068,-0.096 -0.009,-0.13c0.204,-0.064 0.421,-0.002 0.631,-0.012c0.554,0.016 1.108,0.01 1.662,0.011c0.474,0.012 0.948,0.004 1.422,0.006Z" style="fill:#8c8c8c;fill-rule:nonzero;"/><path d="M34.612,11.208c0.196,-0.04 0.398,-0.034 0.597,-0.019c0.383,0.008 0.766,0.023 1.15,0.004c0.233,0.008 0.491,-0.071 0.706,0.051c-0.014,0.022 -0.041,0.067 -0.055,0.089c-0.164,0.017 -0.374,-0.017 -0.489,0.127c-0.031,0.129 0.036,0.253 0.074,0.373c0.632,1.641 1.271,3.279 1.905,4.919c0.359,-0.774 0.665,-1.572 0.989,-2.361c0.324,-0.832 0.666,-1.659 0.952,-2.507c0.038,-0.137 0.116,-0.286 0.06,-0.428c-0.107,-0.154 -0.322,-0.107 -0.483,-0.123c-0.013,-0.022 -0.041,-0.066 -0.054,-0.088c0.091,-0.076 0.217,-0.066 0.329,-0.067c0.474,0.026 0.95,0.036 1.424,0.001c0.085,-0.007 0.169,0.011 0.252,0.03c-0.001,0.027 -0.001,0.054 -0.001,0.082c-0.013,0.01 -0.038,0.032 -0.051,0.043c-0.079,0.003 -0.159,0.007 -0.238,0.011c-0.149,0.036 -0.296,0.101 -0.397,0.221c-0.175,0.205 -0.275,0.46 -0.376,0.706c-0.663,1.58 -1.347,3.152 -2.031,4.723c-0.156,0.327 -0.291,0.665 -0.469,0.98c-0.031,0.08 -0.112,0.08 -0.184,0.076c-0.104,-0.125 -0.169,-0.276 -0.232,-0.425c-0.73,-1.762 -1.46,-3.524 -2.19,-5.286c-0.121,-0.274 -0.206,-0.574 -0.41,-0.8c-0.206,-0.188 -0.503,-0.201 -0.766,-0.208c-0.005,-0.041 -0.009,-0.083 -0.012,-0.124Z" style="fill:#8c8c8c;fill-rule:nonzero;"/><path d="M47.774,19.241c0.091,-0.096 0.245,-0.137 0.368,-0.076c0.097,0.035 0.149,0.128 0.193,0.215c-0.003,0.091 0.001,0.19 -0.055,0.268c-0.104,0.167 -0.37,0.186 -0.502,0.044c-0.121,-0.116 -0.122,-0.332 -0.004,-0.451m0.074,0.01c-0.07,0.045 -0.088,0.132 -0.115,0.205c0.028,0.101 0.063,0.222 0.177,0.253c0.084,0.045 0.176,0.005 0.261,-0.012c-0.084,-0.066 -0.111,-0.21 -0.233,-0.21c-0.001,0.053 -0.001,0.106 0,0.159c-0.011,0.001 -0.034,0.002 -0.045,0.002c-0.001,-0.126 -0.002,-0.252 0.001,-0.378c0.067,0.001 0.134,0.001 0.201,0.001c0.02,0.011 0.06,0.031 0.081,0.041c0,0.071 0.01,0.167 -0.087,0.175c0.015,0.037 0.03,0.076 0.046,0.114c0.019,0.013 0.058,0.038 0.078,0.05c0.07,-0.099 0.09,-0.244 0.015,-0.346c-0.082,-0.12 -0.265,-0.138 -0.38,-0.054m0.088,0.077c0.001,0.027 0.002,0.082 0.003,0.108c0.055,0 0.11,-0.001 0.166,-0.002c0.001,-0.035 0.003,-0.07 0.004,-0.104c-0.058,-0.002 -0.116,-0.002 -0.173,-0.002Z" style="fill:#8c8c8c;fill-rule:nonzero;"/><path d="M13.38,19.273c0.018,-0.046 0.048,-0.087 0.077,-0.127c0.035,0.056 0.067,0.115 0.089,0.177c0.285,0.742 0.567,1.486 0.859,2.226c0.072,0.164 0.151,0.355 0.333,0.422c0.057,0.004 0.114,0.009 0.171,0.013c-0.004,0.015 -0.011,0.044 -0.015,0.058c-0.243,0.002 -0.488,0.003 -0.731,-0.012c-0.055,-0.021 0.019,-0.075 0.029,-0.102c-0.113,-0.327 -0.235,-0.653 -0.366,-0.973c-0.283,-0.009 -0.567,-0.005 -0.849,-0.001c-0.084,0.279 -0.191,0.549 -0.274,0.828c-0.003,0.045 -0.005,0.089 -0.008,0.135c0.056,0.056 0.134,0.066 0.21,0.071l-0.004,0.056c-0.273,-0.017 -0.545,-0.002 -0.818,-0.002c-0.002,-0.014 -0.006,-0.043 -0.008,-0.058c0.09,-0.009 0.189,-0.003 0.266,-0.059c0.089,-0.067 0.135,-0.173 0.172,-0.275c0.289,-0.793 0.58,-1.584 0.867,-2.377m-0.346,1.522c0.244,0.007 0.488,0.003 0.732,0.003c-0.115,-0.363 -0.244,-0.723 -0.378,-1.08c-0.119,0.359 -0.233,0.719 -0.354,1.077Z" style="fill:#8c8c8c;fill-rule:nonzero;"/><path d="M16.947,19.518c0.329,-0.293 0.792,-0.361 1.217,-0.351c0.285,0.005 0.558,0.101 0.842,0.105c-0.006,0.21 -0.018,0.422 -0.016,0.633c-0.015,0.002 -0.044,0.005 -0.059,0.006c-0.023,-0.137 -0.05,-0.291 -0.17,-0.38c-0.179,-0.138 -0.409,-0.194 -0.631,-0.209c-0.372,-0.045 -0.79,0.042 -1.048,0.332c-0.203,0.232 -0.264,0.548 -0.276,0.847c0.011,0.374 0.14,0.754 0.4,1.029c0.245,0.236 0.578,0.399 0.924,0.389c0.163,-0.004 0.344,0.011 0.485,-0.085c0.07,-0.046 0.048,-0.141 0.054,-0.213c-0.008,-0.261 0.015,-0.524 -0.016,-0.784c-0.032,-0.144 -0.208,-0.127 -0.32,-0.154c0.01,-0.009 0.03,-0.026 0.039,-0.034c0.202,-0.016 0.405,0.012 0.607,-0.001c0.101,0.001 0.21,-0.024 0.303,0.026c-0.096,0.038 -0.254,0.027 -0.276,0.158c-0.027,0.331 0,0.664 -0.014,0.995c-0.009,0.035 -0.02,0.069 -0.034,0.101c-0.373,0.169 -0.79,0.188 -1.191,0.142c-0.34,-0.058 -0.681,-0.193 -0.922,-0.449c-0.519,-0.58 -0.486,-1.582 0.102,-2.103Z" style="fill:#8c8c8c;fill-rule:nonzero;"/><path d="M21.461,20.743c0.014,-0.53 -0.013,-1.06 0.014,-1.589c0.039,0.018 0.074,0.041 0.105,0.071c0.705,0.768 1.422,1.526 2.121,2.3c-0.003,-0.205 0.015,-0.414 -0.017,-0.617c0.002,-0.025 0.007,-0.075 0.01,-0.1c-0.032,-0.426 -0.01,-0.855 -0.03,-1.282c-0.011,-0.082 -0.027,-0.179 -0.111,-0.218c-0.034,-0.021 -0.067,-0.04 -0.101,-0.059c0.201,-0.013 0.403,-0.012 0.604,-0.001c-0.029,0.021 -0.058,0.042 -0.085,0.065c-0.016,0.015 -0.048,0.046 -0.064,0.062c-0.002,0.094 -0.006,0.187 -0.018,0.28c0.035,0.35 -0.017,0.7 -0.006,1.05c-0.005,0.454 0.008,0.909 -0.008,1.362c-0.045,-0.014 -0.094,-0.026 -0.127,-0.063c-0.73,-0.717 -1.419,-1.475 -2.105,-2.233c0.004,0.198 -0.009,0.397 0.017,0.594c0.015,0.408 0.007,0.817 0.027,1.225c0.018,0.116 -0.001,0.257 0.094,0.345c0.081,0.049 0.179,0.039 0.269,0.05c-0.002,0.014 -0.008,0.042 -0.01,0.057c-0.291,-0.002 -0.58,-0.009 -0.871,0c-0.001,-0.014 -0.002,-0.041 -0.003,-0.054c0.079,-0.009 0.157,-0.025 0.234,-0.046c0.08,-0.187 0.03,-0.395 0.056,-0.591c0.021,-0.203 -0.017,-0.406 0.005,-0.608Z" style="fill:#8c8c8c;fill-rule:nonzero;"/><path d="M26.781,19.268c0.457,-0.17 0.991,-0.126 1.412,0.12c0.366,0.217 0.586,0.625 0.618,1.043c0.018,0.352 -0.052,0.717 -0.248,1.014c-0.262,0.417 -0.758,0.669 -1.249,0.644c-0.375,0.016 -0.759,-0.121 -1.022,-0.393c-0.187,-0.185 -0.306,-0.43 -0.373,-0.683c-0.077,-0.349 -0.048,-0.725 0.115,-1.045c0.152,-0.315 0.418,-0.578 0.747,-0.7m0.215,0.076c-0.22,0.063 -0.425,0.196 -0.549,0.392c-0.208,0.317 -0.237,0.717 -0.186,1.084c0.053,0.364 0.23,0.728 0.543,0.935c0.314,0.22 0.753,0.256 1.091,0.071c0.25,-0.131 0.419,-0.38 0.489,-0.649c0.087,-0.329 0.084,-0.683 -0.005,-1.011c-0.09,-0.328 -0.314,-0.629 -0.629,-0.769c-0.234,-0.111 -0.507,-0.124 -0.754,-0.053Z" style="fill:#8c8c8c;fill-rule:nonzero;"/><path d="M31.132,19.265c0.295,-0.156 0.638,-0.095 0.95,-0.03c-0.01,0.165 -0.016,0.33 -0.014,0.496c-0.013,0.002 -0.039,0.007 -0.052,0.009c-0.017,-0.119 -0.033,-0.262 -0.144,-0.333c-0.19,-0.123 -0.458,-0.15 -0.652,-0.021c-0.217,0.139 -0.228,0.479 -0.061,0.66c0.257,0.299 0.634,0.476 0.855,0.809c0.18,0.269 0.172,0.645 -0.012,0.909c-0.117,0.173 -0.315,0.272 -0.514,0.312c-0.261,0.029 -0.537,0.027 -0.772,-0.103c-0.03,-0.191 0.004,-0.383 0.011,-0.574c0.014,-0.002 0.042,-0.008 0.057,-0.011c0.003,0.067 0.007,0.135 0.011,0.203c0.101,0.362 0.596,0.456 0.881,0.257c0.168,-0.118 0.219,-0.339 0.188,-0.533c-0.092,-0.299 -0.367,-0.475 -0.594,-0.666c-0.208,-0.175 -0.423,-0.385 -0.468,-0.666c-0.055,-0.277 0.068,-0.592 0.33,-0.718Z" style="fill:#8c8c8c;fill-rule:nonzero;"/><path d="M34.01,19.642c0.038,-0.159 0.064,-0.32 0.11,-0.476c0.143,0.049 0.294,0.067 0.445,0.067c0.486,0 0.972,-0.001 1.458,0c0.12,0.003 0.239,-0.021 0.357,-0.041c-0.002,0.159 0.005,0.32 -0.014,0.478c-0.01,0.014 -0.029,0.043 -0.039,0.057c-0.019,-0.073 -0.013,-0.156 -0.059,-0.22c-0.063,-0.068 -0.16,-0.085 -0.247,-0.099c-0.21,-0.021 -0.422,-0.013 -0.633,-0.015c0.004,0.753 -0.01,1.507 0.008,2.259c0.009,0.113 0.004,0.29 0.149,0.315c0.063,0.027 0.205,-0.033 0.201,0.075c-0.311,0 -0.622,-0.014 -0.933,0.002c-0.002,-0.014 -0.005,-0.042 -0.007,-0.057c0.07,-0.008 0.141,-0.023 0.206,-0.052c0.058,-0.179 0.047,-0.367 0.051,-0.552c0,-0.663 0.001,-1.327 -0.001,-1.99c-0.256,0.007 -0.515,-0.015 -0.769,0.025c-0.123,0.016 -0.176,0.137 -0.227,0.234c-0.014,-0.003 -0.042,-0.008 -0.056,-0.01Z" style="fill:#8c8c8c;fill-rule:nonzero;"/><path d="M42.118,19.278c0.403,-0.144 0.843,-0.133 1.259,-0.059c0.13,0.026 0.261,0.049 0.394,0.053c-0.016,0.239 -0.003,0.481 -0.036,0.719c-0.015,-0.005 -0.044,-0.014 -0.058,-0.018c-0.002,-0.168 -0.036,-0.358 -0.181,-0.463c-0.293,-0.2 -0.664,-0.205 -1.005,-0.175c-0.256,0.035 -0.511,0.154 -0.665,0.368c-0.22,0.282 -0.252,0.658 -0.227,1.003c0.045,0.383 0.251,0.75 0.57,0.971c0.154,0.114 0.338,0.178 0.523,0.224c0.273,0.016 0.579,0.048 0.818,-0.115c0.154,-0.102 0.172,-0.299 0.241,-0.456c0.064,0.21 -0.025,0.429 -0.065,0.636c-0.135,0.078 -0.291,0.104 -0.444,0.115c-0.368,0.016 -0.751,0.028 -1.098,-0.115c-0.351,-0.136 -0.653,-0.414 -0.787,-0.77c-0.136,-0.359 -0.146,-0.77 -0.008,-1.13c0.129,-0.355 0.41,-0.659 0.769,-0.788Z" style="fill:#8c8c8c;fill-rule:nonzero;"/><path d="M45.892,19.431c0.141,-0.181 0.378,-0.256 0.6,-0.265c0.189,-0.011 0.374,0.04 0.56,0.069c-0.014,0.178 -0.009,0.36 -0.049,0.534c-0.055,-0.118 -0.044,-0.279 -0.165,-0.359c-0.199,-0.134 -0.494,-0.156 -0.687,0.002c-0.077,0.058 -0.11,0.15 -0.143,0.236c0,0.06 0,0.121 0,0.181c0.063,0.22 0.248,0.365 0.419,0.5c0.213,0.169 0.44,0.335 0.58,0.574c0.087,0.144 0.107,0.318 0.103,0.484c-0.034,0.178 -0.097,0.357 -0.234,0.481c-0.175,0.163 -0.419,0.235 -0.655,0.221c-0.192,0.011 -0.385,-0.029 -0.553,-0.124c-0.012,-0.195 0.004,-0.39 0.03,-0.582c0.071,0.008 0.044,0.091 0.06,0.14c0.007,0.192 0.163,0.356 0.346,0.399c0.195,0.049 0.428,0.038 0.579,-0.111c0.145,-0.135 0.194,-0.357 0.127,-0.542c-0.081,-0.235 -0.293,-0.382 -0.474,-0.537c-0.232,-0.188 -0.484,-0.397 -0.559,-0.7c-0.042,-0.204 -0.02,-0.435 0.115,-0.601Z" style="fill:#8c8c8c;fill-rule:nonzero;"/><path d="M4.541,19.234c0.171,-0.017 0.344,-0.002 0.516,-0.001c0.372,-0.005 0.746,-0.027 1.118,0.012c0.058,0.013 0.117,0.021 0.176,0.03c0.309,0.069 0.607,0.231 0.794,0.493c0.477,0.65 0.274,1.687 -0.421,2.099c-0.401,0.236 -0.883,0.23 -1.331,0.189c-0.254,-0.027 -0.51,-0.024 -0.765,-0.011l-0.005,-0.06c0.09,-0.003 0.217,-0.015 0.225,-0.132c0.061,-0.401 0.019,-0.81 0.04,-1.214c-0.017,-0.34 0.014,-0.68 -0.009,-1.02c-0.01,-0.091 0.013,-0.2 -0.053,-0.274c-0.076,-0.086 -0.217,-0.014 -0.285,-0.111m0.666,0.168c-0.005,0.65 -0.002,1.299 -0.001,1.948c0.007,0.147 -0.012,0.302 0.045,0.443c0.066,0.084 0.178,0.106 0.278,0.124c0.39,0.068 0.824,0.016 1.14,-0.239c0.237,-0.181 0.348,-0.48 0.376,-0.768c0.071,-0.459 -0.1,-0.957 -0.467,-1.249c-0.253,-0.213 -0.589,-0.293 -0.913,-0.302c-0.152,-0.001 -0.313,-0.02 -0.458,0.043Z" style="fill:#8c8c8c;fill-rule:nonzero;"/><path d="M9.462,19.224c0.28,0.008 0.559,0.009 0.838,0c-0.001,0.015 -0.004,0.046 -0.005,0.062c-0.107,-0.008 -0.239,0.036 -0.237,0.164c-0.018,0.508 -0.003,1.018 -0.008,1.527c0.002,0.26 -0.006,0.52 0.01,0.78c0.009,0.063 0.02,0.133 0.07,0.177c0.081,0.053 0.182,0.038 0.274,0.05c-0.003,0.015 -0.01,0.044 -0.013,0.059c-0.306,-0.002 -0.612,-0.014 -0.918,0.001c-0.001,-0.014 -0.004,-0.044 -0.005,-0.059c0.097,-0.001 0.221,-0.021 0.225,-0.143c0.051,-0.387 0.023,-0.781 0.031,-1.17c-0.003,-0.373 0.005,-0.745 -0.005,-1.117c-0.005,-0.072 0.001,-0.152 -0.048,-0.21c-0.042,-0.07 -0.133,-0.044 -0.199,-0.058c-0.003,-0.016 -0.007,-0.047 -0.01,-0.063Z" style="fill:#8c8c8c;fill-rule:nonzero;"/><path d="M38.365,19.225c0.281,0.008 0.561,0.005 0.842,0.001c-0.004,0.015 -0.012,0.045 -0.016,0.06c-0.094,-0.002 -0.208,0.015 -0.229,0.125c-0.028,0.352 -0.009,0.705 -0.015,1.057c0.002,0.442 -0.006,0.883 0.013,1.323c0.024,0.06 0.037,0.141 0.106,0.164c0.078,0.028 0.164,0.019 0.245,0.03c-0.013,0.086 -0.111,0.05 -0.17,0.059c-0.256,-0.014 -0.511,-0.006 -0.767,0c-0.002,-0.015 -0.005,-0.045 -0.007,-0.061c0.046,-0.004 0.093,-0.009 0.139,-0.014c0.017,-0.011 0.049,-0.033 0.065,-0.044c0.05,-0.165 0.049,-0.338 0.052,-0.509c-0.002,-0.609 0,-1.218 -0.001,-1.827c-0.005,-0.083 0,-0.174 -0.05,-0.245c-0.043,-0.067 -0.131,-0.045 -0.198,-0.058c-0.002,-0.015 -0.007,-0.046 -0.009,-0.061Z" style="fill:#8c8c8c;fill-rule:nonzero;"/><path d="M4.618,24.012c-0.014,-0.054 0.006,-0.076 0.059,-0.066c9.433,-0.001 18.865,0.001 28.298,-0.001c-0.002,0.02 -0.005,0.061 -0.007,0.082c-0.732,-0.016 -1.465,-0.001 -2.197,-0.007c-1.084,0 -2.169,0.002 -3.253,0.002c-0.418,-0.002 -0.836,-0.002 -1.253,0c-0.215,0.023 -0.43,-0.019 -0.645,0.009c-0.429,-0.02 -0.859,-0.005 -1.288,-0.01c-0.27,0.005 -0.54,-0.01 -0.809,0.009c-0.43,-0.026 -0.86,0.016 -1.29,-0.009c-0.079,0 -0.159,0 -0.238,0c-1.31,0.003 -2.62,-0.003 -3.93,0.001c-1.095,0.004 -2.19,-0.005 -3.286,0c-0.35,-0.002 -0.7,-0.003 -1.05,0c-0.882,-0.001 -1.764,-0.004 -2.645,0.002c-0.146,0.015 -0.292,0.004 -0.438,-0.003c-0.396,0.001 -0.791,-0.003 -1.186,0.001c-0.452,-0.003 -0.904,-0.002 -1.355,0c-0.463,0.003 -0.926,-0.004 -1.389,0c-0.328,-0.001 -0.656,-0.002 -0.984,0c-0.193,-0.012 -0.384,0.02 -0.576,0c-0.179,-0.011 -0.36,0.014 -0.538,-0.01Z" style="fill:#8c8c8c;fill-rule:nonzero;"/><path d="M35.293,23.946c0.256,-0.001 0.511,0 0.767,-0.001c-0.003,0.021 -0.009,0.063 -0.011,0.084c-0.252,-0.011 -0.504,-0.008 -0.756,-0.009c0,-0.018 0,-0.055 0,-0.074Z" style="fill:#8c8c8c;fill-rule:nonzero;"/><path d="M38.373,23.946c0.253,-0.001 0.505,-0.001 0.758,0c-0.002,0.015 -0.006,0.045 -0.008,0.061l-0.003,0.025c-0.248,-0.034 -0.499,0.012 -0.747,-0.013c0,-0.018 0,-0.055 0,-0.073Z" style="fill:#8c8c8c;fill-rule:nonzero;"/><path d="M41.456,23.945c0.253,0.001 0.506,0 0.76,0c-0.002,0.014 -0.006,0.042 -0.008,0.057c-0.01,0.008 -0.03,0.026 -0.04,0.035c-0.127,-0.034 -0.257,0.002 -0.386,-0.01c-0.108,-0.009 -0.217,-0.008 -0.325,-0.006c0,-0.019 -0.001,-0.057 -0.001,-0.076Z" style="fill:#8c8c8c;fill-rule:nonzero;"/><path d="M44.538,23.946c0.253,0 0.507,-0.002 0.76,0.001c-0.001,0.016 -0.004,0.049 -0.005,0.065c-0.087,0.045 -0.197,-0.001 -0.292,0.008c-0.152,-0.017 -0.313,0.037 -0.459,-0.005c-0.001,-0.017 -0.003,-0.052 -0.004,-0.069Z" style="fill:#8c8c8c;fill-rule:nonzero;"/><path id="_-506d8dff" serif:id="#506d8dff" d="M23.273,19.247c0.12,-0.064 0.257,-0.027 0.385,-0.022c0.158,0.018 0.315,-0.021 0.474,-0.014c0.009,0.017 0.03,0.051 0.04,0.069c-0.067,0.01 -0.135,0.021 -0.201,0.033c0.027,-0.023 0.056,-0.044 0.085,-0.065c-0.201,-0.011 -0.403,-0.012 -0.604,0.001c0.034,0.019 0.067,0.038 0.101,0.059c-0.094,-0.014 -0.201,0.004 -0.28,-0.061Z" style="fill:#8c8c8c;fill-rule:nonzero;"/><path id="_-006b37ff" serif:id="#006b37ff" d="M42.519,23.205c0.214,-0.241 0.534,-0.386 0.856,-0.382c0.378,-0.004 0.755,0.191 0.963,0.507c0.125,0.18 0.187,0.398 0.2,0.616c0.001,0.017 0.003,0.052 0.004,0.069c-0.019,0.31 -0.149,0.617 -0.384,0.825c-0.389,0.37 -1.042,0.399 -1.468,0.076c-0.293,-0.209 -0.455,-0.561 -0.482,-0.914c0.002,-0.015 0.006,-0.043 0.008,-0.057c0.017,-0.271 0.116,-0.54 0.303,-0.74Z" style="fill:#8c8c8c;fill-rule:nonzero;"/><path id="_-015b99ff" serif:id="#015b99ff" d="M45.554,23.258c0.214,-0.273 0.557,-0.437 0.904,-0.435c0.276,-0.005 0.549,0.101 0.76,0.279c0.257,0.219 0.404,0.555 0.405,0.892c-0.008,0.358 -0.183,0.712 -0.476,0.922c-0.395,0.299 -0.982,0.298 -1.375,-0.001c-0.29,-0.207 -0.452,-0.553 -0.479,-0.903c0.001,-0.016 0.004,-0.049 0.005,-0.065c0.016,-0.248 0.099,-0.495 0.256,-0.689Z" style="fill:#8c8c8c;fill-rule:nonzero;"/><path id="_-f68e39ff" serif:id="#f68e39ff" d="M33.413,23.073c0.383,-0.316 0.973,-0.334 1.377,-0.048c0.303,0.203 0.493,0.558 0.503,0.921c0,0.019 0,0.056 0,0.074c-0.011,0.386 -0.227,0.76 -0.561,0.955c-0.411,0.258 -0.982,0.207 -1.349,-0.106c-0.25,-0.207 -0.389,-0.522 -0.415,-0.842c0.002,-0.021 0.005,-0.062 0.007,-0.082c0.01,-0.337 0.172,-0.664 0.438,-0.872Z" style="fill:#8c8c8c;fill-rule:nonzero;"/><path id="_-ef4b54ff" serif:id="#ef4b54ff" d="M36.06,23.945c0,-0.518 0.402,-0.994 0.907,-1.096c0.387,-0.088 0.815,0.042 1.088,0.331c0.195,0.205 0.309,0.482 0.318,0.766c0,0.018 0,0.055 0,0.073c-0.003,0.582 -0.513,1.107 -1.096,1.118c-0.3,0.024 -0.602,-0.087 -0.829,-0.282c-0.239,-0.208 -0.371,-0.514 -0.399,-0.826c0.002,-0.021 0.008,-0.063 0.011,-0.084Z" style="fill:#8c8c8c;fill-rule:nonzero;"/><path id="_-542f8fff" serif:id="#542f8fff" d="M39.141,23.889c0.033,-0.484 0.401,-0.923 0.875,-1.032c0.42,-0.111 0.896,0.043 1.171,0.38c0.168,0.196 0.257,0.451 0.269,0.708c0,0.019 0.001,0.057 0.001,0.076c-0.014,0.212 -0.073,0.426 -0.194,0.603c-0.211,0.318 -0.586,0.528 -0.97,0.514c-0.36,0.008 -0.716,-0.175 -0.927,-0.465c-0.147,-0.192 -0.212,-0.43 -0.243,-0.666c0.002,-0.016 0.006,-0.046 0.008,-0.061c0.003,-0.014 0.008,-0.043 0.01,-0.057Z" style="fill:#8c8c8c;fill-rule:nonzero;"/></g></g><g transform="matrix(0.24,0,0,0.24,-527.727,-96.9589)"><text x="1135.82px" y="286.174px" style="font-family:'Varela';font-size:20.833px;">A personalised journal, notebook or reﬁllable journal is the perfect addition to your corporate merchandise, event or</text><text x="1113.26px" y="319.507px" style="font-family:'Varela';font-size:20.833px;">simply a personalised gift for your clients with your corporate logo. Our handmade products are the perfect solution and</text><text x="1489.84px" y="352.84px" style="font-family:'Varela';font-size:20.833px;">are available to ﬁt a wide variety of budgets.</text></g></svg>