<?xml version="1.0" encoding="UTF-8" standalone="no"?><!DOCTYPE svg PUBLIC "-//W3C//DTD SVG 1.1//EN" "http://www.w3.org/Graphics/SVG/1.1/DTD/svg11.dtd"><svg width="100%" height="100%" viewBox="0 0 49 30" version="1.1" xmlns="http://www.w3.org/2000/svg" xmlns:xlink="http://www.w3.org/1999/xlink" xml:space="preserve" xmlns:serif="http://www.serif.com/" style="fill-rule:evenodd;clip-rule:evenodd;stroke-linejoin:round;stroke-miterlimit:1.41421;"><g><g><g><path d="M21.734,17.993c-0.028,-0.056 -0.056,-0.112 -0.112,-0.168c-0.056,0.056 -0.084,0.112 -0.14,0.196c-0.056,-0.084 -0.112,-0.112 -0.168,-0.168c-0.056,0.028 -0.084,0.056 -0.14,0.084c-0.056,-0.056 -0.084,-0.112 -0.14,-0.168c-0.14,0.056 -0.14,0.056 -0.252,-0.196c-0.056,0.028 -0.084,0.056 -0.168,0.112c-0.028,-0.168 -0.056,-0.309 -0.112,-0.477c-0.672,0.056 -1.372,0.112 -2.044,0.168c-0.673,0.056 -1.373,0.141 -2.045,0.197c0.28,-0.085 0.588,-0.169 0.868,-0.225c0.812,-0.14 1.625,-0.28 2.437,-0.42c0.28,-0.056 0.532,-0.056 0.812,-0.084c0.14,0 0.168,-0.056 0.196,-0.196c0.028,-0.168 0.112,-0.308 0.168,-0.476c0.028,-0.056 0.056,-0.14 0.084,-0.196c-0.028,0 -0.056,0.028 -0.112,0.028c0.056,-0.196 0.084,-0.364 0.14,-0.56c0,0 -0.028,0 -0.028,-0.028c-0.028,0.028 -0.056,0.084 -0.112,0.112c-0.028,-0.336 0.168,-0.588 0.252,-0.868c-0.056,0.056 -0.112,0.14 -0.196,0.224c0.028,-0.196 0,-0.392 0.056,-0.56c0.028,-0.168 0.112,-0.336 0.168,-0.504c0,0 -0.028,0 -0.028,-0.028c-0.056,0.056 -0.112,0.084 -0.168,0.168c-0.028,-0.252 0.112,-0.448 0.112,-0.673c-0.056,0.056 -0.112,0.113 -0.168,0.169c-0.056,-0.281 0.028,-0.505 0.112,-0.757l-0.028,0c-0.056,0.056 -0.084,0.112 -0.14,0.168l-0.028,0c0.028,-0.168 0.084,-0.364 0.112,-0.532c0.084,-0.336 0.196,-0.644 0.308,-0.98c0,-0.028 0,-0.056 -0.028,-0.084c0.056,-0.308 0.252,-0.532 0.476,-0.728c-0.084,0.028 -0.14,0.084 -0.252,0.112c0.056,-0.112 0.112,-0.224 0.168,-0.308c0.056,-0.084 0.168,-0.14 0.224,-0.196l-0.028,-0.028c-0.056,0 -0.084,0.028 -0.168,0.028c0.168,-0.392 0.588,-0.532 0.756,-0.896c-0.196,-0.029 -0.252,0.028 -0.532,0.42c0,-0.308 0.112,-0.561 0.196,-0.841c-0.028,0.028 -0.056,0.028 -0.112,0.056c0.028,-0.14 0.028,-0.252 0.056,-0.364c-0.028,0 -0.028,0 -0.084,0c0.028,-0.14 0.084,-0.252 0.112,-0.392c-0.028,0 -0.056,0 -0.112,0c0.056,-0.112 0.112,-0.252 0.168,-0.364l-0.028,0c-0.028,0.028 -0.056,0.056 -0.084,0.056c0,0 -0.028,0 -0.028,-0.028c0.056,-0.112 0.112,-0.252 0.196,-0.364c-0.028,0 -0.056,0 -0.112,0.028c0.084,-0.196 0.14,-0.392 0.224,-0.588c0.028,-0.084 0.084,-0.14 0.197,-0.084c0.028,0 0.056,-0.028 0.084,-0.028c-0.113,-0.084 -0.225,-0.14 -0.337,-0.224c-0.112,-0.112 -0.224,-0.224 -0.336,-0.336c0.252,-0.224 0.56,-0.42 0.925,-0.476c0.028,0 0.028,0 0.056,0c0.28,0.084 0.56,-0.056 0.84,-0.084c0.196,-0.028 0.42,0 0.644,0c0.252,0.028 0.532,0.056 0.784,0.084c0.112,0.028 0.224,0.084 0.336,0.14c0.084,0.028 0.168,0.084 0.224,0.14c0.084,0.056 0.168,0.084 0.252,0.168c0.28,0.28 0.644,0.42 1.037,0.42c0.14,0 0.252,0.028 0.392,0.056c0.084,0.028 0.14,0.084 0.112,0.168c-0.028,0.196 -0.056,0.42 -0.112,0.616c-0.028,0.14 -0.112,0.308 -0.196,0.42c-0.056,0.056 -0.14,0.14 -0.196,0.14c-0.393,0.112 -0.813,0.28 -1.233,0.224c-0.252,-0.028 -0.476,0.056 -0.7,0.196c-0.028,0.028 -0.056,0.084 -0.056,0.112c0.084,0.504 0.28,0.925 0.644,1.317c0.084,0.084 0.14,0.224 0.252,0.336c0.448,0.448 0.869,0.924 1.317,1.372l-0.028,0.028c0,0.028 0.028,0.084 0.028,0.112c0.196,0.252 0.392,0.504 0.588,0.756c0.056,0.084 0.084,0.168 0.14,0.28c-0.028,0 -0.056,0 -0.084,0c0,0.028 0,0.028 0.028,0.056c0.224,0.504 0.476,1.037 0.616,1.569c0,0.028 -0.028,0.084 -0.028,0.14c0,0.028 0,0.056 0,0.084c0.028,0.112 0.084,0.196 0.056,0.308c-0.056,0.252 0.028,0.504 0.056,0.756c0.028,0.42 0.112,0.84 0.14,1.288c1.176,0.14 2.353,0.336 3.529,0.701c-0.196,-0.028 -0.42,-0.028 -0.616,-0.056c-0.392,-0.028 -0.812,-0.085 -1.205,-0.113c-0.448,-0.056 -0.896,-0.084 -1.316,-0.112c-0.392,-0.028 -0.784,-0.056 -1.176,-0.084c-0.364,-0.028 -0.7,-0.028 -1.064,-0.056c-0.112,0 -0.168,0 -0.224,0.084c-0.028,0.056 -0.057,0.14 -0.141,0.112c-0.168,0.169 -0.336,0.337 -0.504,0.533c-0.084,0.084 -0.14,0.168 -0.196,0.28c-0.084,0.168 -0.168,0.336 -0.252,0.476c-0.028,0.056 -0.084,0.084 -0.14,0.14c-0.028,-0.056 -0.056,-0.084 -0.084,-0.14c-0.028,0.084 -0.084,0.168 -0.112,0.252c-0.056,-0.084 -0.112,-0.168 -0.168,-0.224c-0.028,0.056 -0.056,0.112 -0.084,0.168c-0.056,-0.056 -0.084,-0.112 -0.14,-0.168c-0.028,0.028 -0.028,0.056 -0.084,0.084c-0.084,-0.084 -0.14,-0.196 -0.224,-0.28c-0.028,0 -0.056,0.028 -0.084,0.028c-0.14,-0.252 -0.168,-0.504 -0.056,-0.784c0,-0.028 0.028,-0.056 0.028,-0.084c0.028,-0.168 0.056,-0.337 0.056,-0.505l-1.764,0c-0.056,0 -0.112,0.056 -0.14,0.084c-0.113,0.309 -0.477,0.477 -0.785,0.729Zm5.378,-10.279c-0.028,-0.028 -0.028,-0.056 -0.056,-0.084c-0.112,0.028 -0.252,0.056 -0.364,0.112c-0.112,0.056 -0.225,0.112 -0.337,0.168c-0.028,0.028 -0.084,0.028 -0.112,0.028c-0.028,0 -0.056,-0.056 -0.084,-0.084c0.028,-0.028 0.056,-0.056 0.084,-0.056c0.168,0.028 0.308,-0.084 0.449,-0.14c0.084,-0.028 0.196,-0.056 0.308,-0.084c0.168,0 0.224,-0.028 0.252,-0.224c-0.056,-0.028 -0.084,-0.056 -0.14,-0.084c0.028,0 0.028,0 0.056,-0.028c0.056,-0.056 0.112,-0.084 0.196,-0.14c-0.14,0.028 -0.252,0.028 -0.336,0.056l0,-0.028c0.028,-0.028 0.056,-0.028 0.084,-0.056c-0.056,-0.056 -0.14,-0.112 -0.224,-0.196c0.112,0 0.196,0 0.28,0.028c0.168,0 0.168,0 0.224,-0.084c-0.056,-0.028 -0.14,-0.056 -0.196,-0.056c-0.112,-0.028 -0.252,-0.028 -0.364,-0.028c-0.252,0 -0.477,-0.056 -0.701,-0.224c-0.196,-0.14 -0.42,-0.28 -0.616,-0.42c-0.168,-0.112 -0.336,-0.196 -0.56,-0.224c-0.336,-0.028 -0.672,-0.084 -1.008,-0.084c-0.196,0 -0.392,0.056 -0.588,0.112c0,0.028 0,0.028 0,0.056c0.084,0.028 0.168,0.056 0.252,0.112c0.028,0 0.028,0 0.056,0c0.224,-0.056 0.448,-0.112 0.672,-0.056c0.224,0.056 0.448,0.14 0.7,0.196c0.336,0.084 0.588,0.252 0.784,0.476c0.14,0.14 0.28,0.196 0.448,0.252c0.056,0 0.112,0.028 0.196,0.028c-0.196,0.14 -0.28,0.336 -0.28,0.588c-0.112,-0.056 -0.196,-0.112 -0.28,-0.168c-0.056,-0.028 -0.112,-0.112 -0.168,-0.14c-0.028,-0.028 -0.14,-0.028 -0.14,0c-0.056,0.084 -0.14,0.084 -0.196,0.056c-0.112,-0.028 -0.252,-0.056 -0.364,-0.112c-0.224,-0.112 -0.476,-0.168 -0.728,-0.168c-0.084,0 -0.196,0 -0.28,-0.028c-0.168,0 -0.308,0 -0.476,0l0,0.028c0.084,0.028 0.168,0.056 0.252,0.056c-0.224,0.056 -0.448,0.084 -0.672,0.084c-0.28,0.028 -0.532,0.168 -0.729,0.336c-0.056,0.056 -0.084,0.168 -0.14,0.252l0.028,0c0.056,-0.028 0.084,-0.056 0.141,-0.084c-0.057,0.112 -0.085,0.224 -0.141,0.336c0.056,0 0.112,0 0.169,-0.028c-0.113,0.112 -0.197,0.224 -0.141,0.364c0.056,-0.056 0.141,-0.112 0.197,-0.14c0.056,-0.056 0.14,-0.084 0.224,-0.14c-0.393,0.476 -0.393,0.476 -0.393,0.588c0.169,-0.14 0.365,-0.28 0.617,-0.336c-0.336,0.28 -0.673,0.532 -0.869,0.896c0.224,-0.14 0.505,-0.196 0.645,-0.448c0.028,-0.056 0.084,-0.084 0.112,-0.14c0.14,-0.14 0.28,-0.224 0.476,-0.28c-0.084,0.112 -0.196,0.224 -0.28,0.336c0.28,-0.112 0.532,-0.224 0.812,-0.336c0,0 0,0.028 0.028,0.028c-0.084,0.084 -0.14,0.168 -0.224,0.252c0.336,0 0.56,-0.168 0.812,-0.336c-0.056,0.084 -0.112,0.168 -0.196,0.308c0.42,-0.14 0.784,-0.364 1.12,-0.616c-0.028,0.056 -0.028,0.112 -0.056,0.196c0.168,-0.112 0.336,-0.112 0.504,-0.084c0.084,0.028 0.196,0 0.28,0c0.084,0 0.168,-0.028 0.224,-0.028c0.253,-0.056 0.477,-0.112 0.729,-0.196c-0.084,0 -0.028,-0.084 0.028,-0.14Zm-2.353,0.84c-0.028,0 -0.028,0 -0.056,0c-0.056,0.056 -0.168,0.14 -0.168,0.196c0.028,0.224 0.084,0.448 0.252,0.617c0.056,0.056 0.112,0.112 0.168,0.168c-0.056,0 -0.084,0 -0.112,0c0.168,0.42 0.504,0.672 0.812,0.924l-0.028,0.028c-0.168,-0.056 -0.364,-0.084 -0.532,-0.14l-0.028,0.028c0.196,0.224 0.392,0.448 0.588,0.7c-0.14,0 -0.252,0 -0.364,0c0.308,0.448 0.308,0.448 0.364,0.98c0.14,-0.224 0.196,-0.448 0.112,-0.728c0.084,0.028 0.14,0.028 0.196,0.056c0.196,0.084 0.308,0.252 0.42,0.42c0.197,0.364 0.337,0.728 0.449,1.12c0,0.028 0,0.084 0,0.112l-0.028,0.028c-0.028,-0.056 -0.084,-0.112 -0.112,-0.196c0.028,0.392 0.056,0.757 0.084,1.093l-0.028,0c-0.056,-0.084 -0.084,-0.14 -0.14,-0.224c0.028,0.252 0.056,0.476 0.084,0.7l-0.028,0c-0.028,-0.028 -0.056,-0.084 -0.113,-0.112c-0.028,-0.028 -0.084,-0.056 -0.14,-0.084c0.309,0.896 0.225,1.764 -0.084,2.632c-0.056,-0.056 -0.084,-0.112 -0.112,-0.14c-0.028,0.196 -0.056,0.392 -0.084,0.56l-0.028,0c-0.028,-0.056 -0.056,-0.14 -0.112,-0.224c-0.056,0.112 -0.084,0.224 -0.14,0.308c-0.056,0.084 -0.112,0.169 -0.196,0.253l-0.028,-0.028c0,-0.084 0.028,-0.197 0.028,-0.309c-0.14,0.112 -0.224,0.196 -0.364,0.309c0.028,-0.113 0.028,-0.169 0.056,-0.253c-0.056,0.056 -0.112,0.084 -0.14,0.14c0,-0.028 -0.028,-0.084 -0.028,-0.112c-0.056,0.056 -0.14,0.084 -0.196,0.112c-0.028,-0.056 -0.028,-0.084 -0.056,-0.14c-0.112,0.056 -0.196,0.084 -0.308,0.169c0.084,0 0.168,0 0.224,0c-0.028,0.056 -0.056,0.112 -0.084,0.196c0.14,-0.028 0.252,-0.056 0.364,-0.056c-0.028,0.028 -0.028,0.056 -0.084,0.14c0.14,-0.056 0.252,-0.084 0.364,-0.112c-0.028,0.056 -0.056,0.112 -0.056,0.168l0.028,0.028c0.112,-0.056 0.224,-0.112 0.336,-0.168c0.084,-0.084 0.168,-0.196 0.252,-0.281c0.028,0.056 0.056,0.085 0.084,0.141c0.224,-0.225 0.308,-0.533 0.448,-0.841c0.028,0.084 0.056,0.14 0.113,0.224c0.14,-0.784 0.28,-1.512 0.112,-2.268c0,0 0.028,0 0.028,-0.028c0.056,0.112 0.112,0.196 0.168,0.308c0,-0.308 0,-0.616 0,-0.896l0.028,0c0.028,0.084 0.084,0.196 0.112,0.28l0.028,0c-0.056,-0.336 -0.112,-0.672 -0.168,-1.037c0.084,0.085 0.14,0.141 0.224,0.225c-0.028,-0.449 -0.112,-0.869 -0.308,-1.289c0.112,0.028 0.196,0.056 0.252,0.112c0.084,0.084 0.168,0.168 0.252,0.252c0.224,0.336 0.364,0.7 0.392,1.093c0,0.028 0,0.084 0.028,0.112c0.168,0.084 0.252,0.252 0.336,0.42c0,-0.336 -0.196,-0.588 -0.336,-0.869c0.028,0 0.028,-0.028 0.056,-0.028c0.056,0.085 0.112,0.141 0.14,0.225l0.028,-0.028c-0.224,-0.561 -0.392,-1.149 -0.952,-1.513l0.028,-0.028c0.056,0.028 0.14,0.028 0.196,0.056c-0.084,-0.28 -0.336,-0.336 -0.56,-0.448c0.084,-0.028 0.112,-0.028 0.14,-0.028c-0.168,-0.392 -0.505,-0.56 -0.841,-0.784c0.084,-0.028 0.14,-0.028 0.196,-0.028c-0.224,-0.196 -0.392,-0.364 -0.588,-0.532c0.028,0 0.056,-0.028 0.112,-0.056c-0.644,-0.42 -0.84,-1.009 -0.952,-1.625Zm-0.364,4.789c0.308,-0.392 0.308,-1.232 0,-1.428c0.084,0.308 0.14,0.616 -0.084,0.924c-0.056,-0.084 -0.084,-0.168 -0.14,-0.252c0,0.196 -0.056,0.364 -0.196,0.532c-0.056,-0.084 -0.084,-0.168 -0.112,-0.224c-0.084,0.14 -0.14,0.308 -0.224,0.448c-0.084,0.169 -0.168,0.337 -0.224,0.505c-0.028,0.028 -0.028,0.084 -0.028,0.112l-0.028,0c-0.084,-0.168 -0.168,-0.364 -0.252,-0.56c-0.028,0.112 -0.028,0.196 -0.056,0.28c-0.168,-0.309 -0.224,-0.645 -0.224,-0.981c-0.056,0.056 -0.084,0.112 -0.14,0.14c-0.028,0 -0.028,0 -0.056,0c0,-0.196 -0.028,-0.364 -0.028,-0.532c-0.056,0.056 -0.112,0.112 -0.197,0.168c-0.14,-0.28 -0.084,-0.532 0.057,-0.784c-0.085,0.056 -0.141,0.084 -0.169,0.14c-0.056,0.056 -0.084,0.112 -0.14,0.168c-0.112,-0.196 -0.084,-0.336 0.112,-0.812c-0.084,0.084 -0.168,0.168 -0.28,0.252c0,-0.42 0.056,-0.784 0.224,-1.12c-0.28,0.14 -0.616,0.812 -0.588,1.176c0.056,-0.14 0.14,-0.28 0.196,-0.392l0.028,0c-0.056,0.42 -0.084,0.84 0.028,1.26c0.056,-0.056 0.112,-0.112 0.168,-0.168c0.028,0.308 0.084,0.588 0.196,0.868c0.056,-0.14 0.084,-0.28 0.14,-0.392c0.085,0.336 0.057,0.7 0.281,1.009c0,-0.112 0,-0.196 0,-0.28c0,-0.085 0.028,-0.141 0.028,-0.225c0.112,0.505 0.364,0.897 0.784,1.233c0.056,-0.448 0.084,-0.868 0.476,-1.177c-0.028,0.112 -0.056,0.225 -0.084,0.309c0.28,-0.112 0.336,-0.421 0.532,-0.617c0,0.14 0,0.28 0,0.42Zm-2.045,-7.113l0,-0.028c0.169,-0.028 0.337,-0.084 0.477,-0.112c0.224,-0.056 0.392,0 0.56,0.14c0.056,0.056 0.14,0.14 0.196,0.196c0.084,0.056 0.168,0.084 0.224,0.14c-0.588,-0.784 -1.148,-0.896 -1.821,-0.336c0.056,0.028 0.112,0.028 0.196,0.056c0,0.028 -0.028,0.028 -0.028,0.084c0.112,0.028 0.224,0.056 0.393,0.112c-0.056,0.056 -0.112,0.056 -0.169,0.112c0.169,0.028 0.281,0.084 0.421,0.112c0.028,0 0.056,0 0.084,0.028c0.112,0.112 0.224,0.112 0.364,0.056c-0.112,-0.028 -0.224,-0.056 -0.336,-0.112c0.028,-0.028 0.056,-0.056 0.084,-0.056c-0.112,-0.028 -0.224,-0.084 -0.364,-0.112c0.056,-0.028 0.084,-0.056 0.112,-0.056c-0.112,-0.112 -0.252,-0.168 -0.393,-0.224Zm1.709,8.486c0.168,0.336 0.308,0.7 0.476,1.036c0,0 0.028,-0.028 0.084,-0.056c0.056,0.252 0.112,0.476 0.168,0.728c0,0 0.028,0 0.056,-0.028c0,0.392 -0.336,0.672 -0.336,1.092c0.42,-0.728 0.56,-1.26 0.308,-1.904c-0.028,0.028 -0.056,0.056 -0.084,0.112c-0.084,-0.448 -0.336,-0.728 -0.672,-0.98Zm-2.885,1.848c-0.14,0.028 -0.336,0.084 -0.42,0.28c0.084,-0.028 0.168,-0.056 0.252,-0.084c0,0.028 0,0.084 -0.028,0.14c0.168,-0.084 0.336,-0.14 0.476,-0.196c-0.028,0.056 -0.028,0.112 -0.056,0.196c0.112,-0.028 0.224,-0.084 0.336,-0.112c-0.028,0.084 -0.056,0.14 -0.112,0.252c0.14,-0.056 0.252,-0.112 0.364,-0.168c0,0.084 0,0.14 0.028,0.224c0.028,-0.056 0.056,-0.084 0.112,-0.112c0.028,0.084 0.056,0.14 0.112,0.196c0.056,-0.196 0,-0.392 -0.168,-0.588c-0.028,0.028 -0.056,0.056 -0.084,0.112c-0.028,-0.056 -0.056,-0.112 -0.056,-0.196c-0.056,0.028 -0.112,0.056 -0.168,0.084c0,-0.112 0,-0.196 -0.028,-0.308c-0.056,0.056 -0.084,0.084 -0.112,0.112c-0.112,0.056 -0.224,0.14 -0.336,0.196c-0.056,0 -0.084,-0.028 -0.112,-0.028Zm1.345,-1.288c0.168,0.252 0.252,0.532 0.224,0.868c0.196,-0.336 0.168,-0.672 0.112,-1.008c0.028,0.056 0.084,0.112 0.112,0.196c0,-0.364 -0.224,-0.616 -0.476,-0.812c0.14,0.28 0.224,0.588 0.252,0.924c-0.084,-0.056 -0.168,-0.112 -0.224,-0.168Zm4.873,1.26c0.196,-0.028 0.336,-0.168 0.42,-0.336c0,0 0.028,0 0.028,0.028c0,0.196 0,0.392 0,0.616c0.056,0 0.112,0 0.168,0c0,-0.448 -0.056,-0.868 -0.224,-1.26c-0.056,0.196 -0.084,0.364 -0.14,0.504c-0.084,0.14 -0.168,0.28 -0.252,0.448Zm-2.437,-9.914c-0.112,0.056 -0.224,0.112 -0.364,0.168c0.112,0.084 0.224,0.112 0.308,0.196c0.084,0.084 0.196,0.14 0.308,0.112c0.196,-0.056 0.42,-0.112 0.616,-0.168c-0.476,-0.364 -0.756,-0.448 -1.008,-0.308c0.028,-0.028 0.084,-0.028 0.14,0Zm-2.549,9.41c0.141,0.252 0.197,0.56 0.141,0.84c0.224,-0.364 0.196,-0.616 -0.141,-0.84Zm-0.644,1.653c0.028,0 0.028,0 0.056,0.028c0.084,-0.14 0.196,-0.309 0.28,-0.449c0,0 -0.028,0 -0.028,-0.028c-0.056,0.028 -0.14,0.028 -0.224,0.056c-0.084,0.112 -0.14,0.253 -0.084,0.393Zm3.081,0.812c0.028,-0.224 0.14,-0.364 0.168,-0.56c-0.224,0.056 -0.308,0.364 -0.168,0.56Zm-0.056,-0.616c-0.168,0 -0.168,0 -0.252,0.14c-0.056,0.168 -0.056,0.28 0.028,0.364c0.084,-0.168 0.168,-0.336 0.224,-0.504Zm-3.333,-0.645c0,0.168 -0.028,0.309 -0.028,0.449c0.028,0 0.028,0 0.056,0c0.084,-0.14 0.14,-0.253 0.224,-0.393c-0.084,0 -0.14,-0.028 -0.252,-0.056Zm-0.252,0.449c0.056,-0.14 0.112,-0.281 0.168,-0.421c-0.056,-0.028 -0.084,-0.056 -0.14,-0.112c-0.084,0.168 -0.112,0.336 -0.028,0.533Zm3.865,0.812c0.028,0 0.028,0 0.056,0c0.056,-0.112 0.084,-0.224 0.14,-0.336c0,-0.028 0,-0.084 0,-0.112c-0.028,0 -0.084,0 -0.112,0.028c-0.028,0.028 -0.056,0.084 -0.084,0.112c0,0.084 0,0.196 0,0.308Zm0.56,-0.504c-0.112,0.028 -0.224,-0.056 -0.252,0.084c-0.028,0.084 0,0.196 0,0.28l0.028,0c0.084,-0.084 0.14,-0.224 0.224,-0.364Zm-1.232,0.112c0,-0.14 0.196,-0.224 0.14,-0.392c-0.168,0.028 -0.224,0.196 -0.14,0.392Zm-3.417,-1.065c-0.112,0.112 -0.112,0.252 -0.056,0.392c0.056,-0.084 0.112,-0.196 0.168,-0.28c-0.056,0 -0.084,0.028 -0.112,0.028c0.028,-0.056 0.028,-0.084 0,-0.14Zm-0.308,0.308l0.028,0c0.028,-0.084 0.084,-0.168 0.112,-0.252c-0.028,-0.028 -0.056,-0.056 -0.112,-0.112c0,0.112 -0.028,0.224 -0.028,0.364Z" style="fill:#8c8c8c;fill-rule:nonzero;"/><path d="M19.774,21.577c-0.14,0.729 -0.308,1.401 -0.448,2.073c-0.028,0.196 -0.028,0.196 -0.224,0.196c-0.14,0 -0.308,0.028 -0.42,-0.028c-0.084,-0.056 -0.084,-0.252 -0.112,-0.392c-0.224,-1.008 -0.449,-2.017 -0.645,-2.997c-0.056,-0.252 -0.112,-0.476 -0.168,-0.756c0.224,0 0.448,0 0.673,0c0.028,0 0.084,0.084 0.084,0.14c0.084,0.476 0.196,0.952 0.28,1.428c0.056,0.336 0.14,0.673 0.224,1.009c0,0.028 0.028,0.056 0.056,0.084c0.112,-0.504 0.224,-1.009 0.336,-1.513c0.056,-0.28 0.14,-0.56 0.196,-0.84c0.028,-0.056 0.056,-0.084 0.112,-0.084c0.336,0 0.308,-0.056 0.364,0.28c0.168,0.728 0.308,1.428 0.448,2.157c0,0 0,0.028 0.056,0.028c0.196,-0.897 0.392,-1.793 0.56,-2.717c0.224,0 0.448,0 0.7,0c-0.028,0.112 -0.056,0.224 -0.084,0.336c-0.252,1.148 -0.504,2.269 -0.756,3.417c-0.028,0.112 -0.056,0.224 -0.084,0.308c0,0.028 -0.056,0.084 -0.112,0.084c-0.056,0.028 -0.084,0 -0.14,0c-0.392,0 -0.392,0 -0.476,-0.392c-0.084,-0.476 -0.196,-0.952 -0.308,-1.428c-0.028,-0.084 -0.056,-0.224 -0.112,-0.393Z" style="fill:#8c8c8c;fill-rule:nonzero;"/><path d="M16.245,22.474c0.028,-0.14 0.056,-0.28 0.084,-0.42c0.168,0 0.336,0 0.504,0c-0.028,0.336 -0.084,0.644 -0.224,0.952c-0.028,0.028 -0.028,0.112 0,0.14c0.224,0.364 0.448,0.756 0.812,1.036c0.112,0.084 0.252,0.168 0.392,0.252c-0.084,0.056 -0.252,0.084 -0.672,0.056c-0.252,-0.028 -0.448,-0.14 -0.616,-0.28c-0.196,-0.168 -0.336,-0.336 -0.476,-0.476c-0.252,0.084 -0.476,0.196 -0.728,0.252c-0.616,0.112 -1.261,-0.42 -1.233,-1.036c0.028,-0.308 0.169,-0.588 0.337,-0.84c0.112,-0.14 0.224,-0.28 0.336,-0.42c0.056,-0.085 0.084,-0.113 0.028,-0.225c-0.112,-0.224 -0.252,-0.448 -0.336,-0.672c-0.224,-0.588 0.14,-1.12 0.756,-1.176c0.224,-0.028 0.42,0 0.588,0.112c0.448,0.252 0.56,0.728 0.28,1.204c-0.112,0.196 -0.252,0.336 -0.392,0.504c-0.056,0.084 -0.084,0.14 -0.028,0.225c0.168,0.28 0.336,0.56 0.504,0.84c0.056,0 0.056,-0.028 0.084,-0.028Zm-1.064,-0.28c-0.028,0 -0.028,0 -0.056,0c-0.056,0.14 -0.14,0.28 -0.196,0.42c-0.028,0.112 -0.084,0.252 -0.084,0.364c0,0.196 0.112,0.336 0.308,0.42c0.196,0.084 0.392,-0.028 0.532,-0.14c0.028,0 0.028,-0.056 0.028,-0.084c-0.168,-0.336 -0.336,-0.672 -0.532,-0.98Zm0.14,-1.121c0.028,-0.028 0.084,-0.056 0.112,-0.084c0.084,-0.168 0.196,-0.308 0.252,-0.476c0.112,-0.308 -0.028,-0.476 -0.336,-0.476c-0.224,0 -0.392,0.196 -0.336,0.42c0.028,0.224 0.168,0.42 0.308,0.616Z" style="fill:#8c8c8c;fill-rule:nonzero;"/><path d="M28.736,19.673c0.336,0 0.644,0 0.952,0c0.84,-0.028 1.485,0.532 1.625,1.344c0.112,0.645 0.112,1.261 -0.112,1.849c-0.252,0.644 -0.729,0.924 -1.373,0.952c-0.308,0.028 -0.644,0 -0.952,0c-0.168,0 -0.168,0 -0.168,-0.168c0,-1.148 0.028,-2.297 0.028,-3.417c0,-0.168 0,-0.364 0,-0.56Zm0.728,2.073c0,0.448 0,0.868 0,1.316c0,0.196 0.056,0.252 0.252,0.252c0.448,-0.028 0.728,-0.252 0.812,-0.672c0.056,-0.224 0.084,-0.476 0.084,-0.7c0.028,-0.365 0,-0.729 -0.084,-1.093c-0.084,-0.308 -0.252,-0.504 -0.56,-0.588c-0.112,-0.028 -0.224,-0.028 -0.336,-0.028c-0.168,0 -0.196,0 -0.196,0.196c0.028,0.42 0.028,0.868 0.028,1.317Z" style="fill:#8c8c8c;fill-rule:nonzero;"/><path d="M31.985,19.673c0.224,0 0.42,0 0.644,0c0.084,0 0.112,0.056 0.112,0.112c0,0.616 -0.028,1.204 -0.028,1.82c0,0.028 0,0.057 0,0.113c0.084,-0.028 0.14,-0.056 0.196,-0.113c0.112,-0.112 0.252,-0.14 0.392,-0.112c0.112,0 0.252,0 0.392,0c0,-0.616 0,-1.204 0,-1.792c0.252,0 0.476,0 0.7,0c0.028,0 0.084,0.084 0.084,0.112c0,1.092 -0.028,2.213 -0.028,3.305c0,0.196 0,0.42 0.028,0.616c0,0.084 -0.028,0.14 -0.112,0.112c-0.168,0 -0.336,0 -0.532,0c-0.084,0 -0.112,-0.028 -0.112,-0.14c0,-0.476 0,-0.952 0,-1.428c0,-0.168 -0.028,-0.168 -0.168,-0.168c-0.224,0 -0.476,0 -0.7,0c-0.084,0 -0.14,0.028 -0.112,0.112c0.028,0.504 0.028,0.98 0.056,1.484c0,0.084 -0.028,0.14 -0.112,0.14c-0.168,0 -0.336,0 -0.504,0c-0.112,0 -0.14,-0.056 -0.14,-0.168c0,-1.008 0,-1.988 0.028,-2.997c-0.084,-0.308 -0.084,-0.644 -0.084,-1.008Z" style="fill:#8c8c8c;fill-rule:nonzero;"/><path d="M4.09,19.673c0.224,0 0.448,0 0.672,0c0.084,0 0.084,0.056 0.084,0.14c-0.028,0.504 -0.028,0.98 -0.028,1.484c0,0.561 0,1.149 0,1.709c0,0.252 0,0.476 0.028,0.728c0,0.084 -0.028,0.14 -0.112,0.112c-0.168,0 -0.336,0 -0.504,0c-0.112,0 -0.14,-0.028 -0.14,-0.14c0,-0.476 0,-0.924 0,-1.4c0,-0.168 0,-0.168 -0.168,-0.168c-0.224,0 -0.476,0 -0.7,0c-0.112,0 -0.14,0.056 -0.14,0.14c0,0.476 0.028,0.924 0.028,1.4c0,0.168 0,0.196 -0.168,0.196c-0.14,0 -0.28,0 -0.42,0c-0.168,0 -0.168,0 -0.168,-0.196l0,-3.977c0.224,0 0.448,0 0.7,0c0.028,0 0.056,0.084 0.056,0.14c0,0.616 0,1.204 -0.028,1.821c0,0.028 0,0.028 0,0.056c0.056,-0.028 0.112,-0.028 0.14,-0.056c0.168,-0.169 0.392,-0.169 0.588,-0.169c0.084,0 0.14,0 0.224,0c0.056,-0.616 0.056,-1.204 0.056,-1.82Z" style="fill:#8c8c8c;fill-rule:nonzero;"/><path d="M21.958,21.802c0.028,-0.617 0.112,-1.149 0.42,-1.625c0.477,-0.7 1.345,-0.784 1.933,-0.196c0.308,0.308 0.448,0.672 0.532,1.064c0.112,0.588 0.084,1.177 -0.112,1.737c-0.056,0.168 -0.14,0.336 -0.252,0.476c-0.448,0.728 -1.428,0.924 -2.073,0.084c-0.224,-0.308 -0.364,-0.672 -0.42,-1.036c0,-0.168 0,-0.364 -0.028,-0.504Zm2.185,-0.056c0,-0.197 -0.028,-0.421 -0.028,-0.617c-0.028,-0.252 -0.084,-0.532 -0.224,-0.728c-0.196,-0.252 -0.588,-0.336 -0.812,0c-0.084,0.14 -0.14,0.28 -0.196,0.448c-0.14,0.504 -0.112,0.981 -0.056,1.485c0.028,0.308 0.112,0.616 0.28,0.868c0.14,0.196 0.392,0.252 0.616,0.112c0.168,-0.112 0.252,-0.28 0.308,-0.476c0.084,-0.364 0.112,-0.728 0.112,-1.092Z" style="fill:#8c8c8c;fill-rule:nonzero;"/><path d="M28.204,21.69c0,0.56 -0.084,1.036 -0.336,1.484c-0.252,0.448 -0.616,0.756 -1.176,0.756c-0.449,0 -0.785,-0.252 -1.037,-0.616c-0.252,-0.364 -0.364,-0.756 -0.392,-1.204c-0.056,-0.505 0,-1.009 0.168,-1.513c0.112,-0.336 0.308,-0.616 0.616,-0.812c0.533,-0.364 1.233,-0.224 1.653,0.308c0.28,0.336 0.392,0.756 0.448,1.176c0.056,0.168 0.056,0.336 0.056,0.421Zm-0.756,0c0,-0.113 0,-0.309 -0.028,-0.477c-0.028,-0.28 -0.084,-0.532 -0.224,-0.784c-0.14,-0.252 -0.588,-0.42 -0.813,-0.028c-0.112,0.168 -0.168,0.336 -0.224,0.532c-0.112,0.476 -0.112,0.953 -0.056,1.429c0.028,0.308 0.112,0.616 0.308,0.868c0.14,0.196 0.421,0.252 0.617,0.084c0.112,-0.112 0.224,-0.252 0.28,-0.392c0.112,-0.392 0.112,-0.784 0.14,-1.232Z" style="fill:#8c8c8c;fill-rule:nonzero;"/><path d="M34.982,21.746c0,-0.449 0.056,-0.925 0.252,-1.317c0.224,-0.448 0.532,-0.784 1.064,-0.812c0.588,-0.056 0.98,0.252 1.288,0.728c0.196,0.308 0.252,0.644 0.308,0.98c0.056,0.477 0.028,0.925 -0.112,1.373c-0.084,0.308 -0.224,0.56 -0.42,0.812c-0.476,0.532 -1.316,0.644 -1.904,-0.084c-0.308,-0.392 -0.42,-0.84 -0.476,-1.344c0,-0.112 0,-0.224 0,-0.336Zm0.756,0c0.028,0.224 0.028,0.42 0.056,0.644c0.028,0.28 0.112,0.532 0.28,0.784c0.168,0.252 0.532,0.252 0.7,0.028c0.112,-0.168 0.224,-0.336 0.252,-0.532c0.14,-0.532 0.14,-1.093 0.056,-1.653c-0.028,-0.224 -0.112,-0.42 -0.224,-0.616c-0.196,-0.336 -0.616,-0.336 -0.84,-0.028c-0.056,0.056 -0.084,0.14 -0.112,0.224c-0.14,0.392 -0.14,0.756 -0.168,1.149Z" style="fill:#8c8c8c;fill-rule:nonzero;"/><path d="M40.191,19.673c0.224,0 0.42,0 0.644,0c0.028,0 0.056,0.056 0.056,0.112c0,0.868 0,1.764 -0.028,2.633c0,0.252 -0.028,0.504 -0.084,0.756c-0.084,0.392 -0.364,0.616 -0.756,0.7c-0.224,0.028 -0.448,0.056 -0.7,0.028c-0.505,-0.028 -0.813,-0.392 -0.869,-0.812c-0.056,-0.448 -0.056,-0.924 -0.084,-1.372c0,-0.589 0,-1.205 -0.028,-1.793c0,-0.084 0,-0.168 0,-0.252c0.252,0 0.504,0 0.757,0l0,2.969c0,0.196 0.028,0.364 0.14,0.532c0.112,0.168 0.28,0.196 0.476,0.168c0.168,-0.028 0.308,-0.112 0.336,-0.28c0.028,-0.168 0.084,-0.336 0.084,-0.504c0,-0.953 0,-1.877 0,-2.829c0.056,0.028 0.056,0 0.056,-0.056Z" style="fill:#8c8c8c;fill-rule:nonzero;"/><path d="M8.851,24.434c-0.504,0.168 -1.092,-0.084 -1.288,-0.616c-0.112,-0.308 -0.196,-0.616 -0.308,-0.924c-0.056,-0.224 -0.056,-0.224 -0.308,-0.224c-0.196,0 -0.392,0 -0.56,0c-0.112,0 -0.14,0.028 -0.168,0.14c-0.084,0.308 -0.14,0.616 -0.224,0.924c-0.028,0.084 -0.056,0.14 -0.169,0.14c-0.168,0 -0.364,0 -0.56,0c0.084,-0.28 0.14,-0.504 0.224,-0.756c0.308,-1.092 0.645,-2.185 0.953,-3.305c0.028,-0.112 0.084,-0.14 0.168,-0.14c0.084,0 0.196,0 0.28,0c0.112,-0.028 0.168,0.056 0.196,0.14c0.14,0.532 0.308,1.036 0.448,1.568c0.196,0.701 0.42,1.401 0.616,2.073c0.168,0.392 0.392,0.728 0.7,0.98Zm-2.1,-3.445c-0.028,0 -0.028,0 -0.056,0c-0.112,0.392 -0.224,0.813 -0.336,1.233c0.252,-0.056 0.448,-0.112 0.672,-0.168c0,0 0,-0.028 0,-0.056c-0.112,-0.336 -0.196,-0.673 -0.28,-1.009Z" style="fill:#8c8c8c;fill-rule:nonzero;"/><path d="M44.98,21.662c0.028,-0.029 0.112,-0.029 0.14,-0.057c0.224,-0.224 0.532,-0.14 0.784,-0.14c0.028,0 0.084,0.056 0.084,0.084c0,0.169 0,0.309 0,0.477c0,0.084 -0.056,0.084 -0.112,0.084c-0.252,0 -0.504,0 -0.756,0c-0.112,0 -0.168,0.028 -0.168,0.14c0,0.28 0,0.56 0,0.84c0,0.14 0.028,0.196 0.196,0.196c0.308,0 0.616,-0.028 0.924,-0.028c0.112,0 0.196,0 0.308,-0.028c0.14,-0.028 0.168,0.028 0.168,0.14c0,0.112 0,0.224 0,0.336c0,0.112 -0.028,0.14 -0.14,0.14c-0.672,0 -1.372,0 -2.044,0c-0.112,0 -0.14,-0.028 -0.14,-0.14c0,-0.896 0.028,-1.764 0.028,-2.661c0,-0.42 -0.028,-0.812 -0.028,-1.232c0,-0.056 0,-0.084 0,-0.14l2.072,0c0.14,0 0.168,0.056 0.168,0.168c0,0.112 0,0.252 0,0.364c0,0.084 -0.028,0.112 -0.14,0.112c-0.42,-0.028 -0.84,-0.056 -1.26,-0.084c-0.084,0 -0.112,0.028 -0.112,0.112c0.028,0.448 0.028,0.868 0.028,1.317Z" style="fill:#8c8c8c;fill-rule:nonzero;"/><path d="M41.395,22.81c0.168,0.14 0.308,0.252 0.448,0.336c0.224,0.14 0.448,0.224 0.728,0.168c0.224,-0.056 0.392,-0.196 0.448,-0.42c0.056,-0.224 0,-0.448 -0.196,-0.588c-0.196,-0.112 -0.392,-0.224 -0.588,-0.336c-0.112,-0.084 -0.252,-0.14 -0.364,-0.224c-0.644,-0.421 -0.56,-1.121 -0.252,-1.541c0.336,-0.504 1.008,-0.728 1.597,-0.532c0.112,0.028 0.168,0.084 0.168,0.224l0,0.616c-0.196,-0.084 -0.393,-0.196 -0.617,-0.252c-0.112,-0.028 -0.252,0 -0.364,0.028c-0.168,0.056 -0.28,0.168 -0.308,0.336c-0.028,0.224 0.084,0.392 0.28,0.504c0.196,0.112 0.42,0.196 0.616,0.308c0.141,0.084 0.281,0.168 0.393,0.253c0.364,0.308 0.42,0.7 0.336,1.148c-0.168,0.84 -0.869,1.288 -1.709,1.092c-0.14,-0.028 -0.308,-0.084 -0.448,-0.112c-0.084,-0.028 -0.14,-0.084 -0.14,-0.196c-0.028,-0.28 -0.028,-0.532 -0.028,-0.812Z" style="fill:#8c8c8c;fill-rule:nonzero;"/><path d="M13.444,23.23c0,0.168 0,0.364 0,0.56c0,0.028 -0.084,0.056 -0.14,0.056l-1.736,0c-0.112,0 -0.168,-0.028 -0.168,-0.168c0.028,-0.672 0.028,-1.344 0.028,-1.988c0,-0.617 -0.028,-1.233 -0.056,-1.849c0,-0.056 0,-0.084 0,-0.168c0.252,0 0.476,0 0.7,0c0.028,0 0.084,0.056 0.084,0.112c0,1.12 0,2.213 0,3.333c0,0.168 0.112,0.168 0.196,0.168c0.336,0 0.7,-0.028 1.092,-0.056Z" style="fill:#8c8c8c;fill-rule:nonzero;"/><path d="M8.851,19.673c0.252,0 0.476,0 0.7,0c0.112,0 0.084,0.084 0.084,0.14c0,0.336 -0.028,0.672 -0.028,1.036c0,0.756 0,1.485 0,2.241c0,0.168 0.028,0.196 0.168,0.196c0.365,0 0.729,-0.028 1.121,-0.028c0,0.168 0,0.364 0,0.56c0,0.028 -0.084,0.056 -0.112,0.056l-1.765,0c-0.112,0 -0.14,-0.028 -0.14,-0.14c0,-0.812 0.028,-1.624 0.028,-2.437c0,-0.504 -0.028,-1.008 -0.056,-1.512c0,-0.028 0,-0.056 0,-0.112Z" style="fill:#8c8c8c;fill-rule:nonzero;"/></g><g><path d="M29.828,14.94c0.14,-0.28 0.308,-0.532 0.476,-0.812c0.112,-0.196 0.28,-0.504 0.393,-0.7c0.028,-0.028 0,0.028 0,0c0.028,-0.057 0.056,-0.113 0.084,-0.141c0.056,-0.084 0.028,-0.084 -0.056,-0.084c-0.281,-0.028 -0.533,-0.056 -0.813,-0.084c0,-0.112 0.028,-0.196 0.028,-0.308c0,-0.084 0.028,-0.112 0.112,-0.112c0.336,0.028 0.645,0.056 0.981,0.084c0.168,0.028 0.308,0.028 0.476,0.056c0,0.084 0,0.196 -0.028,0.28c-0.364,0.645 -0.728,1.261 -1.093,1.905c-0.028,0.056 -0.084,0.084 -0.14,0.056c-0.14,-0.028 -0.28,-0.084 -0.42,-0.14Z" style="fill:#8c8c8c;fill-rule:nonzero;"/><path d="M32.153,15.388c0.168,-0.252 0.364,-0.504 0.532,-0.756c0.14,-0.196 0.308,-0.476 0.448,-0.672c0.028,-0.028 0,0.028 0,0c0.028,-0.056 0.056,-0.084 0.084,-0.14c0.056,-0.084 0.028,-0.084 -0.056,-0.112c-0.28,-0.028 -0.532,-0.084 -0.812,-0.14c0.028,-0.112 0.028,-0.197 0.056,-0.309c0,-0.084 0.056,-0.112 0.14,-0.112c0.336,0.056 0.644,0.112 0.98,0.168c0.168,0.028 0.308,0.056 0.476,0.085c0,0.084 0,0.196 -0.056,0.28c-0.42,0.616 -0.812,1.204 -1.232,1.82c-0.028,0.056 -0.084,0.084 -0.14,0.056c-0.168,-0.028 -0.28,-0.084 -0.42,-0.168Z" style="fill:#8c8c8c;fill-rule:nonzero;"/><path d="M17.589,15.192c0.056,-0.308 0.168,-0.588 0.252,-0.896c0.056,-0.224 0.14,-0.56 0.196,-0.784c0,-0.028 0,0.028 0,0c0,-0.056 0.028,-0.112 0.028,-0.169c0.028,-0.084 0,-0.084 -0.084,-0.084c-0.252,0.056 -0.532,0.112 -0.812,0.141c-0.028,-0.113 -0.028,-0.197 -0.056,-0.309c-0.028,-0.084 0,-0.112 0.084,-0.14c0.336,-0.056 0.644,-0.112 0.98,-0.168c0.169,-0.028 0.309,-0.056 0.477,-0.084c0.028,0.084 0.056,0.196 0.028,0.28c-0.196,0.701 -0.364,1.429 -0.561,2.129c-0.028,0.056 -0.056,0.084 -0.112,0.084c-0.112,0.028 -0.252,0 -0.42,0Z" style="fill:#8c8c8c;fill-rule:nonzero;"/><path d="M15.237,13.932c0.084,-0.056 0.196,-0.14 0.28,-0.196c0.028,-0.028 0.084,0 0.112,0.028l0.056,0.28c0.112,0.476 0.196,0.952 0.308,1.428c0,0.028 0,0.084 0.056,0.112c0.196,-0.028 0.336,-0.056 0.504,-0.084c0.084,0 0.056,-0.056 0.056,-0.112c-0.112,-0.588 -0.252,-1.148 -0.364,-1.736c-0.028,-0.14 -0.084,-0.365 -0.112,-0.505l-0.448,0.084c-0.196,0.056 -0.364,0.169 -0.532,0.309c-0.056,0.056 -0.056,0.056 -0.028,0.112l0.112,0.28Z" style="fill:#8c8c8c;fill-rule:nonzero;"/><path d="M24.787,6.79c0.196,0.224 0.532,0.224 0.756,0c-0.308,-0.224 -0.364,-0.224 -0.756,0Zm0.14,0.056c0.028,-0.056 0.084,-0.056 0.14,-0.084c0,0.14 -0.084,0.112 -0.14,0.084Zm0.364,-0.056c-0.056,0 -0.084,-0.028 -0.084,-0.056c0,-0.056 0.028,-0.056 0.084,-0.056c0.028,0 0.084,0 0.084,0.056c0,0.056 -0.056,0.056 -0.084,0.056Z" style="fill:#8c8c8c;fill-rule:nonzero;"/></g></g></g><g transform="matrix(0.24,0,0,0.24,-245.247,-96.9589)"><text x="1135.82px" y="286.174px" style="font-family:'Varela';font-size:20.833px;">A personalised journal, notebook or reﬁllable journal is the perfect addition to your corporate merchandise, event or</text><text x="1113.26px" y="319.507px" style="font-family:'Varela';font-size:20.833px;">simply a personalised gift for your clients with your corporate logo. Our handmade products are the perfect solution and</text><text x="1489.84px" y="352.84px" style="font-family:'Varela';font-size:20.833px;">are available to ﬁt a wide variety of budgets.</text></g></svg>