<?xml version="1.0" encoding="UTF-8" standalone="no"?>
<!DOCTYPE svg PUBLIC "-//W3C//DTD SVG 1.1//EN" "http://www.w3.org/Graphics/SVG/1.1/DTD/svg11.dtd">
<svg width="100%" height="100%" viewBox="0 0 1000 403" version="1.1" xmlns="http://www.w3.org/2000/svg" xmlns:xlink="http://www.w3.org/1999/xlink" xml:space="preserve" xmlns:serif="http://www.serif.com/" style="fill-rule:evenodd;clip-rule:evenodd;stroke-linejoin:round;stroke-miterlimit:2;">
    <g>
        <rect x="0" y="0" width="1000" height="402.473" style="fill:rgb(133,133,133);"/>
        <g>
            <path d="M846.253,93.792L846.253,32.189L674.834,32.189L646.643,237.992L618.747,32.19L556.93,32.19L563.855,87.105C556.715,73.037 531.406,32.19 475.709,32.19C475.342,32.166 413.808,32.19 413.808,32.19L413.571,332.164L368.514,32.19L287.555,32.143L240.943,342.957L240.967,32.188L163.484,32.188L135.551,206.773L108.343,32.19L30.835,32.19L30.835,370.096L91.871,370.096L91.871,207.226L119.635,370.092L152.084,370.092L179.458,207.226L179.458,370.092L297.125,370.092L304.265,318.097L351.639,318.097L358.755,370.092L474.276,370.163L474.37,370.163L474.37,370.092L474.514,370.092L474.514,260.407L488.676,258.344L517.995,370.163L577.747,370.163L577.723,370.092L577.901,370.092L539.426,239.035C558.924,224.613 580.939,187.988 575.08,152.951L575.08,152.928C575.15,153.402 611.396,370.308 611.396,370.308L682.461,370.092L731.02,63.808L731.02,370.093L846.256,370.093L846.256,309.32L791.556,309.32L791.556,231.824L846.256,231.824L846.256,170.126L791.556,170.126L791.556,93.792L846.253,93.792ZM311.455,264.513L328.213,120.052L345.613,264.513L311.455,264.513ZM488.874,197.809C484.177,200.087 479.279,201.226 474.511,201.226L474.511,92.535C474.594,92.535 474.69,92.513 474.808,92.513C479.588,92.489 515.227,93.959 515.227,146.287C515.227,173.66 503.106,190.907 488.874,197.809M969.234,309.273L969.234,370.045L856.82,370.045L856.82,32.143L917.346,32.143L917.346,309.273L969.234,309.273Z" style="fill:white;fill-rule:nonzero;"/>
        </g>
    </g>
</svg>
