<?xml version="1.0" encoding="UTF-8" standalone="no"?><!DOCTYPE svg PUBLIC "-//W3C//DTD SVG 1.1//EN" "http://www.w3.org/Graphics/SVG/1.1/DTD/svg11.dtd"><svg width="100%" height="100%" viewBox="0 0 44 30" version="1.1" xmlns="http://www.w3.org/2000/svg" xmlns:xlink="http://www.w3.org/1999/xlink" xml:space="preserve" xmlns:serif="http://www.serif.com/" style="fill-rule:evenodd;clip-rule:evenodd;stroke-linejoin:round;stroke-miterlimit:1.41421;"><g><path d="M39.95,20.276c0.042,0 0.069,-0.027 0.069,-0.072c0,-0.043 -0.027,-0.068 -0.069,-0.068l-0.067,0l0,0.14l0.067,0Zm-0.146,-0.2l0.162,0c0.08,0 0.133,0.05 0.133,0.128c0,0.065 -0.042,0.104 -0.077,0.112l0,0.003c0,0 0.005,0.004 0.015,0.023l0.08,0.156l-0.087,0l-0.078,-0.164l-0.069,0l0,0.164l-0.079,0l0,-0.422Zm0.136,0.545c0.181,0 0.319,-0.146 0.319,-0.333c0,-0.187 -0.138,-0.332 -0.319,-0.332c-0.178,0 -0.315,0.145 -0.315,0.332c0,0.187 0.137,0.333 0.315,0.333Zm0,-0.741c0.223,0 0.401,0.181 0.401,0.408c0,0.228 -0.178,0.409 -0.401,0.409c-0.22,0 -0.397,-0.181 -0.397,-0.409c0,-0.227 0.177,-0.408 0.397,-0.408Z" style="fill:#8c8c8c;fill-rule:nonzero;"/><path d="M18.472,17.704l1.085,-2.151l1.086,2.151l-2.171,0Zm-1.504,2.978l0.69,-1.369l3.797,0l0.692,1.369l1.861,0l-4.451,-8.816l-4.426,8.816l1.837,0Z" style="fill:#8c8c8c;fill-rule:nonzero;"/><path d="M16.701,11.906l-6.985,0l0,1.609l2.601,0l0,7.167l1.783,0l0,-7.167l2.601,0l0,-1.609Z" style="fill:#8c8c8c;fill-rule:nonzero;"/><path d="M27.504,15.763l-1.299,0l0,-2.248l1.299,0c0.957,0 1.484,0.387 1.484,1.12c0,0.727 -0.555,1.128 -1.484,1.128Zm3.28,-1.174c0,-0.772 -0.279,-1.436 -0.809,-1.919c-0.548,-0.5 -1.325,-0.764 -2.248,-0.764l-3.305,0l0,8.776l1.783,0l0,-3.2l1.271,0l1.844,3.2l2.045,0l-2.085,-3.631c1.312,-0.614 1.504,-1.811 1.504,-2.462Z" style="fill:#8c8c8c;fill-rule:nonzero;"/><path d="M39.387,11.906l-7.252,0l0,1.609l4.147,0l-4.504,7.167l7.516,0l0,-1.609l-4.411,0l4.504,-7.167Z" style="fill:#8c8c8c;fill-rule:nonzero;"/><path d="M6.571,15.486c-1.439,-0.342 -1.95,-0.575 -1.95,-1.238c0,-0.553 0.511,-0.905 1.271,-0.905c1.163,0 2.203,0.803 2.484,1.041l0.745,-1.512c-0.925,-0.74 -1.987,-1.116 -3.204,-1.116c-1.798,0 -3.054,1.078 -3.054,2.614c0,1.679 1.082,2.256 2.952,2.708c1.564,0.361 1.84,0.672 1.84,1.189c0,0.613 -0.548,0.978 -1.395,0.978c-1.046,0 -1.901,-0.4 -2.884,-1.315l-0.732,1.567c1.019,0.876 2.261,1.334 3.58,1.334c1.937,0 3.189,-1.043 3.189,-2.711c0,-1.373 -0.824,-2.144 -2.842,-2.634Z" style="fill:#8c8c8c;fill-rule:nonzero;"/></g><g transform="matrix(0.24,0,0,0.24,-463.407,-96.9589)"><text x="1135.82px" y="286.174px" style="font-family:'Varela';font-size:20.833px;">A personalised journal, notebook or reﬁllable journal is the perfect addition to your corporate merchandise, event or</text><text x="1113.26px" y="319.507px" style="font-family:'Varela';font-size:20.833px;">simply a personalised gift for your clients with your corporate logo. Our handmade products are the perfect solution and</text><text x="1489.84px" y="352.84px" style="font-family:'Varela';font-size:20.833px;">are available to ﬁt a wide variety of budgets.</text></g></svg>