<?xml version="1.0" standalone="no"?>
<!DOCTYPE svg PUBLIC "-//W3C//DTD SVG 1.1//EN" "http://www.w3.org/Graphics/SVG/1.1/DTD/svg11.dtd" >
<svg>
<metadata>
Created by FontForge 20090914 at Thu May 13 14:42:37 2021
 By www-data
Data by URW, Type Solutions, Inc. &#194;&#169; 1993. Microsoft Corporation. All rights reserved.
</metadata>
<defs>
<font id="CentralCrafts" horiz-adv-x="1024" >
  <font-face 
    font-family="CentralCrafts"
    font-weight="400"
    font-stretch="normal"
    units-per-em="1024"
    panose-1="0 0 0 0 0 0 0 0 0 0"
    ascent="819"
    descent="-205"
    x-height="682"
    cap-height="688.999"
    bbox="-24.998 -242.997 1037 1025"
    underline-thickness="35"
    underline-position="-85"
    unicode-range="U+000D-U+201A"
  />
<missing-glyph horiz-adv-x="543" 
d="M51 102h307v485h-307v-485zM0 638h410v-587h-410v587z" />
    <glyph glyph-name=".notdef" horiz-adv-x="543" 
d="M51 102h307v485h-307v-485zM0 638h410v-587h-410v587z" />
    <glyph glyph-name=".null" horiz-adv-x="0" 
 />
    <glyph glyph-name=".null" horiz-adv-x="0" 
 />
    <glyph glyph-name="nonmarkingreturn" unicode="&#xd;" horiz-adv-x="0" 
 />
    <glyph glyph-name="space" unicode=" " horiz-adv-x="276" 
 />
    <glyph glyph-name="exclam" unicode="!" horiz-adv-x="252" 
d="M145 695c17.333 0 26 -8.00098 26 -24.001c0 -3.33301 -0.333008 -8 -1 -14c-1.33301 -16 -3.33301 -43.333 -6 -82c-2 -29.333 -5.33301 -72.666 -10 -129.999c-0.666992 -16.667 -2.66699 -48 -6 -94c-3.33301 -32.667 -5.33301 -56.667 -6 -72c-2 -36 -7 -54 -15 -54
c-6.66699 0 -10.667 14.333 -12 43c-0.666992 18 -3 49.333 -7 94c-6 74 -10.667 141.333 -14 202c-2 40.667 -4 69.334 -6 86.001c-0.666992 5.33301 -1 9.66602 -1 12.999c0 21.333 19.333 32 58 32zM129 117.999c5.33301 0 11.6641 -6.66797 18.9971 -20.001
c4.66699 -8 13.334 -16.333 26.001 -25s19 -16.334 19 -23.001c0 -5.33301 -6 -11.666 -18 -18.999c-12.667 -7.33301 -21.667 -15.666 -27 -24.999c-1.33301 -2.66699 -3.66602 -6.66699 -6.99902 -12s-8 -8 -14 -8c-5.33301 0 -12.666 6 -21.999 18
c-7.33301 12 -16 21 -26 27c-11.333 7.33301 -17 14.333 -17 21c0 5.33301 5.33301 11.333 16 18c11.333 6 21.333 16 30 30c7.33301 12 14.333 18 21 18z" />
    <glyph glyph-name="quotedbl" unicode="&#x22;" horiz-adv-x="574" 
 />
    <glyph glyph-name="numbersign" unicode="#" horiz-adv-x="620" 
d="M542 292v-68.999h-109l-32 -223h-70l33 223h-139l-33 -223h-70c6 37.333 17.333 111.666 34 222.999h-104v69h115l21 136h-107v69h117l32 208h68l-31 -208h137c5.33301 34.667 15.333 104 30 208h71l-31 -208h95v-69h-105l-20 -136h98zM394 428.001h-137l-21 -136h138z
" />
    <glyph glyph-name="ampersand" unicode="&#x26;" horiz-adv-x="868" 
d="M607 153c99.333 -82.667 171.331 -123.998 215.998 -123.998c6 0 12.333 1.33301 19 4c8 2 14 3.33301 18 4c5.33301 0.666992 8 -1.66602 8 -6.99902c0 -8.66699 -11 -17 -33 -25s-44.333 -12 -67 -12c-33.333 0 -63.666 6.33301 -90.999 19s-67 39 -119 79
c-74 -65.333 -151.333 -98 -232 -98c-83.333 0 -152.333 24 -207 72c-54 47.333 -81 107.333 -81 180c0 60 20.667 111 62 153c23.333 23.333 56 39.666 98 48.999c-30 38.667 -45 76.667 -45 114c0 39.333 15 71.333 45 96c29.333 24 68.666 36 117.999 36
c24.667 0 50.334 -5 77.001 -15c5.33301 -2.66699 13.333 -6 24 -10h5c2 0 5.33301 1.66699 10 5c3.33301 2.66699 6.33301 4 9 4c8.66699 0.666992 13 -11.333 13 -36c0.666992 -6 1 -15 1 -27c0.666992 -6.66699 1.66699 -20 3 -40v-15c0 -7.33301 -3.66699 -11 -11 -11
c-4 0 -7.33301 3.66699 -10 11c-9.33301 28 -28.333 52.667 -57 74s-57 32 -85 32c-23.333 0 -43.333 -7 -60 -21c-16.667 -14.667 -25 -32.334 -25 -53.001c0 -18.667 8 -40.334 24 -65.001c15.333 -24 41.666 -55.333 78.999 -94l126 -130
c32.667 -33.333 79 -75.666 139 -126.999c17.333 28.667 26 60.667 26 96c0 26.667 -5 49 -15 67c-10.667 17.333 -25 27.666 -43 30.999c-4.66699 1.33301 -12.334 3 -23.001 5c-10 2 -15 6.33301 -15 13c0.666992 4.66699 4.33398 7 11.001 7c3.33301 0 8 -0.333008 14 -1
c10 -1.33301 39 -2 87 -2c14.667 0 28.334 0.666992 41.001 2c12 0.666992 20.333 1 25 1c6 0 9 -2.66699 9 -8c0.666992 -5.33301 -3.66602 -9.66602 -12.999 -12.999c-10.667 -4 -18 -10.667 -22 -20s-7.33301 -26.333 -10 -51
c-4.66699 -56.667 -19 -106.334 -43 -149.001zM526.998 115.002c-10.667 9.33301 -17.668 15.668 -21.001 19.001l-48 40c-26.667 23.333 -62 57.666 -106 102.999s-79 83.333 -105 114c-20 24.667 -37.333 37 -52 37c-22.667 0 -44.667 -13.667 -66 -41
c-22.667 -27.333 -34 -61 -34 -101c0 -49.333 19.333 -96.333 58 -141c52.667 -60.667 120.334 -91 203.001 -91c68 0 125 20.333 171 61z" />
    <glyph glyph-name="parenleft" unicode="(" horiz-adv-x="574" 
d="M230 667l-55.999 0.00292969c-6 0 -10 -1 -12 -3c-1.33301 -1.33301 -2 -5.33301 -2 -12v-196v-7c0.666992 -16 9.66699 -25.333 27 -28c4.66699 -0.666992 7 -2.33398 7 -5.00098s-2 -4 -6 -4c-1.33301 0 -4.66602 0.333008 -9.99902 1
c-2.66699 0.666992 -8.66699 1 -18 1h-14h-16c-5.33301 0 -10 -0.333008 -14 -1c-8 -0.666992 -12.667 -1 -14 -1c-4 0 -6 1.33301 -6 4c0 2 2.33301 3.33301 7 4c10 1.33301 17 4.33301 21 9c3.33301 4 5 11.667 5 23v198v5c0 5.33301 -0.666992 8.66602 -2 9.99902
s-4.66602 2 -9.99902 2h-53c-10.667 0 -18.334 -2.33301 -23.001 -7c-5.33301 -4 -9.33301 -12 -12 -24c-0.666992 -5.33301 -2.33398 -8 -5.00098 -8s-4 1.66699 -4 5s1 8.66602 3 15.999c2 9.33301 3 17.333 3 24c0 6 0.666992 10 2 12s4.33301 3 9 3h215
c7.33301 0 11.666 -1 12.999 -3c2 -1.33301 3 -6 3 -14s0.333008 -13.667 1 -17c0.666992 -4.66699 1 -8 1 -10c0 -4 -1.33301 -6 -4 -6c-2.66699 -0.666992 -4.33398 1.33301 -5.00098 6c-2 9.33301 -5 15.333 -9 18c-3.33301 3.33301 -10.666 5 -21.999 5z
M363.001 562.003h117c5.33301 0 9 0.333008 11 1c1.33301 1.33301 2 3.66602 2 6.99902v68c0 13.333 -1.66699 23 -5 29c-3.33301 5.33301 -9.66602 9.33301 -18.999 12c-4 0.666992 -6 2 -6 4c0 2.66699 1.66699 4 5 4c2.66699 0 7 -0.333008 13 -1
c8.66699 -1.33301 18 -2 28 -2c14 0 24 0.333008 30 1c3.33301 0.666992 5.66602 1 6.99902 1c3.33301 0 5 -1.33301 5 -4c0 -1.33301 -1.66699 -2.33301 -5 -3c-2 -0.666992 -4.66699 -1.33398 -8 -2.00098c-4 -0.666992 -7.33301 -3.66699 -10 -9
c-3.33301 -5.33301 -5 -11.333 -5 -18v-191c0 -14 2 -23.667 6 -29s11.667 -8.66602 23 -9.99902c4 -0.666992 6 -2 6 -4c0.666992 -3.33301 -1 -5 -5 -5c-2.66699 0 -6 0.333008 -10 1c-3.33301 0.666992 -10 1 -20 1h-15h-15c-2 0 -5 -0.333008 -9 -1
c-8 -0.666992 -12.667 -1 -14 -1c-3.33301 0 -5 1.33301 -5 4c0.666992 2.66699 3 4.33398 7 5.00098c14 2 21 13.333 21 34v7v73c0 6 -0.666992 9.66699 -2 11c-0.666992 0.666992 -4.66699 1 -12 1h-116c-7.33301 0 -12 -0.666992 -14 -2s-3 -5.33301 -3 -12v-72
c0 -14 2.33301 -23.667 7 -29c4 -5.33301 12 -8.66602 24 -9.99902c4.66699 -0.666992 7 -2.33398 7 -5.00098c0.666992 -3.33301 -1 -5 -5 -5c-2 0 -5.33301 0.333008 -10 1c-3.33301 0.666992 -11.333 1 -24 1c-3.33301 0 -8.66602 0.333008 -15.999 1
c-2.66699 -0.666992 -7 -1 -13 -1h-13c-6.66699 -0.666992 -10.667 -1 -12 -1c-3.33301 0 -5 1.33301 -5 4c0 2 1.66699 3.33301 5 4c2 0.666992 5.33301 1.66699 10 3c5.33301 1.33301 9.33301 5.66602 12 12.999c2 7.33301 3 20.333 3 39v169c0 12 -2.33301 20.333 -7 25
c-4 5.33301 -11.667 9 -23 11c-4 0 -6 1.33301 -6 4s1.66699 4 5 4c2.66699 0 6.66699 -0.333008 12 -1c10.667 -1.33301 22.667 -2 36 -2c9.33301 0 18.333 0.333008 27 1c3.33301 0.666992 6 1 8 1c4 0 6 -1.33301 6 -4c0 -2 -2 -3.33301 -6 -4
c-8.66699 -2.66699 -14.334 -6 -17.001 -10c-3.33301 -4 -5 -11 -5 -21v-71c0 -7.33301 0.666992 -11.666 2 -12.999c2 -1.33301 7 -2 15 -2z" />
    <glyph glyph-name="parenright" unicode=")" horiz-adv-x="574" 
d="M165 551c8.66699 -14 26.665 -41.002 53.998 -81.002l7 -10c16.667 -24.667 32.334 -37.667 47.001 -39h6c2.66699 0 4 -1 4 -3c-0.666992 -2 -3.66699 -3.66699 -9 -5c-6 -2 -12.667 -3 -20 -3c-12 0 -22.667 3.33301 -32 10s-19 17.334 -29 32.001l-50 76
c0 0.666992 -0.666992 2 -2 4c-3.33301 5.33301 -8.66602 8 -15.999 8h-26h-5c-1.33301 -1.33301 -2 -3.66602 -2 -6.99902v-62v-8c0 -11.333 0.666992 -19 2 -23s4 -7.66699 8 -11c5.33301 -4.66699 14 -7.66699 26 -9c5.33301 -0.666992 8 -2.33398 8 -5.00098
s-2.33301 -4 -7 -4c-2 0 -6 0.333008 -12 1c-5.33301 0.666992 -13.666 1 -24.999 1h-19h-10c-4.66699 0 -10.334 -0.333008 -17.001 -1c-4.66699 -0.666992 -8 -1 -10 -1c-3.33301 0 -5 1.33301 -5 4c0 2 1.66699 3.33301 5 4c10.667 2 17.667 7 21 15
c3.33301 7.33301 5 22.333 5 45v143c-0.666992 3.33301 -1 10 -1 20c0 20.667 -7.33301 32.334 -22 35.001c-2 0 -5 0.333008 -9 1c-4 1.33301 -6 3 -6 5c0 2.66699 2.33301 4 7 4h13c5.33301 -0.666992 11.333 -1 18 -1c6 0 16.333 0.333008 31 1
c10.667 0.666992 20 1 28 1c30.667 0 53.667 -5.66699 69 -17c16 -11.333 24 -28.333 24 -51c0 -30 -16.333 -53 -49 -69zM114.998 562.998l21 0.000976562c16 0 28.667 4.33301 38 13c9.33301 9.33301 14 21.666 14 36.999c0 18 -6.33301 32.667 -19 44
c-12.667 12 -28.667 18 -48 18c-7.33301 0 -12.333 -1.33301 -15 -4c-3.33301 -2.66699 -5 -7 -5 -13c0 -1.33301 0.333008 -3.33301 1 -6v-76c0 -6 0.666992 -9.66699 2 -11s5 -2 11 -2zM328.998 636.999c0 13.333 -2.33105 23 -6.99805 29
c-4.66699 6.66699 -12 10.334 -22 11.001c-4.66699 0.666992 -7 2 -7 4c0 2.66699 1.66699 4 5 4h16c1.33301 -0.666992 6 -1 14 -1c13.333 0 23.666 0.333008 30.999 1c4 0.666992 10 1.33398 18 2.00098s16.667 1 26 1c54.667 0 95.334 -13.667 122.001 -41
c24.667 -24.667 37 -56.334 37 -95.001c0 -24.667 -5.33301 -47.667 -16 -69c-10.667 -20.667 -25.667 -37 -45 -49c-24.667 -15.333 -51.334 -23 -80.001 -23c-3.33301 0 -9.33301 0.333008 -18 1c-18 1.33301 -33.333 2 -46 2c-14 0 -26.333 -0.666992 -37 -2
c-4.66699 -0.666992 -8.33398 -1.33398 -11.001 -2.00098c-4.66699 0 -7 1.66699 -7 5c0 2 1.66699 3.66699 5 5c9.33301 1.33301 15.333 4.33301 18 9c2.66699 5.33301 4 15.333 4 30v178zM359 652.999v-203.999c0 -8 4 -13.667 12 -17c7.33301 -2.66699 16.333 -5 27 -7
s20 -3 28 -3c22.667 0 43 5.66699 61 17c30.667 19.333 46 51.666 46 96.999c0 25.333 -5 48.333 -15 69c-9.33301 20.667 -22.333 37 -39 49c-20.667 14.667 -45.667 22 -75 22c-20.667 0 -34 -2.33301 -40 -7c-3.33301 -2.66699 -5 -8 -5 -16z" />
    <glyph glyph-name="plus" unicode="+" horiz-adv-x="490" 
d="M426 280l0.000976562 112.999c-3.33301 -3.33301 -9.33301 -10.333 -18 -21h-126v127c7.33301 2.66699 22 8.33398 44 17.001h-159c7.33301 -2 21.666 -6.33301 42.999 -13v-131h-125c-3.33301 4 -9.33301 12.333 -18 25v-118c2 4 6 11.333 12 22h131v-114l-29 -30h129
l-28 24v120h121c4 -3.33301 11.667 -10.333 23 -21z" />
    <glyph glyph-name="comma" unicode="," horiz-adv-x="249" 
d="M119 114c15.333 0 30 -11.332 44 -33.999c14.667 -23.333 22 -47.333 22 -72c0 -40 -15 -78.667 -45 -116c-24.667 -30.667 -45 -46 -61 -46c-6 0 -9 2.66699 -9 8c0 3.33301 2.66699 7 8 11c12 8 23 20.667 33 38c10 18 15 34 15 48c0 37.333 -18 66 -54 86
c-9.33301 5.33301 -14 11 -14 17c0 5.33301 3 10.666 9 15.999l22 19c2.66699 4 8.66699 11.333 18 22c2.66699 2 6.66699 3 12 3z" />
    <glyph glyph-name="hyphen" unicode="-" horiz-adv-x="341" 
d="M29 264l-6.99902 7.00098c10 25.333 18.667 49.666 26 72.999c48.667 -2.66699 89 -4 121 -4c26.667 0 75.667 1.33301 147 4c1.33301 -2 2.66602 -4.66699 3.99902 -8c-10.667 -25.333 -18.667 -49.333 -24 -72c-46 3.33301 -88 5 -126 5
c-43.333 0 -90.333 -1.66699 -141 -5z" />
    <glyph glyph-name="period" unicode="." horiz-adv-x="249" 
d="M127 118c5.33301 0 11.332 -6.33301 17.999 -19c5.33301 -8 14.333 -16.667 27 -26c12.667 -8.66699 19 -16.334 19 -23.001c0 -4.66699 -6.33301 -11 -19 -19c-12 -7.33301 -20.667 -15.666 -26 -24.999c-1.33301 -2.66699 -3.66602 -6.66699 -6.99902 -12
s-8.33301 -8 -15 -8c-5.33301 0 -12.333 6 -21 18c-7.33301 12 -16 21 -26 27c-11.333 7.33301 -17 14.333 -17 21c0 5.33301 5.33301 11.333 16 18c10.667 6 20.667 16 30 30c8 12 15 18 21 18z" />
    <glyph glyph-name="slash" unicode="/" horiz-adv-x="341" 
d="M197 395c7.33301 0 15.333 -7.66699 24 -23c6.66699 -10.667 17.667 -21.667 33 -33c16.667 -12 25 -21.667 25 -29c0 -6.66699 -7.66699 -15 -23 -25c-16 -10 -27.333 -21 -34 -33c-2 -3.33301 -5 -8 -9 -14c-4.66699 -7.33301 -11 -11 -19 -11
c-6.66699 0 -15.667 8 -27 24c-10 14.667 -21.333 26 -34 34c-14.667 9.33301 -22 18 -22 26c0 7.33301 7 15 21 23s26.667 20.667 38 38c10 15.333 19 23 27 23z" />
    <glyph glyph-name="zero" unicode="0" horiz-adv-x="512" 
d="M267 696c61.333 0 112.001 -32.332 152.001 -96.999s60 -147.334 60 -248.001c0 -105.333 -20.333 -192.333 -61 -261c-41.333 -69.333 -93 -104 -155 -104c-69.333 0 -125 29.333 -167 88c-41.333 58.667 -62 137.334 -62 236.001c0 62.667 9.66699 124 29 184
c19.333 59.333 45.666 106.666 78.999 141.999c36 40 77.667 60 125 60zM231.001 641.001c-41.333 0 -74.334 -23.333 -99.001 -70c-25.333 -46 -38 -107 -38 -183c0 -101.333 18.667 -187.333 56 -258c38 -70 83.667 -105 137 -105c44 0 78.667 24.333 104 73
s38 116 38 202c0 99.333 -18.667 181 -56 245s-84.666 96 -141.999 96z" />
    <glyph glyph-name="one" unicode="1" horiz-adv-x="512" 
d="M311 601v-487.999c0 -35.333 5.66699 -59.333 17 -72s33.666 -19 66.999 -19h9c5.33301 0 9.66602 -0.666992 12.999 -2c4 -2 6 -5.33301 6 -10c0 -6 -6.66699 -9 -20 -9h-26c-18 0.666992 -54.667 1 -110 1c-32 0 -56.333 -0.333008 -73 -1
c-16.667 -1.33301 -30 -2 -40 -2c-9.33301 0 -14 2.66699 -14 8c0 7.33301 5.33301 11.666 16 12.999c6 0 15.333 0.666992 28 2c35.333 2 53 22.667 53 62v467c0 21.333 -3 35.666 -9 42.999s-17.667 11 -35 11s-32.333 -3.66699 -45 -11c-6 -2.66699 -10.333 -4 -13 -4
c-5.33301 0 -8 2 -8 6v1c0.666992 13.333 19.334 25.333 56.001 36c40.667 12 78 32.333 112 61c6.66699 6 11.334 9 14.001 9c6.66699 0 10 -3.66699 10 -11c0 -5.33301 -1.33301 -12.666 -4 -21.999c-2.66699 -13.333 -4 -36.333 -4 -69z" />
    <glyph glyph-name="two" unicode="2" horiz-adv-x="512" 
d="M390 -1h-37c-8.66699 0.666992 -26.667 1.33398 -54 2.00098c-12.667 -0.666992 -37.667 -1 -75 -1h-95c-24.667 -1.33301 -43 -2 -55 -2c-8 0 -12 2.66699 -12 8s10.667 20.666 32 45.999c67.333 81.333 123 166.333 167 255c44 89.333 66 161.666 66 216.999
c0 36.667 -10 65.334 -30 86.001c-19.333 20.667 -46 31 -80 31c-45.333 0 -86.333 -17.667 -123 -53c-2.66699 -2.66699 -6.66699 -6.33398 -12 -11.001c-3.33301 -3.33301 -7 -5.33301 -11 -6c-6 0 -9 2.66699 -9 8v1c0.666992 12.667 13.334 31.334 38.001 56.001
c42 40 91.667 60 149 60c45.333 0 82.333 -13.333 111 -40c28.667 -26 43 -60 43 -102c0 -39.333 -14.667 -88.666 -44 -147.999c-32.667 -68.667 -71 -134.667 -115 -198l-58 -86c-2 -2.66699 -5.66699 -8.33398 -11 -17.001c-6.66699 -8.66699 -10 -15.667 -10 -21
c0 -12.667 40.333 -19 121 -19c43.333 0 76.666 4.33301 99.999 13c24 8.66699 42.333 23 55 43c6 9.33301 11.667 14 17 14c6 0.666992 9 -1 9 -5v-1c0 -3.33301 -1.33301 -7 -4 -11l-19 -31c-16 -28.667 -34 -58 -54 -88z" />
    <glyph glyph-name="three" unicode="3" horiz-adv-x="512" 
d="M288 412c45.333 0 81.998 -15.001 109.998 -45.001s42 -69.333 42 -118c0 -70.667 -25.667 -132 -77 -184c-51.333 -52.667 -111.666 -79 -180.999 -79c-30 0 -61 7 -93 21s-48 27.333 -48 40c0 6.66699 3 10 9 10c3.33301 0 13.666 -6 30.999 -18
c26.667 -18 57.667 -27 93 -27c52 0 96.333 19.667 133 59c36.667 40 55 88.667 55 146c0 44.667 -12.667 80 -38 106s-60 39 -104 39c-6.66699 0 -12 -0.333008 -16 -1c-7.33301 -0.666992 -12.666 -1 -15.999 -1c-7.33301 -0.666992 -11 3 -11 11
c0 3.33301 2.33301 6.33301 7 9c3.33301 1.33301 8 3.33301 14 6c36.667 18.667 66.667 42.667 90 72c24 30 36 58.333 36 85c0 28.667 -9.66699 52.334 -29 71.001c-19.333 18 -44 27 -74 27c-17.333 0 -36.333 -4.33301 -57 -13c-20 -8.66699 -37 -20 -51 -34
c-6.66699 -7.33301 -11.667 -11 -15 -11c-7.33301 0 -10.666 3.33301 -9.99902 10c0.666992 11.333 14 28 40 50c42 35.333 85.333 53 130 53c38.667 0 71 -11.333 97 -34c26.667 -22 40 -49 40 -81c0 -56 -35.667 -112.333 -107 -169z" />
    <glyph glyph-name="four" unicode="4" horiz-adv-x="512" 
d="M375 212c0.666992 -9.33301 1.00098 -28.998 1.00098 -58.998c0 -10 -0.333008 -30 -1 -60v-49c0 -12.667 0.666992 -37.334 2 -74.001c0 -9.33301 -1.66699 -16 -5 -20c-2 -4 -10 -7.33301 -24 -10c-6.66699 -1.33301 -13.334 -3.33301 -20.001 -6
c-6 -2.66699 -11 -4 -15 -4c-7.33301 0 -11 4.33301 -11 13v15v255h-22c-8 0 -23.333 0.333008 -46 1c-26.667 -0.666992 -79.667 -1.33398 -159 -2.00098c-12 0 -21 0.666992 -27 2c-12 0.666992 -18 6 -18 16c0 16.667 53 99.667 159 249s165.333 224 178 224
c0.666992 0.666992 1.33398 1 2.00098 1c4 -0.666992 6 -4.66699 6 -12c0.666992 -4.66699 1 -11.334 1 -20.001c0 -2.66699 -0.333008 -8.33398 -1 -17.001v-374h21c21.333 0 38.666 5.33301 51.999 16c2.66699 2.66699 7 6.33398 13 11.001
c3.33301 3.33301 6.66602 5 9.99902 5c6.66699 0 10 -4.33301 10 -13v-2l-10 -35l-8 -32c-2 -9.33301 -5 -14.666 -9 -15.999c-3.33301 -2 -14.666 -3 -33.999 -3h-45zM302.001 281.002v284.001c-42 -51.333 -78 -100 -108 -146l-67 -103
c-3.33301 -4.66699 -11 -16.334 -23 -35.001h198z" />
    <glyph glyph-name="five" unicode="5" horiz-adv-x="512" 
d="M145 444c32.667 5.33301 58.668 8 78.001 8c64.667 0 116.334 -18.333 155.001 -55c39.333 -36.667 59 -85.334 59 -146.001c0 -61.333 -21.667 -118 -65 -170c-53.333 -63.333 -121 -95 -203 -95c-28.667 0 -59 5 -91 15c-32.667 9.33301 -49 18.333 -49 27
c0 6.66699 3.33301 10 10 10c2.66699 0.666992 6.33398 -0.333008 11.001 -3c31.333 -14.667 65.666 -22 102.999 -22c58.667 0 107.667 20.333 147 61s59 91.667 59 153c0 49.333 -15.333 88 -46 116c-30 28 -71.667 42 -125 42c-19.333 0 -35 -1.66699 -47 -5
c-8.66699 -2 -15.334 -3 -20.001 -3c-5.33301 0 -10 2 -14 6c-4.66699 4.66699 -7 9.33398 -7 14.001c1.33301 3.33301 2.66602 8.33301 3.99902 15c0.666992 4.66699 2.33398 13 5.00098 25l44 202c0.666992 4 2 11.333 4 22c2.66699 15.333 11.667 23 27 23h179
c25.333 0 43.666 5.66699 54.999 17l10 10c4 4 8 6.33301 12 7h1c4.66699 -0.666992 7.33398 -3.66699 8.00098 -9v-1c-0.666992 -4.66699 -3 -11 -7 -19c-6 -12 -14.333 -29.667 -25 -53c-9.33301 -18 -27 -27 -53 -27h-149h-14c-2.66699 -1.33301 -9 -4 -19 -8
c-4.66699 -6.66699 -9.33398 -20 -14.001 -40z" />
    <glyph glyph-name="six" unicode="6" horiz-adv-x="512" 
d="M134 366c52 46 101.667 68.998 149 68.998c52.667 0 97 -20.333 133 -61c36.667 -41.333 55 -91.666 55 -150.999c0 -66 -19.333 -122 -58 -168c-38 -46 -85 -69 -141 -69c-66.667 0 -121.334 26.333 -164.001 79c-42.667 52 -64 118.667 -64 200c0 60 15.333 121 46 183
c30 62.667 70.667 117.334 122 164.001c28 24.667 62 46.667 102 66c40.667 20 72.334 30 95.001 30c10.667 0 16 -3.66699 16 -11c0.666992 -6 -4.33301 -10.333 -15 -13c-73.333 -22.667 -134 -62.667 -182 -120c-50 -60.667 -81.333 -126.667 -94 -198zM247 392.998
c-37.333 0 -66.668 -13.333 -88.001 -40c-22 -26.667 -33 -62 -33 -106c0 -62.667 16 -117 48 -163c31.333 -46 68.333 -69 111 -69c36.667 0 66.334 14 89.001 42c23.333 28.667 35 66 35 112c0 62.667 -15.667 115.667 -47 159c-32 43.333 -70.333 65 -115 65z" />
    <glyph glyph-name="seven" unicode="7" horiz-adv-x="512" 
d="M386 609l-173.999 -0.00488281c-37.333 0 -64.333 -5 -81 -15c-16.667 -10.667 -28 -29.667 -34 -57c-2.66699 -10.667 -6.66699 -16 -12 -16c-9.33301 0 -14 7 -14 21c0 10.667 1.33301 21.334 4 32.001c2 10.667 5.33301 27 10 49c1.33301 7.33301 4.33301 22.333 9 45
c2.66699 12 8.66699 18 18 18c6.66699 0 14.334 -0.666992 23.001 -2c10.667 -1.33301 27 -2 49 -2h175c4 0.666992 12.667 1 26 1c3.33301 0 9.66602 0.333008 18.999 1c11.333 0 19 -2 23 -6s6 -11.333 6 -22c0 -44 -24.333 -128 -73 -252
c-58 -147.333 -87 -261.666 -87 -342.999c0 -27.333 5.33301 -51.666 16 -72.999c4 -8 6 -13.333 6 -16c0 -6 -7.66699 -12 -23 -18c-14.667 -5.33301 -29.334 -8 -44.001 -8c-14 0 -23.667 6.66699 -29 20c-5.33301 12.667 -8 35 -8 67c0 40.667 8 84.334 24 131.001
c16 46 48.667 120.667 98 224c48.667 104.667 73 178.334 73 221.001z" />
    <glyph glyph-name="eight" unicode="8" horiz-adv-x="512" 
d="M322 387c94 -42.667 141 -106.336 141 -191.003c0 -60.667 -19.667 -110.667 -59 -150c-39.333 -40 -88.666 -60 -147.999 -60c-60 0 -109.667 18.667 -149 56c-38.667 36.667 -58 83.667 -58 141c0 40.667 9.33301 75 28 103c18.667 28.667 50.667 56.334 96 83.001
c-64.667 37.333 -97 87.333 -97 150c0 50 18 92 54 126c35.333 34 79.333 51 132 51c49.333 0 90.666 -15 123.999 -45c33.333 -29.333 50 -65.666 50 -108.999c0 -34 -9.66699 -64.333 -29 -91c-20 -27.333 -48.333 -48.666 -85 -63.999zM247 665.998
c-33.333 0 -61.3311 -11 -83.998 -33s-34 -49.333 -34 -82c0 -48.667 22.333 -86 67 -112c31.333 -18 60.666 -27 87.999 -27c29.333 0 53.666 10.667 72.999 32c18.667 21.333 28 49 28 83c0 40.667 -12.667 74 -38 100c-26 26 -59.333 39 -100 39zM207.002 352.998
c-72.667 -31.333 -109 -82.332 -109 -152.999c0 -50.667 16.667 -94 50 -130c32.667 -36.667 71.667 -55 117 -55c41.333 0 75 13.667 101 41c26.667 27.333 40 61.666 40 102.999c0 40 -15 75.333 -45 106c-22 23.333 -65.333 49.333 -130 78
c-5.33301 2 -13.333 5.33301 -24 10z" />
    <glyph glyph-name="nine" unicode="9" horiz-adv-x="512" 
d="M374 308c-10 -6.66699 -17.3301 -11.999 -21.9971 -15.999c-42 -31.333 -83.667 -47 -125 -47c-51.333 0 -95.333 20.333 -132 61c-36 40.667 -54 90.334 -54 149.001c0 68.667 19.667 126 59 172s88.333 69 147 69c62 0 114.333 -26 157 -78c42 -52 63 -117 63 -195
c0 -58.667 -13 -117.334 -39 -176.001c-26.667 -58.667 -63.334 -111 -110.001 -157c-36.667 -35.333 -75.334 -63.333 -116.001 -84c-40 -21.333 -75.667 -32 -107 -32c-11.333 0 -17 3.66699 -17 11c0 6.66699 5.66699 11.334 17 14.001
c5.33301 1.33301 13.333 3.66602 24 6.99902c29.333 7.33301 60.666 23.333 93.999 48c33.333 25.333 62 54.666 86 87.999c34 46.667 59 102 75 166zM225.003 665.001c-35.333 0 -64.333 -14.334 -87 -43.001c-22 -29.333 -33 -66.333 -33 -111
c0 -62.667 15.333 -115.667 46 -159c31.333 -43.333 69.333 -65 114 -65c37.333 0 67 13.333 89 40c21.333 26.667 32 63.667 32 111c0 62.667 -15.667 116.334 -47 161.001c-31.333 44 -69.333 66 -114 66z" />
    <glyph glyph-name="colon" unicode=":" horiz-adv-x="249" 
d="M127 361c5.33301 0 11.332 -6.33203 17.999 -18.999c5.33301 -8.66699 14.333 -17.334 27 -26.001s19 -16 19 -22c0 -5.33301 -6.33301 -12 -19 -20c-12 -7.33301 -20.667 -15.666 -26 -24.999c-1.33301 -2.66699 -3.66602 -6.33398 -6.99902 -11.001
c-3.33301 -6 -8.33301 -9 -15 -9c-5.33301 0 -12.333 6 -21 18c-7.33301 12 -16 21 -26 27c-11.333 7.33301 -17 14.333 -17 21c0 5.33301 5.33301 11.333 16 18c10.667 6 20.667 16 30 30c8 12 15 18 21 18zM126.999 118.001c5.33301 0 11.332 -6.33398 17.999 -19.001
c5.33301 -8 14.333 -16.667 27 -26c12.667 -8.66699 19 -16.334 19 -23.001c0 -5.33301 -6.33301 -11.666 -19 -18.999c-12 -7.33301 -20.667 -15.666 -26 -24.999c-1.33301 -2.66699 -3.66602 -6.66699 -6.99902 -12s-8.33301 -8 -15 -8c-5.33301 0 -12.333 6 -21 18
c-7.33301 12 -16 21 -26 27c-11.333 7.33301 -17 14.333 -17 21c0 5.33301 5.33301 11.333 16 18c10.667 6 20.667 16 30 30c8 12 15 18 21 18z" />
    <glyph glyph-name="less" unicode="&#x3c;" horiz-adv-x="574" 
d="M401 659l-56 -0.00195312c-6 0 -9.66699 -0.666992 -11 -2c-1.33301 -2 -2 -6 -2 -12v-196v-8c0.666992 -15.333 9.33398 -24.333 26.001 -27c4.66699 -1.33301 7 -3 7 -5c0 -2.66699 -2 -4 -6 -4c-1.33301 0 -4.33301 0.333008 -9 1h-18
c-3.33301 0 -8.33301 0.333008 -15 1c-2.66699 -0.666992 -8 -1 -16 -1h-14c-7.33301 -0.666992 -11.666 -1 -12.999 -1c-4 0 -6 1.33301 -6 4c0 2 2 3.33301 6 4c10.667 1.33301 17.667 4 21 8c4 4.66699 6 12.667 6 24v198c0 0.666992 -0.333008 2.33398 -1 5.00098
c0 4.66699 -0.666992 7.66699 -2 9s-4.33301 2 -9 2h-53c-11.333 0 -19.333 -2 -24 -6c-4.66699 -4.66699 -8.33398 -13 -11.001 -25c-1.33301 -5.33301 -3.33301 -7.66602 -6 -6.99902c-2 0 -3 1.66699 -3 5c0 2.66699 0.666992 7.66699 2 15c2 10 3 18 3 24
s0.666992 10 2 12s4.33301 3 9 3h215c7.33301 0 12 -0.666992 14 -2c1.33301 -2 2 -6.66699 2 -14c0 -8 0.333008 -14 1 -18s1 -7 1 -9c0 -4 -1.33301 -6.33301 -4 -7c-2.66699 0 -4.33398 2 -5.00098 6c-1.33301 10 -4 16.333 -8 19s-11.667 4 -23 4zM97 679.998
c13.333 0 24.998 -2 34.998 -6c2.66699 -1.33301 7 -3.33301 13 -6c1.33301 -0.666992 2.33301 -1 3 -1c2 0 3.66699 0.666992 5 2c0.666992 0.666992 1.66699 1.33398 3 2.00098c0 0.666992 0.666992 1 2 1c3.33301 0 5 -3 5 -9c0 -2.66699 0.666992 -9.33398 2 -20.001
c0.666992 -4 1.66699 -10.667 3 -20c0.666992 -4 1 -6.66699 1 -8c0 -4 -1.33301 -6 -4 -6c-2 0 -4 3.33301 -6 10c-4.66699 14 -14 25.333 -28 34c-14.667 9.33301 -30.667 14 -48 14c-14 0 -25.667 -4.33301 -35 -13c-9.33301 -8 -14 -18 -14 -30
c0 -11.333 3 -20.666 9 -27.999c5.33301 -6.66699 11 -11.667 17 -15c6.66699 -3.33301 22.334 -9 47.001 -17c47.333 -15.333 71 -41 71 -77c0 -24 -8.66699 -43.667 -26 -59s-40 -23 -68 -23c-10 0 -21 1.33301 -33 4c-11.333 2.66699 -20 6 -26 10
c-2 1.33301 -3.33301 3 -4 5c-1.33301 2 -2.66602 6.33301 -3.99902 13c0 1.33301 -1.66699 7.33301 -5 18c-3.33301 11.333 -5 19.666 -5 24.999c0 4 1.33301 5.66699 4 5c2.66699 0 4.66699 -3 6 -9c4.66699 -16 14.667 -29.333 30 -40c14.667 -11.333 31 -17 49 -17
c17.333 0 32.333 5.33301 45 16c12 10.667 18 23.334 18 38.001s-5.66699 26.667 -17 36c-6 5.33301 -22.667 12.666 -50 21.999c-28.667 9.33301 -49 20 -61 32s-18 27.333 -18 46c0 20.667 7.66699 37.667 23 51c16 13.333 36.333 20 61 20z" />
    <glyph glyph-name="greater" unicode="&#x3e;" horiz-adv-x="574" 
d="M334 637c0 13.333 -1.99805 23 -5.99805 29c-4.66699 6.66699 -12.334 10.334 -23.001 11.001c-4 0.666992 -6 2 -6 4c0 2.66699 1.66699 4 5 4h15c2 -0.666992 6.66699 -1 14 -1c13.333 0 23.666 0.333008 30.999 1c4.66699 0.666992 11 1.33398 19 2.00098
s16.667 1 26 1c54 0 94.667 -13.667 122 -41c24.667 -24.667 37 -56.334 37 -95.001c0 -24.667 -5.33301 -47.667 -16 -69c-10.667 -20.667 -25.667 -37 -45 -49c-24.667 -15.333 -51.334 -23 -80.001 -23c-3.33301 0 -9.33301 0.333008 -18 1c-18 1.33301 -33.667 2 -47 2
c-14 0 -26 -0.666992 -36 -2c-5.33301 -0.666992 -9.33301 -1.33398 -12 -2.00098c-4.66699 0 -7 1.66699 -7 5c0 2 2 3.66699 6 5c8.66699 1.33301 14.334 4.33301 17.001 9c2.66699 5.33301 4 15.333 4 30v178zM359.002 653v-203.999c0 -8 4 -13.667 12 -17
c7.33301 -2.66699 16.333 -5 27 -7s20 -3 28 -3c22.667 0 43 5.66699 61 17c30.667 19.333 46 51.666 46 96.999c0 25.333 -5 48.333 -15 69c-9.33301 20.667 -22.333 37 -39 49c-20.667 14.667 -45.667 22 -75 22c-20.667 0 -34 -2.33301 -40 -7
c-3.33301 -2.66699 -5 -8 -5 -16zM261.002 609.001l0.000976562 -167c0 -15.333 -0.333008 -24.333 -1 -27c-0.666992 -3.33301 -2.33398 -5 -5.00098 -5c-2 0 -3.66699 0.666992 -5 2c-0.666992 0.666992 -2 2.33398 -4 5.00098l-168 192l-2 2
c-0.666992 0.666992 -1.66699 1 -3 1c-2.66699 0 -4 -3 -4 -9v-135v-8c0 -2.66699 0.333008 -7.33398 1 -14.001c0.666992 -8.66699 2.66699 -14.667 6 -18c4 -3.33301 11.333 -6 22 -8c4 -0.666992 6 -2.33398 6 -5.00098s-1.33301 -4 -4 -4h-6
c-1.33301 0.666992 -7 1.33398 -17 2.00098c-4.66699 0 -11.667 0.333008 -21 1c-1.33301 0 -4.33301 -0.333008 -9 -1c-5.33301 0 -10.333 -0.333008 -15 -1c-3.33301 -0.666992 -5.66602 -1 -6.99902 -1c-4 0 -6 1.33301 -6 4c0 2 2 3.66699 6 5
c10.667 4 18 9.33301 22 16c4 6 6 16.333 6 31v135c0 23.333 -3.66699 41.666 -11 54.999s-18 20.666 -32 21.999c-3.33301 0.666992 -5 2.33398 -5 5.00098s1.33301 4 4 4h4c1.33301 -0.666992 4 -1 8 -1h13h3h8c3.33301 0 6.66602 -1.66699 9.99902 -5l183 -208
c3.33301 -3.33301 5.33301 -5 6 -5c1.33301 0 2 1.33301 2 4v99v26c0 8 -0.666992 23.333 -2 46c-1.33301 11.333 -4.66602 19.333 -9.99902 24s-15 8.33398 -29 11.001c-3.33301 0.666992 -5 2.33398 -5 5.00098s1.66699 4 5 4c2 0 5 -0.333008 9 -1
c9.33301 -1.33301 21.666 -2 36.999 -2c8 0 14.333 0.666992 19 2c4.66699 0.666992 8 1 10 1c3.33301 0 5.33301 -1.33301 6 -4c0 -2 -1.33301 -3.33301 -4 -4c-8 -2 -13.333 -5.33301 -16 -10s-4 -13.334 -4 -26.001v-22c0 -2 -0.333008 -6.33301 -1 -13z" />
    <glyph glyph-name="question" unicode="?" horiz-adv-x="302" 
d="M108 658c-18 0 -31.3311 -5 -39.998 -15c-1.33301 -2 -3.66602 -5 -6.99902 -9c-2.66699 -2.66699 -5.66699 -4 -9 -4c-6.66699 0 -10.334 3 -11.001 9v1c1.33301 13.333 13 26 35 38c21.333 12.667 43.666 19 66.999 19c35.333 0 64.333 -10.667 87 -32
c23.333 -21.333 35 -48 35 -80c0 -36.667 -17.667 -78 -53 -124c-4.66699 -6.66699 -12.334 -16.667 -23.001 -30c-41.333 -55.333 -62 -103.333 -62 -144c0 -10.667 1.33301 -21.334 4 -32.001c2 -7.33301 3 -12.666 3 -15.999c0 -5.33301 -2.33301 -8 -7 -8
c-7.33301 0.666992 -13.333 8.66699 -18 24c-5.33301 15.333 -8 32.333 -8 51c0 31.333 13.333 75.333 40 132c32.667 69.333 49 117 49 143c0 21.333 -8 39.333 -24 54c-16 15.333 -35.333 23 -58 23zM121.002 118c5.33301 0 11.666 -6.66797 18.999 -20.001
c5.33301 -8 14 -16.333 26 -25c12.667 -8.66699 19 -16.334 19 -23.001c0 -5.33301 -6 -11.666 -18 -18.999s-21 -15.666 -27 -24.999l-6 -12c-3.33301 -5.33301 -8.33301 -8 -15 -8c-5.33301 0 -12.333 6 -21 18c-7.33301 12 -16.333 21 -27 27
c-11.333 7.33301 -17 14.333 -17 21c0 5.33301 5.66699 11.333 17 18c10.667 6 20.334 16 29.001 30c8 12 15 18 21 18z" />
    <glyph glyph-name="at" unicode="@" horiz-adv-x="761" 
d="M466 244c-54 -65.333 -108.671 -98 -164.004 -98c-21.333 0 -38.666 7.66699 -51.999 23c-13.333 16 -20 36.667 -20 62c0 53.333 20 110 60 170c52 78.667 109.667 118 173 118c14 0 30.667 -2.66699 50 -8c6.66699 -2 12.334 -3 17.001 -3
c6.66699 0 14.334 4.66699 23.001 14c2 2.66699 5 6 9 10c5.33301 5.33301 9.66602 8 12.999 8c5.33301 0 8 -2.66699 8 -8c-0.666992 -3.33301 -1.66699 -7 -3 -11c-0.666992 -4.66699 -2.33398 -11.334 -5.00098 -20.001c-34 -120 -51 -208.333 -51 -265
c0 -35.333 10 -53 30 -53c34.667 0 66.334 23.667 95.001 71c28 46.667 42 98 42 154c0 75.333 -24.333 136.666 -73 183.999s-111.667 71 -189 71c-88 0 -162.667 -33.667 -224 -101c-61.333 -68 -92 -151 -92 -249c0 -90 26.333 -161.333 79 -214s124.334 -79 215.001 -79
c76.667 0 149 15.333 217 46l12 -32c-70.667 -31.333 -148 -47 -232 -47c-126 0 -223 39.667 -291 119c-51.333 61.333 -77 133 -77 215c0 102.667 38.667 190.667 116 264s170 110 278 110c90.667 0 165.334 -26.667 224.001 -80c59.333 -53.333 89 -121.666 89 -204.999
c0 -98 -40.333 -174.667 -121 -230c-33.333 -22.667 -65 -34 -95 -34c-41.333 0 -62 27 -62 81c0 2.66699 0.333008 8.33398 1 17.001zM460.996 497c-30.667 0 -61.334 -17.668 -92.001 -53.001c-20 -24.667 -37.667 -56 -53 -94c-16 -38 -24 -70.333 -24 -97
c0 -40 17.667 -60 53 -60c26.667 0 53.667 13.333 81 40s44 55.334 50 86.001c2 12.667 3.66699 22.334 5 29.001c2.66699 8.66699 6.33398 22 11.001 40c7.33301 30 12.333 49.667 15 59c2.66699 8.66699 4 16 4 22c0 7.33301 -5 13.666 -15 18.999c-10 6 -21.667 9 -35 9z
" />
    <glyph glyph-name="A" unicode="A" horiz-adv-x="684" 
d="M410 262h-179.999c-24.667 0 -40 -2.33301 -46 -7c-6 -4 -14.333 -17.333 -25 -40c-6.66699 -16 -17.334 -40.333 -32.001 -73c-14.667 -33.333 -22 -58.333 -22 -75c0 -15.333 4 -26.666 12 -33.999c8 -6.66699 23.333 -12.667 46 -18c10 -2 15 -6 15 -12
c0.666992 -6 -4 -9 -14 -9c-3.33301 0 -8.66602 0.333008 -15.999 1l-48 3c-16 0.666992 -34.667 1 -56 1c-9.33301 0 -16.666 -0.333008 -21.999 -1c-17.333 -1.33301 -27 -2 -29 -2c-8.66699 0 -13 3 -13 9c0 5.33301 2.66699 8.66602 8 9.99902
c4.66699 1.33301 11 3.33301 19 6c6.66699 2 15.667 10 27 24s20.666 28.667 27.999 44c3.33301 7.33301 8 18.333 14 33l258 571c4 10 8.66699 15 14 15s9.66602 -4.66699 12.999 -14l216 -551c1.33301 -4 5 -13 11 -27c15.333 -40 28 -65 38 -75
c10.667 -10 31.667 -17.667 63 -23c10 -2 15.333 -6 16 -12v0c-0.666992 -6 -5.66699 -9 -15 -9c-2.66699 0 -9 0.333008 -19 1c-16.667 2 -47.334 3 -92.001 3c-46 0 -75 -1 -87 -3c-7.33301 -1.33301 -12.666 -2 -15.999 -2c-8.66699 0 -13 3.33301 -13 10
c0 5.33301 4.33301 9 13 11c3.33301 0.666992 8.66602 1.66699 15.999 3c16 3.33301 24 14.666 24 33.999c0 18 -10 53 -30 105l-25 66c-7.33301 18.667 -12.666 29.334 -15.999 32.001c-4 3.33301 -15.667 5 -35 5zM417.001 342l-78.999 198
c-0.666992 1.33301 -2 4.66602 -4 9.99902c-4 10.667 -8.33301 16.334 -13 17.001c-2 0 -4.66699 -3.33301 -8 -10l-98 -217c-4 -8.66699 -6 -14.667 -6 -18c0 -8.66699 7.66699 -13 23 -13c3.33301 0 8 -0.333008 14 -1h150c17.333 0 26 4.33301 26 13
c0 2 -1 5.66699 -3 11c-0.666992 2 -1.33398 5.33301 -2.00098 10z" />
    <glyph glyph-name="B" unicode="B" horiz-adv-x="618" 
d="M129 151l-0.000976562 385.997c0 44 -6.33301 76.333 -19 97c-13.333 20.667 -33.666 31 -60.999 31c-13.333 0 -20 3.66699 -20 11c0 8 6.66699 12 20 12c2.66699 0 11 -0.333008 25 -1c10 -0.666992 24 -1 42 -1c24.667 0 43.667 0.333008 57 1l56 3
c17.333 1.33301 34 2 50 2c74 0 132 -14.667 174 -44s63 -69.666 63 -120.999c0 -53.333 -22 -94.333 -66 -123l-22 -16c-4.66699 -2.66699 -6.66699 -5 -6 -7c0 -3.33301 8.33301 -7 25 -11c37.333 -8 67.666 -28 90.999 -60c24 -31.333 36 -67.666 36 -108.999
c0 -60.667 -22.667 -111 -68 -151s-102.666 -60 -171.999 -60c-8.66699 0.666992 -21.667 1 -39 1c-8 0.666992 -23.333 1.33398 -46 2.00098c-7.33301 0.666992 -21 1.66699 -41 3c-26.667 2 -47.667 3 -63 3c-16 0 -29.333 -1 -40 -3c-16 -2 -27.333 -3 -34 -3
c-9.33301 0 -14 3.66699 -14 11c0 6 4.66699 9.66699 14 11c28.667 4 45.667 19.667 51 47c4.66699 24 7 53.667 7 89zM239.999 384.997h82c84 0 126 37.667 126 113c0 46.667 -18 85.667 -54 117c-35.333 32 -79 48 -131 48c-23.333 0 -38.666 -3.33301 -45.999 -10
c-7.33301 -6 -11 -19.667 -11 -41v-200c0 -12 2 -19.333 6 -22c3.33301 -3.33301 12.666 -5 27.999 -5zM232.999 349.997c-12 0 -19.332 -0.999023 -21.999 -2.99902c-3.33301 -2.66699 -5 -8 -5 -16v-231c0 -4 -0.333008 -11.667 -1 -23
c0.666992 -3.33301 1.66699 -10 3 -20c4.66699 -14 16.667 -24 36 -30c19.333 -6.66699 49.666 -10 90.999 -10c52 0 92.333 14 121 42c29.333 27.333 44 65.666 44 114.999c0 50.667 -16 92.667 -48 126s-72 50 -120 50h-99z" />
    <glyph glyph-name="C" unicode="C" horiz-adv-x="727" 
d="M663 625l16 -119.997c0 -2.66699 0.333008 -7 1 -13c0 -0.666992 -0.333008 -2.33398 -1 -5.00098c-2 -3.33301 -4.66699 -5 -8 -5c-4 -0.666992 -10 6.33301 -18 21c-62.667 109.333 -147.334 164 -254.001 164c-84.667 0 -151.667 -26 -201 -78
c-48.667 -52.667 -73 -124.334 -73 -215.001c0 -104.667 27.333 -190 82 -256s124.667 -99 210 -99c50 0 99.333 13.333 148 40c48 26.667 81.333 59 100 97c8.66699 18 15.334 27 20.001 27c5.33301 0 8 -3 8 -9c0 -1.33301 -0.333008 -3.33301 -1 -6
c0 -2 -0.666992 -5.66699 -2 -11c-1.33301 -10 -5 -30.333 -11 -61c-0.666992 -1.33301 -1.33398 -4.33301 -2.00098 -9c-1.33301 -8.66699 -9 -17.667 -23 -27c-77.333 -49.333 -162.333 -74 -255 -74c-107.333 0 -193.666 32 -258.999 96c-66 63.333 -99 147.333 -99 252
c0 103.333 34 189.666 102 258.999c68 68.667 153.333 103 256 103c70.667 0 135.334 -15.667 194.001 -47l20 -11l8 -4c1.33301 0 4.33301 -1 9 -3c1.33301 0 3.66602 1.66699 6.99902 5c7.33301 5.33301 12.333 8 15 8c5.33301 0 9 -6.33301 11 -19z" />
    <glyph glyph-name="D" unicode="D" horiz-adv-x="760" 
d="M130 563c0 34 -5.66699 58.6709 -17 74.0039s-30 24.666 -56 27.999c-11.333 0.666992 -17 4 -17 10c0 6.66699 4.33301 10 13 10c8.66699 -0.666992 21.667 -1.33398 39 -2.00098c4 -0.666992 15.667 -1 35 -1c34 0 60.333 1 79 3c10.667 0.666992 26 2 46 4
s42.333 3 67 3c136.667 0 239 -34.333 307 -103c62 -62.667 93 -143 93 -241c0 -62.667 -13.667 -120.334 -41 -173.001c-26.667 -52.667 -64.667 -94.334 -114 -125.001c-60.667 -38 -127.334 -57 -200.001 -57c-8.66699 0 -24 1 -46 3c-45.333 2.66699 -84.333 4 -117 4
c-35.333 0 -66.333 -2 -93 -6c-12 -1.33301 -21.667 -2.33301 -29 -3h-3c-9.33301 0.666992 -14 4.66699 -14 12c0 6 4.66699 10 14 12c22.667 4.66699 37.334 12.667 44.001 24c6.66699 12 10 36.667 10 74v450zM207 604.004l0.000976562 -516.001
c0 -20.667 10 -34.667 30 -42c17.333 -6.66699 40 -12.667 68 -18c27.333 -4.66699 50.666 -7 69.999 -7c56.667 0 108 14.333 154 43c76.667 48 115 129.667 115 245c0 62.667 -12 120.334 -36 173.001s-57.333 94 -100 124c-51.333 37.333 -114 56 -188 56
c-52.667 0 -86 -6 -100 -18c-8.66699 -6.66699 -13 -20 -13 -40z" />
    <glyph glyph-name="E" unicode="E" horiz-adv-x="599" 
d="M206 604l0.00195312 -201c0 -15.333 1.33301 -24.666 4 -27.999c3.33301 -3.33301 12 -5 26 -5h77c35.333 0 63 2.33301 83 7c18 3.33301 29.667 8 35 14s10.333 20 15 42c1.33301 8.66699 5.33301 12.667 12 12s10 -5.33398 10 -14.001c0 -2 -0.333008 -5.66699 -1 -11
c-2.66699 -32 -4 -61.333 -4 -88c0 -20 1 -40.333 3 -61c0.666992 -6 1 -10.667 1 -14c0 -8.66699 -3.33301 -13 -10 -13s-10.667 3.66699 -12 11l-3 15c-4 22 -12 37 -24 45s-32.333 12 -61 12h-110c-16.667 0 -27.667 -1.66699 -33 -5s-8 -10 -8 -20v-16v-184
c0 -28.667 5 -46.334 15 -53.001c10 -7.33301 35.667 -11 77 -11c131.333 0 215.666 29.667 252.999 89c3.33301 5.33301 7 8 11 8c6 0.666992 9 -3.66602 9 -12.999c0 -21.333 -12 -47 -36 -77c-30 -36 -67.333 -54 -112 -54c-9.33301 0 -22 0.666992 -38 2
c-64 6 -117 9 -159 9c-58 0 -99 -2 -123 -6c-12.667 -2 -21.334 -3 -26.001 -3c-10.667 0 -16 3.66699 -16 11c0 5.33301 4.33301 9 13 11c4 1.33301 10.333 3.33301 19 6c24 6.66699 36 30 36 70v33v422c0 47.333 -5 79.333 -15 96c-10.667 16.667 -31.334 25 -62.001 25
c-9.33301 0 -14 3 -14 9c0 9.33301 7.33301 14 22 14c8.66699 0 20 -0.666992 34 -2c48 -5.33301 105.333 -8 172 -8c40.667 0 76.667 0.666992 108 2c16 0.666992 39.667 2 71 4c19.333 0.666992 31.333 1 36 1c9.33301 1.33301 16 2 20 2c11.333 0 17 -4.66699 17 -14
c0 -2.66699 -0.666992 -6.66699 -2 -12c-1.33301 -4 -2.66602 -17.333 -3.99902 -40c-0.666992 -6 -1.33398 -15.667 -2.00098 -29c-1.33301 -19.333 -3 -31.333 -5 -36c-1.33301 -4.66699 -5 -7.33398 -11 -8.00098c-6.66699 0 -10 5 -10 15v13c0 10.667 -1.66699 21 -5 31
c-6.66699 14.667 -19.667 24.334 -39 29.001c-19.333 5.33301 -54.666 8 -105.999 8h-79c-20.667 0 -34 -2.66699 -40 -8c-6 -4.66699 -9 -16 -9 -34z" />
    <glyph glyph-name="F" unicode="F" horiz-adv-x="530" 
d="M207 607l0.00195312 -197.999v-10v-13c1.33301 -8.66699 11 -13 29 -13c9.33301 0 23.666 -0.333008 42.999 -1h16c10 0.666992 29.667 1.33398 59 2.00098c31.333 0 54 4.33301 68 13c13.333 9.33301 22 25 26 47c1.33301 8.66699 4.66602 13 9.99902 13
c6.66699 0 9.33398 -5.33301 8.00098 -16l-3 -49v-31c0 -39.333 0.666992 -64.333 2 -75c0.666992 -6 1 -10.333 1 -13c0 -8.66699 -3 -13 -9 -13c-6.66699 0 -11.667 8.33301 -15 25c-4 18 -8.33301 30 -13 36c-4.66699 6.66699 -12.334 11 -23.001 13
c-22.667 6 -55.667 9 -99 9c-40 0 -66 -1 -78 -3c-11.333 -1.33301 -18 -5 -20 -11c-1.33301 -6 -2 -16 -2 -30v-186c0 -26 7 -46.667 21 -62c14 -16 32.667 -24 56 -24c12 0 18 -3.33301 18 -10c0.666992 -7.33301 -4.33301 -11 -15 -11c-7.33301 0 -17.333 0.666992 -30 2
c-11.333 0.666992 -28 1 -50 1c-7.33301 0.666992 -18.666 1 -33.999 1c-6.66699 0 -19.334 -0.333008 -38.001 -1c-8.66699 0 -20.334 -0.333008 -35.001 -1c-11.333 -1.33301 -19.666 -2 -24.999 -2c-10 0 -15 3 -15 9c0 5.33301 5.33301 9.33301 16 12
c21.333 4 36 12.667 44 26c7.33301 13.333 11 36.666 11 69.999v450c0 31.333 -5 55.666 -15 72.999c-7.33301 11.333 -15 19 -23 23s-21.667 7 -41 9c-8 0 -12.333 2.66699 -13 8v2c0 7.33301 7 11 21 11c4 0 14 -0.666992 30 -2c30 -3.33301 80.333 -5 151 -5
c62.667 0 103 0.666992 121 2l70 3c30 1.33301 49.333 3 58 5c6.66699 1.33301 12 2 16 2c8 0 12 -4 12 -12c0 -4 -1 -9.33301 -3 -16c-6 -22 -9 -51 -9 -87c0 -15.333 -4 -23 -12 -23c-5.33301 0 -8.33301 4.33301 -9 13c-0.666992 10 -2.66699 20.333 -6 31
c-4 16.667 -9.33301 27.667 -16 33c-6 4.66699 -20.333 8 -43 10l-59 6c-18.667 2 -42.334 3 -71.001 3c-37.333 0 -60.666 -2.66699 -69.999 -8c-8.66699 -4.66699 -13 -17 -13 -37z" />
    <glyph glyph-name="G" unicode="G" horiz-adv-x="772" 
d="M607 167v113c0 20.667 -4.33301 34.667 -13 42c-9.33301 6.66699 -27.333 11 -54 13c-12.667 1.33301 -19 5.66602 -19 12.999c-0.666992 6.66699 4.66602 10 15.999 10h21c6 -0.666992 18.333 -1 37 -1c51.333 0 81 0.333008 89 1c23.333 2 36.666 3 39.999 3
c8 0 12 -3.33301 12 -10c0 -5.33301 -5 -9.66602 -15 -12.999c-25.333 -6 -38 -24 -38 -54c0 -4 0.333008 -9.33301 1 -16v-160v-16c0 -1.33301 -1 -4 -3 -8c-1.33301 -2 -6 -3.33301 -14 -4c-8.66699 -1.33301 -22.667 -7.33301 -42 -18c-7.33301 -4 -18 -10.667 -32 -20
c-65.333 -37.333 -135.333 -56 -210 -56c-100 0 -182 32 -246 96s-96 146.333 -96 247c0 104.667 34 192 102 262c67.333 70 152.333 105 255 105c39.333 0 81 -5.66699 125 -17s79 -25.666 105 -42.999c4 -2 7 -3 9 -3c2.66699 0 6 1 10 3
c2.66699 2 6.33398 5.33301 11.001 10c2.66699 2 5 3 7 3c6 0 9 -8 9 -24c0 -7.33301 1.33301 -18.666 4 -33.999c0.666992 -10.667 2 -26.334 4 -47.001c2 -12.667 4.33301 -25.334 7 -38.001c2 -6 3 -10.667 3 -14c0 -8.66699 -3.33301 -13 -10 -13
c-4 0 -7.66699 2.66699 -11 8c-26 53.333 -66 97 -120 131c-54 33.333 -111 50 -171 50c-76 0 -137.667 -28.667 -185 -86c-47.333 -58 -71 -132.333 -71 -223c0 -96.667 27.333 -178 82 -244c54.667 -65.333 122.334 -98 203.001 -98c78 0 138.667 27.333 182 82
c10.667 13.333 16 36 16 68z" />
    <glyph glyph-name="H" unicode="H" horiz-adv-x="784" 
d="M249 374l294.998 -0.000976562c14.667 0 24 1.33301 28 4s6 8.66699 6 18v170c0 34 -4.33301 58.333 -13 73c-9.33301 14 -25.666 23.667 -48.999 29c-10 2 -14.667 6.33301 -14 13c0 5.33301 4 8 12 8c6.66699 0 18 -0.666992 34 -2c22 -2.66699 45.333 -4 70 -4
c35.333 0 60.333 1 75 3c8.66699 1.33301 14.667 2 18 2c8.66699 0 13 -3 13 -9c0 -5.33301 -4.33301 -9 -13 -11c-4 -0.666992 -10.667 -2 -20 -4c-10 -2 -18.667 -9.33301 -26 -22c-6.66699 -12.667 -10 -27.334 -10 -44.001v-484c0 -36 5 -60.667 15 -74
c9.33301 -13.333 28.333 -21.666 57 -24.999c10.667 -1.33301 16 -4.66602 16 -9.99902v-1c0 -7.33301 -4.66699 -11 -14 -11c-6.66699 0 -15.334 1 -26.001 3c-8 1.33301 -24.667 2 -50 2h-37c-6 0 -18.667 -0.333008 -38 -1c-6 0 -14 -0.333008 -24 -1
c-20 -2 -31.333 -3 -34 -3h-2c-6.66699 0 -10 3.33301 -10 10c0 6 5.66699 10 17 12c34.667 5.33301 52 33.666 52 84.999c0.666992 4 1 10.333 1 19v184c0 16 -1.33301 25.333 -4 28c-3.33301 2.66699 -13.666 4 -30.999 4h-294c-19.333 0 -31 -2 -35 -6
c-4.66699 -4 -7 -13.667 -7 -29v-184c0 -34.667 5.33301 -59 16 -73s31 -22.667 61 -26c12.667 -1.33301 19 -5.66602 19 -12.999c0.666992 -7.33301 -4 -11 -14 -11c-4.66699 0 -12.667 1 -24 3c-9.33301 2 -29.666 3 -60.999 3h-42c-5.33301 0 -16.333 -0.333008 -33 -1
c-8 0 -18.333 -0.666992 -31 -2c-17.333 -1.33301 -28 -2 -32 -2c-8 0 -12 3.33301 -12 10c0 6 4.33301 10 13 12l25 6c14.667 3.33301 24.667 14.333 30 33s8 51.334 8 98.001v429c0 28.667 -5.33301 49.667 -16 63c-11.333 13.333 -31 22 -59 26c-10 1.33301 -15 5 -15 11
c0 6.66699 3.66699 10 11 10h2c6.66699 0 16.667 -1 30 -3c26 -3.33301 56.667 -5 92 -5c23.333 0 45.333 1.66699 66 5c9.33301 0.666992 16.333 1 21 1c9.33301 0 14 -3.33301 14 -10c0 -5.33301 -4.33301 -9.33301 -13 -12c-22 -5.33301 -37 -13.333 -45 -24
c-7.33301 -10.667 -11 -28.334 -11 -53.001v-178c0 -18.667 1.66699 -30 5 -34c4 -3.33301 16.333 -5 37 -5z" />
    <glyph glyph-name="I" unicode="I" horiz-adv-x="336" 
d="M207 537v-375.001c0 -46.667 2.66699 -77.334 8 -92.001c6.66699 -17.333 15 -29.333 25 -36c10 -7.33301 25.333 -12.333 46 -15c16.667 -2.66699 25 -6.66699 25 -12c0 -8.66699 -5.33301 -13 -16 -13c-4.66699 0 -11 0.666992 -19 2c-10 1.33301 -27.667 2 -53 2
c-16 0 -40 0.333008 -72 1c-10 -0.666992 -29.667 -1.66699 -59 -3c-9.33301 -1.33301 -17.333 -2 -24 -2c-8.66699 0 -13 3.33301 -13 10s5 10.667 15 12c25.333 4.66699 41.666 13.334 48.999 26.001c7.33301 13.333 11 41.333 11 84v427c0 41.333 -4.66699 69.333 -14 84
c-9.33301 14 -29.666 23.667 -60.999 29c-10.667 2 -16 6 -16 12v1c0 6.66699 5 10 15 10h9c24 -3.33301 56 -5 96 -5c24.667 0 46 0.666992 64 2l34 3h12c8.66699 0 13 -3.33301 13 -10c0 -5.33301 -4 -9.66602 -12 -12.999c-6 -2 -14.667 -5.33301 -26 -10
c-24.667 -9.33301 -37 -49 -37 -119z" />
    <glyph glyph-name="J" unicode="J" horiz-adv-x="316" 
d="M130 41l0.000976562 507.001c0 39.333 -3.66699 66.666 -11 81.999s-21.666 25.333 -42.999 30l-30 6c-10 2.66699 -15 7.33398 -15 14.001c0 7.33301 4.66699 11 14 11h2c6.66699 -0.666992 18.667 -2 36 -4s45.666 -3 84.999 -3c33.333 0 54.333 0.666992 63 2
c16 2 25.667 3 29 3c6 0 9 -3 9 -9s-4.66699 -10.333 -14 -13c-18.667 -4.66699 -31.334 -12 -38.001 -22s-10 -27.333 -10 -52v-42v-21v-440v-24c-1.33301 -10.667 -3.66602 -32.334 -6.99902 -65.001c-11.333 -54.667 -34.666 -100.667 -69.999 -138s-73 -56 -113 -56
c-11.333 0 -21 2.66699 -29 8c-8.66699 5.33301 -13 11.333 -13 18c0 3.33301 0.666992 7.33301 2 12c1.33301 2.66699 3 8.66699 5 18c4 21.333 10.333 32 19 32c4 0 9.66699 -4.66699 17 -14c14 -15.333 29 -23 45 -23c19.333 0 35.666 13 48.999 39
c13.333 25.333 20 56.666 20 93.999c-0.666992 10.667 -1.33398 27.334 -2.00098 50.001z" />
    <glyph glyph-name="K" unicode="K" horiz-adv-x="666" 
d="M206 300v-184c0 -38 5.33301 -63 16 -75c10 -12.667 33.333 -22 70 -28c10 -2 15.333 -5.66699 16 -11c0 -6 -3.66699 -9 -11 -9h-2c-4 0 -13 0.666992 -27 2c-10.667 0.666992 -30.334 1 -59.001 1c-8.66699 0.666992 -22 1 -40 1c-6 0 -17.667 -0.333008 -35 -1h-28
c-18 -2 -28 -3 -30 -3c-10.667 0 -16 4 -16 12c0 5.33301 4.66699 8.66602 14 9.99902c20.667 1.33301 35 11 43 29s12 47.667 12 89v425c0 36 -3.66699 61 -11 75c-8 14 -22.667 23.333 -44 28c-5.33301 1.33301 -13.666 3 -24.999 5c-8.66699 2 -13 5.33301 -13 10
c0 7.33301 4.66699 11 14 11c4.66699 0 10.667 -0.333008 18 -1c17.333 -2.66699 44 -4 80 -4c4 0.666992 10.333 1 19 1c6 0 18.333 0.333008 37 1h26c13.333 2 21.333 3 24 3c8 0 12 -3.33301 12 -10c0 -4.66699 -4 -8.66699 -12 -12c-20.667 -8.66699 -34 -19 -40 -31
c-5.33301 -11.333 -8 -34 -8 -68v-195c0 -6.66699 1.33301 -10 4 -10c2 0.666992 4.66699 2.33398 8 5.00098c1.33301 1.33301 4 3.33301 8 6l215 192c32.667 30 49 53.667 49 71c0 15.333 -11.667 25.333 -35 30c-16 2 -24 6.33301 -24 13s5.33301 10 16 10
c3.33301 0 7.66602 -0.333008 12.999 -1c14 -1.33301 30 -2 48 -2c10 0 25 -0.333008 45 -1h38c21.333 0 35.333 0.666992 42 2c7.33301 0.666992 12.333 1 15 1c9.33301 0 14.333 -3 15 -9c0 -5.33301 -8 -10.333 -24 -15c-30.667 -7.33301 -88.334 -49.333 -173.001 -126
l-171 -154c-7.33301 -6.66699 -11.333 -12 -12 -16c-0.666992 -5.33301 3.33301 -12.333 12 -21l261 -272c28 -28.667 58.333 -46.667 91 -54c4.66699 -0.666992 11.667 -2 21 -4c8 -1.33301 12 -4.66602 12 -9.99902c0 -8.66699 -5 -12.667 -15 -12
c-3.33301 0 -7.66602 0.666992 -12.999 2c-6 0.666992 -20.333 1 -43 1c-19.333 0 -33.666 -0.333008 -42.999 -1c-10 -0.666992 -17.667 -1 -23 -1c-11.333 0 -21.333 4.66699 -30 14c-1.33301 2 -4 5 -8 9l-268 277c-2 1.33301 -5.33301 4.66602 -10 9.99902
c-4 4 -8 6 -12 6c-6 0 -9 -3.66699 -9 -11z" />
    <glyph glyph-name="L" unicode="L" horiz-adv-x="558" 
d="M206 135c0 -2.66699 0.329102 -8.33105 0.996094 -16.998c0 -40.667 3.66699 -64.667 11 -72c8 -6.66699 33 -10 75 -10c62 0 116 7.33301 162 22s75.333 34 88 58c4.66699 9.33301 9.33398 14 14.001 14s7.33398 -2.66699 8.00098 -8
c0 -0.666992 -0.333008 -1.33398 -1 -2.00098c-1.33301 -22 -12 -46.333 -32 -73c-28.667 -36 -75 -54 -139 -54c-10.667 0 -23 0.333008 -37 1c-12 1.33301 -30 3 -54 5c-32 2 -65.667 3 -101 3c-40.667 0 -75 -2 -103 -6c-11.333 -2 -20.666 -3 -27.999 -3h-2
c-7.33301 0 -11 3 -11 9c0 5.33301 4.66699 9.33301 14 12c22.667 7.33301 38 17.666 46 30.999s12 36 12 68v23v447c0 44 -17.667 69.667 -53 77c-5.33301 1.33301 -13 3 -23 5c-8 2 -12 5.33301 -12 10c0 8 5.66699 12 17 12c8 0 18.333 -1 31 -3c23.333 -2 49 -3 77 -3
c30.667 0 58.334 1 83.001 3c12.667 0.666992 20 1 22 1c8 0 12 -2.33301 12 -7c0 -8 -5 -13 -15 -15c-3.33301 -0.666992 -9 -2 -17 -4c-30 -7.33301 -45 -37.333 -45 -90v-434z" />
    <glyph glyph-name="M" unicode="M" horiz-adv-x="879" 
d="M663 504c-28.667 -49.333 -47.6641 -83.666 -56.9971 -102.999l-45 -96l-50 -105c-3.33301 -6 -17.666 -37.333 -42.999 -94c-10 -23.333 -19 -42.333 -27 -57c-4 -9.33301 -6.66699 -15.666 -8 -18.999c-6.66699 -16 -14 -24 -22 -24s-15.667 8.33301 -23 25l-14 27
c-2 4.66699 -5.33301 11.667 -10 21l-187 406l-12 -247c-0.666992 -20.667 -1 -61.334 -1 -122.001c0 -58.667 20.333 -91.334 61 -98.001c20.667 -3.33301 31 -8.33301 31 -15c0 -8 -5 -12 -15 -12c-6 0 -12 0.666992 -18 2c-37.333 3.33301 -66 5 -86 5
c-24.667 0 -48.334 -1.66699 -71.001 -5c-6 -1.33301 -11 -2 -15 -2c-10 0 -15 3.66699 -15 11c0 6 4 10 12 12c24 5.33301 41 16.666 51 33.999c9.33301 16.667 15 45.667 17 87c2 32 4.66699 80 8 144c4.66699 105.333 7 172 7 200c0 58.667 -8 102.334 -24 131.001
c-15.333 28.667 -41.333 46.334 -78 53.001c-10 1.33301 -15 5.66602 -15 12.999s4 11 12 11c3.33301 0 9 -0.333008 17 -1c4.66699 -1.33301 16 -2 34 -2c27.333 0 44.666 0.666992 51.999 2c7.33301 0.666992 13.666 1 18.999 1c14 0 25.667 -10.667 35 -32
c1.33301 -2 3.33301 -5.66699 6 -11l209 -450l25 -51c3.33301 -8.66699 6 -13 8 -13s4.66699 3.33301 8 10c1.33301 2.66699 3 7 5 13c1.33301 2 3 5.33301 5 10l235 503c5.33301 10.667 9 17.334 11 20.001c2.66699 2 7 3 13 3c3.33301 0 10.666 -0.666992 21.999 -2h17
c20.667 0 37.667 0.666992 51 2c6 0 10.667 0.333008 14 1h1c6 0 9 -3.33301 9 -10c0 -6 -3.33301 -10 -10 -12c-4.66699 -1.33301 -11.667 -3 -21 -5c-17.333 -4 -29.333 -14.667 -36 -32c-6.66699 -16.667 -10 -44.334 -10 -83.001l3 -120
c1.33301 -45.333 4.33301 -136 9 -272c0.666992 -10 1.33398 -30.667 2.00098 -62c0 -26 5 -44.333 15 -55c9.33301 -10.667 26.333 -18 51 -22c17.333 -2.66699 26 -7 26 -13c0 -7.33301 -6 -11 -18 -11c-4 0 -8.33301 0.333008 -13 1c-8.66699 0.666992 -21.667 2 -39 4
c-13.333 1.33301 -27.333 2 -42 2c-10 -0 -26.333 -0.666992 -49 -2c-34.667 -1.33301 -54.667 -2 -60 -2c-10 0 -15 2.66699 -15 8s4.33301 9.33301 13 12c19.333 5.33301 32.333 14 39 26c7.33301 12 11 33 11 63c-0.666992 18 -1.33398 45 -2.00098 81
c-2.66699 53.333 -7 159.333 -13 318z" />
    <glyph glyph-name="N" unicode="N" horiz-adv-x="758" 
d="M649 491l-0.00390625 -419.001c0 -38 -1 -61 -3 -69c-1.33301 -7.33301 -5.66602 -11.333 -12.999 -12h-1c-4.66699 0.666992 -8.66699 2.33398 -12 5.00098c-2 2.66699 -5.66699 7 -11 13l-421 482c-0.666992 0.666992 -2.33398 2.66699 -5.00098 6
c-2 2 -4.33301 3 -7 3c-6 0 -9 -7.66699 -9 -23v-339c-0.666992 -3.33301 -1 -10.333 -1 -21c0 -6 0.333008 -18 1 -36c2.66699 -21.333 8.66699 -36.333 18 -45c8.66699 -8.66699 26.334 -15 53.001 -19c10.667 -1.33301 16 -5.66602 16 -12.999
c0 -6.66699 -3.33301 -10 -10 -10c-5.33301 0 -10.666 0.666992 -15.999 2c-3.33301 0 -17.666 1 -42.999 3c-11.333 0 -28.333 0.666992 -51 2c-4 0 -12 -0.333008 -24 -1c-13.333 0 -25.666 -0.666992 -36.999 -2c-8.66699 -1.33301 -14.667 -2 -18 -2
c-9.33301 0 -14 3 -14 9c-0.666992 4.66699 4 8.66699 14 12c28 10 46.667 23 56 39c10 16.667 15 43 15 79v339c0 58 -9.33301 103.667 -28 137c-18 32.667 -44.333 51.667 -79 57c-8.66699 1.33301 -13 5 -13 11c0 6.66699 3.66699 10 11 10c1.33301 0 4 -0.333008 8 -1
c4 0 10.667 -0.333008 20 -1h34h8h18c8.66699 0 17 -4.66699 25 -14l460 -521c7.33301 -8 12 -12 14 -12c3.33301 0 5 3.33301 5 10v247c0.666992 11.333 1 34 1 68c-1.33301 18.667 -3.33301 57 -6 115c-3.33301 28 -11.666 48 -24.999 60c-13.333 11.333 -37 20 -71 26
c-9.33301 1.33301 -14 5.66602 -14 12.999c0 6 4.66699 9 14 9c4 0 11 -0.333008 21 -1c23.333 -3.33301 54.333 -5 93 -5c20 0 36.333 1.33301 49 4c10.667 2 18.667 3 24 3c8.66699 0 13.667 -3.66699 15 -11v-1c-0.666992 -4 -4 -7 -10 -9
c-20.667 -4.66699 -34.334 -13 -41.001 -25c-6.66699 -11.333 -10 -33 -10 -65v-54v-33z" />
    <glyph glyph-name="O" unicode="O" horiz-adv-x="802" 
d="M404 696c104.667 0 190.333 -32.332 257 -96.999c66.667 -64 100 -146.667 100 -248c0 -106.667 -33.667 -194 -101 -262c-67.333 -68.667 -153.333 -103 -258 -103c-107.333 0 -194.333 33 -261 99c-66.667 65.333 -100 151 -100 257
c0 45.333 8.66699 90.666 26 135.999c18 45.333 41.667 83 71 113c31.333 32 71 57.667 119 77c48 18.667 97 28 147 28zM371.999 663.001c-77.333 0 -138.667 -26.001 -184 -78.001c-46 -52 -69 -122 -69 -210c0 -101.333 29.333 -186.666 88 -255.999
c58 -69.333 129.333 -104 214 -104c77.333 0 141.333 28.333 192 85c50 56.667 75 128 75 214c0 100 -30 183.333 -90 250c-60.667 66 -136 99 -226 99z" />
    <glyph glyph-name="P" unicode="P" horiz-adv-x="542" 
d="M207 603l0.00195312 -416.999c-0.666992 -8 -1 -24.333 -1 -49c0 -6.66699 0.333008 -20.667 1 -42c4 -40 19 -63.333 45 -70c18.667 -5.33301 32.667 -8 42 -8c10 0 15.333 -2.66699 16 -8c0.666992 -8.66699 -5.33301 -13 -18 -13
c-5.33301 0 -16.666 0.666992 -33.999 2c-10.667 0.666992 -27.667 1 -51 1h-36h-39c-19.333 0 -34.333 -0.666992 -45 -2c-12.667 -2 -22 -3 -28 -3c-8.66699 0 -13 3.33301 -13 10s5.66699 11 17 13c26 4 43.667 18.667 53 44c9.33301 24.667 14 70.334 14 137.001v303
c0 70 -4 114.333 -12 133c-8.66699 18.667 -29.667 29.667 -63 33c-8.66699 0.666992 -13 3.66699 -13 9v1c0 8 6.66699 12 20 12c6 0 14.333 -1 25 -3c21.333 -3.33301 38.666 -5 51.999 -5c21.333 0 52.333 2 93 6c20.667 1.33301 38 2 52 2
c69.333 0 125.666 -16.667 168.999 -50c44 -33.333 66 -77 66 -131c0 -65.333 -26.667 -117 -80 -155c-40.667 -28 -83.334 -42 -128.001 -42c-20.667 0 -39.667 2.33301 -57 7c-17.333 5.33301 -26 10.666 -26 15.999c1.33301 4 4.66602 6 9.99902 6
c2.66699 0 6 -0.666992 10 -2c8 -2 20.333 -3 37 -3c48 0 86.333 13 115 39c29.333 26.667 44 61.667 44 105c0 50 -19.333 91.667 -58 125c-38 33.333 -86 50 -144 50c-13.333 0 -22.666 -2.66699 -27.999 -8c-4.66699 -4.66699 -7 -14.334 -7 -29.001v-14z" />
    <glyph glyph-name="Q" unicode="Q" horiz-adv-x="789" 
d="M190 44c-99.333 76.667 -148.998 174.332 -148.998 292.999c0 94.667 27 175 81 241c65.333 78.667 156.666 118 273.999 118c103.333 0 188 -32.667 254 -98c65.333 -66 98 -151.333 98 -256c0 -67.333 -15 -128.666 -45 -183.999
c-30.667 -56 -72.334 -99 -125.001 -129c-34 -18.667 -73.333 -32.334 -118 -41.001c33.333 -17.333 56.666 -30 69.999 -38l47 -31c6 -4 18.667 -12 38 -24c28.667 -18.667 52.334 -28 71.001 -28c28 0 52.333 5.66699 73 17c6 3.33301 10.667 5 14 5
c6 0.666992 9 -1.66602 9 -6.99902v-1c0 -12 -15.667 -24.667 -47 -38c-32 -13.333 -63 -20 -93 -20c-40 0 -87.333 16 -142 48c-48 28 -76.333 44.333 -85 49l-85 44c-50 26.667 -86.667 40 -110 40c-20 0 -38.333 -8 -55 -24c-17.333 -16.667 -27.666 -36.667 -30.999 -60
c-2.66699 -12 -7 -18 -13 -18c-8.66699 0 -12.334 5.33301 -11.001 16c0.666992 25.333 9 50.666 25 75.999c16 24.667 34.333 41.334 55 50.001zM366.002 666.998c-72.667 0 -131.666 -26.332 -176.999 -78.999c-45.333 -53.333 -68 -122 -68 -206
c0 -122.667 38.333 -219.334 115 -290.001c58 -52 122.667 -78 194 -78c73.333 0 132.666 25.667 177.999 77c45.333 52 68 119.667 68 203c0 103.333 -30.333 191.333 -91 264c-60 72.667 -133 109 -219 109z" />
    <glyph glyph-name="R" unicode="R" horiz-adv-x="671" 
d="M388 343l138.997 -203.996l16 -24c42.667 -62.667 81.667 -95.334 117 -98.001h16c6 -0.666992 9 -2.66699 9 -6v-2c-0.666992 -4.66699 -8 -9 -22 -13c-14.667 -4 -31 -6 -49 -6c-30 0 -57 8.33301 -81 25c-24 16 -48.333 42.667 -73 80l-125 191
c-0.666992 1.33301 -2.66699 5 -6 11c-8.66699 13.333 -22 20 -40 20h-66c-2 -0.666992 -5.66699 -1.33398 -11 -2.00098c-4 -2.66699 -6 -8 -6 -16v-156c0 -3.33301 0.333008 -10 1 -20c0 -28.667 1.33301 -48.334 4 -59.001c2.66699 -10 9.33398 -19.333 20.001 -28
c14 -11.333 36 -18.333 66 -21c12.667 -2 19 -6 19 -12c0.666992 -6.66699 -4.66602 -10 -15.999 -10c-5.33301 0 -15.333 0.666992 -30 2c-14 1.33301 -35 2 -63 2c-10.667 0 -26.667 0.333008 -48 1c-4.66699 -0.666992 -13.667 -1 -27 -1c-10.667 0 -24 -1 -40 -3
c-13.333 -0.666992 -22.333 -1 -27 -1c-8.66699 0 -13 3.33301 -13 10c0 4.66699 4.33301 8 13 10c26.667 4.66699 44 16.667 52 36s12 57 12 113v359v53c0 52 -18.333 80.667 -55 86c-5.33301 1.33301 -13.333 2.66602 -24 3.99902c-10.667 2 -16 6 -16 12
c0 7.33301 6 11 18 11c2 0 13.667 -1 35 -3c12 -0.666992 26.667 -1 44 -1c15.333 0 41.333 1.33301 78 4c26.667 1.33301 50.334 2 71.001 2c76.667 0 134.667 -14.333 174 -43c38.667 -29.333 58 -72.333 58 -129c0 -75.333 -41.333 -133.333 -124 -174zM240.997 354.004
h56.999c44 0 78.333 12 103 36c25.333 24 38 57 38 99c0 48 -17 87.667 -51 119s-77.667 47 -131 47c-19.333 0 -32.666 -3.33301 -39.999 -10s-11 -18.667 -11 -36v-16v-203c0 -15.333 2 -25.333 6 -30c4 -4 13.667 -6 29 -6z" />
    <glyph glyph-name="S" unicode="S" horiz-adv-x="513" 
d="M261 696c35.333 0 65.334 -5.00098 90.001 -15.001l35 -15c3.33301 -1.33301 6.33301 -2 9 -2c4 0 8 1.66699 12 5c1.33301 1.33301 3.66602 3.33301 6.99902 6c0.666992 1.33301 2.66699 2 6 2c8 0.666992 12 -7.66602 12 -24.999c0 -5.33301 2.33301 -22 7 -50
c1.33301 -11.333 4 -28.333 8 -51c1.33301 -11.333 2 -18.333 2 -21c0 -10.667 -3.33301 -16 -10 -16c-5.33301 0 -10.666 8 -15.999 24c-12.667 36.667 -37.334 66.667 -74.001 90s-77.667 35 -123 35c-36 0 -66 -10.667 -90 -32s-36 -48 -36 -80
c0 -27.333 7.66699 -51.333 23 -72c13.333 -17.333 28.333 -30 45 -38c16 -8 55.667 -22.333 119 -43c123.333 -40.667 185 -107 185 -199c0 -62.667 -22.667 -113.667 -68 -153c-45.333 -40 -103.333 -60 -174 -60c-26 0 -54.333 4 -85 12
c-31.333 7.33301 -54 15.666 -68 24.999c-6 4 -10 8.33301 -12 13c-2 4 -5 15.667 -9 35c-0.666992 2 -4.66699 17 -12 45c-8.66699 30 -13 51.333 -13 64c0 10 3.33301 14.667 10 14c5.33301 0 10.666 -8 15.999 -24c11.333 -41.333 36.666 -76 75.999 -104
c38.667 -28 80.334 -42 125.001 -42c46 0 85 13.667 117 41c32 26.667 48 59.334 48 98.001c0 36.667 -14.667 68 -44 94c-15.333 12.667 -58.666 31 -129.999 55c-74 25.333 -126.333 53 -157 83c-30.667 30.667 -46 70 -46 118c0 54 20 98 60 132s91.667 51 155 51z" />
    <glyph glyph-name="T" unicode="T" horiz-adv-x="623" 
d="M524 630l-140.999 -0.000976562c-14.667 0 -24 -2 -28 -6c-3.33301 -4 -5 -14 -5 -30v-489v-20c2 -39.333 23.667 -62.666 65 -69.999c12 -2 18 -5.66699 18 -11c0 -7.33301 -4.66699 -11 -14 -11c-4 0 -12.333 1 -25 3c-6 1.33301 -20.667 2 -44 2h-37h-39
c-14 0 -25.667 -0.666992 -35 -2c-19.333 -2 -30.666 -3 -33.999 -3c-10 0 -15 3.66699 -15 11c0 5.33301 5.66699 8.66602 17 9.99902c25.333 3.33301 42.333 10.333 51 21c9.33301 11.333 14 31 14 59v495c0 2 -0.333008 6.33301 -1 13c0 12 -1.66699 19.667 -5 23
s-11.333 5 -24 5h-132c-27.333 0 -47 -5.33301 -59 -16s-21.333 -31 -28 -61c-3.33301 -13.333 -8 -19.666 -14 -18.999c-6 0 -9 4.33301 -9 13c0 7.33301 2 20 6 38c5.33301 24.667 8 44.667 8 60s1.66699 25.333 5 30s10.666 7 21.999 7h538
c18.667 0 29.667 -1.66699 33 -5c4 -4 6 -16 6 -36c0 -19.333 0.666992 -33.666 2 -42.999c2 -11.333 3 -19.333 3 -24c0.666992 -0.666992 1 -1.33398 1 -2.00098c-0.666992 -9.33301 -4.33398 -14 -11.001 -14c-6 -0.666992 -10 4.33301 -12 15
c-4.66699 24 -11.667 39.333 -21 46c-9.33301 7.33301 -28 11 -56 11z" />
    <glyph glyph-name="U" unicode="U" horiz-adv-x="793" 
d="M652 287l0.00195312 259.001c0 42 -6 72.333 -18 91s-32.333 29.667 -61 33c-9.33301 0.666992 -14 4.33398 -14 11.001s2.66699 10 8 10h2c7.33301 -0.666992 18 -2 32 -4c12.667 -2 27.667 -3 45 -3c37.333 0 60.333 0.666992 69 2c11.333 0.666992 18.666 1 21.999 1
c6 0 9 -3 9 -9c0 -4.66699 -3.33301 -8.66699 -10 -12c-20.667 -8 -34 -19.667 -40 -35c-6 -14.667 -9 -43 -9 -85v-248c0 -90.667 -18 -160.334 -54 -209.001c-22.667 -31.333 -55.667 -56.333 -99 -75c-42.667 -18.667 -88.334 -28 -137.001 -28
c-56.667 0 -107.667 11 -153 33s-78.333 52 -99 90c-24 43.333 -36 100 -36 170v253c0 5.33301 -0.333008 15 -1 29c0 36 -5 60.667 -15 74c-9.33301 13.333 -29 22.333 -59 27c-9.33301 0.666992 -14 4 -14 10c0 8 6.33301 12 19 12c8.66699 0 20.334 -0.333008 35.001 -1
c15.333 -1.33301 26.666 -2 33.999 -2c8 0.666992 20.667 1 38 1h38c4 0 13.333 0.666992 28 2c12.667 1.33301 21.334 2 26.001 2c7.33301 0 11 -2.66699 11 -8c0 -6.66699 -5.33301 -11 -16 -13c-19.333 -4.66699 -32.333 -13 -39 -25c-6 -12.667 -9 -35.334 -9 -68.001
v-32v-253c0 -85.333 13.333 -146.666 40 -183.999c38 -52 101.333 -78 190 -78c79.333 0 138.666 22 177.999 66c39.333 43.333 59 108.666 59 195.999z" />
    <glyph glyph-name="V" unicode="V" horiz-adv-x="689" 
d="M180 564l191.997 -440.001c4.66699 -10.667 9 -16 13 -16c3.33301 0 9.33301 9.66699 18 29c2 4 4.66699 10 8 18l110 260c47.333 112 71 184 71 216c0 10.667 -2.33301 18.334 -7 23.001c-5.33301 4 -15.666 7.66699 -30.999 11c-18.667 4 -27.667 8.66699 -27 14
c0 6.66699 5.33301 10 16 10c2 0 7 -0.333008 15 -1c24 -1.33301 38.667 -2 44 -2h21c3.33301 0 10.666 0.333008 21.999 1h12h43c6.66699 0 10 -2.66699 10 -8s-3.33301 -9 -10 -11c-24.667 -8.66699 -43 -28 -55 -58c-3.33301 -7.33301 -8 -18.333 -14 -33l-248 -582
c-7.33301 -16.667 -14.333 -25 -21 -25s-13.667 8.66699 -21 26l-254 587c-11.333 26.667 -22 45.334 -32 56.001c-9.33301 10.667 -22.666 17.667 -39.999 21c-16.667 3.33301 -26.667 5.66602 -30 6.99902s-5 4 -5 8c0 6.66699 4.66699 10 14 10
c2.66699 0 7.66699 -0.333008 15 -1c5.33301 -0.666992 22 -1 50 -1c10.667 0 26.334 -0.333008 47.001 -1c6 0.666992 17.333 1 34 1c7.33301 0 18 0.666992 32 2c6.66699 0.666992 11.334 1 14.001 1c8.66699 0 13 -3.33301 13 -10c0 -4 -3 -7.66699 -9 -11
c-14 -4.66699 -22.667 -8.66699 -26 -12c-3.33301 -4 -5 -10.333 -5 -19c0 -14 7 -37.333 21 -70z" />
    <glyph glyph-name="W" unicode="W" horiz-adv-x="990" 
d="M551 385l100.998 -237c10.667 -26.667 18.667 -40 24 -40c4 0 9.33301 8 16 24c2 4.66699 6.33301 13.667 13 27c43.333 97.333 84 195.333 122 294s57 157 57 175c0 15.333 -14.333 26 -43 32c-15.333 3.33301 -23 8.66602 -23 15.999s5 11 15 11h8
c14.667 -1.33301 35 -2 61 -2c30 0 52.333 1 67 3c11.333 1.33301 19.333 2 24 2c7.33301 0 11 -3.66699 11 -11c0 -5.33301 -4.66699 -10 -14 -14c-14 -5.33301 -24.333 -15.666 -31 -30.999l-27 -59c-12 -24.667 -29.667 -65 -53 -121l-57 -133l-60 -135l-40 -94l-24 -55
c-2 -4 -5.66699 -12.333 -11 -25l-8 -16c-8.66699 -18 -17 -27 -25 -27s-15.333 8 -22 24l-124 290l-125 -298c-6 -14 -12 -21.333 -18 -22l-1 1c-8.66699 0 -18.334 12.667 -29.001 38l-206 495c-2 5.33301 -6.33301 16 -13 32c-18 46 -33.667 77.667 -47 95
s-30.666 28.333 -51.999 33c-4 1.33301 -10.667 3 -20 5c-7.33301 2 -11 6 -11 12c0 8.66699 5 13 15 13c3.33301 0 7.66602 -0.333008 12.999 -1c12.667 -2 29.334 -3 50.001 -3c14 0 34.667 -0.333008 62 -1c6.66699 0.666992 20.334 1.33398 41.001 2.00098
c17.333 1.33301 28 2 32 2c8.66699 0 13 -4.33301 13 -13c0 -6.66699 -3.66699 -11 -11 -13c-21.333 -6 -32 -15.667 -32 -29c0 -16 12.333 -52 37 -108c11.333 -25.333 29.333 -68.666 54 -129.999c24 -58.667 41 -99.334 51 -122.001l49 -109
c5.33301 -11.333 9 -19.333 11 -24c1.33301 -2 3.33301 -5.33301 6 -10c4 -7.33301 6.66699 -11 8 -11c2.66699 0 6.33398 5.33301 11.001 16l3 6l85 201l-12 30l-44 104c-7.33301 16 -21.333 48.333 -42 97c-16 35.333 -28 57.666 -36 66.999
c-8.66699 10 -21.667 16.333 -39 19c-27.333 3.33301 -40.666 9.33301 -39.999 18c0 6.66699 7 10 21 10c4 0 10.333 -0.333008 19 -1c16 0 48.333 -1 97 -3c14 0 30.333 1 49 3c11.333 1.33301 18.666 2 21.999 2c12 0 18 -4 18 -12c0 -5.33301 -5.66699 -10 -17 -14
c-16 -7.33301 -24 -18 -24 -32c0 -12.667 6 -33.334 18 -62.001l53 -125l10 23c38 85.333 57 141 57 167c0 15.333 -11 25 -33 29c-16 2.66699 -24 8 -24 16c0 6.66699 5.66699 10 17 10c2.66699 0 9.33398 -0.333008 20.001 -1c14.667 -0.666992 31.667 -1 51 -1
c21.333 0 37.666 0.666992 48.999 2c10 1.33301 17 2 21 2c10 0 15 -4 15 -12c0 -5.33301 -6 -9.66602 -18 -12.999c-12.667 -4 -21.667 -10 -27 -18c-6 -8 -16.667 -30.333 -32 -67z" />
    <glyph glyph-name="X" unicode="X" horiz-adv-x="642" 
d="M376 343l127.999 -193.002c32.667 -49.333 59 -85.333 79 -108c12.667 -14 31.334 -23.333 56.001 -28c11.333 -2.66699 17 -7 17 -13c0 -5.33301 -4.66699 -8 -14 -8c-4 0 -10.333 0.333008 -19 1c-15.333 2.66699 -40.333 4 -75 4c-6 0 -14.667 0.333008 -26 1
c-10.667 -1.33301 -32.334 -3.33301 -65.001 -6c-8.66699 -1.33301 -15.667 -2 -21 -2c-8.66699 0 -13 3.33301 -13 10c0 6 6 10.667 18 14c18.667 4.66699 28 15 28 31c0 9.33301 -6 23 -18 41l-131 197c-6 8.66699 -10 13 -12 13c-3.33301 0 -10.666 -8.66699 -21.999 -26
c-30 -44.667 -47.333 -69.667 -52 -75l-49 -72c-25.333 -34.667 -38.333 -60.334 -39 -77.001c-0.666992 -18.667 7.33301 -29 24 -31l26 -3c8.66699 -0.666992 13 -4.66699 13 -12c0 -6.66699 -4.33301 -10 -13 -10c-5.33301 0 -12.333 0.666992 -21 2
c-18.667 3.33301 -39.334 5 -62.001 5c-24.667 0 -51.334 -1.33301 -80.001 -4c-8.66699 -0.666992 -15 -1 -19 -1c-10.667 0 -16.667 2.66699 -18 8c0 5.33301 4.33301 9 13 11c22 6 40 14.667 54 26s31.333 31.333 52 60c20 29.333 37.333 53.333 52 72
c42 58 67 93.333 75 106l23 33c9.33301 13.333 14 22.333 14 27s-3 11.334 -9 20.001c-2 4 -5.33301 9.66699 -10 17l-110 162c-37.333 56.667 -64 92 -80 106c-15.333 14.667 -36.333 23.667 -63 27c-13.333 1.33301 -20 5 -20 11c0 6.66699 6 10 18 10
c24 0 61 -1.66699 111 -5c10.667 -1.33301 19.334 -2 26.001 -2c4 0 22.667 1.66699 56 5c6 0.666992 12.333 1 19 1c10.667 0 16 -3.66699 16 -11c0 -5.33301 -5.33301 -9 -16 -11c-19.333 -2.66699 -29 -11.667 -29 -27c0 -9.33301 7.33301 -25.333 22 -48l117 -175
c2 -2.66699 4 -4 6 -4s6 3.66699 12 11l103 147c2.66699 4 8.33398 11.667 17.001 23c12.667 16 19 29.667 19 41c0 15.333 -7.66699 25 -23 29c-4 1.33301 -9.66699 3 -17 5c-8.66699 2 -13 6.33301 -13 13c0 4.66699 3.33301 6.66699 10 6c5.33301 0 12 -0.333008 20 -1
c14 -1.33301 38.667 -2 74 -2c18.667 0 36.667 1 54 3c10 0.666992 17.667 1.33398 23 2.00098c8.66699 0 13 -2.66699 13 -8c0 -6.66699 -4.33301 -12 -13 -16l-24 -9c-24 -9.33301 -50.667 -34 -80 -74l-131 -183c-10 -14 -15 -23.667 -15 -29
c0 -4 1.66699 -8.66699 5 -14c2 -3.33301 5 -7.66602 9 -12.999z" />
    <glyph glyph-name="Y" unicode="Y" horiz-adv-x="599" 
d="M348 103c0 -39.333 3.33203 -63.3359 9.99902 -72.0029c6 -8.66699 24 -14.334 54 -17.001c10.667 -1.33301 16 -4.66602 16 -9.99902c0 -8.66699 -6 -13 -18 -13c-3.33301 0 -11.666 1 -24.999 3c-8.66699 1.33301 -21 2.33301 -37 3
c-8.66699 0.666992 -22 1.33398 -40 2.00098c-6 0 -18.667 -0.333008 -38 -1c-24.667 0 -41.334 -0.666992 -50.001 -2c-9.33301 -1.33301 -15.666 -2 -18.999 -2c-7.33301 0 -11 3 -11 9c0 6.66699 5.33301 10.667 16 12c28 4.66699 45.667 12.334 53 23.001
c8 10.667 12 34 12 70v21v149c0 21.333 -1.66699 37 -5 47c-2.66699 10 -10 24 -22 42l-139 222c-2.66699 4.66699 -8.33398 14 -17.001 28c-10 15.333 -23.667 28 -41 38c-18 10 -35.667 15 -53 15c-9.33301 0 -14 3 -14 9c0 6.66699 5.33301 10 16 10
c8 0 16.333 -0.333008 25 -1c22 -2.66699 44.667 -4 68 -4c48.667 0 80 1 94 3c14.667 1.33301 23.334 2 26.001 2c10 0 15 -3.33301 15 -10c0 -5.33301 -4 -9 -12 -11c-22 -7.33301 -33 -19 -33 -35c0 -8.66699 7.33301 -24.667 22 -48
c2.66699 -5.33301 7.33398 -13.333 14.001 -24l104 -165c1.33301 -1.33301 3.66602 -4.66602 6.99902 -9.99902c2.66699 -4 5.66699 -6 9 -6s6.66602 2 9.99902 6c1.33301 2 3 4.66699 5 8l73 110l24 39c23.333 37.333 35 62 35 74c0 22.667 -21 39 -63 49
c-8 2 -12 6 -12 12c0 5.33301 3.66699 8 11 8c5.33301 0 14.333 -1 27 -3c10 -1.33301 33.333 -2 70 -2c34 0 55.667 0.333008 65 1c12.667 1.33301 21.667 2 27 2c8.66699 1.33301 13 -1.33398 13 -8.00098c0 -5.33301 -4.33301 -9.66602 -13 -12.999
c-29.333 -9.33301 -53.666 -28 -72.999 -56l-33 -48l-121 -181l-13 -17c-12.667 -18 -19 -34.667 -19 -50v-208z" />
    <glyph glyph-name="Z" unicode="Z" horiz-adv-x="529" 
d="M265 41l80.0039 0.00195312c39.333 0 69 3 89 9c20 5.33301 37.667 15.666 53 30.999c18 17.333 29.333 26.333 34 27c4.66699 0 7.33398 -2.66699 8.00098 -8v-1c-0.666992 -4 -2.33398 -8.33301 -5.00098 -13l-15 -32c-3.33301 -5.33301 -9.33301 -16.666 -18 -33.999
c-4.66699 -8.66699 -9.33398 -14.334 -14.001 -17.001c-4.66699 -2 -14 -3 -28 -3h-381c-18 0 -27 4.33301 -27 13c0 4.66699 2 9.66699 6 15l338 586c0.666992 0.666992 2 2.66699 4 6c2.66699 4 4 7.66699 4 11c0 6.66699 -7.66699 10 -23 10h-169
c-26.667 0 -46.334 -2.66699 -59.001 -8c-12 -4.66699 -24.667 -14.334 -38 -29.001c-16.667 -20 -27.667 -37.667 -33 -53c-2 -9.33301 -6 -14 -12 -14c-6.66699 0 -10 4.33301 -10 13c0.666992 7.33301 3 19 7 35c2.66699 8.66699 4 20.667 4 36
c2 27.333 4.66699 44.333 8 51c4 6.66699 13 10 27 10h16h69h288c20 0 30 -6.33301 30 -19c0 -4 -1 -8 -3 -12l-326 -564c-0.666992 -2 -2.33398 -5.33301 -5.00098 -10c-3.33301 -6 -5.33301 -11.333 -6 -16c-0.666992 -12 8.33301 -18 27 -18c10.667 0 27 -0.333008 49 -1
c5.33301 0 15.666 -0.333008 30.999 -1z" />
    <glyph glyph-name="grave" unicode="`" horiz-adv-x="512" 
d="M239 497l-62.001 69l-8 8c-4.66699 5.33301 -7 10 -7 14c0 12.667 6.66699 19 20 19c24 0 38.667 -0.666992 44 -2c4.66699 -1.33301 8.66699 -5.33301 12 -12c2 -5.33301 5.66699 -14 11 -26c2 -5.33301 7.66699 -18 17 -38c10 -21.333 15.333 -35 16 -41v-1
c0 -6 -3 -9 -9 -9c-5.33301 0 -16.666 6.33301 -33.999 19z" />
    <glyph glyph-name="a" unicode="a" horiz-adv-x="684" 
d="M410 262h-179.999c-24.667 0 -40 -2.33301 -46 -7c-6 -4 -14.333 -17.333 -25 -40c-6.66699 -16 -17.334 -40.333 -32.001 -73c-14.667 -33.333 -22 -58.333 -22 -75c0 -15.333 4 -26.666 12 -33.999c8 -6.66699 23.333 -12.667 46 -18c10 -2 15 -6 15 -12
c0.666992 -6 -4 -9 -14 -9c-3.33301 0 -8.66602 0.333008 -15.999 1l-48 3c-16 0.666992 -34.667 1 -56 1c-9.33301 0 -16.666 -0.333008 -21.999 -1c-17.333 -1.33301 -27 -2 -29 -2c-8.66699 0 -13 3 -13 9c0 5.33301 2.66699 8.66602 8 9.99902
c4.66699 1.33301 11 3.33301 19 6c6.66699 2 15.667 10 27 24s20.666 28.667 27.999 44c3.33301 7.33301 8 18.333 14 33l258 571c4 10 8.66699 15 14 15s9.66602 -4.66699 12.999 -14l216 -551c1.33301 -4 5 -13 11 -27c15.333 -40 28 -65 38 -75
c10.667 -10 31.667 -17.667 63 -23c10 -2 15.333 -6 16 -12v0c-0.666992 -6 -5.66699 -9 -15 -9c-2.66699 0 -9 0.333008 -19 1c-16.667 2 -47.334 3 -92.001 3c-46 0 -75 -1 -87 -3c-7.33301 -1.33301 -12.666 -2 -15.999 -2c-8.66699 0 -13 3.33301 -13 10
c0 5.33301 4.33301 9 13 11c3.33301 0.666992 8.66602 1.66699 15.999 3c16 3.33301 24 14.666 24 33.999c0 18 -10 53 -30 105l-25 66c-7.33301 18.667 -12.666 29.334 -15.999 32.001c-4 3.33301 -15.667 5 -35 5zM417.001 342l-78.999 198
c-0.666992 1.33301 -2 4.66602 -4 9.99902c-4 10.667 -8.33301 16.334 -13 17.001c-2 0 -4.66699 -3.33301 -8 -10l-98 -217c-4 -8.66699 -6 -14.667 -6 -18c0 -8.66699 7.66699 -13 23 -13c3.33301 0 8 -0.333008 14 -1h150c17.333 0 26 4.33301 26 13
c0 2 -1 5.66699 -3 11c-0.666992 2 -1.33398 5.33301 -2.00098 10z" />
    <glyph glyph-name="b" unicode="b" horiz-adv-x="618" 
d="M129 151l-0.000976562 385.997c0 44 -6.33301 76.333 -19 97c-13.333 20.667 -33.666 31 -60.999 31c-13.333 0 -20 3.66699 -20 11c0 8 6.66699 12 20 12c2.66699 0 11 -0.333008 25 -1c10 -0.666992 24 -1 42 -1c24.667 0 43.667 0.333008 57 1l56 3
c17.333 1.33301 34 2 50 2c74 0 132 -14.667 174 -44s63 -69.666 63 -120.999c0 -53.333 -22 -94.333 -66 -123l-22 -16c-4.66699 -2.66699 -6.66699 -5 -6 -7c0 -3.33301 8.33301 -7 25 -11c37.333 -8 67.666 -28 90.999 -60c24 -31.333 36 -67.666 36 -108.999
c0 -60.667 -22.667 -111 -68 -151s-102.666 -60 -171.999 -60c-8.66699 0.666992 -21.667 1 -39 1c-8 0.666992 -23.333 1.33398 -46 2.00098c-7.33301 0.666992 -21 1.66699 -41 3c-26.667 2 -47.667 3 -63 3c-16 0 -29.333 -1 -40 -3c-16 -2 -27.333 -3 -34 -3
c-9.33301 0 -14 3.66699 -14 11c0 6 4.66699 9.66699 14 11c28.667 4 45.667 19.667 51 47c4.66699 24 7 53.667 7 89zM239.999 384.997h82c84 0 126 37.667 126 113c0 46.667 -18 85.667 -54 117c-35.333 32 -79 48 -131 48c-23.333 0 -38.666 -3.33301 -45.999 -10
c-7.33301 -6 -11 -19.667 -11 -41v-200c0 -12 2 -19.333 6 -22c3.33301 -3.33301 12.666 -5 27.999 -5zM232.999 349.997c-12 0 -19.332 -0.999023 -21.999 -2.99902c-3.33301 -2.66699 -5 -8 -5 -16v-231c0 -4 -0.333008 -11.667 -1 -23
c0.666992 -3.33301 1.66699 -10 3 -20c4.66699 -14 16.667 -24 36 -30c19.333 -6.66699 49.666 -10 90.999 -10c52 0 92.333 14 121 42c29.333 27.333 44 65.666 44 114.999c0 50.667 -16 92.667 -48 126s-72 50 -120 50h-99z" />
    <glyph glyph-name="c" unicode="c" horiz-adv-x="727" 
d="M663 625l16 -119.997c0 -2.66699 0.333008 -7 1 -13c0 -0.666992 -0.333008 -2.33398 -1 -5.00098c-2 -3.33301 -4.66699 -5 -8 -5c-4 -0.666992 -10 6.33301 -18 21c-62.667 109.333 -147.334 164 -254.001 164c-84.667 0 -151.667 -26 -201 -78
c-48.667 -52.667 -73 -124.334 -73 -215.001c0 -104.667 27.333 -190 82 -256s124.667 -99 210 -99c50 0 99.333 13.333 148 40c48 26.667 81.333 59 100 97c8.66699 18 15.334 27 20.001 27c5.33301 0 8 -3 8 -9c0 -1.33301 -0.333008 -3.33301 -1 -6
c0 -2 -0.666992 -5.66699 -2 -11c-1.33301 -10 -5 -30.333 -11 -61c-0.666992 -1.33301 -1.33398 -4.33301 -2.00098 -9c-1.33301 -8.66699 -9 -17.667 -23 -27c-77.333 -49.333 -162.333 -74 -255 -74c-107.333 0 -193.666 32 -258.999 96c-66 63.333 -99 147.333 -99 252
c0 103.333 34 189.666 102 258.999c68 68.667 153.333 103 256 103c70.667 0 135.334 -15.667 194.001 -47l20 -11l8 -4c1.33301 0 4.33301 -1 9 -3c1.33301 0 3.66602 1.66699 6.99902 5c7.33301 5.33301 12.333 8 15 8c5.33301 0 9 -6.33301 11 -19z" />
    <glyph glyph-name="d" unicode="d" horiz-adv-x="760" 
d="M130 563c0 34 -5.66699 58.6709 -17 74.0039s-30 24.666 -56 27.999c-11.333 0.666992 -17 4 -17 10c0 6.66699 4.33301 10 13 10c8.66699 -0.666992 21.667 -1.33398 39 -2.00098c4 -0.666992 15.667 -1 35 -1c34 0 60.333 1 79 3c10.667 0.666992 26 2 46 4
s42.333 3 67 3c136.667 0 239 -34.333 307 -103c62 -62.667 93 -143 93 -241c0 -62.667 -13.667 -120.334 -41 -173.001c-26.667 -52.667 -64.667 -94.334 -114 -125.001c-60.667 -38 -127.334 -57 -200.001 -57c-8.66699 0 -24 1 -46 3c-45.333 2.66699 -84.333 4 -117 4
c-35.333 0 -66.333 -2 -93 -6c-12 -1.33301 -21.667 -2.33301 -29 -3h-3c-9.33301 0.666992 -14 4.66699 -14 12c0 6 4.66699 10 14 12c22.667 4.66699 37.334 12.667 44.001 24c6.66699 12 10 36.667 10 74v450zM207 604.004l0.000976562 -516.001
c0 -20.667 10 -34.667 30 -42c17.333 -6.66699 40 -12.667 68 -18c27.333 -4.66699 50.666 -7 69.999 -7c56.667 0 108 14.333 154 43c76.667 48 115 129.667 115 245c0 62.667 -12 120.334 -36 173.001s-57.333 94 -100 124c-51.333 37.333 -114 56 -188 56
c-52.667 0 -86 -6 -100 -18c-8.66699 -6.66699 -13 -20 -13 -40z" />
    <glyph glyph-name="e" unicode="e" horiz-adv-x="599" 
d="M206 604l0.00195312 -201c0 -15.333 1.33301 -24.666 4 -27.999c3.33301 -3.33301 12 -5 26 -5h77c35.333 0 63 2.33301 83 7c18 3.33301 29.667 8 35 14s10.333 20 15 42c1.33301 8.66699 5.33301 12.667 12 12s10 -5.33398 10 -14.001c0 -2 -0.333008 -5.66699 -1 -11
c-2.66699 -32 -4 -61.333 -4 -88c0 -20 1 -40.333 3 -61c0.666992 -6 1 -10.667 1 -14c0 -8.66699 -3.33301 -13 -10 -13s-10.667 3.66699 -12 11l-3 15c-4 22 -12 37 -24 45s-32.333 12 -61 12h-110c-16.667 0 -27.667 -1.66699 -33 -5s-8 -10 -8 -20v-16v-184
c0 -28.667 5 -46.334 15 -53.001c10 -7.33301 35.667 -11 77 -11c131.333 0 215.666 29.667 252.999 89c3.33301 5.33301 7 8 11 8c6 0.666992 9 -3.66602 9 -12.999c0 -21.333 -12 -47 -36 -77c-30 -36 -67.333 -54 -112 -54c-9.33301 0 -22 0.666992 -38 2
c-64 6 -117 9 -159 9c-58 0 -99 -2 -123 -6c-12.667 -2 -21.334 -3 -26.001 -3c-10.667 0 -16 3.66699 -16 11c0 5.33301 4.33301 9 13 11c4 1.33301 10.333 3.33301 19 6c24 6.66699 36 30 36 70v33v422c0 47.333 -5 79.333 -15 96c-10.667 16.667 -31.334 25 -62.001 25
c-9.33301 0 -14 3 -14 9c0 9.33301 7.33301 14 22 14c8.66699 0 20 -0.666992 34 -2c48 -5.33301 105.333 -8 172 -8c40.667 0 76.667 0.666992 108 2c16 0.666992 39.667 2 71 4c19.333 0.666992 31.333 1 36 1c9.33301 1.33301 16 2 20 2c11.333 0 17 -4.66699 17 -14
c0 -2.66699 -0.666992 -6.66699 -2 -12c-1.33301 -4 -2.66602 -17.333 -3.99902 -40c-0.666992 -6 -1.33398 -15.667 -2.00098 -29c-1.33301 -19.333 -3 -31.333 -5 -36c-1.33301 -4.66699 -5 -7.33398 -11 -8.00098c-6.66699 0 -10 5 -10 15v13c0 10.667 -1.66699 21 -5 31
c-6.66699 14.667 -19.667 24.334 -39 29.001c-19.333 5.33301 -54.666 8 -105.999 8h-79c-20.667 0 -34 -2.66699 -40 -8c-6 -4.66699 -9 -16 -9 -34z" />
    <glyph glyph-name="f" unicode="f" horiz-adv-x="530" 
d="M207 607l0.00195312 -197.999v-10v-13c1.33301 -8.66699 11 -13 29 -13c9.33301 0 23.666 -0.333008 42.999 -1h16c10 0.666992 29.667 1.33398 59 2.00098c31.333 0 54 4.33301 68 13c13.333 9.33301 22 25 26 47c1.33301 8.66699 4.66602 13 9.99902 13
c6.66699 0 9.33398 -5.33301 8.00098 -16l-3 -49v-31c0 -39.333 0.666992 -64.333 2 -75c0.666992 -6 1 -10.333 1 -13c0 -8.66699 -3 -13 -9 -13c-6.66699 0 -11.667 8.33301 -15 25c-4 18 -8.33301 30 -13 36c-4.66699 6.66699 -12.334 11 -23.001 13
c-22.667 6 -55.667 9 -99 9c-40 0 -66 -1 -78 -3c-11.333 -1.33301 -18 -5 -20 -11c-1.33301 -6 -2 -16 -2 -30v-186c0 -26 7 -46.667 21 -62c14 -16 32.667 -24 56 -24c12 0 18 -3.33301 18 -10c0.666992 -7.33301 -4.33301 -11 -15 -11c-7.33301 0 -17.333 0.666992 -30 2
c-11.333 0.666992 -28 1 -50 1c-7.33301 0.666992 -18.666 1 -33.999 1c-6.66699 0 -19.334 -0.333008 -38.001 -1c-8.66699 0 -20.334 -0.333008 -35.001 -1c-11.333 -1.33301 -19.666 -2 -24.999 -2c-10 0 -15 3 -15 9c0 5.33301 5.33301 9.33301 16 12
c21.333 4 36 12.667 44 26c7.33301 13.333 11 36.666 11 69.999v450c0 31.333 -5 55.666 -15 72.999c-7.33301 11.333 -15 19 -23 23s-21.667 7 -41 9c-8 0 -12.333 2.66699 -13 8v2c0 7.33301 7 11 21 11c4 0 14 -0.666992 30 -2c30 -3.33301 80.333 -5 151 -5
c62.667 0 103 0.666992 121 2l70 3c30 1.33301 49.333 3 58 5c6.66699 1.33301 12 2 16 2c8 0 12 -4 12 -12c0 -4 -1 -9.33301 -3 -16c-6 -22 -9 -51 -9 -87c0 -15.333 -4 -23 -12 -23c-5.33301 0 -8.33301 4.33301 -9 13c-0.666992 10 -2.66699 20.333 -6 31
c-4 16.667 -9.33301 27.667 -16 33c-6 4.66699 -20.333 8 -43 10l-59 6c-18.667 2 -42.334 3 -71.001 3c-37.333 0 -60.666 -2.66699 -69.999 -8c-8.66699 -4.66699 -13 -17 -13 -37z" />
    <glyph glyph-name="g" unicode="g" horiz-adv-x="772" 
d="M607 167v113c0 20.667 -4.33301 34.667 -13 42c-9.33301 6.66699 -27.333 11 -54 13c-12.667 1.33301 -19 5.66602 -19 12.999c-0.666992 6.66699 4.66602 10 15.999 10h21c6 -0.666992 18.333 -1 37 -1c51.333 0 81 0.333008 89 1c23.333 2 36.666 3 39.999 3
c8 0 12 -3.33301 12 -10c0 -5.33301 -5 -9.66602 -15 -12.999c-25.333 -6 -38 -24 -38 -54c0 -4 0.333008 -9.33301 1 -16v-160v-16c0 -1.33301 -1 -4 -3 -8c-1.33301 -2 -6 -3.33301 -14 -4c-8.66699 -1.33301 -22.667 -7.33301 -42 -18c-7.33301 -4 -18 -10.667 -32 -20
c-65.333 -37.333 -135.333 -56 -210 -56c-100 0 -182 32 -246 96s-96 146.333 -96 247c0 104.667 34 192 102 262c67.333 70 152.333 105 255 105c39.333 0 81 -5.66699 125 -17s79 -25.666 105 -42.999c4 -2 7 -3 9 -3c2.66699 0 6 1 10 3
c2.66699 2 6.33398 5.33301 11.001 10c2.66699 2 5 3 7 3c6 0 9 -8 9 -24c0 -7.33301 1.33301 -18.666 4 -33.999c0.666992 -10.667 2 -26.334 4 -47.001c2 -12.667 4.33301 -25.334 7 -38.001c2 -6 3 -10.667 3 -14c0 -8.66699 -3.33301 -13 -10 -13
c-4 0 -7.66699 2.66699 -11 8c-26 53.333 -66 97 -120 131c-54 33.333 -111 50 -171 50c-76 0 -137.667 -28.667 -185 -86c-47.333 -58 -71 -132.333 -71 -223c0 -96.667 27.333 -178 82 -244c54.667 -65.333 122.334 -98 203.001 -98c78 0 138.667 27.333 182 82
c10.667 13.333 16 36 16 68z" />
    <glyph glyph-name="h" unicode="h" horiz-adv-x="784" 
d="M249 374l294.998 -0.000976562c14.667 0 24 1.33301 28 4s6 8.66699 6 18v170c0 34 -4.33301 58.333 -13 73c-9.33301 14 -25.666 23.667 -48.999 29c-10 2 -14.667 6.33301 -14 13c0 5.33301 4 8 12 8c6.66699 0 18 -0.666992 34 -2c22 -2.66699 45.333 -4 70 -4
c35.333 0 60.333 1 75 3c8.66699 1.33301 14.667 2 18 2c8.66699 0 13 -3 13 -9c0 -5.33301 -4.33301 -9 -13 -11c-4 -0.666992 -10.667 -2 -20 -4c-10 -2 -18.667 -9.33301 -26 -22c-6.66699 -12.667 -10 -27.334 -10 -44.001v-484c0 -36 5 -60.667 15 -74
c9.33301 -13.333 28.333 -21.666 57 -24.999c10.667 -1.33301 16 -4.66602 16 -9.99902v-1c0 -7.33301 -4.66699 -11 -14 -11c-6.66699 0 -15.334 1 -26.001 3c-8 1.33301 -24.667 2 -50 2h-37c-6 0 -18.667 -0.333008 -38 -1c-6 0 -14 -0.333008 -24 -1
c-20 -2 -31.333 -3 -34 -3h-2c-6.66699 0 -10 3.33301 -10 10c0 6 5.66699 10 17 12c34.667 5.33301 52 33.666 52 84.999c0.666992 4 1 10.333 1 19v184c0 16 -1.33301 25.333 -4 28c-3.33301 2.66699 -13.666 4 -30.999 4h-294c-19.333 0 -31 -2 -35 -6
c-4.66699 -4 -7 -13.667 -7 -29v-184c0 -34.667 5.33301 -59 16 -73s31 -22.667 61 -26c12.667 -1.33301 19 -5.66602 19 -12.999c0.666992 -7.33301 -4 -11 -14 -11c-4.66699 0 -12.667 1 -24 3c-9.33301 2 -29.666 3 -60.999 3h-42c-5.33301 0 -16.333 -0.333008 -33 -1
c-8 0 -18.333 -0.666992 -31 -2c-17.333 -1.33301 -28 -2 -32 -2c-8 0 -12 3.33301 -12 10c0 6 4.33301 10 13 12l25 6c14.667 3.33301 24.667 14.333 30 33s8 51.334 8 98.001v429c0 28.667 -5.33301 49.667 -16 63c-11.333 13.333 -31 22 -59 26c-10 1.33301 -15 5 -15 11
c0 6.66699 3.66699 10 11 10h2c6.66699 0 16.667 -1 30 -3c26 -3.33301 56.667 -5 92 -5c23.333 0 45.333 1.66699 66 5c9.33301 0.666992 16.333 1 21 1c9.33301 0 14 -3.33301 14 -10c0 -5.33301 -4.33301 -9.33301 -13 -12c-22 -5.33301 -37 -13.333 -45 -24
c-7.33301 -10.667 -11 -28.334 -11 -53.001v-178c0 -18.667 1.66699 -30 5 -34c4 -3.33301 16.333 -5 37 -5z" />
    <glyph glyph-name="i" unicode="i" horiz-adv-x="336" 
d="M207 537v-375.001c0 -46.667 2.66699 -77.334 8 -92.001c6.66699 -17.333 15 -29.333 25 -36c10 -7.33301 25.333 -12.333 46 -15c16.667 -2.66699 25 -6.66699 25 -12c0 -8.66699 -5.33301 -13 -16 -13c-4.66699 0 -11 0.666992 -19 2c-10 1.33301 -27.667 2 -53 2
c-16 0 -40 0.333008 -72 1c-10 -0.666992 -29.667 -1.66699 -59 -3c-9.33301 -1.33301 -17.333 -2 -24 -2c-8.66699 0 -13 3.33301 -13 10s5 10.667 15 12c25.333 4.66699 41.666 13.334 48.999 26.001c7.33301 13.333 11 41.333 11 84v427c0 41.333 -4.66699 69.333 -14 84
c-9.33301 14 -29.666 23.667 -60.999 29c-10.667 2 -16 6 -16 12v1c0 6.66699 5 10 15 10h9c24 -3.33301 56 -5 96 -5c24.667 0 46 0.666992 64 2l34 3h12c8.66699 0 13 -3.33301 13 -10c0 -5.33301 -4 -9.66602 -12 -12.999c-6 -2 -14.667 -5.33301 -26 -10
c-24.667 -9.33301 -37 -49 -37 -119z" />
    <glyph glyph-name="j" unicode="j" horiz-adv-x="316" 
d="M130 41l0.000976562 507.001c0 39.333 -3.66699 66.666 -11 81.999s-21.666 25.333 -42.999 30l-30 6c-10 2.66699 -15 7.33398 -15 14.001c0 7.33301 4.66699 11 14 11h2c6.66699 -0.666992 18.667 -2 36 -4s45.666 -3 84.999 -3c33.333 0 54.333 0.666992 63 2
c16 2 25.667 3 29 3c6 0 9 -3 9 -9s-4.66699 -10.333 -14 -13c-18.667 -4.66699 -31.334 -12 -38.001 -22s-10 -27.333 -10 -52v-42v-21v-440v-24c-1.33301 -10.667 -3.66602 -32.334 -6.99902 -65.001c-11.333 -54.667 -34.666 -100.667 -69.999 -138s-73 -56 -113 -56
c-11.333 0 -21 2.66699 -29 8c-8.66699 5.33301 -13 11.333 -13 18c0 3.33301 0.666992 7.33301 2 12c1.33301 2.66699 3 8.66699 5 18c4 21.333 10.333 32 19 32c4 0 9.66699 -4.66699 17 -14c14 -15.333 29 -23 45 -23c19.333 0 35.666 13 48.999 39
c13.333 25.333 20 56.666 20 93.999c-0.666992 10.667 -1.33398 27.334 -2.00098 50.001z" />
    <glyph glyph-name="k" unicode="k" horiz-adv-x="666" 
d="M206 300v-184c0 -38 5.33301 -63 16 -75c10 -12.667 33.333 -22 70 -28c10 -2 15.333 -5.66699 16 -11c0 -6 -3.66699 -9 -11 -9h-2c-4 0 -13 0.666992 -27 2c-10.667 0.666992 -30.334 1 -59.001 1c-8.66699 0.666992 -22 1 -40 1c-6 0 -17.667 -0.333008 -35 -1h-28
c-18 -2 -28 -3 -30 -3c-10.667 0 -16 4 -16 12c0 5.33301 4.66699 8.66602 14 9.99902c20.667 1.33301 35 11 43 29s12 47.667 12 89v425c0 36 -3.66699 61 -11 75c-8 14 -22.667 23.333 -44 28c-5.33301 1.33301 -13.666 3 -24.999 5c-8.66699 2 -13 5.33301 -13 10
c0 7.33301 4.66699 11 14 11c4.66699 0 10.667 -0.333008 18 -1c17.333 -2.66699 44 -4 80 -4c4 0.666992 10.333 1 19 1c6 0 18.333 0.333008 37 1h26c13.333 2 21.333 3 24 3c8 0 12 -3.33301 12 -10c0 -4.66699 -4 -8.66699 -12 -12c-20.667 -8.66699 -34 -19 -40 -31
c-5.33301 -11.333 -8 -34 -8 -68v-195c0 -6.66699 1.33301 -10 4 -10c2 0.666992 4.66699 2.33398 8 5.00098c1.33301 1.33301 4 3.33301 8 6l215 192c32.667 30 49 53.667 49 71c0 15.333 -11.667 25.333 -35 30c-16 2 -24 6.33301 -24 13s5.33301 10 16 10
c3.33301 0 7.66602 -0.333008 12.999 -1c14 -1.33301 30 -2 48 -2c10 0 25 -0.333008 45 -1h38c21.333 0 35.333 0.666992 42 2c7.33301 0.666992 12.333 1 15 1c9.33301 0 14.333 -3 15 -9c0 -5.33301 -8 -10.333 -24 -15c-30.667 -7.33301 -88.334 -49.333 -173.001 -126
l-171 -154c-7.33301 -6.66699 -11.333 -12 -12 -16c-0.666992 -5.33301 3.33301 -12.333 12 -21l261 -272c28 -28.667 58.333 -46.667 91 -54c4.66699 -0.666992 11.667 -2 21 -4c8 -1.33301 12 -4.66602 12 -9.99902c0 -8.66699 -5 -12.667 -15 -12
c-3.33301 0 -7.66602 0.666992 -12.999 2c-6 0.666992 -20.333 1 -43 1c-19.333 0 -33.666 -0.333008 -42.999 -1c-10 -0.666992 -17.667 -1 -23 -1c-11.333 0 -21.333 4.66699 -30 14c-1.33301 2 -4 5 -8 9l-268 277c-2 1.33301 -5.33301 4.66602 -10 9.99902
c-4 4 -8 6 -12 6c-6 0 -9 -3.66699 -9 -11z" />
    <glyph glyph-name="l" unicode="l" horiz-adv-x="558" 
d="M206 135c0 -2.66699 0.329102 -8.33105 0.996094 -16.998c0 -40.667 3.66699 -64.667 11 -72c8 -6.66699 33 -10 75 -10c62 0 116 7.33301 162 22s75.333 34 88 58c4.66699 9.33301 9.33398 14 14.001 14s7.33398 -2.66699 8.00098 -8
c0 -0.666992 -0.333008 -1.33398 -1 -2.00098c-1.33301 -22 -12 -46.333 -32 -73c-28.667 -36 -75 -54 -139 -54c-10.667 0 -23 0.333008 -37 1c-12 1.33301 -30 3 -54 5c-32 2 -65.667 3 -101 3c-40.667 0 -75 -2 -103 -6c-11.333 -2 -20.666 -3 -27.999 -3h-2
c-7.33301 0 -11 3 -11 9c0 5.33301 4.66699 9.33301 14 12c22.667 7.33301 38 17.666 46 30.999s12 36 12 68v23v447c0 44 -17.667 69.667 -53 77c-5.33301 1.33301 -13 3 -23 5c-8 2 -12 5.33301 -12 10c0 8 5.66699 12 17 12c8 0 18.333 -1 31 -3c23.333 -2 49 -3 77 -3
c30.667 0 58.334 1 83.001 3c12.667 0.666992 20 1 22 1c8 0 12 -2.33301 12 -7c0 -8 -5 -13 -15 -15c-3.33301 -0.666992 -9 -2 -17 -4c-30 -7.33301 -45 -37.333 -45 -90v-434z" />
    <glyph glyph-name="m" unicode="m" horiz-adv-x="879" 
d="M663 504c-28.667 -49.333 -47.6641 -83.666 -56.9971 -102.999l-45 -96l-50 -105c-3.33301 -6 -17.666 -37.333 -42.999 -94c-10 -23.333 -19 -42.333 -27 -57c-4 -9.33301 -6.66699 -15.666 -8 -18.999c-6.66699 -16 -14 -24 -22 -24s-15.667 8.33301 -23 25l-14 27
c-2 4.66699 -5.33301 11.667 -10 21l-187 406l-12 -247c-0.666992 -20.667 -1 -61.334 -1 -122.001c0 -58.667 20.333 -91.334 61 -98.001c20.667 -3.33301 31 -8.33301 31 -15c0 -8 -5 -12 -15 -12c-6 0 -12 0.666992 -18 2c-37.333 3.33301 -66 5 -86 5
c-24.667 0 -48.334 -1.66699 -71.001 -5c-6 -1.33301 -11 -2 -15 -2c-10 0 -15 3.66699 -15 11c0 6 4 10 12 12c24 5.33301 41 16.666 51 33.999c9.33301 16.667 15 45.667 17 87c2 32 4.66699 80 8 144c4.66699 105.333 7 172 7 200c0 58.667 -8 102.334 -24 131.001
c-15.333 28.667 -41.333 46.334 -78 53.001c-10 1.33301 -15 5.66602 -15 12.999s4 11 12 11c3.33301 0 9 -0.333008 17 -1c4.66699 -1.33301 16 -2 34 -2c27.333 0 44.666 0.666992 51.999 2c7.33301 0.666992 13.666 1 18.999 1c14 0 25.667 -10.667 35 -32
c1.33301 -2 3.33301 -5.66699 6 -11l209 -450l25 -51c3.33301 -8.66699 6 -13 8 -13s4.66699 3.33301 8 10c1.33301 2.66699 3 7 5 13c1.33301 2 3 5.33301 5 10l235 503c5.33301 10.667 9 17.334 11 20.001c2.66699 2 7 3 13 3c3.33301 0 10.666 -0.666992 21.999 -2h17
c20.667 0 37.667 0.666992 51 2c6 0 10.667 0.333008 14 1h1c6 0 9 -3.33301 9 -10c0 -6 -3.33301 -10 -10 -12c-4.66699 -1.33301 -11.667 -3 -21 -5c-17.333 -4 -29.333 -14.667 -36 -32c-6.66699 -16.667 -10 -44.334 -10 -83.001l3 -120
c1.33301 -45.333 4.33301 -136 9 -272c0.666992 -10 1.33398 -30.667 2.00098 -62c0 -26 5 -44.333 15 -55c9.33301 -10.667 26.333 -18 51 -22c17.333 -2.66699 26 -7 26 -13c0 -7.33301 -6 -11 -18 -11c-4 0 -8.33301 0.333008 -13 1c-8.66699 0.666992 -21.667 2 -39 4
c-13.333 1.33301 -27.333 2 -42 2c-10 -0 -26.333 -0.666992 -49 -2c-34.667 -1.33301 -54.667 -2 -60 -2c-10 0 -15 2.66699 -15 8s4.33301 9.33301 13 12c19.333 5.33301 32.333 14 39 26c7.33301 12 11 33 11 63c-0.666992 18 -1.33398 45 -2.00098 81
c-2.66699 53.333 -7 159.333 -13 318z" />
    <glyph glyph-name="n" unicode="n" horiz-adv-x="758" 
d="M649 491l-0.00390625 -419.001c0 -38 -1 -61 -3 -69c-1.33301 -7.33301 -5.66602 -11.333 -12.999 -12h-1c-4.66699 0.666992 -8.66699 2.33398 -12 5.00098c-2 2.66699 -5.66699 7 -11 13l-421 482c-0.666992 0.666992 -2.33398 2.66699 -5.00098 6
c-2 2 -4.33301 3 -7 3c-6 0 -9 -7.66699 -9 -23v-339c-0.666992 -3.33301 -1 -10.333 -1 -21c0 -6 0.333008 -18 1 -36c2.66699 -21.333 8.66699 -36.333 18 -45c8.66699 -8.66699 26.334 -15 53.001 -19c10.667 -1.33301 16 -5.66602 16 -12.999
c0 -6.66699 -3.33301 -10 -10 -10c-5.33301 0 -10.666 0.666992 -15.999 2c-3.33301 0 -17.666 1 -42.999 3c-11.333 0 -28.333 0.666992 -51 2c-4 0 -12 -0.333008 -24 -1c-13.333 0 -25.666 -0.666992 -36.999 -2c-8.66699 -1.33301 -14.667 -2 -18 -2
c-9.33301 0 -14 3 -14 9c-0.666992 4.66699 4 8.66699 14 12c28 10 46.667 23 56 39c10 16.667 15 43 15 79v339c0 58 -9.33301 103.667 -28 137c-18 32.667 -44.333 51.667 -79 57c-8.66699 1.33301 -13 5 -13 11c0 6.66699 3.66699 10 11 10c1.33301 0 4 -0.333008 8 -1
c4 0 10.667 -0.333008 20 -1h34h8h18c8.66699 0 17 -4.66699 25 -14l460 -521c7.33301 -8 12 -12 14 -12c3.33301 0 5 3.33301 5 10v247c0.666992 11.333 1 34 1 68c-1.33301 18.667 -3.33301 57 -6 115c-3.33301 28 -11.666 48 -24.999 60c-13.333 11.333 -37 20 -71 26
c-9.33301 1.33301 -14 5.66602 -14 12.999c0 6 4.66699 9 14 9c4 0 11 -0.333008 21 -1c23.333 -3.33301 54.333 -5 93 -5c20 0 36.333 1.33301 49 4c10.667 2 18.667 3 24 3c8.66699 0 13.667 -3.66699 15 -11v-1c-0.666992 -4 -4 -7 -10 -9
c-20.667 -4.66699 -34.334 -13 -41.001 -25c-6.66699 -11.333 -10 -33 -10 -65v-54v-33z" />
    <glyph glyph-name="o" unicode="o" horiz-adv-x="802" 
d="M404 696c104.667 0 190.333 -32.332 257 -96.999c66.667 -64 100 -146.667 100 -248c0 -106.667 -33.667 -194 -101 -262c-67.333 -68.667 -153.333 -103 -258 -103c-107.333 0 -194.333 33 -261 99c-66.667 65.333 -100 151 -100 257
c0 45.333 8.66699 90.666 26 135.999c18 45.333 41.667 83 71 113c31.333 32 71 57.667 119 77c48 18.667 97 28 147 28zM371.999 663.001c-77.333 0 -138.667 -26.001 -184 -78.001c-46 -52 -69 -122 -69 -210c0 -101.333 29.333 -186.666 88 -255.999
c58 -69.333 129.333 -104 214 -104c77.333 0 141.333 28.333 192 85c50 56.667 75 128 75 214c0 100 -30 183.333 -90 250c-60.667 66 -136 99 -226 99z" />
    <glyph glyph-name="p" unicode="p" horiz-adv-x="542" 
d="M207 603l0.00195312 -416.999c-0.666992 -8 -1 -24.333 -1 -49c0 -6.66699 0.333008 -20.667 1 -42c4 -40 19 -63.333 45 -70c18.667 -5.33301 32.667 -8 42 -8c10 0 15.333 -2.66699 16 -8c0.666992 -8.66699 -5.33301 -13 -18 -13
c-5.33301 0 -16.666 0.666992 -33.999 2c-10.667 0.666992 -27.667 1 -51 1h-36h-39c-19.333 0 -34.333 -0.666992 -45 -2c-12.667 -2 -22 -3 -28 -3c-8.66699 0 -13 3.33301 -13 10s5.66699 11 17 13c26 4 43.667 18.667 53 44c9.33301 24.667 14 70.334 14 137.001v303
c0 70 -4 114.333 -12 133c-8.66699 18.667 -29.667 29.667 -63 33c-8.66699 0.666992 -13 3.66699 -13 9v1c0 8 6.66699 12 20 12c6 0 14.333 -1 25 -3c21.333 -3.33301 38.666 -5 51.999 -5c21.333 0 52.333 2 93 6c20.667 1.33301 38 2 52 2
c69.333 0 125.666 -16.667 168.999 -50c44 -33.333 66 -77 66 -131c0 -65.333 -26.667 -117 -80 -155c-40.667 -28 -83.334 -42 -128.001 -42c-20.667 0 -39.667 2.33301 -57 7c-17.333 5.33301 -26 10.666 -26 15.999c1.33301 4 4.66602 6 9.99902 6
c2.66699 0 6 -0.666992 10 -2c8 -2 20.333 -3 37 -3c48 0 86.333 13 115 39c29.333 26.667 44 61.667 44 105c0 50 -19.333 91.667 -58 125c-38 33.333 -86 50 -144 50c-13.333 0 -22.666 -2.66699 -27.999 -8c-4.66699 -4.66699 -7 -14.334 -7 -29.001v-14z" />
    <glyph glyph-name="q" unicode="q" horiz-adv-x="789" 
d="M190 44c-99.333 76.667 -148.998 174.332 -148.998 292.999c0 94.667 27 175 81 241c65.333 78.667 156.666 118 273.999 118c103.333 0 188 -32.667 254 -98c65.333 -66 98 -151.333 98 -256c0 -67.333 -15 -128.666 -45 -183.999
c-30.667 -56 -72.334 -99 -125.001 -129c-34 -18.667 -73.333 -32.334 -118 -41.001c33.333 -17.333 56.666 -30 69.999 -38l47 -31c6 -4 18.667 -12 38 -24c28.667 -18.667 52.334 -28 71.001 -28c28 0 52.333 5.66699 73 17c6 3.33301 10.667 5 14 5
c6 0.666992 9 -1.66602 9 -6.99902v-1c0 -12 -15.667 -24.667 -47 -38c-32 -13.333 -63 -20 -93 -20c-40 0 -87.333 16 -142 48c-48 28 -76.333 44.333 -85 49l-85 44c-50 26.667 -86.667 40 -110 40c-20 0 -38.333 -8 -55 -24c-17.333 -16.667 -27.666 -36.667 -30.999 -60
c-2.66699 -12 -7 -18 -13 -18c-8.66699 0 -12.334 5.33301 -11.001 16c0.666992 25.333 9 50.666 25 75.999c16 24.667 34.333 41.334 55 50.001zM366.002 666.998c-72.667 0 -131.666 -26.332 -176.999 -78.999c-45.333 -53.333 -68 -122 -68 -206
c0 -122.667 38.333 -219.334 115 -290.001c58 -52 122.667 -78 194 -78c73.333 0 132.666 25.667 177.999 77c45.333 52 68 119.667 68 203c0 103.333 -30.333 191.333 -91 264c-60 72.667 -133 109 -219 109z" />
    <glyph glyph-name="r" unicode="r" horiz-adv-x="671" 
d="M388 343l138.997 -203.996l16 -24c42.667 -62.667 81.667 -95.334 117 -98.001h16c6 -0.666992 9 -2.66699 9 -6v-2c-0.666992 -4.66699 -8 -9 -22 -13c-14.667 -4 -31 -6 -49 -6c-30 0 -57 8.33301 -81 25c-24 16 -48.333 42.667 -73 80l-125 191
c-0.666992 1.33301 -2.66699 5 -6 11c-8.66699 13.333 -22 20 -40 20h-66c-2 -0.666992 -5.66699 -1.33398 -11 -2.00098c-4 -2.66699 -6 -8 -6 -16v-156c0 -3.33301 0.333008 -10 1 -20c0 -28.667 1.33301 -48.334 4 -59.001c2.66699 -10 9.33398 -19.333 20.001 -28
c14 -11.333 36 -18.333 66 -21c12.667 -2 19 -6 19 -12c0.666992 -6.66699 -4.66602 -10 -15.999 -10c-5.33301 0 -15.333 0.666992 -30 2c-14 1.33301 -35 2 -63 2c-10.667 0 -26.667 0.333008 -48 1c-4.66699 -0.666992 -13.667 -1 -27 -1c-10.667 0 -24 -1 -40 -3
c-13.333 -0.666992 -22.333 -1 -27 -1c-8.66699 0 -13 3.33301 -13 10c0 4.66699 4.33301 8 13 10c26.667 4.66699 44 16.667 52 36s12 57 12 113v359v53c0 52 -18.333 80.667 -55 86c-5.33301 1.33301 -13.333 2.66602 -24 3.99902c-10.667 2 -16 6 -16 12
c0 7.33301 6 11 18 11c2 0 13.667 -1 35 -3c12 -0.666992 26.667 -1 44 -1c15.333 0 41.333 1.33301 78 4c26.667 1.33301 50.334 2 71.001 2c76.667 0 134.667 -14.333 174 -43c38.667 -29.333 58 -72.333 58 -129c0 -75.333 -41.333 -133.333 -124 -174zM240.997 354.004
h56.999c44 0 78.333 12 103 36c25.333 24 38 57 38 99c0 48 -17 87.667 -51 119s-77.667 47 -131 47c-19.333 0 -32.666 -3.33301 -39.999 -10s-11 -18.667 -11 -36v-16v-203c0 -15.333 2 -25.333 6 -30c4 -4 13.667 -6 29 -6z" />
    <glyph glyph-name="s" unicode="s" horiz-adv-x="513" 
d="M261 696c35.333 0 65.334 -5.00098 90.001 -15.001l35 -15c3.33301 -1.33301 6.33301 -2 9 -2c4 0 8 1.66699 12 5c1.33301 1.33301 3.66602 3.33301 6.99902 6c0.666992 1.33301 2.66699 2 6 2c8 0.666992 12 -7.66602 12 -24.999c0 -5.33301 2.33301 -22 7 -50
c1.33301 -11.333 4 -28.333 8 -51c1.33301 -11.333 2 -18.333 2 -21c0 -10.667 -3.33301 -16 -10 -16c-5.33301 0 -10.666 8 -15.999 24c-12.667 36.667 -37.334 66.667 -74.001 90s-77.667 35 -123 35c-36 0 -66 -10.667 -90 -32s-36 -48 -36 -80
c0 -27.333 7.66699 -51.333 23 -72c13.333 -17.333 28.333 -30 45 -38c16 -8 55.667 -22.333 119 -43c123.333 -40.667 185 -107 185 -199c0 -62.667 -22.667 -113.667 -68 -153c-45.333 -40 -103.333 -60 -174 -60c-26 0 -54.333 4 -85 12
c-31.333 7.33301 -54 15.666 -68 24.999c-6 4 -10 8.33301 -12 13c-2 4 -5 15.667 -9 35c-0.666992 2 -4.66699 17 -12 45c-8.66699 30 -13 51.333 -13 64c0 10 3.33301 14.667 10 14c5.33301 0 10.666 -8 15.999 -24c11.333 -41.333 36.666 -76 75.999 -104
c38.667 -28 80.334 -42 125.001 -42c46 0 85 13.667 117 41c32 26.667 48 59.334 48 98.001c0 36.667 -14.667 68 -44 94c-15.333 12.667 -58.666 31 -129.999 55c-74 25.333 -126.333 53 -157 83c-30.667 30.667 -46 70 -46 118c0 54 20 98 60 132s91.667 51 155 51z" />
    <glyph glyph-name="t" unicode="t" horiz-adv-x="623" 
d="M524 630l-140.999 -0.000976562c-14.667 0 -24 -2 -28 -6c-3.33301 -4 -5 -14 -5 -30v-489v-20c2 -39.333 23.667 -62.666 65 -69.999c12 -2 18 -5.66699 18 -11c0 -7.33301 -4.66699 -11 -14 -11c-4 0 -12.333 1 -25 3c-6 1.33301 -20.667 2 -44 2h-37h-39
c-14 0 -25.667 -0.666992 -35 -2c-19.333 -2 -30.666 -3 -33.999 -3c-10 0 -15 3.66699 -15 11c0 5.33301 5.66699 8.66602 17 9.99902c25.333 3.33301 42.333 10.333 51 21c9.33301 11.333 14 31 14 59v495c0 2 -0.333008 6.33301 -1 13c0 12 -1.66699 19.667 -5 23
s-11.333 5 -24 5h-132c-27.333 0 -47 -5.33301 -59 -16s-21.333 -31 -28 -61c-3.33301 -13.333 -8 -19.666 -14 -18.999c-6 0 -9 4.33301 -9 13c0 7.33301 2 20 6 38c5.33301 24.667 8 44.667 8 60s1.66699 25.333 5 30s10.666 7 21.999 7h538
c18.667 0 29.667 -1.66699 33 -5c4 -4 6 -16 6 -36c0 -19.333 0.666992 -33.666 2 -42.999c2 -11.333 3 -19.333 3 -24c0.666992 -0.666992 1 -1.33398 1 -2.00098c-0.666992 -9.33301 -4.33398 -14 -11.001 -14c-6 -0.666992 -10 4.33301 -12 15
c-4.66699 24 -11.667 39.333 -21 46c-9.33301 7.33301 -28 11 -56 11z" />
    <glyph glyph-name="u" unicode="u" horiz-adv-x="793" 
d="M652 287l0.00195312 259.001c0 42 -6 72.333 -18 91s-32.333 29.667 -61 33c-9.33301 0.666992 -14 4.33398 -14 11.001s2.66699 10 8 10h2c7.33301 -0.666992 18 -2 32 -4c12.667 -2 27.667 -3 45 -3c37.333 0 60.333 0.666992 69 2c11.333 0.666992 18.666 1 21.999 1
c6 0 9 -3 9 -9c0 -4.66699 -3.33301 -8.66699 -10 -12c-20.667 -8 -34 -19.667 -40 -35c-6 -14.667 -9 -43 -9 -85v-248c0 -90.667 -18 -160.334 -54 -209.001c-22.667 -31.333 -55.667 -56.333 -99 -75c-42.667 -18.667 -88.334 -28 -137.001 -28
c-56.667 0 -107.667 11 -153 33s-78.333 52 -99 90c-24 43.333 -36 100 -36 170v253c0 5.33301 -0.333008 15 -1 29c0 36 -5 60.667 -15 74c-9.33301 13.333 -29 22.333 -59 27c-9.33301 0.666992 -14 4 -14 10c0 8 6.33301 12 19 12c8.66699 0 20.334 -0.333008 35.001 -1
c15.333 -1.33301 26.666 -2 33.999 -2c8 0.666992 20.667 1 38 1h38c4 0 13.333 0.666992 28 2c12.667 1.33301 21.334 2 26.001 2c7.33301 0 11 -2.66699 11 -8c0 -6.66699 -5.33301 -11 -16 -13c-19.333 -4.66699 -32.333 -13 -39 -25c-6 -12.667 -9 -35.334 -9 -68.001
v-32v-253c0 -85.333 13.333 -146.666 40 -183.999c38 -52 101.333 -78 190 -78c79.333 0 138.666 22 177.999 66c39.333 43.333 59 108.666 59 195.999z" />
    <glyph glyph-name="v" unicode="v" horiz-adv-x="689" 
d="M180 564l191.997 -440.001c4.66699 -10.667 9 -16 13 -16c3.33301 0 9.33301 9.66699 18 29c2 4 4.66699 10 8 18l110 260c47.333 112 71 184 71 216c0 10.667 -2.33301 18.334 -7 23.001c-5.33301 4 -15.666 7.66699 -30.999 11c-18.667 4 -27.667 8.66699 -27 14
c0 6.66699 5.33301 10 16 10c2 0 7 -0.333008 15 -1c24 -1.33301 38.667 -2 44 -2h21c3.33301 0 10.666 0.333008 21.999 1h12h43c6.66699 0 10 -2.66699 10 -8s-3.33301 -9 -10 -11c-24.667 -8.66699 -43 -28 -55 -58c-3.33301 -7.33301 -8 -18.333 -14 -33l-248 -582
c-7.33301 -16.667 -14.333 -25 -21 -25s-13.667 8.66699 -21 26l-254 587c-11.333 26.667 -22 45.334 -32 56.001c-9.33301 10.667 -22.666 17.667 -39.999 21c-16.667 3.33301 -26.667 5.66602 -30 6.99902s-5 4 -5 8c0 6.66699 4.66699 10 14 10
c2.66699 0 7.66699 -0.333008 15 -1c5.33301 -0.666992 22 -1 50 -1c10.667 0 26.334 -0.333008 47.001 -1c6 0.666992 17.333 1 34 1c7.33301 0 18 0.666992 32 2c6.66699 0.666992 11.334 1 14.001 1c8.66699 0 13 -3.33301 13 -10c0 -4 -3 -7.66699 -9 -11
c-14 -4.66699 -22.667 -8.66699 -26 -12c-3.33301 -4 -5 -10.333 -5 -19c0 -14 7 -37.333 21 -70z" />
    <glyph glyph-name="w" unicode="w" horiz-adv-x="990" 
d="M551 385l100.998 -237c10.667 -26.667 18.667 -40 24 -40c4 0 9.33301 8 16 24c2 4.66699 6.33301 13.667 13 27c43.333 97.333 84 195.333 122 294s57 157 57 175c0 15.333 -14.333 26 -43 32c-15.333 3.33301 -23 8.66602 -23 15.999s5 11 15 11h8
c14.667 -1.33301 35 -2 61 -2c30 0 52.333 1 67 3c11.333 1.33301 19.333 2 24 2c7.33301 0 11 -3.66699 11 -11c0 -5.33301 -4.66699 -10 -14 -14c-14 -5.33301 -24.333 -15.666 -31 -30.999l-27 -59c-12 -24.667 -29.667 -65 -53 -121l-57 -133l-60 -135l-40 -94l-24 -55
c-2 -4 -5.66699 -12.333 -11 -25l-8 -16c-8.66699 -18 -17 -27 -25 -27s-15.333 8 -22 24l-124 290l-125 -298c-6 -14 -12 -21.333 -18 -22l-1 1c-8.66699 0 -18.334 12.667 -29.001 38l-206 495c-2 5.33301 -6.33301 16 -13 32c-18 46 -33.667 77.667 -47 95
s-30.666 28.333 -51.999 33c-4 1.33301 -10.667 3 -20 5c-7.33301 2 -11 6 -11 12c0 8.66699 5 13 15 13c3.33301 0 7.66602 -0.333008 12.999 -1c12.667 -2 29.334 -3 50.001 -3c14 0 34.667 -0.333008 62 -1c6.66699 0.666992 20.334 1.33398 41.001 2.00098
c17.333 1.33301 28 2 32 2c8.66699 0 13 -4.33301 13 -13c0 -6.66699 -3.66699 -11 -11 -13c-21.333 -6 -32 -15.667 -32 -29c0 -16 12.333 -52 37 -108c11.333 -25.333 29.333 -68.666 54 -129.999c24 -58.667 41 -99.334 51 -122.001l49 -109
c5.33301 -11.333 9 -19.333 11 -24c1.33301 -2 3.33301 -5.33301 6 -10c4 -7.33301 6.66699 -11 8 -11c2.66699 0 6.33398 5.33301 11.001 16l3 6l85 201l-12 30l-44 104c-7.33301 16 -21.333 48.333 -42 97c-16 35.333 -28 57.666 -36 66.999
c-8.66699 10 -21.667 16.333 -39 19c-27.333 3.33301 -40.666 9.33301 -39.999 18c0 6.66699 7 10 21 10c4 0 10.333 -0.333008 19 -1c16 0 48.333 -1 97 -3c14 0 30.333 1 49 3c11.333 1.33301 18.666 2 21.999 2c12 0 18 -4 18 -12c0 -5.33301 -5.66699 -10 -17 -14
c-16 -7.33301 -24 -18 -24 -32c0 -12.667 6 -33.334 18 -62.001l53 -125l10 23c38 85.333 57 141 57 167c0 15.333 -11 25 -33 29c-16 2.66699 -24 8 -24 16c0 6.66699 5.66699 10 17 10c2.66699 0 9.33398 -0.333008 20.001 -1c14.667 -0.666992 31.667 -1 51 -1
c21.333 0 37.666 0.666992 48.999 2c10 1.33301 17 2 21 2c10 0 15 -4 15 -12c0 -5.33301 -6 -9.66602 -18 -12.999c-12.667 -4 -21.667 -10 -27 -18c-6 -8 -16.667 -30.333 -32 -67z" />
    <glyph glyph-name="x" unicode="x" horiz-adv-x="642" 
d="M376 343l127.999 -193.002c32.667 -49.333 59 -85.333 79 -108c12.667 -14 31.334 -23.333 56.001 -28c11.333 -2.66699 17 -7 17 -13c0 -5.33301 -4.66699 -8 -14 -8c-4 0 -10.333 0.333008 -19 1c-15.333 2.66699 -40.333 4 -75 4c-6 0 -14.667 0.333008 -26 1
c-10.667 -1.33301 -32.334 -3.33301 -65.001 -6c-8.66699 -1.33301 -15.667 -2 -21 -2c-8.66699 0 -13 3.33301 -13 10c0 6 6 10.667 18 14c18.667 4.66699 28 15 28 31c0 9.33301 -6 23 -18 41l-131 197c-6 8.66699 -10 13 -12 13c-3.33301 0 -10.666 -8.66699 -21.999 -26
c-30 -44.667 -47.333 -69.667 -52 -75l-49 -72c-25.333 -34.667 -38.333 -60.334 -39 -77.001c-0.666992 -18.667 7.33301 -29 24 -31l26 -3c8.66699 -0.666992 13 -4.66699 13 -12c0 -6.66699 -4.33301 -10 -13 -10c-5.33301 0 -12.333 0.666992 -21 2
c-18.667 3.33301 -39.334 5 -62.001 5c-24.667 0 -51.334 -1.33301 -80.001 -4c-8.66699 -0.666992 -15 -1 -19 -1c-10.667 0 -16.667 2.66699 -18 8c0 5.33301 4.33301 9 13 11c22 6 40 14.667 54 26s31.333 31.333 52 60c20 29.333 37.333 53.333 52 72
c42 58 67 93.333 75 106l23 33c9.33301 13.333 14 22.333 14 27s-3 11.334 -9 20.001c-2 4 -5.33301 9.66699 -10 17l-110 162c-37.333 56.667 -64 92 -80 106c-15.333 14.667 -36.333 23.667 -63 27c-13.333 1.33301 -20 5 -20 11c0 6.66699 6 10 18 10
c24 0 61 -1.66699 111 -5c10.667 -1.33301 19.334 -2 26.001 -2c4 0 22.667 1.66699 56 5c6 0.666992 12.333 1 19 1c10.667 0 16 -3.66699 16 -11c0 -5.33301 -5.33301 -9 -16 -11c-19.333 -2.66699 -29 -11.667 -29 -27c0 -9.33301 7.33301 -25.333 22 -48l117 -175
c2 -2.66699 4 -4 6 -4s6 3.66699 12 11l103 147c2.66699 4 8.33398 11.667 17.001 23c12.667 16 19 29.667 19 41c0 15.333 -7.66699 25 -23 29c-4 1.33301 -9.66699 3 -17 5c-8.66699 2 -13 6.33301 -13 13c0 4.66699 3.33301 6.66699 10 6c5.33301 0 12 -0.333008 20 -1
c14 -1.33301 38.667 -2 74 -2c18.667 0 36.667 1 54 3c10 0.666992 17.667 1.33398 23 2.00098c8.66699 0 13 -2.66699 13 -8c0 -6.66699 -4.33301 -12 -13 -16l-24 -9c-24 -9.33301 -50.667 -34 -80 -74l-131 -183c-10 -14 -15 -23.667 -15 -29
c0 -4 1.66699 -8.66699 5 -14c2 -3.33301 5 -7.66602 9 -12.999z" />
    <glyph glyph-name="y" unicode="y" horiz-adv-x="599" 
d="M348 103c0 -39.333 3.33203 -63.3359 9.99902 -72.0029c6 -8.66699 24 -14.334 54 -17.001c10.667 -1.33301 16 -4.66602 16 -9.99902c0 -8.66699 -6 -13 -18 -13c-3.33301 0 -11.666 1 -24.999 3c-8.66699 1.33301 -21 2.33301 -37 3
c-8.66699 0.666992 -22 1.33398 -40 2.00098c-6 0 -18.667 -0.333008 -38 -1c-24.667 0 -41.334 -0.666992 -50.001 -2c-9.33301 -1.33301 -15.666 -2 -18.999 -2c-7.33301 0 -11 3 -11 9c0 6.66699 5.33301 10.667 16 12c28 4.66699 45.667 12.334 53 23.001
c8 10.667 12 34 12 70v21v149c0 21.333 -1.66699 37 -5 47c-2.66699 10 -10 24 -22 42l-139 222c-2.66699 4.66699 -8.33398 14 -17.001 28c-10 15.333 -23.667 28 -41 38c-18 10 -35.667 15 -53 15c-9.33301 0 -14 3 -14 9c0 6.66699 5.33301 10 16 10
c8 0 16.333 -0.333008 25 -1c22 -2.66699 44.667 -4 68 -4c48.667 0 80 1 94 3c14.667 1.33301 23.334 2 26.001 2c10 0 15 -3.33301 15 -10c0 -5.33301 -4 -9 -12 -11c-22 -7.33301 -33 -19 -33 -35c0 -8.66699 7.33301 -24.667 22 -48
c2.66699 -5.33301 7.33398 -13.333 14.001 -24l104 -165c1.33301 -1.33301 3.66602 -4.66602 6.99902 -9.99902c2.66699 -4 5.66699 -6 9 -6s6.66602 2 9.99902 6c1.33301 2 3 4.66699 5 8l73 110l24 39c23.333 37.333 35 62 35 74c0 22.667 -21 39 -63 49
c-8 2 -12 6 -12 12c0 5.33301 3.66699 8 11 8c5.33301 0 14.333 -1 27 -3c10 -1.33301 33.333 -2 70 -2c34 0 55.667 0.333008 65 1c12.667 1.33301 21.667 2 27 2c8.66699 1.33301 13 -1.33398 13 -8.00098c0 -5.33301 -4.33301 -9.66602 -13 -12.999
c-29.333 -9.33301 -53.666 -28 -72.999 -56l-33 -48l-121 -181l-13 -17c-12.667 -18 -19 -34.667 -19 -50v-208z" />
    <glyph glyph-name="z" unicode="z" horiz-adv-x="529" 
d="M265 41l80.0039 0.00195312c39.333 0 69 3 89 9c20 5.33301 37.667 15.666 53 30.999c18 17.333 29.333 26.333 34 27c4.66699 0 7.33398 -2.66699 8.00098 -8v-1c-0.666992 -4 -2.33398 -8.33301 -5.00098 -13l-15 -32c-3.33301 -5.33301 -9.33301 -16.666 -18 -33.999
c-4.66699 -8.66699 -9.33398 -14.334 -14.001 -17.001c-4.66699 -2 -14 -3 -28 -3h-381c-18 0 -27 4.33301 -27 13c0 4.66699 2 9.66699 6 15l338 586c0.666992 0.666992 2 2.66699 4 6c2.66699 4 4 7.66699 4 11c0 6.66699 -7.66699 10 -23 10h-169
c-26.667 0 -46.334 -2.66699 -59.001 -8c-12 -4.66699 -24.667 -14.334 -38 -29.001c-16.667 -20 -27.667 -37.667 -33 -53c-2 -9.33301 -6 -14 -12 -14c-6.66699 0 -10 4.33301 -10 13c0.666992 7.33301 3 19 7 35c2.66699 8.66699 4 20.667 4 36
c2 27.333 4.66699 44.333 8 51c4 6.66699 13 10 27 10h16h69h288c20 0 30 -6.33301 30 -19c0 -4 -1 -8 -3 -12l-326 -564c-0.666992 -2 -2.33398 -5.33301 -5.00098 -10c-3.33301 -6 -5.33301 -11.333 -6 -16c-0.666992 -12 8.33301 -18 27 -18c10.667 0 27 -0.333008 49 -1
c5.33301 0 15.666 -0.333008 30.999 -1z" />
    <glyph glyph-name="acute" unicode="&#xb4;" horiz-adv-x="512" 
d="M273 497c-17.333 -12.667 -28.6689 -19 -34.002 -19s-8.33301 3 -9 9l1 1c0 6 5 19.667 15 41c9.33301 20 15.333 32.667 18 38l11 26c2.66699 6.66699 6.33398 10.667 11.001 12c5.33301 1.33301 20.333 2 45 2c13.333 0 20 -6.33301 20 -19
c0 -4 -2.66699 -8.66699 -8 -14c-1.33301 -2 -3.66602 -4.66699 -6.99902 -8z" />
    <glyph glyph-name="Agrave" unicode="&#xc0;" horiz-adv-x="684" 
d="M410 262h-179.999c-24.667 0 -40 -2.33301 -46 -7c-6 -4 -14.333 -17.333 -25 -40c-6.66699 -16 -17.334 -40.333 -32.001 -73c-14.667 -33.333 -22 -58.333 -22 -75c0 -15.333 4 -26.666 12 -33.999c8 -6.66699 23.333 -12.667 46 -18c10 -2 15 -6 15 -12
c0.666992 -6 -4 -9 -14 -9c-3.33301 0 -8.66602 0.333008 -15.999 1l-48 3c-16 0.666992 -34.667 1 -56 1c-9.33301 0 -16.666 -0.333008 -21.999 -1c-17.333 -1.33301 -27 -2 -29 -2c-8.66699 0 -13 3 -13 9c0 5.33301 2.66699 8.66602 8 9.99902
c4.66699 1.33301 11 3.33301 19 6c6.66699 2 15.667 10 27 24s20.666 28.667 27.999 44c3.33301 7.33301 8 18.333 14 33l258 571c4 10 8.66699 15 14 15s9.66602 -4.66699 12.999 -14l216 -551c1.33301 -4 5 -13 11 -27c15.333 -40 28 -65 38 -75
c10.667 -10 31.667 -17.667 63 -23c10 -2 15.333 -6 16 -12v0c-0.666992 -6 -5.66699 -9 -15 -9c-2.66699 0 -9 0.333008 -19 1c-16.667 2 -47.334 3 -92.001 3c-46 0 -75 -1 -87 -3c-7.33301 -1.33301 -12.666 -2 -15.999 -2c-8.66699 0 -13 3.33301 -13 10
c0 5.33301 4.33301 9 13 11c3.33301 0.666992 8.66602 1.66699 15.999 3c16 3.33301 24 14.666 24 33.999c0 18 -10 53 -30 105l-25 66c-7.33301 18.667 -12.666 29.334 -15.999 32.001c-4 3.33301 -15.667 5 -35 5zM417.001 342l-78.999 198
c-0.666992 1.33301 -2 4.66602 -4 9.99902c-4 10.667 -8.33301 16.334 -13 17.001c-2 0 -4.66699 -3.33301 -8 -10l-98 -217c-4 -8.66699 -6 -14.667 -6 -18c0 -8.66699 7.66699 -13 23 -13c3.33301 0 8 -0.333008 14 -1h150c17.333 0 26 4.33301 26 13
c0 2 -1 5.66699 -3 11c-0.666992 2 -1.33398 5.33301 -2.00098 10zM327.002 760l-67.002 72c-1.33301 1.33301 -4 4.33301 -8 9c-4.66699 5.33301 -7 10 -7 14c0 13.333 6.66699 20 20 20c26.667 0 42.334 -0.666992 47.001 -2c5.33301 -1.33301 9.33301 -5.33301 12 -12
l12 -27l19 -41l11 -23c3.33301 -8 5 -14.333 5 -19c0 -7.33301 -3.33301 -11 -10 -11c-5.33301 0 -16.666 6.66699 -33.999 20z" />
    <glyph glyph-name="Aacute" unicode="&#xc1;" horiz-adv-x="684" 
d="M410 262h-179.999c-24.667 0 -40 -2.33301 -46 -7c-6 -4 -14.333 -17.333 -25 -40c-6.66699 -16 -17.334 -40.333 -32.001 -73c-14.667 -33.333 -22 -58.333 -22 -75c0 -15.333 4 -26.666 12 -33.999c8 -6.66699 23.333 -12.667 46 -18c10 -2 15 -6 15 -12
c0.666992 -6 -4 -9 -14 -9c-3.33301 0 -8.66602 0.333008 -15.999 1l-48 3c-16 0.666992 -34.667 1 -56 1c-9.33301 0 -16.666 -0.333008 -21.999 -1c-17.333 -1.33301 -27 -2 -29 -2c-8.66699 0 -13 3 -13 9c0 5.33301 2.66699 8.66602 8 9.99902
c4.66699 1.33301 11 3.33301 19 6c6.66699 2 15.667 10 27 24s20.666 28.667 27.999 44c3.33301 7.33301 8 18.333 14 33l258 571c4 10 8.66699 15 14 15s9.66602 -4.66699 12.999 -14l216 -551c1.33301 -4 5 -13 11 -27c15.333 -40 28 -65 38 -75
c10.667 -10 31.667 -17.667 63 -23c10 -2 15.333 -6 16 -12v0c-0.666992 -6 -5.66699 -9 -15 -9c-2.66699 0 -9 0.333008 -19 1c-16.667 2 -47.334 3 -92.001 3c-46 0 -75 -1 -87 -3c-7.33301 -1.33301 -12.666 -2 -15.999 -2c-8.66699 0 -13 3.33301 -13 10
c0 5.33301 4.33301 9 13 11c3.33301 0.666992 8.66602 1.66699 15.999 3c16 3.33301 24 14.666 24 33.999c0 18 -10 53 -30 105l-25 66c-7.33301 18.667 -12.666 29.334 -15.999 32.001c-4 3.33301 -15.667 5 -35 5zM417.001 342l-78.999 198
c-0.666992 1.33301 -2 4.66602 -4 9.99902c-4 10.667 -8.33301 16.334 -13 17.001c-2 0 -4.66699 -3.33301 -8 -10l-98 -217c-4 -8.66699 -6 -14.667 -6 -18c0 -8.66699 7.66699 -13 23 -13c3.33301 0 8 -0.333008 14 -1h150c17.333 0 26 4.33301 26 13
c0 2 -1 5.66699 -3 11c-0.666992 2 -1.33398 5.33301 -2.00098 10zM365.002 760c-18 -13.333 -30 -20 -36 -20s-9 3.66699 -9 11c0 4.66699 2 11 6 19c2 5.33301 5.33301 13 10 23l19 41l12 27c2.66699 6.66699 6.66699 10.667 12 12c4.66699 1.33301 20 2 46 2
c14 0 21 -6.66699 21 -20c0 -4 -5 -11.667 -15 -23z" />
    <glyph glyph-name="Acircumflex" unicode="&#xc2;" horiz-adv-x="684" 
d="M410 262h-179.999c-24.667 0 -40 -2.33301 -46 -7c-6 -4 -14.333 -17.333 -25 -40c-6.66699 -16 -17.334 -40.333 -32.001 -73c-14.667 -33.333 -22 -58.333 -22 -75c0 -15.333 4 -26.666 12 -33.999c8 -6.66699 23.333 -12.667 46 -18c10 -2 15 -6 15 -12
c0.666992 -6 -4 -9 -14 -9c-3.33301 0 -8.66602 0.333008 -15.999 1l-48 3c-16 0.666992 -34.667 1 -56 1c-9.33301 0 -16.666 -0.333008 -21.999 -1c-17.333 -1.33301 -27 -2 -29 -2c-8.66699 0 -13 3 -13 9c0 5.33301 2.66699 8.66602 8 9.99902
c4.66699 1.33301 11 3.33301 19 6c6.66699 2 15.667 10 27 24s20.666 28.667 27.999 44c3.33301 7.33301 8 18.333 14 33l258 571c4 10 8.66699 15 14 15s9.66602 -4.66699 12.999 -14l216 -551c1.33301 -4 5 -13 11 -27c15.333 -40 28 -65 38 -75
c10.667 -10 31.667 -17.667 63 -23c10 -2 15.333 -6 16 -12v0c-0.666992 -6 -5.66699 -9 -15 -9c-2.66699 0 -9 0.333008 -19 1c-16.667 2 -47.334 3 -92.001 3c-46 0 -75 -1 -87 -3c-7.33301 -1.33301 -12.666 -2 -15.999 -2c-8.66699 0 -13 3.33301 -13 10
c0 5.33301 4.33301 9 13 11c3.33301 0.666992 8.66602 1.66699 15.999 3c16 3.33301 24 14.666 24 33.999c0 18 -10 53 -30 105l-25 66c-7.33301 18.667 -12.666 29.334 -15.999 32.001c-4 3.33301 -15.667 5 -35 5zM417.001 342l-78.999 198
c-0.666992 1.33301 -2 4.66602 -4 9.99902c-4 10.667 -8.33301 16.334 -13 17.001c-2 0 -4.66699 -3.33301 -8 -10l-98 -217c-4 -8.66699 -6 -14.667 -6 -18c0 -8.66699 7.66699 -13 23 -13c3.33301 0 8 -0.333008 14 -1h150c17.333 0 26 4.33301 26 13
c0 2 -1 5.66699 -3 11c-0.666992 2 -1.33398 5.33301 -2.00098 10zM335.002 827c-5.33301 -0.666992 -21.333 -20.333 -48 -59c-10 -14.667 -18 -22 -24 -22c-5.33301 0 -11 2 -17 6s-8.66699 7.33301 -8 10c0 4.66699 2 9.66699 6 15l16 22l45 56
c9.33301 12 16.333 19.333 21 22c5.33301 3.33301 13 5 23 5c12 0 21 -2 27 -6c6 -3.33301 17 -14 33 -32c43.333 -46 65 -71 65 -75c1.33301 -5.33301 -3 -9.66602 -13 -12.999c-4.66699 -2 -12 -4.66699 -22 -8c-5.33301 -2 -10.333 -3.33301 -15 -4
s-9.66699 2.33301 -15 9l-11 11c-3.33301 3.33301 -9.33301 9.66602 -18 18.999l-20 21l-15 15c-4.66699 5.33301 -8 8 -10 8z" />
    <glyph glyph-name="Atilde" unicode="&#xc3;" horiz-adv-x="684" 
d="M410 262h-179.999c-24.667 0 -40 -2.33301 -46 -7c-6 -4 -14.333 -17.333 -25 -40c-6.66699 -16 -17.334 -40.333 -32.001 -73c-14.667 -33.333 -22 -58.333 -22 -75c0 -15.333 4 -26.666 12 -33.999c8 -6.66699 23.333 -12.667 46 -18c10 -2 15 -6 15 -12
c0.666992 -6 -4 -9 -14 -9c-3.33301 0 -8.66602 0.333008 -15.999 1l-48 3c-16 0.666992 -34.667 1 -56 1c-9.33301 0 -16.666 -0.333008 -21.999 -1c-17.333 -1.33301 -27 -2 -29 -2c-8.66699 0 -13 3 -13 9c0 5.33301 2.66699 8.66602 8 9.99902
c4.66699 1.33301 11 3.33301 19 6c6.66699 2 15.667 10 27 24s20.666 28.667 27.999 44c3.33301 7.33301 8 18.333 14 33l258 571c4 10 8.66699 15 14 15s9.66602 -4.66699 12.999 -14l216 -551c1.33301 -4 5 -13 11 -27c15.333 -40 28 -65 38 -75
c10.667 -10 31.667 -17.667 63 -23c10 -2 15.333 -6 16 -12v0c-0.666992 -6 -5.66699 -9 -15 -9c-2.66699 0 -9 0.333008 -19 1c-16.667 2 -47.334 3 -92.001 3c-46 0 -75 -1 -87 -3c-7.33301 -1.33301 -12.666 -2 -15.999 -2c-8.66699 0 -13 3.33301 -13 10
c0 5.33301 4.33301 9 13 11c3.33301 0.666992 8.66602 1.66699 15.999 3c16 3.33301 24 14.666 24 33.999c0 18 -10 53 -30 105l-25 66c-7.33301 18.667 -12.666 29.334 -15.999 32.001c-4 3.33301 -15.667 5 -35 5zM417.001 342l-78.999 198
c-0.666992 1.33301 -2 4.66602 -4 9.99902c-4 10.667 -8.33301 16.334 -13 17.001c-2 0 -4.66699 -3.33301 -8 -10l-98 -217c-4 -8.66699 -6 -14.667 -6 -18c0 -8.66699 7.66699 -13 23 -13c3.33301 0 8 -0.333008 14 -1h150c17.333 0 26 4.33301 26 13
c0 2 -1 5.66699 -3 11c-0.666992 2 -1.33398 5.33301 -2.00098 10zM298.002 850c18.667 0 43 -4.66602 73 -13.999c30.667 -10 51.334 -15 62.001 -15c19.333 0 35.666 7.66699 48.999 23c2.66699 2 5 3 7 3c2 0.666992 5 -0.333008 9 -3c4 -2 6 -4 6 -6
c0 -3.33301 -4 -11 -12 -23c-20 -34 -46.333 -51 -79 -51c-20 0 -47 5.33301 -81 16c-33.333 8.66699 -54.666 13 -63.999 13c-18.667 0 -31.334 -5 -38.001 -15c-2 -2 -4.66699 -5 -8 -9c-2 -2.66699 -4 -4.33398 -6 -5.00098c-2.66699 0 -6 1 -10 3
c-3.33301 2 -5 4.33301 -5 7c0 2 1 4.66699 3 8c2 4 5 10.333 9 19c14.667 32.667 43 49 85 49z" />
    <glyph glyph-name="Adieresis" unicode="&#xc4;" horiz-adv-x="684" 
d="M410 262h-179.999c-24.667 0 -40 -2.33301 -46 -7c-6 -4 -14.333 -17.333 -25 -40c-6.66699 -16 -17.334 -40.333 -32.001 -73c-14.667 -33.333 -22 -58.333 -22 -75c0 -15.333 4 -26.666 12 -33.999c8 -6.66699 23.333 -12.667 46 -18c10 -2 15 -6 15 -12
c0.666992 -6 -4 -9 -14 -9c-3.33301 0 -8.66602 0.333008 -15.999 1l-48 3c-16 0.666992 -34.667 1 -56 1c-9.33301 0 -16.666 -0.333008 -21.999 -1c-17.333 -1.33301 -27 -2 -29 -2c-8.66699 0 -13 3 -13 9c0 5.33301 2.66699 8.66602 8 9.99902
c4.66699 1.33301 11 3.33301 19 6c6.66699 2 15.667 10 27 24s20.666 28.667 27.999 44c3.33301 7.33301 8 18.333 14 33l258 571c4 10 8.66699 15 14 15s9.66602 -4.66699 12.999 -14l216 -551c1.33301 -4 5 -13 11 -27c15.333 -40 28 -65 38 -75
c10.667 -10 31.667 -17.667 63 -23c10 -2 15.333 -6 16 -12v0c-0.666992 -6 -5.66699 -9 -15 -9c-2.66699 0 -9 0.333008 -19 1c-16.667 2 -47.334 3 -92.001 3c-46 0 -75 -1 -87 -3c-7.33301 -1.33301 -12.666 -2 -15.999 -2c-8.66699 0 -13 3.33301 -13 10
c0 5.33301 4.33301 9 13 11c3.33301 0.666992 8.66602 1.66699 15.999 3c16 3.33301 24 14.666 24 33.999c0 18 -10 53 -30 105l-25 66c-7.33301 18.667 -12.666 29.334 -15.999 32.001c-4 3.33301 -15.667 5 -35 5zM417.001 342l-78.999 198
c-0.666992 1.33301 -2 4.66602 -4 9.99902c-4 10.667 -8.33301 16.334 -13 17.001c-2 0 -4.66699 -3.33301 -8 -10l-98 -217c-4 -8.66699 -6 -14.667 -6 -18c0 -8.66699 7.66699 -13 23 -13c3.33301 0 8 -0.333008 14 -1h150c17.333 0 26 4.33301 26 13
c0 2 -1 5.66699 -3 11c-0.666992 2 -1.33398 5.33301 -2.00098 10zM257.002 868c7.33301 0 17.001 -6.99902 29.001 -20.999c11.333 -13.333 17.666 -24 18.999 -32c0 -8.66699 -6 -20.334 -18 -35.001c-11.333 -14.667 -20.666 -22 -27.999 -22
c-6.66699 0 -16.334 7.33301 -29.001 22c-13.333 14.667 -20 26 -20 34s6.33301 19 19 33c12 14 21.333 21 28 21zM441.003 868.001c6.66699 0 16 -7 28 -21s18.333 -24.667 19 -32c0.666992 -8.66699 -5 -20.334 -17 -35.001s-21.667 -22 -29 -22c-6 0 -15.333 7 -28 21
c-13.333 14.667 -20 26.334 -20 35.001c-0.666992 7.33301 5.33301 18.333 18 33c12 14 21.667 21 29 21z" />
    <glyph glyph-name="Aring" unicode="&#xc5;" horiz-adv-x="684" 
d="M410 262h-179.999c-24.667 0 -40 -2.33301 -46 -7c-6 -4 -14.333 -17.333 -25 -40c-6.66699 -16 -17.334 -40.333 -32.001 -73c-14.667 -33.333 -22 -58.333 -22 -75c0 -15.333 4 -26.666 12 -33.999c8 -6.66699 23.333 -12.667 46 -18c10 -2 15 -6 15 -12
c0.666992 -6 -4 -9 -14 -9c-3.33301 0 -8.66602 0.333008 -15.999 1l-48 3c-16 0.666992 -34.667 1 -56 1c-9.33301 0 -16.666 -0.333008 -21.999 -1c-17.333 -1.33301 -27 -2 -29 -2c-8.66699 0 -13 3 -13 9c0 5.33301 2.66699 8.66602 8 9.99902
c4.66699 1.33301 11 3.33301 19 6c6.66699 2 15.667 10 27 24s20.666 28.667 27.999 44c3.33301 7.33301 8 18.333 14 33l258 571c4 10 8.66699 15 14 15s9.66602 -4.66699 12.999 -14l216 -551c1.33301 -4 5 -13 11 -27c15.333 -40 28 -65 38 -75
c10.667 -10 31.667 -17.667 63 -23c10 -2 15.333 -6 16 -12v0c-0.666992 -6 -5.66699 -9 -15 -9c-2.66699 0 -9 0.333008 -19 1c-16.667 2 -47.334 3 -92.001 3c-46 0 -75 -1 -87 -3c-7.33301 -1.33301 -12.666 -2 -15.999 -2c-8.66699 0 -13 3.33301 -13 10
c0 5.33301 4.33301 9 13 11c3.33301 0.666992 8.66602 1.66699 15.999 3c16 3.33301 24 14.666 24 33.999c0 18 -10 53 -30 105l-25 66c-7.33301 18.667 -12.666 29.334 -15.999 32.001c-4 3.33301 -15.667 5 -35 5zM417.001 342l-78.999 198
c-0.666992 1.33301 -2 4.66602 -4 9.99902c-4 10.667 -8.33301 16.334 -13 17.001c-2 0 -4.66699 -3.33301 -8 -10l-98 -217c-4 -8.66699 -6 -14.667 -6 -18c0 -8.66699 7.66699 -13 23 -13c3.33301 0 8 -0.333008 14 -1h150c17.333 0 26 4.33301 26 13
c0 2 -1 5.66699 -3 11c-0.666992 2 -1.33398 5.33301 -2.00098 10zM353.002 896c26.667 0 49.335 -7.33496 68.002 -22.002c18.667 -15.333 28 -34 28 -56c0 -21.333 -9.33301 -39.666 -28 -54.999s-41.334 -23 -68.001 -23s-49.334 7.66699 -68.001 23
c-18.667 14.667 -28 33 -28 55c0 22.667 9 41.334 27 56.001c18.667 14.667 41.667 22 69 22zM352.003 869.998c-14.667 0 -26.667 -4.99902 -36 -14.999s-14 -22.333 -14 -37s4.66699 -27 14 -37c9.33301 -9.33301 21.333 -14 36 -14s27 4.66699 37 14
c9.33301 10 14 22.333 14 37c0 15.333 -4.66699 27.666 -14 36.999c-10 10 -22.333 15 -37 15z" />
    <glyph glyph-name="AE" unicode="&#xc6;" horiz-adv-x="884" 
d="M415 265l-164 -0.00195312c-17.333 0 -29.333 -2 -36 -6c-6 -4.66699 -14 -15.667 -24 -33l-65 -110l-15 -27c-5.33301 -8.66699 -8 -16.667 -8 -24c0 -10 4 -19.333 12 -28c8.66699 -8 19.667 -13.667 33 -17c4.66699 -1.33301 11.667 -3 21 -5
c6 -0.666992 9.33301 -3.66699 10 -9c0.666992 -8 -3.66602 -12 -12.999 -12c-3.33301 0 -16.666 1 -39.999 3c-4.66699 0.666992 -19.667 1 -45 1c-26.667 0 -45 -0.666992 -55 -2c-14.667 -2.66699 -25.667 -4 -33 -4c-8.66699 0 -13 3.66699 -13 11
c0 6 4.33301 10.333 13 13c14.667 4.66699 25.667 10.334 33 17.001c7.33301 6 17.333 19.333 30 40l28 46l299 506l7 10c0.666992 2.66699 1 5.66699 1 9c0 16 -18.667 25 -56 27c-8.66699 0 -12.667 3 -12 9c0.666992 8 7.66699 12 21 12c8 0 20 -0.666992 36 -2
c57.333 -5.33301 108 -8 152 -8c94.667 0 168.667 2.33301 222 7c17.333 2 28.666 3 33.999 3c10.667 0 16 -5.33301 16 -16c0 -4 -0.666992 -9.33301 -2 -16c-3.33301 -14.667 -5 -29.667 -5 -45c0 -41.333 -5.66699 -62 -17 -62c-6 0 -9 4.33301 -9 13
c0 33.333 -7.33301 55.333 -22 66c-15.333 10.667 -46 16 -92 16c-18.667 0 -46.334 0.333008 -83.001 1h-42l-24 -4c-10.667 -4.66699 -16 -16.334 -16 -35.001v-209c0 -12 2 -20 6 -24c3.33301 -3.33301 11 -5 23 -5h43c14 0.666992 41 1.33398 81 2.00098
c52.667 0 81 16.333 85 49c2.66699 17.333 7.66699 26 15 26c5.33301 0 8 -3.66699 8 -11s-0.666992 -15.333 -2 -24c-2 -12 -3 -35 -3 -69c0 -21.333 0.666992 -35.666 2 -42.999c2 -24 3 -38.667 3 -44c0 -7.33301 -3.33301 -11 -10 -11c-6 0 -10.333 4.33301 -13 13
c-2 6.66699 -5 17.334 -9 32.001c-7.33301 25.333 -30 38 -68 38c-22 0 -55.333 -0.333008 -100 -1h-29c-12.667 0 -21.334 -2 -26.001 -6c-4 -4.66699 -6 -14 -6 -28v-188c0 -28 4.66699 -46 14 -54c10 -8 31.333 -12 64 -12c74.667 0 132 6.66699 172 20
c40.667 13.333 72.667 36 96 68c4 5.33301 7.66699 8.33301 11 9c5.33301 0.666992 8 -4 8 -14c0 -12 -8.66699 -32.333 -26 -61c-27.333 -46.667 -66.333 -70 -117 -70c-11.333 0 -28.333 1.33301 -51 4c-58.667 6 -108.667 9 -150 9c-51.333 0 -93.666 -3 -126.999 -9
c-8.66699 -1.33301 -16 -2.33301 -22 -3c-10 -0.666992 -14.667 3.33301 -14 12c0 6 4.33301 10 13 12c22 6 36.333 15.667 43 29c6 13.333 9 40.666 9 81.999v136zM415 604.998l-151.001 -255c-1.33301 -2 -3.66602 -6 -6.99902 -12c-3.33301 -5.33301 -5 -9.33301 -5 -12
c0 -9.33301 11.667 -14 35 -14h128v293z" />
    <glyph glyph-name="Ccedilla" unicode="&#xc7;" horiz-adv-x="727" 
d="M663 625l16 -119.997c0 -2.66699 0.333008 -7 1 -13c0 -0.666992 -0.333008 -2.33398 -1 -5.00098c-2 -3.33301 -4.66699 -5 -8 -5c-4 -0.666992 -10 6.33301 -18 21c-62.667 109.333 -147.334 164 -254.001 164c-84.667 0 -151.667 -26 -201 -78
c-48.667 -52.667 -73 -124.334 -73 -215.001c0 -104.667 27.333 -190 82 -256s124.667 -99 210 -99c50 0 99.333 13.333 148 40c48 26.667 81.333 59 100 97c8.66699 18 15.334 27 20.001 27c5.33301 0 8 -3 8 -9c0 -1.33301 -0.333008 -3.33301 -1 -6
c0 -2 -0.666992 -5.66699 -2 -11c-1.33301 -10 -5 -30.333 -11 -61c-0.666992 -1.33301 -1.33398 -4.33301 -2.00098 -9c-1.33301 -8.66699 -9 -17.667 -23 -27c-77.333 -49.333 -162.333 -74 -255 -74c-107.333 0 -193.666 32 -258.999 96c-66 63.333 -99 147.333 -99 252
c0 103.333 34 189.666 102 258.999c68 68.667 153.333 103 256 103c70.667 0 135.334 -15.667 194.001 -47l20 -11l8 -4c1.33301 0 4.33301 -1 9 -3c1.33301 0 3.66602 1.66699 6.99902 5c7.33301 5.33301 12.333 8 15 8c5.33301 0 9 -6.33301 11 -19zM407 -57.9971
c12.667 0 25.334 -8.66699 38.001 -26c13.333 -18 20 -35.667 20 -53c0 -26 -10.667 -49.667 -32 -71c-21.333 -22 -45.333 -33.333 -72 -34c-0.666992 -0.666992 -1.33398 -1 -2.00098 -1c-7.33301 0.666992 -11 4 -11 10c0 5.33301 4.33301 9.66602 13 12.999
c26.667 10.667 40 28 40 52c0 20.667 -11.667 36.334 -35 47.001c-10 4 -15 8.66699 -15 14s2.66699 10.333 8 15c4 2.66699 10 7 18 13c2 2 6.33301 6 13 12c6 6 11.667 9 17 9z" />
    <glyph glyph-name="Egrave" unicode="&#xc8;" horiz-adv-x="599" 
d="M206 604l0.00195312 -201c0 -15.333 1.33301 -24.666 4 -27.999c3.33301 -3.33301 12 -5 26 -5h77c35.333 0 63 2.33301 83 7c18 3.33301 29.667 8 35 14s10.333 20 15 42c1.33301 8.66699 5.33301 12.667 12 12s10 -5.33398 10 -14.001c0 -2 -0.333008 -5.66699 -1 -11
c-2.66699 -32 -4 -61.333 -4 -88c0 -20 1 -40.333 3 -61c0.666992 -6 1 -10.667 1 -14c0 -8.66699 -3.33301 -13 -10 -13s-10.667 3.66699 -12 11l-3 15c-4 22 -12 37 -24 45s-32.333 12 -61 12h-110c-16.667 0 -27.667 -1.66699 -33 -5s-8 -10 -8 -20v-16v-184
c0 -28.667 5 -46.334 15 -53.001c10 -7.33301 35.667 -11 77 -11c131.333 0 215.666 29.667 252.999 89c3.33301 5.33301 7 8 11 8c6 0.666992 9 -3.66602 9 -12.999c0 -21.333 -12 -47 -36 -77c-30 -36 -67.333 -54 -112 -54c-9.33301 0 -22 0.666992 -38 2
c-64 6 -117 9 -159 9c-58 0 -99 -2 -123 -6c-12.667 -2 -21.334 -3 -26.001 -3c-10.667 0 -16 3.66699 -16 11c0 5.33301 4.33301 9 13 11c4 1.33301 10.333 3.33301 19 6c24 6.66699 36 30 36 70v33v422c0 47.333 -5 79.333 -15 96c-10.667 16.667 -31.334 25 -62.001 25
c-9.33301 0 -14 3 -14 9c0 9.33301 7.33301 14 22 14c8.66699 0 20 -0.666992 34 -2c48 -5.33301 105.333 -8 172 -8c40.667 0 76.667 0.666992 108 2c16 0.666992 39.667 2 71 4c19.333 0.666992 31.333 1 36 1c9.33301 1.33301 16 2 20 2c11.333 0 17 -4.66699 17 -14
c0 -2.66699 -0.666992 -6.66699 -2 -12c-1.33301 -4 -2.66602 -17.333 -3.99902 -40c-0.666992 -6 -1.33398 -15.667 -2.00098 -29c-1.33301 -19.333 -3 -31.333 -5 -36c-1.33301 -4.66699 -5 -7.33398 -11 -8.00098c-6.66699 0 -10 5 -10 15v13c0 10.667 -1.66699 21 -5 31
c-6.66699 14.667 -19.667 24.334 -39 29.001c-19.333 5.33301 -54.666 8 -105.999 8h-79c-20.667 0 -34 -2.66699 -40 -8c-6 -4.66699 -9 -16 -9 -34zM284.002 760l-67 72c-1.33301 1.33301 -4 4.33301 -8 9c-4.66699 5.33301 -7 10 -7 14c0 13.333 7 20 21 20
c26 0 41.333 -0.666992 46 -2c5.33301 -1.33301 9.33301 -5.33301 12 -12l12 -27l19 -41c10.667 -22.667 16 -36.667 16 -42c0 -7.33301 -3 -11 -9 -11s-17.667 6.66699 -35 20z" />
    <glyph glyph-name="Eacute" unicode="&#xc9;" horiz-adv-x="599" 
d="M206 604l0.00195312 -201c0 -15.333 1.33301 -24.666 4 -27.999c3.33301 -3.33301 12 -5 26 -5h77c35.333 0 63 2.33301 83 7c18 3.33301 29.667 8 35 14s10.333 20 15 42c1.33301 8.66699 5.33301 12.667 12 12s10 -5.33398 10 -14.001c0 -2 -0.333008 -5.66699 -1 -11
c-2.66699 -32 -4 -61.333 -4 -88c0 -20 1 -40.333 3 -61c0.666992 -6 1 -10.667 1 -14c0 -8.66699 -3.33301 -13 -10 -13s-10.667 3.66699 -12 11l-3 15c-4 22 -12 37 -24 45s-32.333 12 -61 12h-110c-16.667 0 -27.667 -1.66699 -33 -5s-8 -10 -8 -20v-16v-184
c0 -28.667 5 -46.334 15 -53.001c10 -7.33301 35.667 -11 77 -11c131.333 0 215.666 29.667 252.999 89c3.33301 5.33301 7 8 11 8c6 0.666992 9 -3.66602 9 -12.999c0 -21.333 -12 -47 -36 -77c-30 -36 -67.333 -54 -112 -54c-9.33301 0 -22 0.666992 -38 2
c-64 6 -117 9 -159 9c-58 0 -99 -2 -123 -6c-12.667 -2 -21.334 -3 -26.001 -3c-10.667 0 -16 3.66699 -16 11c0 5.33301 4.33301 9 13 11c4 1.33301 10.333 3.33301 19 6c24 6.66699 36 30 36 70v33v422c0 47.333 -5 79.333 -15 96c-10.667 16.667 -31.334 25 -62.001 25
c-9.33301 0 -14 3 -14 9c0 9.33301 7.33301 14 22 14c8.66699 0 20 -0.666992 34 -2c48 -5.33301 105.333 -8 172 -8c40.667 0 76.667 0.666992 108 2c16 0.666992 39.667 2 71 4c19.333 0.666992 31.333 1 36 1c9.33301 1.33301 16 2 20 2c11.333 0 17 -4.66699 17 -14
c0 -2.66699 -0.666992 -6.66699 -2 -12c-1.33301 -4 -2.66602 -17.333 -3.99902 -40c-0.666992 -6 -1.33398 -15.667 -2.00098 -29c-1.33301 -19.333 -3 -31.333 -5 -36c-1.33301 -4.66699 -5 -7.33398 -11 -8.00098c-6.66699 0 -10 5 -10 15v13c0 10.667 -1.66699 21 -5 31
c-6.66699 14.667 -19.667 24.334 -39 29.001c-19.333 5.33301 -54.666 8 -105.999 8h-79c-20.667 0 -34 -2.66699 -40 -8c-6 -4.66699 -9 -16 -9 -34zM315.002 760c-18 -13.333 -29.999 -20 -35.999 -20s-9 3.66699 -9 11c0 4.66699 2 11 6 19c2 5.33301 5.33301 13 10 23
l19 41c2.66699 6 6.33398 15 11.001 27c3.33301 6.66699 7.66602 10.667 12.999 12s20.666 2 45.999 2c14 0 21 -6.66699 21 -20c0 -4 -2.33301 -8.66699 -7 -14c-2 -2 -4.66699 -5 -8 -9z" />
    <glyph glyph-name="Ecircumflex" unicode="&#xca;" horiz-adv-x="599" 
d="M206 604l0.00195312 -201c0 -15.333 1.33301 -24.666 4 -27.999c3.33301 -3.33301 12 -5 26 -5h77c35.333 0 63 2.33301 83 7c18 3.33301 29.667 8 35 14s10.333 20 15 42c1.33301 8.66699 5.33301 12.667 12 12s10 -5.33398 10 -14.001c0 -2 -0.333008 -5.66699 -1 -11
c-2.66699 -32 -4 -61.333 -4 -88c0 -20 1 -40.333 3 -61c0.666992 -6 1 -10.667 1 -14c0 -8.66699 -3.33301 -13 -10 -13s-10.667 3.66699 -12 11l-3 15c-4 22 -12 37 -24 45s-32.333 12 -61 12h-110c-16.667 0 -27.667 -1.66699 -33 -5s-8 -10 -8 -20v-16v-184
c0 -28.667 5 -46.334 15 -53.001c10 -7.33301 35.667 -11 77 -11c131.333 0 215.666 29.667 252.999 89c3.33301 5.33301 7 8 11 8c6 0.666992 9 -3.66602 9 -12.999c0 -21.333 -12 -47 -36 -77c-30 -36 -67.333 -54 -112 -54c-9.33301 0 -22 0.666992 -38 2
c-64 6 -117 9 -159 9c-58 0 -99 -2 -123 -6c-12.667 -2 -21.334 -3 -26.001 -3c-10.667 0 -16 3.66699 -16 11c0 5.33301 4.33301 9 13 11c4 1.33301 10.333 3.33301 19 6c24 6.66699 36 30 36 70v33v422c0 47.333 -5 79.333 -15 96c-10.667 16.667 -31.334 25 -62.001 25
c-9.33301 0 -14 3 -14 9c0 9.33301 7.33301 14 22 14c8.66699 0 20 -0.666992 34 -2c48 -5.33301 105.333 -8 172 -8c40.667 0 76.667 0.666992 108 2c16 0.666992 39.667 2 71 4c19.333 0.666992 31.333 1 36 1c9.33301 1.33301 16 2 20 2c11.333 0 17 -4.66699 17 -14
c0 -2.66699 -0.666992 -6.66699 -2 -12c-1.33301 -4 -2.66602 -17.333 -3.99902 -40c-0.666992 -6 -1.33398 -15.667 -2.00098 -29c-1.33301 -19.333 -3 -31.333 -5 -36c-1.33301 -4.66699 -5 -7.33398 -11 -8.00098c-6.66699 0 -10 5 -10 15v13c0 10.667 -1.66699 21 -5 31
c-6.66699 14.667 -19.667 24.334 -39 29.001c-19.333 5.33301 -54.666 8 -105.999 8h-79c-20.667 0 -34 -2.66699 -40 -8c-6 -4.66699 -9 -16 -9 -34zM286.002 827c-6.66699 -0.666992 -23.0029 -20.333 -49.0029 -59c-10 -14.667 -18 -22 -24 -22s-11.667 2 -17 6
c-6 4 -8.66699 7.33301 -8 10c0 4.66699 1.66699 9.66699 5 15c4 4.66699 9.66699 12 17 22c8 9.33301 23 28 45 56c9.33301 12 16.666 19.333 21.999 22c4.66699 3.33301 12.334 5 23.001 5s19.334 -2 26.001 -6c6 -3.33301 17.333 -14 34 -32
c42.667 -46 64.334 -71 65.001 -75c0.666992 -5.33301 -3.66602 -9.66602 -12.999 -12.999l-22 -8c-6 -2 -11 -3.33301 -15 -4c-5.33301 -0.666992 -10.666 2.33301 -15.999 9l-11 11c-2.66699 3.33301 -8.33398 9.66602 -17.001 18.999l-21 21l-15 15c-4 5.33301 -7 8 -9 8
z" />
    <glyph glyph-name="Edieresis" unicode="&#xcb;" horiz-adv-x="599" 
d="M206 604l0.00195312 -201c0 -15.333 1.33301 -24.666 4 -27.999c3.33301 -3.33301 12 -5 26 -5h77c35.333 0 63 2.33301 83 7c18 3.33301 29.667 8 35 14s10.333 20 15 42c1.33301 8.66699 5.33301 12.667 12 12s10 -5.33398 10 -14.001c0 -2 -0.333008 -5.66699 -1 -11
c-2.66699 -32 -4 -61.333 -4 -88c0 -20 1 -40.333 3 -61c0.666992 -6 1 -10.667 1 -14c0 -8.66699 -3.33301 -13 -10 -13s-10.667 3.66699 -12 11l-3 15c-4 22 -12 37 -24 45s-32.333 12 -61 12h-110c-16.667 0 -27.667 -1.66699 -33 -5s-8 -10 -8 -20v-16v-184
c0 -28.667 5 -46.334 15 -53.001c10 -7.33301 35.667 -11 77 -11c131.333 0 215.666 29.667 252.999 89c3.33301 5.33301 7 8 11 8c6 0.666992 9 -3.66602 9 -12.999c0 -21.333 -12 -47 -36 -77c-30 -36 -67.333 -54 -112 -54c-9.33301 0 -22 0.666992 -38 2
c-64 6 -117 9 -159 9c-58 0 -99 -2 -123 -6c-12.667 -2 -21.334 -3 -26.001 -3c-10.667 0 -16 3.66699 -16 11c0 5.33301 4.33301 9 13 11c4 1.33301 10.333 3.33301 19 6c24 6.66699 36 30 36 70v33v422c0 47.333 -5 79.333 -15 96c-10.667 16.667 -31.334 25 -62.001 25
c-9.33301 0 -14 3 -14 9c0 9.33301 7.33301 14 22 14c8.66699 0 20 -0.666992 34 -2c48 -5.33301 105.333 -8 172 -8c40.667 0 76.667 0.666992 108 2c16 0.666992 39.667 2 71 4c19.333 0.666992 31.333 1 36 1c9.33301 1.33301 16 2 20 2c11.333 0 17 -4.66699 17 -14
c0 -2.66699 -0.666992 -6.66699 -2 -12c-1.33301 -4 -2.66602 -17.333 -3.99902 -40c-0.666992 -6 -1.33398 -15.667 -2.00098 -29c-1.33301 -19.333 -3 -31.333 -5 -36c-1.33301 -4.66699 -5 -7.33398 -11 -8.00098c-6.66699 0 -10 5 -10 15v13c0 10.667 -1.66699 21 -5 31
c-6.66699 14.667 -19.667 24.334 -39 29.001c-19.333 5.33301 -54.666 8 -105.999 8h-79c-20.667 0 -34 -2.66699 -40 -8c-6 -4.66699 -9 -16 -9 -34zM207.002 868c6.66699 0 15.999 -6.99902 27.999 -20.999c12.667 -13.333 19.334 -24 20.001 -32
c0 -8.66699 -6 -20.334 -18 -35.001c-11.333 -14.667 -20.666 -22 -27.999 -22c-6.66699 0 -16.334 7.33301 -29.001 22s-19 26 -19 34s5.66699 19 17 33c12 14 21.667 21 29 21zM391.001 868.001c6.66699 0 16.002 -7 28.002 -21c12.667 -14 19 -24.667 19 -32
c0.666992 -8.66699 -5 -20.334 -17 -35.001s-21.333 -22 -28 -22s-16.334 7 -29.001 21c-12.667 14.667 -19.334 26.334 -20.001 35.001c-0.666992 7.33301 5.33301 18.333 18 33c12 14 21.667 21 29 21z" />
    <glyph glyph-name="Igrave" unicode="&#xcc;" horiz-adv-x="336" 
d="M207 537v-375.001c0 -46.667 2.66699 -77.334 8 -92.001c6.66699 -17.333 15 -29.333 25 -36c10 -7.33301 25.333 -12.333 46 -15c16.667 -2.66699 25 -6.66699 25 -12c0 -8.66699 -5.33301 -13 -16 -13c-4.66699 0 -11 0.666992 -19 2c-10 1.33301 -27.667 2 -53 2
c-16 0 -40 0.333008 -72 1c-10 -0.666992 -29.667 -1.66699 -59 -3c-9.33301 -1.33301 -17.333 -2 -24 -2c-8.66699 0 -13 3.33301 -13 10s5 10.667 15 12c25.333 4.66699 41.666 13.334 48.999 26.001c7.33301 13.333 11 41.333 11 84v427c0 41.333 -4.66699 69.333 -14 84
c-9.33301 14 -29.666 23.667 -60.999 29c-10.667 2 -16 6 -16 12v1c0 6.66699 5 10 15 10h9c24 -3.33301 56 -5 96 -5c24.667 0 46 0.666992 64 2l34 3h12c8.66699 0 13 -3.33301 13 -10c0 -5.33301 -4 -9.66602 -12 -12.999c-6 -2 -14.667 -5.33301 -26 -10
c-24.667 -9.33301 -37 -49 -37 -119zM152 759.999l-65.998 72c-1.33301 1.33301 -4 4.33301 -8 9c-4.66699 5.33301 -7 10 -7 14c0 13.333 7 20 21 20c25.333 0 40.666 -0.666992 45.999 -2s9.66602 -5.33301 12.999 -12c2 -6 5.66699 -15 11 -27
c2 -4 8.33301 -17.667 19 -41c2 -5.33301 5.33301 -13 10 -23c4 -8 6 -14.333 6 -19c0 -7.33301 -3 -11 -9 -11s-18 6.66699 -36 20z" />
    <glyph glyph-name="Iacute" unicode="&#xcd;" horiz-adv-x="336" 
d="M207 537v-375.001c0 -46.667 2.66699 -77.334 8 -92.001c6.66699 -17.333 15 -29.333 25 -36c10 -7.33301 25.333 -12.333 46 -15c16.667 -2.66699 25 -6.66699 25 -12c0 -8.66699 -5.33301 -13 -16 -13c-4.66699 0 -11 0.666992 -19 2c-10 1.33301 -27.667 2 -53 2
c-16 0 -40 0.333008 -72 1c-10 -0.666992 -29.667 -1.66699 -59 -3c-9.33301 -1.33301 -17.333 -2 -24 -2c-8.66699 0 -13 3.33301 -13 10s5 10.667 15 12c25.333 4.66699 41.666 13.334 48.999 26.001c7.33301 13.333 11 41.333 11 84v427c0 41.333 -4.66699 69.333 -14 84
c-9.33301 14 -29.666 23.667 -60.999 29c-10.667 2 -16 6 -16 12v1c0 6.66699 5 10 15 10h9c24 -3.33301 56 -5 96 -5c24.667 0 46 0.666992 64 2l34 3h12c8.66699 0 13 -3.33301 13 -10c0 -5.33301 -4 -9.66602 -12 -12.999c-6 -2 -14.667 -5.33301 -26 -10
c-24.667 -9.33301 -37 -49 -37 -119zM183 759.999c-17.333 -13.333 -28.999 -20 -34.999 -20s-9 3.66699 -9 11c0 5.33301 5.33301 19.333 16 42l19 41c2.66699 6 6.33398 15 11.001 27c3.33301 6.66699 7.66602 10.667 12.999 12s20.666 2 45.999 2
c14 0 21 -6.66699 21 -20c0 -4 -2.66699 -8.66699 -8 -14c-1.33301 -2 -4 -5 -8 -9z" />
    <glyph glyph-name="Icircumflex" unicode="&#xce;" horiz-adv-x="336" 
d="M207 537v-375.001c0 -46.667 2.66699 -77.334 8 -92.001c6.66699 -17.333 15 -29.333 25 -36c10 -7.33301 25.333 -12.333 46 -15c16.667 -2.66699 25 -6.66699 25 -12c0 -8.66699 -5.33301 -13 -16 -13c-4.66699 0 -11 0.666992 -19 2c-10 1.33301 -27.667 2 -53 2
c-16 0 -40 0.333008 -72 1c-10 -0.666992 -29.667 -1.66699 -59 -3c-9.33301 -1.33301 -17.333 -2 -24 -2c-8.66699 0 -13 3.33301 -13 10s5 10.667 15 12c25.333 4.66699 41.666 13.334 48.999 26.001c7.33301 13.333 11 41.333 11 84v427c0 41.333 -4.66699 69.333 -14 84
c-9.33301 14 -29.666 23.667 -60.999 29c-10.667 2 -16 6 -16 12v1c0 6.66699 5 10 15 10h9c24 -3.33301 56 -5 96 -5c24.667 0 46 0.666992 64 2l34 3h12c8.66699 0 13 -3.33301 13 -10c0 -5.33301 -4 -9.66602 -12 -12.999c-6 -2 -14.667 -5.33301 -26 -10
c-24.667 -9.33301 -37 -49 -37 -119zM148 826.999c-6.66699 -0.666992 -23 -20.334 -49 -59.001c-10 -14.667 -18 -22 -24 -22s-11.667 2 -17 6c-6 4 -9 7.33301 -9 10c0.666992 4.66699 2.66699 9.66699 6 15l18 22l43 56c10 12 17.333 19.333 22 22
c5.33301 3.33301 13 5 23 5c11.333 0 20 -2 26 -6c6 -3.33301 17.667 -14 35 -32c42.667 -46 64.334 -71 65.001 -75c0 -5.33301 -4.66699 -9.66602 -14 -12.999c-4.66699 -2 -12 -4.66699 -22 -8c-6 -2 -11 -3.33301 -15 -4c-4.66699 -0.666992 -9.66699 2.33301 -15 9
c-2.66699 2.66699 -6.66699 6.33398 -12 11.001c-2.66699 3.33301 -8 9.66602 -16 18.999c-4 3.33301 -11 10.333 -21 21c-2.66699 2.66699 -7.33398 7.66699 -14.001 15c-4.66699 5.33301 -8 8 -10 8z" />
    <glyph glyph-name="Idieresis" unicode="&#xcf;" horiz-adv-x="336" 
d="M207 537v-375.001c0 -46.667 2.66699 -77.334 8 -92.001c6.66699 -17.333 15 -29.333 25 -36c10 -7.33301 25.333 -12.333 46 -15c16.667 -2.66699 25 -6.66699 25 -12c0 -8.66699 -5.33301 -13 -16 -13c-4.66699 0 -11 0.666992 -19 2c-10 1.33301 -27.667 2 -53 2
c-16 0 -40 0.333008 -72 1c-10 -0.666992 -29.667 -1.66699 -59 -3c-9.33301 -1.33301 -17.333 -2 -24 -2c-8.66699 0 -13 3.33301 -13 10s5 10.667 15 12c25.333 4.66699 41.666 13.334 48.999 26.001c7.33301 13.333 11 41.333 11 84v427c0 41.333 -4.66699 69.333 -14 84
c-9.33301 14 -29.666 23.667 -60.999 29c-10.667 2 -16 6 -16 12v1c0 6.66699 5 10 15 10h9c24 -3.33301 56 -5 96 -5c24.667 0 46 0.666992 64 2l34 3h12c8.66699 0 13 -3.33301 13 -10c0 -5.33301 -4 -9.66602 -12 -12.999c-6 -2 -14.667 -5.33301 -26 -10
c-24.667 -9.33301 -37 -49 -37 -119zM90 867.999c6.66699 0 16.334 -7.00195 29.001 -21.002c12 -14 18 -24.667 18 -32c-1.33301 -7.33301 -7.33301 -18.666 -18 -33.999s-19.667 -23 -27 -23c-6.66699 0 -16.334 7 -29.001 21c-12.667 14.667 -19 26.334 -19 35.001
c-0.666992 7.33301 5 18.333 17 33c12 14 21.667 21 29 21zM247 867.997c6.66699 0 16.0039 -7 28.0039 -21s18.333 -24.667 19 -32c0 -8.66699 -6 -20.334 -18 -35.001s-21 -22 -27 -22c-6.66699 0 -16.334 7 -29.001 21c-12.667 14.667 -19.334 26.334 -20.001 35.001
c1.33301 7.33301 7.66602 18 18.999 32c11.333 14.667 20.666 22 27.999 22z" />
    <glyph glyph-name="Eth" unicode="&#xd0;" horiz-adv-x="760" 
d="M130 338l-54 0.00390625c-9.33301 0 -14 5.66699 -14 17s4.66699 17 14 17h54v191c0 34 -5.66699 58.667 -17 74c-12 15.333 -30.667 24.666 -56 27.999c-11.333 0.666992 -17 4 -17 10c0 6.66699 4.33301 10 13 10c8.66699 -0.666992 21.667 -1.33398 39 -2.00098
c4 -0.666992 15.667 -1 35 -1c34 0 60.333 1 79 3c10.667 0.666992 26 2 46 4s42.333 3 67 3c136.667 0 239 -34.333 307 -103c62 -62.667 93 -143 93 -241c0 -62.667 -13.667 -120.334 -41 -173.001c-26.667 -52.667 -64.667 -94.334 -114 -125.001
c-60.667 -38 -127.334 -57 -200.001 -57c-8.66699 0 -24 1 -46 3c-45.333 2.66699 -84.333 4 -117 4c-35.333 0 -66.333 -2 -93 -6c-12 -1.33301 -21.667 -2.33301 -29 -3h-3c-9.33301 0.666992 -14 4.66699 -14 12c0 6 4.66699 10 14 12
c22.667 4.66699 37.334 12.667 44.001 24c6.66699 12 10 36.667 10 74v225zM207 338.004l0.000976562 -250.001c0 -20.667 10 -34.667 30 -42c17.333 -6.66699 40 -12.667 68 -18c27.333 -4.66699 50.666 -7 69.999 -7c56.667 0 108 14.333 154 43
c76.667 48 115 129.667 115 245c0 62.667 -12 120.334 -36 173.001s-57.333 94 -100 124c-51.333 37.333 -114 56 -188 56c-52.667 0 -86 -6 -100 -18c-8.66699 -6.66699 -13 -20 -13 -40v-232h122c9.33301 0 14 -5.66699 14 -17s-4.66699 -17 -14 -17h-122z" />
    <glyph glyph-name="Ntilde" unicode="&#xd1;" horiz-adv-x="758" 
d="M649 491l-0.00390625 -419.001c0 -38 -1 -61 -3 -69c-1.33301 -7.33301 -5.66602 -11.333 -12.999 -12h-1c-4.66699 0.666992 -8.66699 2.33398 -12 5.00098c-2 2.66699 -5.66699 7 -11 13l-421 482c-0.666992 0.666992 -2.33398 2.66699 -5.00098 6
c-2 2 -4.33301 3 -7 3c-6 0 -9 -7.66699 -9 -23v-339c-0.666992 -3.33301 -1 -10.333 -1 -21c0 -6 0.333008 -18 1 -36c2.66699 -21.333 8.66699 -36.333 18 -45c8.66699 -8.66699 26.334 -15 53.001 -19c10.667 -1.33301 16 -5.66602 16 -12.999
c0 -6.66699 -3.33301 -10 -10 -10c-5.33301 0 -10.666 0.666992 -15.999 2c-3.33301 0 -17.666 1 -42.999 3c-11.333 0 -28.333 0.666992 -51 2c-4 0 -12 -0.333008 -24 -1c-13.333 0 -25.666 -0.666992 -36.999 -2c-8.66699 -1.33301 -14.667 -2 -18 -2
c-9.33301 0 -14 3 -14 9c-0.666992 4.66699 4 8.66699 14 12c28 10 46.667 23 56 39c10 16.667 15 43 15 79v339c0 58 -9.33301 103.667 -28 137c-18 32.667 -44.333 51.667 -79 57c-8.66699 1.33301 -13 5 -13 11c0 6.66699 3.66699 10 11 10c1.33301 0 4 -0.333008 8 -1
c4 0 10.667 -0.333008 20 -1h34h8h18c8.66699 0 17 -4.66699 25 -14l460 -521c7.33301 -8 12 -12 14 -12c3.33301 0 5 3.33301 5 10v247c0.666992 11.333 1 34 1 68c-1.33301 18.667 -3.33301 57 -6 115c-3.33301 28 -11.666 48 -24.999 60c-13.333 11.333 -37 20 -71 26
c-9.33301 1.33301 -14 5.66602 -14 12.999c0 6 4.66699 9 14 9c4 0 11 -0.333008 21 -1c23.333 -3.33301 54.333 -5 93 -5c20 0 36.333 1.33301 49 4c10.667 2 18.667 3 24 3c8.66699 0 13.667 -3.66699 15 -11v-1c-0.666992 -4 -4 -7 -10 -9
c-20.667 -4.66699 -34.334 -13 -41.001 -25c-6.66699 -11.333 -10 -33 -10 -65v-54v-33zM323.996 849.999c19.333 0 43.998 -4.66602 73.998 -13.999c30 -10 50.667 -15 62 -15c18.667 0 35 7.66699 49 23c2.66699 2 4.66699 3 6 3c2.66699 0.666992 6 -0.333008 10 -3
c3.33301 -2 5 -4 5 -6c0 -3.33301 -3.66699 -11 -11 -23c-20 -34 -46.667 -51 -80 -51c-20 0 -47 5.33301 -81 16c-32.667 8.66699 -53.667 13 -63 13c-19.333 0 -32.666 -5 -39.999 -15c-1.33301 -2 -3.66602 -5 -6.99902 -9
c-1.33301 -2.66699 -3.33301 -4.33398 -6 -5.00098c-2.66699 0 -5.66699 1 -9 3s-5 4.33301 -5 7c0 2 0.666992 4.66699 2 8c2 4 5 10.333 9 19c14.667 32.667 43 49 85 49z" />
    <glyph glyph-name="Ograve" unicode="&#xd2;" horiz-adv-x="802" 
d="M404 696c104.667 0 190.333 -32.332 257 -96.999c66.667 -64 100 -146.667 100 -248c0 -106.667 -33.667 -194 -101 -262c-67.333 -68.667 -153.333 -103 -258 -103c-107.333 0 -194.333 33 -261 99c-66.667 65.333 -100 151 -100 257
c0 45.333 8.66699 90.666 26 135.999c18 45.333 41.667 83 71 113c31.333 32 71 57.667 119 77c48 18.667 97 28 147 28zM371.999 663.001c-77.333 0 -138.667 -26.001 -184 -78.001c-46 -52 -69 -122 -69 -210c0 -101.333 29.333 -186.666 88 -255.999
c58 -69.333 129.333 -104 214 -104c77.333 0 141.333 28.333 192 85c50 56.667 75 128 75 214c0 100 -30 183.333 -90 250c-60.667 66 -136 99 -226 99zM384.998 760l-66.001 72c-1.33301 1.33301 -4 4.33301 -8 9c-4.66699 5.33301 -7 10 -7 14c0 13.333 6.66699 20 20 20
c26.667 0 42.334 -0.666992 47.001 -2c5.33301 -1.33301 9.33301 -5.33301 12 -12l12 -27c2 -4 8.33301 -17.667 19 -41l11 -23c3.33301 -8 5 -14.333 5 -19c0 -7.33301 -3.33301 -11 -10 -11c-5.33301 0 -17 6.66699 -35 20z" />
    <glyph glyph-name="Oacute" unicode="&#xd3;" horiz-adv-x="802" 
d="M404 696c104.667 0 190.333 -32.332 257 -96.999c66.667 -64 100 -146.667 100 -248c0 -106.667 -33.667 -194 -101 -262c-67.333 -68.667 -153.333 -103 -258 -103c-107.333 0 -194.333 33 -261 99c-66.667 65.333 -100 151 -100 257
c0 45.333 8.66699 90.666 26 135.999c18 45.333 41.667 83 71 113c31.333 32 71 57.667 119 77c48 18.667 97 28 147 28zM371.999 663.001c-77.333 0 -138.667 -26.001 -184 -78.001c-46 -52 -69 -122 -69 -210c0 -101.333 29.333 -186.666 88 -255.999
c58 -69.333 129.333 -104 214 -104c77.333 0 141.333 28.333 192 85c50 56.667 75 128 75 214c0 100 -30 183.333 -90 250c-60.667 66 -136 99 -226 99zM416.998 760c-17.333 -13.333 -29 -20 -35 -20c-6.66699 0 -10 3.66699 -10 11c0 4.66699 2 11 6 19
c2 5.33301 5.33301 13 10 23c10.667 23.333 17 37 19 41l12 27c2.66699 6.66699 6.66699 10.667 12 12s21 2 47 2c13.333 0 20 -6.66699 20 -20c0 -4 -2.33301 -8.66699 -7 -14c-2 -2 -4.66699 -5 -8 -9z" />
    <glyph glyph-name="Ocircumflex" unicode="&#xd4;" horiz-adv-x="802" 
d="M404 696c104.667 0 190.333 -32.332 257 -96.999c66.667 -64 100 -146.667 100 -248c0 -106.667 -33.667 -194 -101 -262c-67.333 -68.667 -153.333 -103 -258 -103c-107.333 0 -194.333 33 -261 99c-66.667 65.333 -100 151 -100 257
c0 45.333 8.66699 90.666 26 135.999c18 45.333 41.667 83 71 113c31.333 32 71 57.667 119 77c48 18.667 97 28 147 28zM371.999 663.001c-77.333 0 -138.667 -26.001 -184 -78.001c-46 -52 -69 -122 -69 -210c0 -101.333 29.333 -186.666 88 -255.999
c58 -69.333 129.333 -104 214 -104c77.333 0 141.333 28.333 192 85c50 56.667 75 128 75 214c0 100 -30 183.333 -90 250c-60.667 66 -136 99 -226 99zM380.998 827c-6 -0.666992 -22.332 -20.333 -48.999 -59c-9.33301 -14.667 -17.333 -22 -24 -22
c-5.33301 0 -11 2 -17 6s-8.66699 7.33301 -8 10c0.666992 4.66699 2.66699 9.66699 6 15c4 4.66699 9.66699 12 17 22l44 56c9.33301 12 16.666 19.667 21.999 23c4.66699 2.66699 12 4 22 4c12 0 21 -2 27 -6c6 -3.33301 17.333 -14 34 -32
c42.667 -46 64.334 -71 65.001 -75c0.666992 -5.33301 -4 -9.66602 -14 -12.999c-4.66699 -2 -12 -4.66699 -22 -8c-5.33301 -2 -10 -3.33301 -14 -4c-4.66699 -0.666992 -10 2.33301 -16 9l-11 11c-2.66699 3.33301 -8.33398 9.66602 -17.001 18.999l-20 21l-15 15
c-4.66699 5.33301 -8 8 -10 8z" />
    <glyph glyph-name="Otilde" unicode="&#xd5;" horiz-adv-x="802" 
d="M404 696c104.667 0 190.333 -32.332 257 -96.999c66.667 -64 100 -146.667 100 -248c0 -106.667 -33.667 -194 -101 -262c-67.333 -68.667 -153.333 -103 -258 -103c-107.333 0 -194.333 33 -261 99c-66.667 65.333 -100 151 -100 257
c0 45.333 8.66699 90.666 26 135.999c18 45.333 41.667 83 71 113c31.333 32 71 57.667 119 77c48 18.667 97 28 147 28zM371.999 663.001c-77.333 0 -138.667 -26.001 -184 -78.001c-46 -52 -69 -122 -69 -210c0 -101.333 29.333 -186.666 88 -255.999
c58 -69.333 129.333 -104 214 -104c77.333 0 141.333 28.333 192 85c50 56.667 75 128 75 214c0 100 -30 183.333 -90 250c-60.667 66 -136 99 -226 99zM346.998 850c18.667 0 42.9971 -4.66602 72.9971 -13.999c30 -10 50.333 -15 61 -15c19.333 0 36 7.66699 50 23
c2.66699 2 4.66699 3 6 3c2.66699 0.666992 6 -0.333008 10 -3c4 -2 6 -4 6 -6c0 -3.33301 -4 -11 -12 -23c-20 -34 -46.333 -51 -79 -51c-20.667 0 -48 5.33301 -82 16c-32.667 8.66699 -54 13 -64 13c-18 0 -30.667 -5 -38 -15c-1.33301 -2 -3.66602 -5 -6.99902 -9
c-2 -2.66699 -4 -4.33398 -6 -5.00098c-3.33301 0 -6.66602 1 -9.99902 3s-5 4.33301 -5 7c0 2 0.666992 4.66699 2 8c2 4 5 10.333 9 19c14.667 32.667 43.334 49 86.001 49z" />
    <glyph glyph-name="Odieresis" unicode="&#xd6;" horiz-adv-x="802" 
d="M404 696c104.667 0 190.333 -32.332 257 -96.999c66.667 -64 100 -146.667 100 -248c0 -106.667 -33.667 -194 -101 -262c-67.333 -68.667 -153.333 -103 -258 -103c-107.333 0 -194.333 33 -261 99c-66.667 65.333 -100 151 -100 257
c0 45.333 8.66699 90.666 26 135.999c18 45.333 41.667 83 71 113c31.333 32 71 57.667 119 77c48 18.667 97 28 147 28zM371.999 663.001c-77.333 0 -138.667 -26.001 -184 -78.001c-46 -52 -69 -122 -69 -210c0 -101.333 29.333 -186.666 88 -255.999
c58 -69.333 129.333 -104 214 -104c77.333 0 141.333 28.333 192 85c50 56.667 75 128 75 214c0 100 -30 183.333 -90 250c-60.667 66 -136 99 -226 99zM309.998 868c6.66699 0 16 -7 28 -21c12 -13.333 18.333 -24 19 -32c0.666992 -8.66699 -5 -20.334 -17 -35.001
s-21.667 -22 -29 -22c-6 0 -15.667 7 -29 21c-12.667 14.667 -19 26.334 -19 35.001c0 7.33301 6 18.333 18 33c12 14 21.667 21 29 21zM493.998 868c6 0 15.334 -7 28.001 -21c12 -14 18 -24.667 18 -32c0.666992 -8.66699 -5 -20.334 -17 -35.001s-21.333 -22 -28 -22
s-16.334 7 -29.001 21c-12.667 14.667 -19 26.334 -19 35.001c-0.666992 7.33301 5 18.333 17 33c12 14 22 21 30 21z" />
    <glyph glyph-name="Oslash" unicode="&#xd8;" horiz-adv-x="803" 
d="M626 631l47 53.001c2 2 5 5.66699 9 11c2 1.33301 4.33301 2 7 2c4 0 7.66699 -1.66699 11 -5c4 -3.33301 5.66699 -7 5 -11c0 -5.33301 -2.66699 -11.333 -8 -18l-47 -53c74.667 -70 112 -156 112 -258c0 -106 -34 -193.333 -102 -262
c-67.333 -69.333 -153 -104 -257 -104c-42 0 -84 6.33301 -126 19c-41.333 12.667 -77.333 30 -108 52c-10 -12.667 -25.667 -31.334 -47 -56.001c-3.33301 -3.33301 -6.66602 -5 -9.99902 -5c-4 -0.666992 -7.66699 1 -11 5c-4 4 -6.33301 7.66699 -7 11
c0 3.33301 1 6.33301 3 9l48 56c-69.333 67.333 -104 155 -104 263c0 102.667 34.667 187.667 104 255s156.333 101 261 101c77.333 0 150.666 -21.667 219.999 -65zM215 110.001c65.333 -64 133.667 -96.001 205 -96.001c78 0 142 28 192 84c50 55.333 75 126.333 75 213
c0 96.667 -27.667 178.334 -83 245.001zM583.001 580c-36 30 -69.334 51.333 -100.001 64s-66 19 -106 19c-79.333 0 -141.666 -25.667 -186.999 -77c-45.333 -52 -68 -123 -68 -213c0 -93.333 24.333 -173 73 -239z" />
    <glyph glyph-name="Ugrave" unicode="&#xd9;" horiz-adv-x="793" 
d="M652 287l0.00195312 259.002c0 42 -6 72.333 -18 91s-32.333 29.667 -61 33c-9.33301 0.666992 -14 4.33398 -14 11.001c0 7.33301 3.33301 10.666 10 9.99902c7.33301 -0.666992 18 -2 32 -4c12.667 -2 27.667 -3 45 -3c37.333 0 60.333 0.666992 69 2
c11.333 0.666992 18.666 1 21.999 1c6 0 9 -3 9 -9c0 -4.66699 -3.33301 -8.66699 -10 -12c-20.667 -8 -34 -19.667 -40 -35c-6 -14.667 -9 -43 -9 -85v-248c0 -90.667 -18 -160.334 -54 -209.001c-22.667 -31.333 -55.667 -56.333 -99 -75
c-42.667 -18.667 -88.334 -28 -137.001 -28c-56.667 0 -107.667 11 -153 33s-78.333 52 -99 90c-24 43.333 -36 100 -36 170v253c0 5.33301 -0.333008 15 -1 29c0 36 -5 60.667 -15 74c-9.33301 13.333 -29 22.333 -59 27c-9.33301 0.666992 -14 4 -14 10
c0 8 6.33301 12 19 12c8.66699 0 20.334 -0.333008 35.001 -1c15.333 -1.33301 26.666 -2 33.999 -2c8 0.666992 20.667 1 38 1h38c4 0 13.333 0.666992 28 2c12.667 1.33301 21.334 2 26.001 2c7.33301 0 11 -2.66699 11 -8c0 -6.66699 -5.33301 -11 -16 -13
c-19.333 -4.66699 -32.333 -13 -39 -25c-6 -12.667 -9 -35.334 -9 -68.001v-32v-253c0 -85.333 13.333 -146.666 40 -183.999c38 -52 101.333 -78 190 -78c79.333 0 138.666 22 177.999 66c39.333 43.333 59 108.666 59 195.999zM381.002 760.002l-65.999 72
c-1.33301 1.33301 -4 4.33301 -8 9c-4.66699 5.33301 -7 10 -7 14c0 13.333 7 20 21 20c25.333 0 40.666 -0.666992 45.999 -2s9.33301 -5.33301 12 -12l12 -27c2 -5.33301 8 -19 18 -41l11 -23c3.33301 -8 5 -14.333 5 -19c0 -7.33301 -3 -11 -9 -11
s-17.667 6.66699 -35 20z" />
    <glyph glyph-name="Uacute" unicode="&#xda;" horiz-adv-x="793" 
d="M652 287l0.00195312 259.002c0 42 -6 72.333 -18 91s-32.333 29.667 -61 33c-9.33301 0.666992 -14 4.33398 -14 11.001c0 7.33301 3.33301 10.666 10 9.99902c7.33301 -0.666992 18 -2 32 -4c12.667 -2 27.667 -3 45 -3c37.333 0 60.333 0.666992 69 2
c11.333 0.666992 18.666 1 21.999 1c6 0 9 -3 9 -9c0 -4.66699 -3.33301 -8.66699 -10 -12c-20.667 -8 -34 -19.667 -40 -35c-6 -14.667 -9 -43 -9 -85v-248c0 -90.667 -18 -160.334 -54 -209.001c-22.667 -31.333 -55.667 -56.333 -99 -75
c-42.667 -18.667 -88.334 -28 -137.001 -28c-56.667 0 -107.667 11 -153 33s-78.333 52 -99 90c-24 43.333 -36 100 -36 170v253c0 5.33301 -0.333008 15 -1 29c0 36 -5 60.667 -15 74c-9.33301 13.333 -29 22.333 -59 27c-9.33301 0.666992 -14 4 -14 10
c0 8 6.33301 12 19 12c8.66699 0 20.334 -0.333008 35.001 -1c15.333 -1.33301 26.666 -2 33.999 -2c8 0.666992 20.667 1 38 1h38c4 0 13.333 0.666992 28 2c12.667 1.33301 21.334 2 26.001 2c7.33301 0 11 -2.66699 11 -8c0 -6.66699 -5.33301 -11 -16 -13
c-19.333 -4.66699 -32.333 -13 -39 -25c-6 -12.667 -9 -35.334 -9 -68.001v-32v-253c0 -85.333 13.333 -146.666 40 -183.999c38 -52 101.333 -78 190 -78c79.333 0 138.666 22 177.999 66c39.333 43.333 59 108.666 59 195.999zM412.002 760.002
c-17.333 -13.333 -29 -20 -35 -20s-9 3.66699 -9 11c0 5.33301 5.33301 19.333 16 42c10 22 16.333 35.667 19 41l12 27c2.66699 6.66699 6.66699 10.667 12 12c4.66699 1.33301 20 2 46 2c14 0 21 -6.66699 21 -20c0 -4 -2.33301 -8.66699 -7 -14c-2 -2 -4.66699 -5 -8 -9z
" />
    <glyph glyph-name="Ucircumflex" unicode="&#xdb;" horiz-adv-x="793" 
d="M652 287l0.00195312 259.002c0 42 -6 72.333 -18 91s-32.333 29.667 -61 33c-9.33301 0.666992 -14 4.33398 -14 11.001c0 7.33301 3.33301 10.666 10 9.99902c7.33301 -0.666992 18 -2 32 -4c12.667 -2 27.667 -3 45 -3c37.333 0 60.333 0.666992 69 2
c11.333 0.666992 18.666 1 21.999 1c6 0 9 -3 9 -9c0 -4.66699 -3.33301 -8.66699 -10 -12c-20.667 -8 -34 -19.667 -40 -35c-6 -14.667 -9 -43 -9 -85v-248c0 -90.667 -18 -160.334 -54 -209.001c-22.667 -31.333 -55.667 -56.333 -99 -75
c-42.667 -18.667 -88.334 -28 -137.001 -28c-56.667 0 -107.667 11 -153 33s-78.333 52 -99 90c-24 43.333 -36 100 -36 170v253c0 5.33301 -0.333008 15 -1 29c0 36 -5 60.667 -15 74c-9.33301 13.333 -29 22.333 -59 27c-9.33301 0.666992 -14 4 -14 10
c0 8 6.33301 12 19 12c8.66699 0 20.334 -0.333008 35.001 -1c15.333 -1.33301 26.666 -2 33.999 -2c8 0.666992 20.667 1 38 1h38c4 0 13.333 0.666992 28 2c12.667 1.33301 21.334 2 26.001 2c7.33301 0 11 -2.66699 11 -8c0 -6.66699 -5.33301 -11 -16 -13
c-19.333 -4.66699 -32.333 -13 -39 -25c-6 -12.667 -9 -35.334 -9 -68.001v-32v-253c0 -85.333 13.333 -146.666 40 -183.999c38 -52 101.333 -78 190 -78c79.333 0 138.666 22 177.999 66c39.333 43.333 59 108.666 59 195.999zM397.002 827.002
c-6 -0.666992 -22.3311 -20.334 -48.998 -59.001c-9.33301 -14.667 -17.333 -22 -24 -22c-5.33301 0 -11 2 -17 6s-8.66699 7.33301 -8 10c0.666992 4.66699 2.66699 9.66699 6 15c4 4.66699 9.66699 12 17 22l44 56c9.33301 12 16.666 19.333 21.999 22
c5.33301 3.33301 12.666 5 21.999 5c12 0 21 -2 27 -6c6 -3.33301 17.333 -14 34 -32c42.667 -46 64.334 -71 65.001 -75c0.666992 -5.33301 -4 -9.66602 -14 -12.999c-4.66699 -2 -12 -4.66699 -22 -8c-5.33301 -2 -10 -3.33301 -14 -4
c-4.66699 -0.666992 -9.66699 2.33301 -15 9c-2.66699 2.66699 -6.66699 6.33398 -12 11.001c-2.66699 3.33301 -8.33398 9.66602 -17.001 18.999l-20 21l-15 15c-4.66699 5.33301 -8 8 -10 8z" />
    <glyph glyph-name="Udieresis" unicode="&#xdc;" horiz-adv-x="793" 
d="M652 287l0.00195312 259.002c0 42 -6 72.333 -18 91s-32.333 29.667 -61 33c-9.33301 0.666992 -14 4.33398 -14 11.001c0 7.33301 3.33301 10.666 10 9.99902c7.33301 -0.666992 18 -2 32 -4c12.667 -2 27.667 -3 45 -3c37.333 0 60.333 0.666992 69 2
c11.333 0.666992 18.666 1 21.999 1c6 0 9 -3 9 -9c0 -4.66699 -3.33301 -8.66699 -10 -12c-20.667 -8 -34 -19.667 -40 -35c-6 -14.667 -9 -43 -9 -85v-248c0 -90.667 -18 -160.334 -54 -209.001c-22.667 -31.333 -55.667 -56.333 -99 -75
c-42.667 -18.667 -88.334 -28 -137.001 -28c-56.667 0 -107.667 11 -153 33s-78.333 52 -99 90c-24 43.333 -36 100 -36 170v253c0 5.33301 -0.333008 15 -1 29c0 36 -5 60.667 -15 74c-9.33301 13.333 -29 22.333 -59 27c-9.33301 0.666992 -14 4 -14 10
c0 8 6.33301 12 19 12c8.66699 0 20.334 -0.333008 35.001 -1c15.333 -1.33301 26.666 -2 33.999 -2c8 0.666992 20.667 1 38 1h38c4 0 13.333 0.666992 28 2c12.667 1.33301 21.334 2 26.001 2c7.33301 0 11 -2.66699 11 -8c0 -6.66699 -5.33301 -11 -16 -13
c-19.333 -4.66699 -32.333 -13 -39 -25c-6 -12.667 -9 -35.334 -9 -68.001v-32v-253c0 -85.333 13.333 -146.666 40 -183.999c38 -52 101.333 -78 190 -78c79.333 0 138.666 22 177.999 66c39.333 43.333 59 108.666 59 195.999zM319.002 868.002
c6.66699 0 16.002 -7 28.002 -21c12.667 -14 19 -24.667 19 -32c0.666992 -8.66699 -5 -20.334 -17 -35.001s-21.333 -22 -28 -22s-16.334 7 -29.001 21c-12.667 14.667 -19.334 26.334 -20.001 35.001c-0.666992 7.33301 5.33301 18.333 18 33c12 14 21.667 21 29 21z
M503.004 868.002c6.66699 0 16.002 -7 28.002 -21s18.333 -24.667 19 -32c0 -8.66699 -6 -20.334 -18 -35.001s-21 -22 -27 -22c-6.66699 0 -16.334 7 -29.001 21c-12.667 14.667 -19.334 26.334 -20.001 35.001c-0.666992 7.33301 5.33301 18.333 18 33
c12 14 21.667 21 29 21z" />
    <glyph glyph-name="Yacute" unicode="&#xdd;" horiz-adv-x="599" 
d="M348 103c0 -39.333 3.33203 -63.3359 9.99902 -72.0029c6 -8.66699 24 -14.334 54 -17.001c10.667 -1.33301 16 -4.66602 16 -9.99902c0 -8.66699 -6 -13 -18 -13c-3.33301 0 -11.666 1 -24.999 3c-8.66699 1.33301 -21 2.33301 -37 3
c-8.66699 0.666992 -22 1.33398 -40 2.00098c-6 0 -18.667 -0.333008 -38 -1c-24.667 0 -41.334 -0.666992 -50.001 -2c-9.33301 -1.33301 -15.666 -2 -18.999 -2c-7.33301 0 -11 3 -11 9c0 6.66699 5.33301 10.667 16 12c28 4.66699 45.667 12.334 53 23.001
c8 10.667 12 34 12 70v21v149c0 21.333 -1.66699 37 -5 47c-2.66699 10 -10 24 -22 42l-139 222c-2.66699 4.66699 -8.33398 14 -17.001 28c-10 15.333 -23.667 28 -41 38c-18 10 -35.667 15 -53 15c-9.33301 0 -14 3 -14 9c0 6.66699 5.33301 10 16 10
c8 0 16.333 -0.333008 25 -1c22 -2.66699 44.667 -4 68 -4c48.667 0 80 1 94 3c14.667 1.33301 23.334 2 26.001 2c10 0 15 -3.33301 15 -10c0 -5.33301 -4 -9 -12 -11c-22 -7.33301 -33 -19 -33 -35c0 -8.66699 7.33301 -24.667 22 -48
c2.66699 -5.33301 7.33398 -13.333 14.001 -24l104 -165c1.33301 -1.33301 3.66602 -4.66602 6.99902 -9.99902c2.66699 -4 5.66699 -6 9 -6s6.66602 2 9.99902 6c1.33301 2 3 4.66699 5 8l73 110l24 39c23.333 37.333 35 62 35 74c0 22.667 -21 39 -63 49
c-8 2 -12 6 -12 12c0 5.33301 3.66699 8 11 8c5.33301 0 14.333 -1 27 -3c10 -1.33301 33.333 -2 70 -2c34 0 55.667 0.333008 65 1c12.667 1.33301 21.667 2 27 2c8.66699 1.33301 13 -1.33398 13 -8.00098c0 -5.33301 -4.33301 -9.66602 -13 -12.999
c-29.333 -9.33301 -53.666 -28 -72.999 -56l-33 -48l-121 -181l-13 -17c-12.667 -18 -19 -34.667 -19 -50v-208zM315.999 759.997c-18 -13.333 -29.668 -20 -35.001 -20c-6.66699 0 -10 3.66699 -10 11c0 4.66699 1.66699 11 5 19l11 23c10.667 23.333 17 37 19 41l12 27
c2.66699 6.66699 6.66699 10.667 12 12c4.66699 1.33301 20.334 2 47.001 2c13.333 0 20 -6.66699 20 -20c0 -4 -5 -11.667 -15 -23z" />
    <glyph glyph-name="Thorn" unicode="&#xde;" horiz-adv-x="542" 
d="M207 494l-0.00195312 -308.003c-0.666992 -8 -1 -24.333 -1 -49c0 -6.66699 0.333008 -20.667 1 -42c3.33301 -40 18.333 -63.333 45 -70c18.667 -5.33301 32.667 -8 42 -8c10 0 15.333 -2.66699 16 -8c0.666992 -8.66699 -5.33301 -13 -18 -13
c-5.33301 0 -16.666 0.666992 -33.999 2c-10.667 0.666992 -27.667 1 -51 1h-36h-39c-19.333 0 -34.333 -0.666992 -45 -2c-12.667 -2 -22 -3 -28 -3c-8.66699 0 -13 3.33301 -13 10s5.66699 11 17 13c26 4 43.667 18.667 53 44c9.33301 24.667 14 70.334 14 137.001v355
c0 41.333 -4.66699 69.333 -14 84c-9.33301 14 -29.666 23.667 -60.999 29c-10.667 2 -16 6 -16 12v1c0 6.66699 5 10 15 10h9c24 -3.33301 56 -5 96 -5c24.667 0 46 0.666992 64 2l34 3h12c8.66699 0 13 -3.33301 13 -10s-4.33301 -11.334 -13 -14.001
c-6 -1.33301 -15 -3.66602 -27 -6.99902c-25.333 -7.33301 -38 -30 -38 -68c0 -10 2 -15 6 -15c1.33301 0 3 0.333008 5 1s7 1.33398 15 2.00098c4.66699 0 11.334 0.666992 20.001 2h28c72.667 0 131 -16.333 175 -49c44 -33.333 66 -77.333 66 -132
c0 -65.333 -26.667 -117 -80 -155c-40.667 -28 -83.334 -42 -128.001 -42c-20 0 -39 2.33301 -57 7c-17.333 4.66699 -26 9.66699 -26 15c0.666992 4.66699 4 7 10 7c2.66699 0 6 -0.666992 10 -2c7.33301 -2.66699 19.666 -4 36.999 -4c48 0 86.333 13.333 115 40
c29.333 26.667 44 61.667 44 105c0 50.667 -19.333 92.334 -58 125.001c-38 33.333 -86 50 -144 50c-13.333 0 -22.666 -2.66699 -27.999 -8c-4.66699 -5.33301 -7 -15 -7 -29v-14z" />
    <glyph glyph-name="germandbls" unicode="&#xdf;" horiz-adv-x="551" 
d="M106 404v17.999c0 90.667 27.333 166 82 226c42.667 47.333 88 71 136 71c39.333 0 72.333 -14.667 99 -44s40 -65.666 40 -108.999c0 -30 -7.33301 -59.333 -22 -88c-15.333 -28 -35.666 -50.667 -60.999 -68l-26 -17c-6 -4.66699 -9.33301 -9.66699 -10 -15
c-0.666992 -6.66699 9.33301 -20 30 -40c53.333 -52 89.333 -92.667 108 -122c19.333 -29.333 29 -59 29 -89c0 -39.333 -14.333 -72.666 -43 -99.999s-63.334 -41 -104.001 -41c-40 0 -80 10.333 -120 31c-5.33301 32 -8 64.333 -8 97c0 18.667 4.33301 28 13 28
c6 0 10.667 -6.33301 14 -19c3.33301 -17.333 14 -39 32 -65c20.667 -30.667 47.334 -46 80.001 -46c21.333 0 38.666 7 51.999 21c12.667 14.667 19 33.667 19 57c0 44 -36.333 103 -109 177l-48 49c-14 14 -21 26.667 -21 38c0 10 10 22.667 30 38
c36.667 27.333 61.667 51.666 75 72.999s20 48.666 20 81.999c0 38 -9.66699 69.333 -29 94c-19.333 24 -44.333 36 -75 36c-37.333 0 -65.666 -17.667 -84.999 -53c-20 -35.333 -30 -85.666 -30 -150.999c0 -24.667 0.333008 -61.334 1 -110.001v-285
c-0.666992 -8 -1 -24 -1 -48c0 -22.667 -5 -33.667 -15 -33c-6 0.666992 -15.667 1.33398 -29 2.00098c-4 -0.666992 -12.333 -1 -25 -1c-2 -0.666992 -7 -1.33398 -15 -2.00098c-4.66699 0 -14 -0.333008 -28 -1c-2 0.666992 -5.66699 1.66699 -11 3
c-2.66699 0.666992 -3.66699 2.66699 -3 6c0.666992 7.33301 6.66699 11.666 18 12.999c16 2 26.667 7.33301 32 16s8 24.334 8 47.001v281h-69c-4 0.666992 -6 3.66699 -6 9c0 2 0.333008 4.33301 1 7s1.66699 7.33398 3 14.001c1.33301 8.66699 8.66602 13 21.999 13h49z
" />
    <glyph glyph-name="OE" unicode="&#x152;" horiz-adv-x="1004" 
d="M614 583l-0.000976562 -166.998c0 -23.333 1 -37 3 -41s9.66699 -6 23 -6h54c12 0.666992 35.333 1.66699 70 3c50 0 78.333 13.667 85 41c1.33301 4 3 10.667 5 20c2 7.33301 6 11 12 11s9.33301 -3.33301 10 -10l-3 -32c-0.666992 -8 -1.33398 -24.667 -2.00098 -50
c0 -6.66699 -0.333008 -20.334 -1 -41.001l4 -56c0.666992 -3.33301 0 -6 -2 -8c-1.33301 -2 -3.66602 -3 -6.99902 -3c-6.66699 0 -11.667 4.33301 -15 13c-1.33301 7.33301 -4 18.333 -8 33c-6 23.333 -31.333 35 -76 35c-13.333 0 -32.666 0.333008 -57.999 1h-61
c-4 -0.666992 -12 -2.33398 -24 -5.00098c-6 -2 -9 -10.667 -9 -26v-182c0 -33.333 4.33301 -54.333 13 -63c9.33301 -8.66699 31 -13 65 -13c138.667 0 226.667 28.333 264 85c4.66699 8 9 12 13 12c5.33301 0 8 -3.66699 8 -11c0 -22 -11.667 -47.333 -35 -76
c-30 -37.333 -65.667 -56 -107 -56c-10 0 -26 1 -48 3c-54 4.66699 -110 7 -168 7c-46 0 -98.667 -3.33301 -158 -10c-29.333 -3.33301 -51.666 -5 -66.999 -5c-102 0 -186.333 33.333 -253 100c-66.667 66 -100 150 -100 252c0 56.667 11.667 110 35 160s55 90.667 95 122
c66 50.667 141.667 76 227 76c23.333 0 53.666 -2.33301 90.999 -7c62.667 -7.33301 105.667 -11 129 -11c142 0 230.333 2 265 6c12.667 2 21 3 25 3c12.667 0 19 -5.33301 19 -16v-11c-3.33301 -14.667 -5.33301 -29 -6 -43c-1.33301 -30 -3.33301 -48.667 -6 -56
c-2 -7.33301 -6.33301 -11 -13 -11c-6 0 -9 3.66699 -9 11v17c0 29.333 -11.333 48 -34 56c-22.667 7.33301 -77.667 11 -165 11h-36c-17.333 0 -28.333 -2 -33 -6c-7.33301 -6 -11 -24.667 -11 -56zM536.999 151.002l-0.00292969 369c0 32.667 -2.33301 56.334 -7 71.001
c-5.33301 15.333 -14.666 28.666 -27.999 39.999c-28 22.667 -69 34 -123 34c-79.333 0 -142.333 -26 -189 -78c-46 -52 -69 -123 -69 -213c0 -115.333 37 -208.333 111 -279c56.667 -53.333 120.334 -80 191.001 -80c38.667 0 67.334 11 86.001 33s28 56.333 28 103z" />
    <glyph glyph-name="Scaron" unicode="&#x160;" horiz-adv-x="513" 
d="M261 696c35.333 0 65.334 -5.00098 90.001 -15.001l35 -15c3.33301 -1.33301 6.33301 -2 9 -2c4 0 8 1.66699 12 5c1.33301 1.33301 3.66602 3.33301 6.99902 6c0.666992 1.33301 2.66699 2 6 2c8 0.666992 12 -7.66602 12 -24.999c0 -5.33301 2.33301 -22 7 -50
c1.33301 -11.333 4 -28.333 8 -51c1.33301 -11.333 2 -18.333 2 -21c0 -10.667 -3.33301 -16 -10 -16c-5.33301 0 -10.666 8 -15.999 24c-12.667 36.667 -37.334 66.667 -74.001 90s-77.667 35 -123 35c-36 0 -66 -10.667 -90 -32s-36 -48 -36 -80
c0 -27.333 7.66699 -51.333 23 -72c13.333 -17.333 28.333 -30 45 -38c16 -8 55.667 -22.333 119 -43c123.333 -40.667 185 -107 185 -199c0 -62.667 -22.667 -113.667 -68 -153c-45.333 -40 -103.333 -60 -174 -60c-26 0 -54.333 4 -85 12
c-31.333 7.33301 -54 15.666 -68 24.999c-6 4 -10 8.33301 -12 13c-2 4 -5 15.667 -9 35c-0.666992 2 -4.66699 17 -12 45c-8.66699 30 -13 51.333 -13 64c0 10 3.33301 14.667 10 14c5.33301 0 10.666 -8 15.999 -24c11.333 -41.333 36.666 -76 75.999 -104
c38.667 -28 80.334 -42 125.001 -42c46 0 85 13.667 117 41c32 26.667 48 59.334 48 98.001c0 36.667 -14.667 68 -44 94c-15.333 12.667 -58.666 31 -129.999 55c-74 25.333 -126.333 53 -157 83c-30.667 30.667 -46 70 -46 118c0 54 20 98 60 132s91.667 51 155 51z
M190.001 881.999c4 0 8.99707 -2.99805 14.9971 -8.99805l11 -11c2.66699 -3.33301 8.33398 -9.33301 17.001 -18c3.33301 -4 10.333 -11.667 21 -23c2 -2.66699 6.66699 -7.33398 14 -14.001c4.66699 -5.33301 8 -8 10 -8c6 0 22.333 19.667 49 59c10 14.667 18 22 24 22
c5.33301 0 11 -2 17 -6s8.66699 -7.66699 8 -11c-0.666992 -4 -2.66699 -8.66699 -6 -14c-4 -4.66699 -9.66699 -11.667 -17 -21c-7.33301 -10 -22 -29 -44 -57c-9.33301 -12 -16.666 -19.667 -21.999 -23s-12.666 -5 -21.999 -5c-10.667 0 -19 1.66699 -25 5
s-14.667 11.333 -26 24l-47 50c-18 19.333 -27.333 31 -28 35c-0.666992 5.33301 4 9.66602 14 12.999l22 9c6 2 11 3 15 3z" />
    <glyph glyph-name="Ydieresis" unicode="&#x178;" horiz-adv-x="599" 
d="M348 103c0 -39.333 3.33203 -63.3359 9.99902 -72.0029c6 -8.66699 24 -14.334 54 -17.001c10.667 -1.33301 16 -4.66602 16 -9.99902c0 -8.66699 -6 -13 -18 -13c-3.33301 0 -11.666 1 -24.999 3c-8.66699 1.33301 -21 2.33301 -37 3
c-8.66699 0.666992 -22 1.33398 -40 2.00098c-6 0 -18.667 -0.333008 -38 -1c-24.667 0 -41.334 -0.666992 -50.001 -2c-9.33301 -1.33301 -15.666 -2 -18.999 -2c-7.33301 0 -11 3 -11 9c0 6.66699 5.33301 10.667 16 12c28 4.66699 45.667 12.334 53 23.001
c8 10.667 12 34 12 70v21v149c0 21.333 -1.66699 37 -5 47c-2.66699 10 -10 24 -22 42l-139 222c-2.66699 4.66699 -8.33398 14 -17.001 28c-10 15.333 -23.667 28 -41 38c-18 10 -35.667 15 -53 15c-9.33301 0 -14 3 -14 9c0 6.66699 5.33301 10 16 10
c8 0 16.333 -0.333008 25 -1c22 -2.66699 44.667 -4 68 -4c48.667 0 80 1 94 3c14.667 1.33301 23.334 2 26.001 2c10 0 15 -3.33301 15 -10c0 -5.33301 -4 -9 -12 -11c-22 -7.33301 -33 -19 -33 -35c0 -8.66699 7.33301 -24.667 22 -48
c2.66699 -5.33301 7.33398 -13.333 14.001 -24l104 -165c1.33301 -1.33301 3.66602 -4.66602 6.99902 -9.99902c2.66699 -4 5.66699 -6 9 -6s6.66602 2 9.99902 6c1.33301 2 3 4.66699 5 8l73 110l24 39c23.333 37.333 35 62 35 74c0 22.667 -21 39 -63 49
c-8 2 -12 6 -12 12c0 5.33301 3.66699 8 11 8c5.33301 0 14.333 -1 27 -3c10 -1.33301 33.333 -2 70 -2c34 0 55.667 0.333008 65 1c12.667 1.33301 21.667 2 27 2c8.66699 1.33301 13 -1.33398 13 -8.00098c0 -5.33301 -4.33301 -9.66602 -13 -12.999
c-29.333 -9.33301 -53.666 -28 -72.999 -56l-33 -48l-121 -181l-13 -17c-12.667 -18 -19 -34.667 -19 -50v-208zM235.999 867.997c6.66699 0 16.002 -7 28.002 -21c12 -13.333 18.333 -24 19 -32c0.666992 -8.66699 -5 -20.334 -17 -35.001s-21.333 -22 -28 -22
s-16.334 7 -29.001 21c-12.667 14.667 -19.334 26.334 -20.001 35.001c-0.666992 7.33301 5.33301 18.333 18 33c12 14 21.667 21 29 21zM420.001 867.997c6.66699 0 16.002 -7 28.002 -21s18 -24.667 18 -32c0.666992 -8.66699 -5 -20.334 -17 -35.001s-21.333 -22 -28 -22
s-16.334 7 -29.001 21c-12.667 14.667 -19.334 26.334 -20.001 35.001c0 7.33301 6 18.333 18 33c12.667 14 22.667 21 30 21z" />
    <glyph glyph-name="uni01b6" unicode="&#x1b6;" 
d="M511 952l2.00391 0.00390625h2c0 -0.666992 -0.333008 -1.66699 -1 -3c1.33301 -8.66699 5 -15.334 11 -20.001c6.66699 -5.33301 12.667 -11 18 -17c2.66699 -2.66699 3.66699 -6 3 -10l-3 -9c6 -2.66699 11 -6 15 -10c3.33301 -4.66699 4.33301 -10.667 3 -18
c6.66699 -2.66699 13 -6 19 -10s11 -9 15 -15c7.33301 -9.33301 11.666 -20 12.999 -32c0.666992 -11.333 -0.333008 -22.666 -3 -33.999c2 -2 4 -3.66699 6 -5c2 -2 3 -4.33301 3 -7c-2 -14 -6 -27.667 -12 -41c-5.33301 -13.333 -7 -27.333 -5 -42
c-6 3.33301 -12 6.33301 -18 9c-4.66699 -11.333 -11 -22 -19 -32c2 -5.33301 4.33301 -11 7 -17c2.66699 -5.33301 6.33398 -10 11.001 -14c12 -5.33301 24.333 -10 37 -14c13.333 -4 26 -8.33301 38 -13c8.66699 -4 15.667 -9.33301 21 -16
c6 -7.33301 10.333 -15.333 13 -24c13.333 -53.333 26 -106.666 38 -159.999c2 -9.33301 1.66699 -18.333 -1 -27s-7.33398 -16.334 -14.001 -23.001c-8 -7.33301 -16.667 -14 -26 -20c-8.66699 -6 -17 -12.667 -25 -20c3.33301 1.33301 8 3 14 5
c63.333 27.333 128 51.333 194 72c0 -48.667 -9 -95.334 -27 -140.001c60.667 8.66699 122 14 184 16v-1c-10.667 -9.33301 -21 -19 -31 -29s-20.333 -19.667 -31 -29c-33.333 -28 -69 -52.667 -107 -74s-78.333 -36.666 -121 -45.999c-12 -2.66699 -24 -4.66699 -36 -6
c-8 -0.666992 -20 -2 -36 -4h-21c-16.667 1.33301 -33.334 3.66602 -50.001 6.99902s-33.334 4.66602 -50.001 3.99902c-6 -0.666992 -12 -2.33398 -18 -5.00098s-12.333 -2.66699 -19 0c-11.333 4.66699 -23.333 6.66699 -36 6s-25 -2.66699 -37 -6
c-42.667 -7.33301 -85 -6.66602 -127 2.00098c-42 8 -82 21.667 -120 41c-63.333 32.667 -120 74.667 -170 126c-4 4.66699 -8.66699 9 -14 13v2c62 -2 123.333 -7.66699 184 -17c-18 45.333 -27 92 -27 140c35.333 -10.667 70.333 -22.667 105 -36l103 -41
c-8.66699 8 -17.667 15 -27 21s-18 13.333 -26 22c-5.33301 5.33301 -9.33301 11.666 -12 18.999s-3 15 -1 23c11.333 55.333 24 110 38 164c2 10 6.33301 18.667 13 26s14.667 13 24 17l36 12c12 4 24 8.33301 36 13c4.66699 4 8.33398 8.66699 11.001 14
c2.66699 6 5 11.667 7 17c-8 10 -14.333 21 -19 33l-18 -10c2 14.667 0.333008 28.667 -5 42c-6 13.333 -10 27 -12 41c0 2.66699 1 5 3 7c1.33301 1.33301 3.33301 3 6 5c-2 11.333 -2.66699 22.666 -2 33.999c0.666992 12 4.66699 22.667 12 32c4 6.66699 9 11.667 15 15
c6 4 12.333 7.66699 19 11c-0.666992 6.66699 0.666016 12.334 3.99902 17.001c3.33301 4 8 7.33301 14 10c-2 5.33301 -3 10.666 -3 15.999c6 6.66699 12.667 13 20 19s11.666 14 12.999 24zM396.004 503.004c-10.667 -39.333 -22.002 -78.668 -34.002 -118.001l47 -36
c4.66699 9.33301 9 19 13 29c3.33301 10 4.33301 20 3 30c-3.33301 16.667 -7.66602 32.667 -12.999 48c-3.33301 10.667 -8.66602 26.334 -15.999 47.001zM600.002 411.002c-2.66699 -10.667 -2.00098 -21.334 1.99902 -32.001s8.33301 -20.667 13 -30
c16 11.333 31.667 23.333 47 36c-12 38.667 -23.333 77.667 -34 117c-11.333 -29.333 -20.666 -59.666 -27.999 -90.999v0z" />
    <glyph glyph-name="uni01b7" unicode="&#x1b7;" 
d="M512 954l2.00391 0.00585938h2c0 -0.666992 -0.333008 -1.66699 -1 -3c1.33301 -8.66699 5 -15.667 11 -21c6.66699 -4.66699 12.667 -10 18 -16c2.66699 -2.66699 3.66699 -6 3 -10l-3 -9c6 -2.66699 10.667 -6.33398 14 -11.001c4 -4 5.33301 -9.66699 4 -17
c6.66699 -2.66699 13 -6 19 -10s11 -9 15 -15c7.33301 -9.33301 11.333 -20 12 -32c1.33301 -11.333 0.666016 -22.666 -2.00098 -33.999l6 -6c2 -1.33301 3 -3.33301 3 -6c-2 -14 -6 -27.667 -12 -41c-5.33301 -13.333 -7 -27.333 -5 -42c-6 3.33301 -12 6.33301 -18 9
c-4.66699 -11.333 -11 -22 -19 -32c2 -5.33301 4.33301 -11 7 -17c2.66699 -5.33301 6.33398 -10 11.001 -14c12 -5.33301 24.333 -10 37 -14c13.333 -4 26 -8.33301 38 -13c8.66699 -4 15.667 -9.66699 21 -17c6 -6.66699 10.333 -14.334 13 -23.001
c13.333 -53.333 26 -106.666 38 -159.999c2 -9.33301 1.66699 -18.333 -1 -27s-7.33398 -16.334 -14.001 -23.001c-8 -7.33301 -16.667 -14 -26 -20c-8.66699 -6 -17 -12.667 -25 -20c3.33301 1.33301 8 3 14 5c63.333 27.333 128 51.333 194 72
c0 -48.667 -9 -95.334 -27 -140.001c60.667 8.66699 122 14 184 16v-1c-10.667 -9.33301 -21 -19 -31 -29s-20.333 -19.667 -31 -29c-33.333 -28 -69 -52.667 -107 -74s-78.333 -36.666 -121 -45.999c-12 -2.66699 -24 -4.66699 -36 -6c-8 -0.666992 -20 -2 -36 -4h-21
c-16.667 1.33301 -33.334 3.66602 -50.001 6.99902s-33.334 4.66602 -50.001 3.99902c-6 -0.666992 -12 -2.33398 -18 -5.00098s-12.333 -2.66699 -19 0c-11.333 4.66699 -23.333 6.66699 -36 6s-25 -2.66699 -37 -6c-42.667 -7.33301 -85 -7 -127 1
c-42 8.66699 -82 22.667 -120 42c-63.333 32.667 -120 74.667 -170 126c-4 4.66699 -8.66699 9 -14 13v2c62 -2 123.333 -7.66699 184 -17c-18 45.333 -27 92 -27 140c35.333 -10.667 70.333 -22.667 105 -36l103 -41c-8.66699 8 -17.667 15 -27 21s-18 13.333 -26 22
c-5.33301 5.33301 -9.33301 11.666 -12 18.999s-3 15 -1 23c11.333 55.333 24 110 38 164c2 10 6.33301 18.667 13 26s14.667 13 24 17l36 12c12 4 24 8.33301 36 13c4.66699 4 8.33398 8.66699 11.001 14c2.66699 6 5 11.667 7 17c-8 10 -14.333 21 -19 33l-18 -10
c2 14.667 0 28.667 -6 42c-5.33301 13.333 -9 27 -11 41c0 2.66699 1 5 3 7c1.33301 1.33301 3.33301 3 6 5c-2 11.333 -2.66699 22.666 -2 33.999c0.666992 12 4.66699 22.667 12 32c4 6.66699 9 11.667 15 15c6 4 12.333 7.66699 19 11
c-0.666992 6.66699 0.666016 12 3.99902 16c3.33301 4.66699 8 8.33398 14 11.001c-2 5.33301 -3 10.666 -3 15.999c6 6.66699 12.667 13 20 19s11.666 14 12.999 24zM396.004 503.006c-10.667 -39.333 -22.002 -78.668 -34.002 -118.001l47 -36c4.66699 9.33301 9 19 13 29
c3.33301 10 4.33301 20 3 30c-3.33301 16.667 -7.66602 32.667 -12.999 48c-3.33301 10.667 -8.66602 26.334 -15.999 47.001zM600.002 411.004c-2.66699 -10.667 -2.00098 -21.334 1.99902 -32.001s8.33301 -20.667 13 -30c16 11.333 31.667 23.333 47 36
c-12 38.667 -23.333 77.667 -34 117c-11.333 -29.333 -20.666 -59.666 -27.999 -90.999v0z" />
    <glyph glyph-name="uni01b8" unicode="&#x1b8;" horiz-adv-x="574" 
d="M273 750c13.333 -0.666992 25.998 -2.66602 37.998 -5.99902c12.667 -4 24.667 -8.66699 36 -14c20.667 -10 40.334 -22 59.001 -36c18.667 -13.333 36.334 -28.333 53.001 -45c17.333 17.333 36 33.333 56 48c20.667 15.333 42 27.666 64 36.999
c22 10 44.667 15.333 68 16h9c20.667 0 41 -2 61 -6c24 -4.66699 46.667 -13.667 68 -27s39 -30.333 53 -51c16.667 -23.333 27.334 -49.333 32.001 -78c3.33301 -18 5 -35.333 5 -52c0 -11.333 -0.666992 -22.666 -2 -33.999c-5.33301 -34.667 -18 -67 -38 -97
c-19.333 -29.333 -41.333 -56.333 -66 -81l-146 -141l-146 -140c-4.66699 -4.66699 -10.667 -7 -18 -7s-13.333 2.33301 -18 7l-153 147l-153 148c-16.667 18 -32 37.333 -46 58c-14 20 -25 42 -33 66c-8.66699 23.333 -13 47.666 -13 72.999v4c0 26.667 4 52.667 12 78
s21.333 48 40 68c18 20 39.333 35.333 64 46c18 7.33301 36.667 12.333 56 15s38.666 4 57.999 4z" />
    <glyph glyph-name="uni01b9" unicode="&#x1b9;" horiz-adv-x="574" 
d="M276 749c12.667 -0.666992 25.3301 -2.66797 37.9971 -6.00098s24.667 -7.66602 36 -12.999c20.667 -10 40.334 -22 59.001 -36s36.334 -29 53.001 -45c17.333 16.667 36 32.667 56 48c20 14.667 41.333 27 64 37c22 9.33301 44.667 14.333 68 15h9c20.667 0 41 -2 61 -6
c24 -4.66699 46.667 -13.667 68 -27s39 -30 53 -50c16.667 -24 27.334 -50.333 32.001 -79c3.33301 -17.333 5 -34.666 5 -51.999c0 -11.333 -0.666992 -22.333 -2 -33c-6 -35.333 -18.667 -67.666 -38 -96.999c-19.333 -30 -41.333 -57.333 -66 -82l-146 -140l-146 -141
c-5.33301 -4.66699 -11.333 -6.66699 -18 -6c-7.33301 0 -13.333 2 -18 6l-153 148l-153 147c-16.667 18.667 -32 38 -46 58c-14.667 20.667 -25.667 42.667 -33 66c-8.66699 23.333 -13 47.666 -13 72.999v4c0 27.333 4 53.333 12 78c8 25.333 21 48 39 68
c18.667 20.667 40.334 36 65.001 46c18 7.33301 36.667 12.666 56 15.999c19.333 2.66699 38.666 3.66699 57.999 3z" />
    <glyph glyph-name="uni01ba" unicode="&#x1ba;" 
d="M511 999l158.999 -320.001l354 -50l-255 -250l62 -352l-317 166l-314 -167c8 58.667 17.333 117.334 28 176.001s20.334 117.667 29.001 177l-257 247l354 52l157 321v0z" />
    <glyph glyph-name="uni01bb" unicode="&#x1bb;" 
d="M511 999l158.999 -320.001l354 -50l-255 -250l62 -352l-317 166l-314 -167c8 58.667 17.333 117.334 28 176.001s20.334 117.667 29.001 177l-257 247l354 52l157 321v0z" />
    <glyph glyph-name="uni01bc" unicode="&#x1bc;" 
d="M467 943c0.666992 0 1.33398 0.333984 2.00098 1.00098c42 24 86.333 36 133 36c46.667 0.666992 91 -11 133 -35c36 -20.667 66 -48 90 -82c24 -33.333 41.667 -72.333 53 -117c95.333 -26 143 -95 143 -207c0 -11.333 -0.333008 -23.333 -1 -36
c-10.667 -132.667 -148.667 -285.334 -414 -458.001c-264.667 172 -402.667 324.333 -414 457c-12 132 34.333 213 139 243l6 21c-5.33301 3.33301 -10 7 -14 11l-266 -152c-6.66699 -4 -13.334 -5 -20.001 -3s-12 6 -16 12c-0.666992 1.33301 -1.66699 3 -3 5
c-2 4 -3 8.33301 -3 13c0 10.667 4.33301 18.667 13 24c2 1.33301 5.33301 3 10 5c-6 11.333 -18.667 33.333 -38 66l40 23c3.33301 -5.33301 9.66602 -16.333 18.999 -33l39 23c-1.33301 2.66699 -4.33301 8 -9 16l39 23l29 -49l136 78
c-5.33301 24 -3.66602 47.333 5.00098 70c9.33301 22 25 39.667 47 53c20 11.333 41 16.333 63 15c22 -2 41.667 -9.66699 59 -23v0zM652 244.001c-0.666992 7.33301 -3.00195 36.333 -7.00195 87c-2 19.333 -4.66699 48.333 -8 87
c10.667 9.33301 16.334 21.666 17.001 36.999c0 14 -4.66699 25.667 -14 35c-9.33301 8.66699 -21 13 -35 13c-13.333 0 -24.333 -4.33301 -33 -13c-9.33301 -9.33301 -14.333 -21 -15 -35c0.666992 -15.333 6.33398 -27.666 17.001 -36.999l-15 -174h93v0zM421.998 748.001
c33.333 -6 65.999 -20.666 97.999 -43.999c32 -24 60.667 -57.333 86 -100c26.667 45.333 57.334 79.666 92.001 102.999c34 24 68.667 38.333 104 43c-9.33301 30 -22.666 56.333 -39.999 79c-17.333 22 -38 40 -62 54c-30.667 17.333 -63 26 -97 26s-66 -8.66699 -96 -26
c5.33301 -24 3.66602 -47 -5.00098 -69c-9.33301 -22.667 -25 -40.667 -47 -54c-10.667 -6 -21.667 -10 -33 -12v0zM461.997 847.002c-13.333 -14 -24.666 -29.668 -33.999 -47.001c0.666992 0.666992 1.66699 1.33398 3 2.00098c17.333 10.667 27.666 25.667 30.999 45v0z
M425.997 912.001c-9.33301 4.66699 -18.667 6.66699 -28 6c-10 0 -19.667 -2.66699 -29 -8c-15.333 -9.33301 -25.333 -22 -30 -38c-4 -16 -1.66699 -31.667 7 -47c2 -4.66699 4.66699 -8.66699 8 -12c18 39.333 42 72.333 72 99v0z" />
    <glyph glyph-name="uni01bd" unicode="&#x1bd;" 
d="M570 943c-0.666992 0 -1.33398 0.333984 -2.00098 1.00098c-42 24 -86.333 36 -133 36c-46.667 0.666992 -91 -11 -133 -35c-36 -20.667 -66 -48 -90 -82c-24 -33.333 -41.667 -72.333 -53 -117c-95.333 -26 -143 -95 -143 -207c0 -11.333 0.333008 -23.333 1 -36
c10.667 -132.667 148.667 -285.334 414 -458.001c264.667 172 403 324.333 415 457c11.333 132 -35.334 213 -140.001 243l-6 21c5.33301 3.33301 10 7 14 11l266 -152c6.66699 -4 13.334 -5 20.001 -3s12 6 16 12c0.666992 1.33301 1.66699 3 3 5c2 4 3 8.33301 3 13
c0 10.667 -4.33301 18.667 -13 24c-2 1.33301 -5.33301 3 -10 5c6 11.333 18.667 33.333 38 66l-40 23c-3.33301 -5.33301 -9.66602 -16.333 -18.999 -33l-39 23c1.33301 2.66699 4.33301 8 9 16l-39 23l-29 -49l-136 78c5.33301 24 3.33301 47.333 -6 70
c-8.66699 22 -24 39.667 -46 53c-20 11.333 -41 16.333 -63 15c-22 -2 -41.667 -9.66699 -59 -23v0zM385 244.001c0.666992 7.33301 3.00293 36.333 7.00293 87c2 19.333 4.66699 48.333 8 87c-10.667 9.33301 -16.334 21.666 -17.001 36.999c0 14 4.66699 25.667 14 35
c9.33301 8.66699 20.666 13 33.999 13c14 0 25.333 -4.33301 34 -13c9.33301 -9.33301 14.333 -21 15 -35c-0.666992 -15.333 -6.33398 -27.666 -17.001 -36.999l15 -174h-93v0zM615.003 748.001c-33.333 -6 -65.999 -20.666 -97.999 -43.999
c-32 -24 -60.667 -57.333 -86 -100c-26.667 45.333 -57.334 79.666 -92.001 102.999c-34 24 -68.667 38.333 -104 43c9.33301 30 22.666 56.333 39.999 79c17.333 22 38 40 62 54c30.667 17.333 63 26 97 26s66 -8.66699 96 -26c-5.33301 -24 -3.66602 -47 5.00098 -69
c9.33301 -22.667 25 -40.667 47 -54c10.667 -6 21.667 -10 33 -12v0zM575.004 847.002c13.333 -14 24.666 -29.668 33.999 -47.001c-0.666992 0.666992 -1.66699 1.33398 -3 2.00098c-17.333 10.667 -27.666 25.667 -30.999 45v0zM611.004 912.001
c9.33301 4.66699 19.001 6.66699 29.001 6c9.33301 0 18.666 -2.66699 27.999 -8c15.333 -9.33301 25.333 -22 30 -38c4 -16 1.66699 -31.667 -7 -47c-2 -4.66699 -4.66699 -8.66699 -8 -12c-18 39.333 -42 72.333 -72 99v0z" />
    <glyph glyph-name="uni01be" unicode="&#x1be;" 
d="M163 730c27.333 7.33301 54.998 10.001 82.998 8.00098c28 -1.33301 55 -7.66602 81 -18.999c32.667 -14.667 63 -33.667 91 -57c27.333 -22.667 53.333 -46.667 78 -72l-57 -61c-20 21.333 -40.667 42 -62 62c-22 20 -45.333 38 -70 54
c-20.667 12.667 -42.667 22 -66 28c-22.667 5.33301 -46 6.33301 -70 3c-14.667 -2.66699 -28.667 -7.66699 -42 -15s-24.666 -17 -33.999 -29c-12.667 -17.333 -21.667 -36.333 -27 -57c-4.66699 -20.667 -7 -41.667 -7 -63c0 -20.667 2.66699 -41.334 8 -62.001
c4.66699 -20.667 13.334 -39.667 26.001 -57c9.33301 -12 20.666 -22 33.999 -30c13.333 -7.33301 27.666 -12 42.999 -14c23.333 -3.33301 46 -2.33301 68 3c22.667 5.33301 44 14 64 26c21.333 13.333 41.333 28.333 60 45s37 34 55 52l92 96l53 53
c18 16.667 36.667 32.334 56 47.001c20.667 16 42.667 29.667 66 41c24 12 49 20 75 24c12.667 2 25 3 37 3c14.667 0 29.334 -1.33301 44.001 -4c27.333 -5.33301 52.666 -15.333 75.999 -30c18.667 -11.333 35 -25 49 -41c14.667 -16 26.667 -33.667 36 -53
c11.333 -24.667 18.333 -50.334 21 -77.001c0.666992 -8 1 -15.667 1 -23c0 -19.333 -2.33301 -38.333 -7 -57c-9.33301 -34 -25.333 -64.333 -48 -91c-27.333 -30.667 -60 -52.667 -98 -66c-24.667 -8 -49.667 -12 -75 -12s-50 3.66699 -74 11
c-37.333 13.333 -71.666 32.666 -102.999 57.999c-32 24.667 -62 51.334 -90 80.001l57 62l57 -57c19.333 -18.667 40.333 -35.667 63 -51c16.667 -12 34.667 -21.667 54 -29c18.667 -7.33301 38.334 -11.333 59.001 -12c17.333 -1.33301 34.666 0.666992 51.999 6
c16.667 4.66699 31.334 12.667 44.001 24c15.333 14 26.666 30.333 33.999 49c7.33301 19.333 11.666 39 12.999 59c2 22 1.66699 44 -1 66c-3.33301 22 -10 43 -20 63c-7.33301 14 -17 26 -29 36s-25.667 17.333 -41 22c-23.333 6 -46.666 7.33301 -69.999 4
c-24 -4 -46.667 -11.667 -68 -23c-26.667 -14.667 -51.334 -32.334 -74.001 -53.001s-44.667 -42 -66 -64l-82 -86c-24 -24.667 -49 -48.667 -75 -72s-54.333 -43.333 -85 -60c-20.667 -12 -42.667 -20.667 -66 -26c-23.333 -6 -46.666 -8 -69.999 -6
c-30.667 1.33301 -59.667 8.33301 -87 21c-27.333 13.333 -51.333 31.333 -72 54c-18 20.667 -31.667 43.667 -41 69c-10 26 -15 52.667 -15 80c0 24 3.66699 47.667 11 71c6.66699 23.333 17 45 31 65c14.667 20 32.334 37 53.001 51c20.667 14.667 43 25.667 67 33v0z" />
    <glyph glyph-name="uni01bf" unicode="&#x1bf;" 
d="M865 730c-27.333 7.33301 -55.002 10.001 -83.002 8.00098c-28 -1.33301 -55 -7.66602 -81 -18.999c-32.667 -14.667 -62.667 -33.667 -90 -57c-28 -22.667 -54.333 -46.667 -79 -72l57 -61c20 21.333 41 42 63 62c21.333 20 44.333 38 69 54
c20.667 12.667 42.334 22 65.001 28c23.333 5.33301 47 6.33301 71 3c14.667 -2.66699 28.667 -7.66699 42 -15s24.666 -17 33.999 -29c12.667 -17.333 21.334 -36.333 26.001 -57c5.33301 -20.667 8 -41.667 8 -63c0 -20.667 -2.66699 -41.334 -8 -62.001
c-4.66699 -20.667 -13.334 -39.667 -26.001 -57c-9.33301 -12 -20.666 -22 -33.999 -30c-13.333 -7.33301 -27.666 -12 -42.999 -14c-23.333 -3.33301 -46.333 -2.33301 -69 3c-22 5.33301 -43 14 -63 26c-21.333 13.333 -41.333 28.333 -60 45s-37 34 -55 52l-92 96l-53 53
c-18 16.667 -36.667 32.334 -56 47.001c-20.667 16 -42.667 29.667 -66 41c-24 12 -49.333 20 -76 24c-12 2 -24.333 3 -37 3c-14 0 -28.333 -1.33301 -43 -4c-27.333 -5.33301 -52.666 -15.333 -75.999 -30c-18.667 -11.333 -35.334 -25 -50.001 -41
c-14 -16 -25.667 -33.667 -35 -53c-11.333 -24.667 -18.333 -50.334 -21 -77.001c-0.666992 -8 -1 -15.667 -1 -23c0 -19.333 2.33301 -38.333 7 -57c9.33301 -34 25.333 -64.333 48 -91c27.333 -30.667 60 -52.667 98 -66c24.667 -8 49.667 -12 75 -12s50 3.66699 74 11
c37.333 13.333 72 32.666 104 57.999c31.333 24.667 61 51.334 89 80.001l-57 62l-57 -57c-19.333 -18.667 -40.333 -35.667 -63 -51c-16.667 -12 -34.667 -21.667 -54 -29c-18.667 -7.33301 -38.334 -11.333 -59.001 -12c-17.333 -1.33301 -34.333 0.666992 -51 6
c-17.333 4.66699 -32.333 12.667 -45 24c-15.333 14 -26.666 30.333 -33.999 49c-7.33301 19.333 -11.666 39 -12.999 59c-2 22 -1.66699 44 1 66c3.33301 22 10 43 20 63c7.33301 14 17 26 29 36s25.667 17.333 41 22c23.333 6 46.666 7.33301 69.999 4
c24 -4 46.667 -11.667 68 -23c26.667 -14.667 51.334 -32.334 74.001 -53.001s44.667 -42 66 -64l82 -86c24 -24.667 49 -48.667 75 -72s54.333 -43.333 85 -60c20.667 -12 42.667 -20.667 66 -26c23.333 -6 46.666 -8 69.999 -6c30.667 1.33301 59.667 8.33301 87 21
c27.333 13.333 51.333 31.333 72 54c18 20.667 32 43.667 42 69c9.33301 26 14 52.667 14 80c0 24 -3.33301 47.667 -10 71c-7.33301 23.333 -18.333 45 -33 65c-14 20 -31.333 37 -52 51c-20.667 14.667 -43 25.667 -67 33v0z" />
    <glyph glyph-name="uni01c0" unicode="&#x1c0;" 
d="M133 995c-16.667 8 -33.3496 14.3379 -50.0166 19.0049c-17.333 5.33301 -35 8.66602 -53 9.99902c1.33301 -16 4 -31.667 8 -47c-11.333 1.33301 -22.666 2 -33.999 2c4.66699 -25.333 12.334 -49.666 23.001 -72.999c10.667 -24 24.334 -46 41.001 -66
s36 -37.667 58 -53c21.333 -15.333 44 -28 68 -38c32.667 -14 66.667 -24.333 102 -31c34.667 -6 69.667 -9.33301 105 -10l1 -1c-24 -2.66699 -47.667 -6.66699 -71 -12c-26 -5.33301 -51.667 -12 -77 -20c-24.667 -7.33301 -49 -17 -73 -29
c-20.667 -10.667 -39 -24.334 -55 -41.001c9.33301 -6 19 -11.333 29 -16c-6 -6 -11.333 -12 -16 -18c26.667 -14 55 -22.333 85 -25c22 -1.33301 43.667 1 65 7c20.667 6 40.334 14.333 59.001 25c-14 -30 -26.667 -60.667 -38 -92c-16 -6 -32 -11.333 -48 -16l-21 -24
c-2.66699 -5.33301 -7 -13 -13 -23c7.33301 2.66699 13 7.33398 17 14.001c0 -2.66699 -0.333008 -6.33398 -1 -11.001c4 3.33301 6.66699 7 8 11c0 2 0.333008 5 1 9c0 -2.66699 0.666992 -7.66699 2 -15c4.66699 5.33301 6.33398 12 5.00098 20l8 4
c3.33301 0.666992 8.33301 1.33398 15 2.00098l-10 -10c-2.66699 -6 -5.33398 -12.333 -8.00098 -19c4.66699 0.666992 8.66699 2.66699 12 6l9 11c6 4 12.333 7.66699 19 11c8.66699 4 15.667 10 21 18c0.666992 2 2 5.33301 4 10c25.333 30.667 48 63.334 68 98.001l6 6
l58 47c-2 -16.667 -4.33301 -33.334 -7 -50.001c-2 -8 -5.66699 -15.333 -11 -22c-8 -10 -17 -19.333 -27 -28c-6.66699 -4 -12.667 -8.33301 -18 -13s-10 -9.66699 -14 -15c-4 -6.66699 -6.33301 -13.667 -7 -21c-1.33301 -7.33301 -2 -14.666 -2 -21.999
c0.666992 -19.333 2.66699 -38.333 6 -57c0.666992 -8.66699 -0.666016 -16.334 -3.99902 -23.001s-7 -13 -11 -19c-3.33301 -5.33301 -6.33301 -11.333 -9 -18c6 -0.666992 11.667 0.666016 17 3.99902s10 7 14 11c-0.666992 -8.66699 -1.33398 -21.334 -2.00098 -38.001
c0.666992 0 2.33398 0.333008 5.00098 1c0 -4 0.333008 -12 1 -24c-6.66699 2 -12.667 0.333008 -18 -5c-4 -4.66699 -7 -9.66699 -9 -15c-2 -6 -4.66699 -11.333 -8 -16c-2.66699 -4 -6.33398 -7.33301 -11.001 -10c-4 -2.66699 -7.33301 -6.33398 -10 -11.001
s-5 -9.33398 -7 -14.001c-2.66699 -2.66699 -5.66699 -5 -9 -7c-3.33301 -1.33301 -6 -3.33301 -8 -6c-2 -5.33301 -1 -10.333 3 -15c2 2.66699 4.33301 5 7 7c8 4.66699 16 8.66699 24 12c8 2.66699 16 6 24 10c8.66699 4.66699 17 9.66699 25 15c0 -7.33301 -1 -15 -3 -23
c-15.333 -13.333 -28.666 -28.333 -39.999 -45c-10.667 -16 -20.667 -32 -30 -48c-2 -4 -4.66699 -7.33301 -8 -10c-8.66699 -4 -17.667 -5.33301 -27 -4c-6.66699 0 -11 -3 -13 -9s-2.33301 -12.333 -1 -19c0.666992 -4 1.33398 -10.333 2.00098 -19
c0 -4 -1 -7.33301 -3 -10c-1.33301 -2 -3.66602 -4.66699 -6.99902 -8c-6 -7.33301 -8.33301 -16 -7 -26l-3 -9c-1.33301 -3.33301 -1.66602 -6.66602 -0.999023 -9.99902c0.666992 -2.66699 2.66699 -4.66699 6 -6c2.66699 7.33301 6.66699 14 12 20
c4.66699 6 9.66699 11.333 15 16s9.66602 10.334 12.999 17.001c2 4 5.33301 10 10 18c3.33301 6.66699 7.66602 12.667 12.999 18c4.66699 4.66699 9.33398 9.66699 14.001 15c26.667 23.333 52.334 47 77.001 71c9.33301 9.33301 17.333 19.666 24 30.999
c4.66699 15.333 8.33398 31 11.001 47c6 -2 15 -4.66699 27 -8c8.66699 -2.66699 17.667 -4.66699 27 -6c20.667 -4 41.334 -5.66699 62.001 -5c10 0 19.667 1.33301 29 4c6 2 9.66699 5.66699 11 11c0.666992 10.667 -1 21.334 -5 32.001
c-11.333 30 -24.666 59.333 -39.999 88c8.66699 -1.33301 17.334 -3 26.001 -5c-3.33301 13.333 -8.33301 26 -15 38c-7.33301 12 -15.333 23.667 -24 35c-11.333 15.333 -25 28.666 -41 39.999c2 9.33301 5.66699 18.333 11 27s11.333 16.667 18 24
c10.667 12 22.334 23.333 35.001 34c8 6 16 12.333 24 19c5.33301 6 8.33301 13 9 21c1.33301 10 0.333008 20 -3 30c20.667 -13.333 42.334 -25 65.001 -35c8 -4 16.333 -5.66699 25 -5c4.66699 2.66699 8.66699 6.33398 12 11.001c12.667 16.667 24.334 34 35.001 52
l41 69c2 0 4 -0.333008 6 -1c4.66699 -2 11.334 -5.33301 20.001 -10c2.66699 -0.666992 8 -2.33398 16 -5.00098c3.33301 -0.666992 9.66602 -1.33398 18.999 -2.00098c4 4.66699 7.33301 9.66699 10 15c-0.666992 2.66699 -1.66699 5 -3 7l173 -60
c0 0.666992 0.333008 2 1 4l-144 51c4 -0.666992 7.33301 0.333008 10 3c-5.33301 3.33301 -11 6.33301 -17 9c-8.66699 4 -17.334 7.33301 -26.001 10c-9.33301 2.66699 -18.666 5 -27.999 7c-4.66699 0.666992 -9 0.333984 -13 -0.999023c-7.33301 -2 -18 -4.66699 -32 -8
c-2 -0.666992 -3.33301 -1.66699 -4 -3l-89 -109l-54 42c-21.333 16 -43 31.333 -65 46c2 12 5 23.667 9 35c6 0.666992 11.667 0 17 -2c4 -1.33301 10.333 -3.33301 19 -6c6.66699 -2 13.334 -3.33301 20.001 -4c6 -0.666992 11 1.33301 15 6c0.666992 2 0.666992 4 0 6
c-0.666992 2.66699 -1 5.33398 -1 8.00098c1.33301 2 3 3.66699 5 5c-1.33301 2.66699 -3.66602 5 -6.99902 7c4.66699 1.33301 9 3.33301 13 6c-2.66699 2.66699 -4.33398 6 -5.00098 10c2 2.66699 4.66699 4.33398 8 5.00098c4 1.33301 6.33301 4 7 8
c-1.33301 2.66699 -3.33301 5 -6 7c-2.66699 1.33301 -5 3 -7 5c-5.33301 5.33301 -6.66602 12 -3.99902 20c3.33301 8 5 16.333 5 25c1.33301 4 2.33301 8.33301 3 13c2.66699 -4 4 -8.33301 4 -13s-0.333008 -9.33398 -1 -14.001c4.66699 6 8 13 10 21
c1.33301 5.33301 1.33301 11 0 17c-1.33301 5.33301 -4 10.333 -8 15c-8.66699 8 -19 13 -31 15c-2.66699 5.33301 -6.66699 9.33301 -12 12c-6 3.33301 -12 5.66602 -18 6.99902c-16 3.33301 -32.333 4.66602 -49 3.99902c-11.333 0 -22 -2.66699 -32 -8
c-4.66699 5.33301 -10.334 9 -17.001 11c-6 1.33301 -12 1.33301 -18 0c-8.66699 -2.66699 -15.334 -7.33398 -20.001 -14.001c-5.33301 -7.33301 -8 -15.333 -8 -24c0.666992 -8 3.33398 -15.333 8.00098 -22c5.33301 -6 12 -10 20 -12
c-3.33301 -20.667 0.333984 -40 11.001 -58c6.66699 -10 13.667 -19.333 21 -28c2 -2 3 -4 3 -6c-3.33301 -12 -7.33301 -23.667 -12 -35c-4.66699 -0.666992 -8.66699 -2.66699 -12 -6l-10 -10c-33.333 35.333 -68.333 69.333 -105 102s-75 63.667 -115 93
c-39.333 29.333 -81.333 54.333 -126 75zM68.9844 1015c9.33301 -18.667 20.333 -36.001 33 -52.001c-20 6 -40.333 10.667 -61 14c-3.33301 14.667 -6 29.334 -8 44.001c12 -1.33301 24 -3.33301 36 -6zM149.984 984.004l8 -4.00195
c2.66699 -15.333 6.66699 -30.333 12 -45c-22 10 -44.333 19 -67 27c-12.667 16.667 -23.667 34.334 -33 53.001c27.333 -7.33301 54 -17.666 80 -30.999zM221.984 942.002c9.33301 -16 19.333 -31.333 30 -46c1.33301 -2 2 -4 2 -6
c-26.667 16.667 -54.334 31.667 -83.001 45c-5.33301 14.667 -9.66602 29.667 -12.999 45c22 -11.333 43.333 -24 64 -38zM42.9844 973.002c0.666992 -1.33301 0.999023 -2.66602 0.999023 -3.99902l1 1c15.333 -24 34.333 -45.333 57 -64
c0.666992 -0.666992 1.33398 -2 2.00098 -4c-25.333 7.33301 -51 11.666 -77 12.999h-1c-8 20 -14.333 40.333 -19 61c12 0 24 -1 36 -3zM133.983 947.002c0.666992 -3.33301 1.99609 -6.66602 3.99609 -9.99902c-0.666992 2 -1.66699 5.33301 -3 10
c18.667 -7.33301 37 -15.666 55 -24.999c5.33301 -2.66699 10.333 -5.66699 15 -9c1.33301 -2.66699 3.33301 -5 6 -7l-6 8c34 -18 67 -37.667 99 -59c14 -9.33301 27.667 -19 41 -29c4.66699 -16 11 -31 19 -45c0.666992 -1.33301 1.66699 -3 3 -5
c1.33301 -1.33301 2 -3 2 -5c-6 3.33301 -12 6 -18 8c-0.666992 0 -1.33398 -0.333008 -2.00098 -1c0 0.666992 0.333008 1.66699 1 3c-2 -0.666992 -3.66699 -1.66699 -5 -3c0.666992 0.666992 2 1.33398 4 2.00098l-1 -2h4l14 -7l73 -34c-0.666992 0 -2 -0.666992 -4 -2
c4.66699 0.666992 9.33398 -0.333008 14.001 -3l25 -12l-10 -8c-23.333 -2 -46.666 -2.33301 -69.999 -1c-31.333 1.33301 -62.666 4.66602 -93.999 9.99902c4.66699 1.33301 9.33398 2.33301 14.001 3c28 5.33301 56.333 9.33301 85 12c12 0.666992 24.333 1 37 1
c-18 0.666992 -36 0 -54 -2c-4 0 -9.66699 -0.333008 -17 -1v1c-17.333 2.66699 -34 7.66699 -50 15c-18.667 8.66699 -35.667 19.334 -51 32.001c16 2 32 2.66699 48 2c10.667 -0.666992 21.334 -2.33398 32.001 -5.00098c-8.66699 2.66699 -17.667 4.33398 -27 5.00098
c-22.667 1.33301 -45 0.333008 -67 -3c-4 -0.666992 -8.33301 -1 -13 -1c0 0.666992 0.333008 1.33398 1 2.00098h-2c-12 4 -23.667 9.33301 -35 16c-18 11.333 -35.333 23.666 -52 36.999c14 0.666992 27.667 1 41 1s26.333 -1.33301 39 -4
c3.33301 -0.666992 6.66602 -0.666992 9.99902 0c0 -1.33301 0.333008 -2 1 -2s1.66699 -0.333008 3 -1c6.66699 -2 13.334 -4.66699 20.001 -8l47 -23c2 -0.666992 4 -1 6 -1c0 -0.666992 -0.333008 -1.33398 -1 -2.00098c0.666992 0 2 0.333008 4 1v-2
c9.33301 -4.66699 19 -9 29 -13c-10 4.66699 -19.667 9.66699 -29 15c-1.33301 2 -3 3.66699 -5 5c-14.667 10 -28 21.333 -40 34c-18.667 18 -36.334 37 -53.001 57c-3.33301 5.33301 -7 10 -11 14c2.66699 -4 5.66699 -8 9 -12c18 -23.333 37.667 -45 59 -65
c10.667 -10 22 -19.333 34 -28c0.666992 -0.666992 1.66699 -2 3 -4l-14 6l-57 28h-3c0.666992 1.33301 0.333984 2 -0.999023 2l-56 27c-4 2.66699 -7.66699 6 -11 10c-8 10 -14.667 20.667 -20 32s-10.333 23 -15 35c1.33301 -4.66699 3 -9.33398 5 -14.001
c4.66699 -10.667 9.66699 -21 15 -31c5.33301 -10.667 11.666 -20.334 18.999 -29.001l-48 25c-7.33301 4 -14.666 8.66699 -21.999 14c-2.66699 2.66699 -7 6.33398 -13 11.001c-19.333 18 -36 38 -50 60c31.333 -4.66699 61.333 -13.334 90 -26.001zM349.979 844.002
c2 -1.33301 4 -3.33203 6 -5.99902c0.666992 -6 2 -12.333 4 -19c-32 23.333 -64.667 45.333 -98 66c-3.33301 2.66699 -6 6 -8 10l-20 29c-3.33301 5.33301 -6.33301 10.666 -9 15.999c43.333 -29.333 85 -61.333 125 -96zM58.9795 911.003
c2 -0.666992 3.33203 -2.00195 3.99902 -4.00195c6 -11.333 12.667 -22 20 -32c10.667 -17.333 24.334 -31.666 41.001 -42.999c-12.667 -1.33301 -25.334 -3.66602 -38.001 -6.99902c-25.333 26 -45 55.667 -59 89c10.667 -0.666992 21.334 -1.66699 32.001 -3z
M104.979 901.001c6.66699 -2.66699 12.665 -5.99805 17.998 -9.99805l63 -33l51 -25c0.666992 -0.666992 0.666992 -1.33398 0 -2.00098c-1.33301 0 -2.33301 0.333008 -3 1c-18 3.33301 -36.333 4.66602 -55 3.99902c-18 0 -36 -1.33301 -54 -4
c-8.66699 6 -16.667 13 -24 21s-13.666 16.333 -18.999 25c-7.33301 10 -13.666 20.667 -18.999 32c14 -1.33301 28 -4.33301 42 -9zM459.977 741.003c-32 26.667 -64.667 52.332 -98 76.999c-2.66699 6.66699 -4.66699 13.334 -6 20.001c36 -30.667 70.667 -63 104 -97z
M220.977 787.001c5.33301 -2.66699 11.001 -5.33105 17.001 -7.99805c-22 -4 -43.667 -9.33301 -65 -16c8.66699 2 17.334 4.33301 26.001 7c21.333 5.33301 42.666 9.33301 63.999 12c16 -13.333 33.333 -24.333 52 -33c15.333 -7.33301 31.666 -12 48.999 -14
c0 -0.666992 0.333008 -1.33398 1 -2.00098c-21.333 -2.66699 -42.666 -6.33398 -63.999 -11.001c-4.66699 -0.666992 -9.33398 0 -14.001 2c-30.667 6 -60.667 15 -90 27c-41.333 16.667 -78 41 -110 73v1c20.667 4 41 7 61 9c22.667 -18 47 -33.667 73 -47z
M476.978 723.004c-1.33301 -0.666992 -2.33398 -1.33203 -3.00098 -1.99902c-8 3.33301 -19.667 8.66602 -35 15.999l-62 30c-3.33301 2 -5.66602 4.66699 -6.99902 8c-3.33301 4 -6.33301 8.33301 -9 13c-6 12 -11 24.333 -15 37c45.333 -32 89 -66 131 -102z
M826.977 721.006c0.666992 -2 1.33105 -3.66699 1.99805 -5c-5.33301 0.666992 -9.66602 2.66699 -12.999 6c2.66699 0 6.33398 -0.333008 11.001 -1zM836.974 714.006c1.33301 -1.33301 1.66602 -2.66797 0.999023 -4.00098h-2c-0.666992 0.666992 -1 1.33398 -1 2.00098
c0.666992 1.33301 1.33398 2 2.00098 2zM447.974 708.004c-24.667 -5.33301 -48.999 -11.001 -72.999 -17.001c-4.66699 2.66699 -9.33398 4.66699 -14.001 6c4 -2.66699 8.33301 -4.66699 13 -6c-24 -6.66699 -47.333 -14 -70 -22c-2 -0.666992 -4 -1 -6 -1
c-15.333 0.666992 -30.333 1.66699 -45 3c4.66699 2.66699 9.66699 4.66699 15 6c28 8 56.333 14.333 85 19c4 0.666992 7.66699 1.33398 11 2.00098c16.667 3.33301 33 6 49 8c11.333 1.33301 23 2 35 2zM459.975 708.003
c-2.66699 -3.33301 -5.66602 -6.66992 -8.99902 -10.0029c-4 -2 -9.66699 -4.66699 -17 -8c-10 -5.33301 -20.333 -10 -31 -14c-6.66699 0 -13 0.666992 -19 2c-4 1.33301 -10.333 3.33301 -19 6c11.333 -5.33301 23.333 -8.33301 36 -9
c-4.66699 -2.66699 -9.33398 -5 -14.001 -7v-2c-2 1.33301 -3.66699 1 -5 -1c-9.33301 -4.66699 -19 -8 -29 -10c-29.333 -5.33301 -59 -7.66602 -89 -6.99902c-0.666992 0.666992 -1.66699 1.33398 -3 2.00098c4 1.33301 8 3 12 5c60.667 22.667 123 40.334 187 53.001z
M447.976 695.999l-46.001 -51c-4.66699 -3.33301 -9.66699 -6.33301 -15 -9c-11.333 -5.33301 -23 -9 -35 -11c6.66699 11.333 15 22 25 32c2 2 4 3.33301 6 4c0 0.666992 0.333008 1.66699 1 3l2 -1c-0.666992 0.666992 -1.33398 1.66699 -2.00098 3
c0.666992 0 1.66699 -0.333008 3 -1c4.66699 3.33301 9.33398 6.33301 14.001 9c10.667 4.66699 26.334 12 47.001 22zM252.975 670.999c14.667 -2 29.332 -3.33398 43.999 -4.00098c-16.667 -6 -33 -12.667 -49 -20c-5.33301 -2.66699 -10.666 -4.66699 -15.999 -6
c-1.33301 -1.33301 -3 -2.66602 -5 -3.99902c-11.333 -5.33301 -22.333 -11.333 -33 -18c-2 -1.33301 -4.33301 -1.66602 -7 -0.999023c-12.667 0 -25.334 1.33301 -38.001 4c16.667 12.667 34.334 23 53.001 31c10 -4.66699 20 -8.33398 30 -11.001
c-10 2.66699 -19.333 6.66699 -28 12c14 6 28.333 11.333 43 16c2 0.666992 4 1 6 1zM380.973 660.998c-15.333 -14 -28.001 -30.001 -38.001 -48.001c-6 -5.33301 -12.333 -9.33301 -19 -12c-4.66699 -2 -12 -4.66699 -22 -8c13.333 4 26 9 38 15
c0 -0.666992 -0.333008 -1.66699 -1 -3c-5.33301 -10.667 -10.666 -22 -15.999 -34c0 -1.33301 -0.666992 -2.33301 -2 -3c-21.333 -10 -43.333 -16 -66 -18v4c0 -3.33301 -1.33301 -5 -4 -5c-23.333 -1.33301 -46 1 -68 7c0.666992 0.666992 1.66699 1.33398 3 2.00098
c-2 0.666992 -3.33301 0 -4 -2c-13.333 4 -26.333 9.33301 -39 16c5.33301 6 11 11.667 17 17c8.66699 -1.33301 17.334 -1.66602 26.001 -0.999023c9.33301 0 18.666 0.666992 27.999 2c0.666992 0 1.33398 0.333008 2.00098 1c1.33301 0 2 -0.333008 2 -1
c-11.333 -9.33301 -22 -19.333 -32 -30c4.66699 3.33301 9 7.33301 13 12c11.333 -2 22.666 -3.33301 33.999 -4c10.667 -0.666992 21.667 0.666016 33 3.99902c-4 -6 -7.66699 -12.333 -11 -19l20 32l27 8c-6 -1.33301 -14.667 -3.66602 -26 -6.99902
c7.33301 11.333 15.333 22 24 32c8.66699 9.33301 19 16.666 31 21.999l51 24c0 -1.33301 -0.333008 -2.33301 -1 -3zM355.972 652.997c-12.667 -6.66699 -25.6631 -12.998 -38.9961 -18.998c-3.33301 -1.33301 -6.33301 -2.66602 -9 -3.99902
c-12.667 -6.66699 -25.334 -12.334 -38.001 -17.001c-8.66699 1.33301 -17.334 2.33301 -26.001 3c5.33301 -0.666992 13.666 -2 24.999 -4l-25 -12c-18.667 -8 -38.334 -11.667 -59.001 -11c-8 -0.666992 -16.333 -0.333984 -25 0.999023
c13.333 12 27.666 22.333 42.999 31c2.66699 2 6 3.66699 10 5c0.666992 1.33301 1.66699 2.33301 3 3c13.333 6.66699 26.666 13 39.999 19c16.667 -0.666992 33.334 -0.666992 50.001 0c16.667 1.33301 33.334 3.66602 50.001 6.99902v-2zM393.976 635.999
c-2 -1.33301 -4 -3.33203 -6 -5.99902l-30 -33l-8 -14c-8.66699 -5.33301 -17.667 -10 -27 -14c5.33301 12.667 11.333 25 18 37c2.66699 6 6 11.667 10 17c14.667 3.33301 28.667 8.66602 42 15.999c0 -0.666992 0.333008 -1.66699 1 -3zM311.976 629
c-9.33301 -7.33301 -17.668 -16 -25.001 -26s-14.333 -20.333 -21 -31c-10.667 -2.66699 -21.667 -3.66699 -33 -3s-22.333 2 -33 4l14 12l8 6c4.66699 2 11.667 4.66699 21 8l26 12l35 16c2.66699 2 5.33398 2.66699 8.00098 2zM190.974 617
c-12 -8 -23.333 -16.667 -34 -26c-9.33301 4.66699 -18.333 9.66699 -27 15l18 16c14 -3.33301 28.333 -5 43 -5zM538.974 276c-8 5.33301 -17 8.66895 -27 10.002c-18.667 3.33301 -37.334 4.66602 -56.001 3.99902c2 14.667 4.33301 29 7 43
c6.66699 -5.33301 13.334 -11 20.001 -17c4.66699 5.33301 8 11.666 10 18.999c12.667 -22 28 -41.667 46 -59v0z" />
    </font>
</defs>
</svg>
