<?xml version="1.0" encoding="UTF-8" standalone="no"?>
<!DOCTYPE svg PUBLIC "-//W3C//DTD SVG 1.1//EN" "http://www.w3.org/Graphics/SVG/1.1/DTD/svg11.dtd">
<svg width="100%" height="100%" viewBox="0 0 161 104" version="1.1" xmlns="http://www.w3.org/2000/svg" xmlns:xlink="http://www.w3.org/1999/xlink" xml:space="preserve" xmlns:serif="http://www.serif.com/" style="fill-rule:evenodd;clip-rule:evenodd;stroke-linejoin:round;stroke-miterlimit:2;">
    <g transform="matrix(1,0,0,1,-329.658,-1594.27)">
        <g transform="matrix(4.16667,0,0,4.16667,0,0)">
            <g transform="matrix(1,0,0,1,80.585,384.997)">
                <path d="M0,4.235L0,4.64C-1.021,4.841 -0.387,3.564 0,4.235M7.326,5.043L7.746,5.043C7.855,5.206 7.963,5.37 7.955,5.648L7.117,5.648C7.227,5.485 7.334,5.321 7.326,5.043M15.072,4.64L15.49,4.64C15.453,4.811 15.572,4.83 15.699,4.841C15.65,5.195 15.34,5.302 14.863,5.245C14.973,5.082 15.082,4.916 15.072,4.64M0.031,6.648C-0.047,6.245 -0.133,5.85 -0.211,5.446C4.736,6.495 10.578,6.511 15.91,5.851C15.846,6.116 15.787,6.383 15.725,6.648L16.482,6.648C16.568,6.246 16.66,5.849 16.748,5.446C17.309,5.314 17.543,4.869 18.002,4.64C18.717,4.937 19.184,4.8 19.619,4.559L19.619,2.697C18.627,2.168 17.533,1.734 16.539,1.207C16.086,1.443 15.576,1.627 15.072,1.812C14.98,0.937 13.979,0.631 13.188,1.005C12.789,0.027 12.223,-0.776 11.094,-0.813C9.998,-0.847 9.578,-0.045 8.791,0.398C8.08,0.008 7.938,-0.93 7.746,-1.823C6.98,-2.106 6.311,-2.413 5.652,-1.823C4.992,-1.085 6.018,-0.146 5.652,0.197C4.027,-0.937 2.068,0.102 1.883,2.014C0.369,2.305 -0.281,3.427 -1.467,4.033C-1.219,4.902 -0.99,5.774 -0.779,6.648L0.031,6.648Z" style="fill:rgb(35,31,32);"/>
            </g>
            <g transform="matrix(-0.402908,-0.91524,-0.91524,0.402908,111.438,397.818)">
                <path d="M13.271,10.105L14.852,10.105L6.189,-9.176L5.011,-8.658L13.271,10.105Z" style="fill:rgb(35,31,32);"/>
            </g>
            <g transform="matrix(1,0,0,1,114.704,394.826)">
                <path d="M0,-4.73C1.307,-4.73 2.363,-3.67 2.363,-2.365C2.363,-1.06 1.307,-0.002 0,-0.002C-1.305,-0.002 -2.363,-1.06 -2.363,-2.365C-2.363,-3.67 -1.305,-4.73 0,-4.73M0,0.533C1.602,0.533 2.898,-0.765 2.898,-2.365C2.898,-3.965 1.602,-5.263 0,-5.263C-1.6,-5.263 -2.896,-3.965 -2.896,-2.365C-2.896,-0.765 -1.6,0.533 0,0.533" style="fill:rgb(35,31,32);"/>
            </g>
            <g transform="matrix(0,1,1,0,114.705,390.935)">
                <path d="M1.525,-1.525C0.682,-1.525 0,-0.843 0,-0.002C0,0.843 0.682,1.525 1.525,1.525C2.368,1.525 3.05,0.843 3.05,-0.002C3.05,-0.843 2.368,-1.525 1.525,-1.525" style="fill:rgb(35,31,32);"/>
            </g>
            <g transform="matrix(1,0,0,1,108.985,394.826)">
                <path d="M0,-4.73C1.305,-4.73 2.363,-3.67 2.363,-2.365C2.363,-1.06 1.305,-0.002 0,-0.002C-1.305,-0.002 -2.363,-1.06 -2.363,-2.365C-2.363,-3.67 -1.305,-4.73 0,-4.73M0,0.533C1.6,0.533 2.898,-0.765 2.898,-2.365C2.898,-3.965 1.6,-5.263 0,-5.263C-1.6,-5.263 -2.898,-3.965 -2.898,-2.365C-2.898,-0.765 -1.6,0.533 0,0.533" style="fill:rgb(35,31,32);"/>
            </g>
            <g transform="matrix(0,1,1,0,108.985,390.934)">
                <path d="M1.525,-1.525C0.683,-1.525 0,-0.841 0,0C0,0.842 0.683,1.525 1.525,1.525C2.369,1.525 3.05,0.842 3.05,0C3.05,-0.841 2.369,-1.525 1.525,-1.525" style="fill:rgb(35,31,32);"/>
            </g>
            <g transform="matrix(1,0,0,1,103.267,394.826)">
                <path d="M0,-4.73C1.305,-4.73 2.363,-3.67 2.363,-2.365C2.363,-1.06 1.305,-0.002 0,-0.002C-1.307,-0.002 -2.363,-1.06 -2.363,-2.365C-2.363,-3.67 -1.307,-4.73 0,-4.73M0,0.533C1.6,0.533 2.896,-0.765 2.896,-2.365C2.896,-3.965 1.6,-5.263 0,-5.263C-1.602,-5.263 -2.898,-3.965 -2.898,-2.365C-2.898,-0.765 -1.602,0.533 0,0.533" style="fill:rgb(35,31,32);"/>
            </g>
            <g transform="matrix(0,1,1,0,103.266,390.935)">
                <path d="M1.525,-1.525C0.682,-1.525 0,-0.843 0,0C0,0.843 0.682,1.525 1.525,1.525C2.368,1.525 3.05,0.843 3.05,0C3.05,-0.843 2.368,-1.525 1.525,-1.525" style="fill:rgb(35,31,32);"/>
            </g>
            <g transform="matrix(1,0,0,1,114.704,388.038)">
                <path d="M0,-4.729C1.307,-4.729 2.363,-3.669 2.363,-2.364C2.363,-1.059 1.307,-0.001 0,-0.001C-1.305,-0.001 -2.363,-1.059 -2.363,-2.364C-2.363,-3.669 -1.305,-4.729 0,-4.729M0,0.533C1.602,0.533 2.898,-0.764 2.898,-2.364C2.898,-3.964 1.602,-5.262 0,-5.262C-1.6,-5.262 -2.896,-3.964 -2.896,-2.364C-2.896,-0.764 -1.6,0.533 0,0.533" style="fill:rgb(35,31,32);"/>
            </g>
            <g transform="matrix(0,1,1,0,114.705,384.149)">
                <path d="M1.525,-1.525C0.682,-1.525 0,-0.843 0,-0.002C0,0.843 0.682,1.525 1.525,1.525C2.368,1.525 3.05,0.843 3.05,-0.002C3.05,-0.843 2.368,-1.525 1.525,-1.525" style="fill:rgb(35,31,32);"/>
            </g>
            <g transform="matrix(1,0,0,1,108.985,388.038)">
                <path d="M0,-4.729C1.305,-4.729 2.363,-3.669 2.363,-2.364C2.363,-1.059 1.305,-0.001 0,-0.001C-1.305,-0.001 -2.363,-1.059 -2.363,-2.364C-2.363,-3.669 -1.305,-4.729 0,-4.729M0,0.533C1.6,0.533 2.898,-0.764 2.898,-2.364C2.898,-3.964 1.6,-5.262 0,-5.262C-1.6,-5.262 -2.898,-3.964 -2.898,-2.364C-2.898,-0.764 -1.6,0.533 0,0.533" style="fill:rgb(35,31,32);"/>
            </g>
            <g transform="matrix(0,1,1,0,108.985,384.148)">
                <path d="M1.525,-1.525C0.683,-1.525 0,-0.841 0,0C0,0.842 0.683,1.525 1.525,1.525C2.369,1.525 3.05,0.842 3.05,0C3.05,-0.841 2.369,-1.525 1.525,-1.525" style="fill:rgb(35,31,32);"/>
            </g>
            <g transform="matrix(1,0,0,1,103.267,388.038)">
                <path d="M0,-4.729C1.305,-4.729 2.363,-3.669 2.363,-2.364C2.363,-1.059 1.305,-0.001 0,-0.001C-1.307,-0.001 -2.363,-1.059 -2.363,-2.364C-2.363,-3.669 -1.307,-4.729 0,-4.729M0,0.533C1.6,0.533 2.896,-0.764 2.896,-2.364C2.896,-3.964 1.6,-5.262 0,-5.262C-1.602,-5.262 -2.898,-3.964 -2.898,-2.364C-2.898,-0.764 -1.602,0.533 0,0.533" style="fill:rgb(35,31,32);"/>
            </g>
            <g transform="matrix(0,1,1,0,103.266,384.149)">
                <path d="M1.525,-1.525C0.682,-1.525 0,-0.843 0,0C0,0.843 0.682,1.525 1.525,1.525C2.368,1.525 3.05,0.843 3.05,0C3.05,-0.843 2.368,-1.525 1.525,-1.525" style="fill:rgb(35,31,32);"/>
            </g>
            <g transform="matrix(1,0,0,1,96.5576,407.562)">
                <path d="M0,-17.999L-3.166,-1L-12.99,-1L-16.156,-17.999L-17.201,-17.999L-13.848,0L-2.309,0L1.045,-17.999L0,-17.999Z" style="fill:rgb(35,31,32);fill-rule:nonzero;"/>
            </g>
            <g transform="matrix(1,0,0,1,80.4814,384.312)">
                <path d="M0,5.5C0.699,2.944 4.016,1 7.998,1C11.98,1 15.299,2.944 15.998,5.5L17.141,5.5C16.451,2.391 12.619,0 7.998,0C3.377,0 -0.455,2.391 -1.145,5.5L0,5.5Z" style="fill:rgb(35,31,32);fill-rule:nonzero;"/>
            </g>
            <g transform="matrix(-0.22486,0.974391,0.974391,0.22486,96.7747,385.33)">
                <path d="M2.641,-4.851C5.171,-2.471 3.597,-2.321 1.61,-1.497C2.416,-0.541 3.953,0.583 2.641,1.82C2.322,0.977 2.547,0.002 2.716,-0.729C3.035,0.115 2.866,0.845 2.641,1.82" style="fill:rgb(35,31,32);fill-rule:nonzero;"/>
            </g>
            <g transform="matrix(1,0,0,1,92.79,388.64)">
                <path d="M0,-5.209C0.014,-5.48 -0.996,-5.149 -1.1,-5.059C-1.633,-4.592 -1.904,-4.029 -2.238,-3.483C-2.477,-3.874 -2.689,-4.25 -2.91,-4.591C-1.385,-5.547 0.307,-5.916 0.834,-4.365C1.172,-3.375 1.361,-2.319 1.207,-1.29C0.465,-1.504 -0.371,-1.913 -1.176,-2.393C-0.523,-3.357 -0.041,-4.356 0,-5.209M-4.004,-0.225C-4.16,-1.208 -4.17,-2.266 -4.086,-3.271C-3.59,-2.895 -3.027,-2.503 -2.426,-2.134C-2.914,-1.442 -3.471,-0.781 -4.004,-0.225M-6.293,-2.706C-6.307,-2.685 -6.322,-2.665 -6.336,-2.644C-6.33,-2.722 -6.324,-2.801 -6.318,-2.879C-6.311,-2.822 -6.301,-2.764 -6.293,-2.706M-7.918,-4.434C-7.689,-4.606 -7.445,-4.77 -7.193,-4.912C-7.455,-4.018 -7.363,-2.736 -7.568,-1.639C-7.795,-2.554 -7.889,-3.478 -7.918,-4.434M-4.135,-4.679C-4.111,-4.645 -4.092,-4.606 -4.068,-4.571C-4.127,-4.541 -4.186,-4.51 -4.244,-4.479C-4.572,-4.486 -5.084,-4.345 -5.109,-4.168C-5.121,-4.083 -5.127,-3.992 -5.139,-3.907C-5.195,-3.864 -5.256,-3.823 -5.311,-3.779C-5.439,-4.271 -5.65,-4.731 -6.084,-5.168C-6.156,-5.24 -6.336,-5.249 -6.531,-5.22C-5.652,-5.546 -4.75,-5.518 -4.135,-4.679M-0.08,-5.787C-1.063,-5.653 -2.158,-5.384 -3.18,-4.976C-3.826,-5.822 -4.66,-6.299 -6.465,-5.835C-7.107,-5.67 -7.814,-5.313 -8.494,-4.859C-8.787,-4.809 -9.084,-4.69 -9.08,-4.533C-9.08,-4.505 -9.078,-4.478 -9.078,-4.449C-9.598,-4.045 -10.082,-3.587 -10.482,-3.105C-10.82,-2.483 -11.371,-1.954 -12.146,-1.63C-11.928,-1.105 -11.629,-0.62 -11.127,-0.239C-10.902,-0.068 -10.123,-0.258 -10.02,-0.489C-9.945,-0.657 -9.889,-0.88 -9.834,-1.119C-9.434,-1.375 -9.115,-1.726 -8.879,-2.132C-8.758,-1.429 -8.576,-0.733 -8.287,-0.033C-8.176,0.238 -7.324,-0.042 -7.188,-0.183C-6.936,-0.444 -6.77,-0.76 -6.645,-1.099C-6.375,-1.085 -5.846,-1.256 -5.779,-1.293C-5.6,-1.391 -5.445,-1.491 -5.297,-1.594C-5.291,-0.771 -5.215,0.045 -5.016,0.801C-4.939,1.09 -4.047,0.759 -3.916,0.65C-3.209,0.062 -2.389,-0.783 -1.676,-1.703C-0.643,-1.145 0.428,-0.722 1.342,-0.693C1.563,-0.687 2.211,-0.741 2.275,-0.989C2.691,-2.578 2.699,-6.167 -0.08,-5.787" style="fill:rgb(35,31,32);fill-rule:nonzero;"/>
            </g>
        </g>
    </g>
</svg>
