<?xml version="1.0" encoding="UTF-8" standalone="no"?>
<!DOCTYPE svg PUBLIC "-//W3C//DTD SVG 1.1//EN" "http://www.w3.org/Graphics/SVG/1.1/DTD/svg11.dtd">
<svg width="100%" height="100%" viewBox="0 0 150 133" version="1.1" xmlns="http://www.w3.org/2000/svg" xmlns:xlink="http://www.w3.org/1999/xlink" xml:space="preserve" xmlns:serif="http://www.serif.com/" style="fill-rule:evenodd;clip-rule:evenodd;stroke-linejoin:round;stroke-miterlimit:2;">
    <g transform="matrix(1,0,0,1,-58.6584,-1285.73)">
        <g transform="matrix(4.16667,0,0,4.16667,0,0)">
            <g transform="matrix(1,0,0,1,15.8882,310.531)">
                <path d="M0,28.12C4.34,27.993 11.122,28.401 15.83,27.893C15.754,26.091 15.685,26.196 15.83,24.503C14.044,24.027 11.368,24.44 9.498,24.051C8.688,24.748 8.339,25.46 7.238,25.405C5.897,25.343 5.791,24.334 4.975,23.599C3.313,23.001 0.67,23.381 0.228,21.563C0.723,20.471 3.032,19.999 4.297,20.433C3.605,21.4 1.188,20.64 0.906,22.015C2.3,22.354 3.689,22.697 5.202,22.919C5.934,21.998 6.558,21.215 7.688,21.338C9.012,21.478 8.962,22.818 9.952,23.373C10.829,23.599 14.626,23.71 15.83,23.599C15.709,21.367 16.027,18.473 15.83,17.491C14.152,16.977 13.686,19.062 12.437,19.075C11.32,19.087 10.81,18.262 10.176,17.04C6.336,16.732 1.915,17.011 0.228,14.551C0.68,13.835 3.619,12.627 4.297,13.649C3.553,14.261 2.02,14.084 1.132,14.551C2.945,16.432 7.188,15.884 10.176,16.589C10.962,15.599 11.376,14.76 12.437,14.779C13.892,14.806 13.955,16.981 15.604,16.814C16.714,15.622 14.877,12.56 16.733,12.065C17.411,12.734 16.714,15.155 16.959,16.814C19.33,17.742 20.466,15.471 21.933,15.459C22.896,15.446 23.331,15.969 24.194,16.814C26.706,16.462 29.509,16.399 31.656,15.684C31.36,14.244 28.579,15.293 28.267,13.875C29.343,13.899 32.23,13.946 32.336,15.684C30.48,17.476 27.417,16.895 24.194,17.491C23.782,20.085 20.138,19.904 19.673,17.491L16.959,17.491C16.826,20.852 16.941,20.915 16.733,23.599C21.599,24.158 27.167,23.487 31.431,22.693C31.163,21.224 28.571,22.086 28.04,20.884C29.442,20.581 31.852,21.109 32.336,22.468C30.316,24.67 25.358,23.934 21.706,24.503C23.925,28.678 16.11,28.615 18.316,24.503L16.733,24.503L16.733,28.12C22.104,28.478 26.401,28.535 31.882,28.798C32.845,23.303 35.046,13.89 31.882,9.578C26.987,11.262 19.852,11.228 13.568,10.935C8.757,10.709 4.197,10.18 0.906,8.898C0.892,8.762 0.872,8.631 0.68,8.673C-2.092,14.655 -0.948,20.826 0,28.12M13.342,6.866C12.512,7.141 13.889,8.226 13.117,8.447C12.238,8.421 12.867,6.884 11.985,6.866C11.341,7.379 13.434,8.922 11.759,9.127C11.8,8.105 11.539,7.387 10.854,7.092C10.118,7.738 12.102,8.883 10.854,9.35C10.56,8.591 10.098,8 10.176,6.866C8.617,6.903 10.522,7.984 9.723,8.447C9.199,8.219 8.995,7.667 9.045,6.866C6.378,7.285 2.715,6.714 1.357,8.447C9.498,10.635 23.067,11.069 31.882,9.127C30.101,7.275 25.413,7.596 22.61,7.092C22.743,7.625 22.96,8.144 22.161,8.222C21.452,8.062 21.864,7.615 21.933,7.092C19.961,6.775 15.561,6.817 13.342,6.866M12.891,6.187C12.34,4.652 13.307,1.982 12.437,1.437C12.364,3.287 11.496,5.21 12.891,6.187M11.759,6.187C11.421,4.396 11.656,3.277 11.759,1.437L11.081,1.437C11.64,3.146 10.065,5.083 11.759,6.187M10.403,5.959C10.008,4.512 11.312,2.394 9.952,1.437C10.185,3.041 9.387,4.737 10.403,5.959M13.342,-1.502C13.616,-0.381 14.207,1.521 13.117,2.114C14.21,3.394 12.691,4.754 13.568,5.959C18.749,6.33 26.64,6.24 32.108,7.994C35.468,13.078 34.1,23.691 32.108,29.251C29.335,30.076 26.353,29.701 23.517,29.701C15.59,29.701 8.076,29.488 -0.224,28.798C-1.004,25.957 -1.859,21.842 -1.808,17.719C-1.771,14.683 -1.438,8.828 0.906,7.316C2.958,5.992 6.219,6.817 9.498,6.187C8.81,5.269 9.557,4.182 9.498,3.244C9.432,2.183 8.808,1.301 9.045,0.307C5.174,-0.195 0.569,0.23 -1.808,-0.147L-1.808,-1.956C1.942,-1.591 10.141,-1.81 13.342,-1.502" style="fill:rgb(35,31,32);"/>
            </g>
            <g transform="matrix(1,0,0,1,38.4985,313.929)">
                <path d="M0,-1.284C0.709,-1.385 0.727,-0.8 0.678,-0.154C-0.234,0.101 -0.439,-0.847 0,-1.284" style="fill:rgb(35,31,32);"/>
            </g>
            <g transform="matrix(1,0,0,1,36.0142,313.732)">
                <path d="M0,-0.861C0.59,-0.924 0.973,-0.777 0.902,-0.179C0.701,-0.006 0.393,0.063 0,0.043L0,-0.861Z" style="fill:rgb(35,31,32);"/>
            </g>
            <g transform="matrix(1,0,0,1,38.0493,315.03)">
                <path d="M0,-0.801L0,0.104L-0.906,0.104C-1.01,-0.605 -0.709,-0.905 0,-0.801" style="fill:rgb(35,31,32);"/>
            </g>
            <g transform="matrix(1,0,0,1,35.7886,316.264)">
                <path d="M0,-1.129L0.903,-1.129C0.976,-0.604 0.866,-0.261 0.677,0C-0.116,-0.098 -0.281,-0.477 0,-1.129" style="fill:rgb(35,31,32);"/>
            </g>
            <g transform="matrix(-0.986335,-0.164752,-0.164752,0.986335,38.8516,316.448)">
                <path d="M-0.813,-1.239C-0.85,-0.834 -1.163,-0.813 -1.184,-0.385C-1.002,-0.251 -0.82,-0.121 -0.813,0.138C-0.178,0.199 0.203,-0.091 0.265,-0.827C-0.288,-0.827 -0.152,-1.319 -0.813,-1.239" style="fill:rgb(35,31,32);"/>
            </g>
            <g transform="matrix(1,0,0,1,36.6919,319.384)">
                <path d="M0,-1.085C0.328,-0.396 0.039,0.071 -0.903,0.046C-1.081,-0.156 -1.148,-0.464 -1.131,-0.858C-0.867,-1.049 -0.525,-1.156 0,-1.085" style="fill:rgb(35,31,32);"/>
            </g>
            <g transform="matrix(1,0,0,1,40.5356,325.016)">
                <path d="M0,-1.965C1.795,-2.691 2.34,0.264 0.678,0.52C-0.646,0.726 -1.781,-1.25 0,-1.965" style="fill:rgb(35,31,32);"/>
            </g>
            <g transform="matrix(1,0,0,1,29.0054,334.241)">
                <path d="M0,-3.276C0.979,-3.836 1.938,-3.471 2.035,-2.372C2.291,0.56 -2.358,-1.936 0,-3.276" style="fill:rgb(35,31,32);"/>
            </g>
            <g transform="matrix(1,0,0,1,39.6313,333.222)">
                <path d="M0,-2.257C2.221,-2.754 2.535,-0.208 1.131,0.454C-0.51,0.497 -1.074,-1.443 0,-2.257" style="fill:rgb(35,31,32);"/>
            </g>
        </g>
    </g>
</svg>
