<?xml version="1.0" encoding="UTF-8" standalone="no"?>
<!DOCTYPE svg PUBLIC "-//W3C//DTD SVG 1.1//EN" "http://www.w3.org/Graphics/SVG/1.1/DTD/svg11.dtd">
<svg width="100%" height="100%" viewBox="0 0 217 83" version="1.1" xmlns="http://www.w3.org/2000/svg" xmlns:xlink="http://www.w3.org/1999/xlink" xml:space="preserve" xmlns:serif="http://www.serif.com/" style="fill-rule:evenodd;clip-rule:evenodd;stroke-linejoin:round;stroke-miterlimit:2;">
    <g transform="matrix(1,0,0,1,-38.025,-1862.59)">
        <g transform="matrix(4.16667,0,0,4.16667,0,0)">
            <g transform="matrix(-1,0,0,1,96.371,294.069)">
                <rect x="47.727" y="156.765" width="0.917" height="16.021" style="fill:rgb(35,31,32);"/>
            </g>
            <g transform="matrix(1,0,0,1,48.811,447.809)">
                <path d="M0,2.927L-2.8,-0.724L-3.955,-0.724L-0.6,3.651L0,3.651L0,2.927Z" style="fill:rgb(35,31,32);"/>
            </g>
            <g transform="matrix(1,0,0,1,41.02,447.809)">
                <path d="M0,2.927L-2.801,-0.724L-3.955,-0.724L-0.6,3.651L0,3.651L0,2.927Z" style="fill:rgb(35,31,32);"/>
            </g>
            <g transform="matrix(1,0,0,1,31.937,447.525)">
                <path d="M0,3.351L0.625,3.31L-2.383,-0.44L-3.537,-0.44L-0.293,3.791L0,3.351Z" style="fill:rgb(35,31,32);"/>
            </g>
            <g transform="matrix(1,0,0,1,31.5093,459.629)">
                <path d="M0,1.062L-2.504,-1.247L-2.938,-1.171L-2.938,-0.398L0,2.309L0,1.062Z" style="fill:rgb(35,31,32);"/>
            </g>
            <g transform="matrix(-1,0,0,1,80.788,288.758)">
                <rect x="39.936" y="162.077" width="0.916" height="10.708" style="fill:rgb(35,31,32);"/>
            </g>
            <g transform="matrix(-1,0,0,1,63.376,293.235)">
                <rect x="31.23" y="157.182" width="0.916" height="16.021" style="fill:rgb(35,31,32);"/>
            </g>
            <g transform="matrix(-1,0,0,1,57.708,287.278)">
                <rect x="28.396" y="159.744" width="0.916" height="16.854" style="fill:rgb(35,31,32);"/>
            </g>
            <g transform="matrix(1,0,0,1,0,302.383)">
                <rect x="45.145" y="159.077" width="0.916" height="3.083" style="fill:rgb(35,31,32);"/>
            </g>
            <g transform="matrix(0.457874,0.889017,0.889017,-0.457874,41.9634,454.738)">
                <path d="M-4.961,7.105L-3.802,7.105L-11.996,-8.556L-12.811,-8.136L-4.961,7.105Z" style="fill:rgb(35,31,32);"/>
            </g>
            <g transform="matrix(0.401848,0.915707,0.915707,-0.401848,24.606,463.987)">
                <path d="M-6.603,8.662L-5.023,8.662L-13.662,-10.626L-14.841,-10.109L-6.603,8.662Z" style="fill:rgb(35,31,32);"/>
            </g>
            <g transform="matrix(-0.125242,-0.992126,-0.992126,0.125242,51.0226,451.707)">
                <path d="M-3.991,-4.449C-3.327,-1.893 -2.872,0.718 -2.647,3.358C-3.095,3.338 -3.543,3.316 -3.991,3.296C-4.228,0.728 -4.702,-1.802 -5.373,-4.274L-3.991,-4.449Z" style="fill:rgb(35,31,32);"/>
            </g>
            <g transform="matrix(0.196288,0.980546,0.980546,-0.196288,42.1808,459.187)">
                <path d="M-7.338,7.858L-6.222,7.858L-9.804,-9.132L-10.703,-8.952L-7.338,7.858Z" style="fill:rgb(35,31,32);"/>
            </g>
            <g transform="matrix(0.196288,0.980546,0.980546,-0.196288,42.1808,469.749)">
                <path d="M-7.338,7.858L-6.222,7.858L-9.804,-9.132L-10.703,-8.952L-7.338,7.858Z" style="fill:rgb(35,31,32);"/>
            </g>
            <g transform="matrix(1,0,0,1,12.022,449.377)">
                <path d="M0,4.73C-1.305,4.73 -2.363,3.67 -2.363,2.365C-2.363,1.06 -1.305,0.002 0,0.002C1.307,0.002 2.364,1.06 2.364,2.365C2.364,3.67 1.307,4.73 0,4.73M0,-0.533C-1.6,-0.533 -2.896,0.765 -2.896,2.365C-2.896,3.965 -1.6,5.263 0,5.263C1.602,5.263 2.898,3.965 2.898,2.365C2.898,0.765 1.602,-0.533 0,-0.533" style="fill:rgb(35,31,32);"/>
            </g>
            <g transform="matrix(0,-1,-1,0,12.0229,450.218)">
                <path d="M-1.525,-1.525C-2.367,-1.525 -3.05,-0.842 -3.05,0C-3.05,0.843 -2.367,1.525 -1.525,1.525C-0.681,1.525 0,0.843 0,0C0,-0.842 -0.681,-1.525 -1.525,-1.525" style="fill:rgb(35,31,32);"/>
            </g>
            <g transform="matrix(1,0,0,1,17.7427,449.377)">
                <path d="M0,4.73C-1.307,4.73 -2.364,3.67 -2.364,2.365C-2.364,1.06 -1.307,0.002 0,0.002C1.305,0.002 2.363,1.06 2.363,2.365C2.363,3.67 1.305,4.73 0,4.73M0,-0.533C-1.602,-0.533 -2.898,0.765 -2.898,2.365C-2.898,3.965 -1.602,5.263 0,5.263C1.6,5.263 2.896,3.965 2.896,2.365C2.896,0.765 1.6,-0.533 0,-0.533" style="fill:rgb(35,31,32);"/>
            </g>
            <g transform="matrix(0,-1,-1,0,17.7416,450.218)">
                <path d="M-1.525,-1.525C-2.367,-1.525 -3.05,-0.843 -3.05,-0.002C-3.05,0.841 -2.367,1.525 -1.525,1.525C-0.681,1.525 0,0.841 0,-0.002C0,-0.843 -0.681,-1.525 -1.525,-1.525" style="fill:rgb(35,31,32);"/>
            </g>
            <g transform="matrix(1,0,0,1,23.4614,449.377)">
                <path d="M0,4.73C-1.306,4.73 -2.363,3.67 -2.363,2.365C-2.363,1.06 -1.306,0.002 0,0.002C1.306,0.002 2.363,1.06 2.363,2.365C2.363,3.67 1.306,4.73 0,4.73M0,-0.533C-1.601,-0.533 -2.898,0.765 -2.898,2.365C-2.898,3.965 -1.601,5.263 0,5.263C1.6,5.263 2.897,3.965 2.897,2.365C2.897,0.765 1.6,-0.533 0,-0.533" style="fill:rgb(35,31,32);"/>
            </g>
            <g transform="matrix(0,-1,-1,0,23.4608,450.218)">
                <path d="M-1.525,-1.525C-2.367,-1.525 -3.05,-0.842 -3.05,-0.001C-3.05,0.841 -2.367,1.525 -1.525,1.525C-0.682,1.525 0,0.841 0,-0.001C0,-0.842 -0.682,-1.525 -1.525,-1.525" style="fill:rgb(35,31,32);"/>
            </g>
            <g transform="matrix(1,0,0,1,12.022,456.164)">
                <path d="M0,4.729C-1.305,4.729 -2.363,3.669 -2.363,2.364C-2.363,1.059 -1.305,0.001 0,0.001C1.307,0.001 2.364,1.059 2.364,2.364C2.364,3.669 1.307,4.729 0,4.729M0,-0.533C-1.6,-0.533 -2.896,0.764 -2.896,2.364C-2.896,3.964 -1.6,5.262 0,5.262C1.602,5.262 2.898,3.964 2.898,2.364C2.898,0.764 1.602,-0.533 0,-0.533" style="fill:rgb(35,31,32);"/>
            </g>
            <g transform="matrix(0,-1,-1,0,12.0229,457.005)">
                <path d="M-1.525,-1.525C-2.367,-1.525 -3.05,-0.842 -3.05,0C-3.05,0.843 -2.367,1.525 -1.525,1.525C-0.681,1.525 0,0.843 0,0C0,-0.842 -0.681,-1.525 -1.525,-1.525" style="fill:rgb(35,31,32);"/>
            </g>
            <g transform="matrix(1,0,0,1,17.7427,456.164)">
                <path d="M0,4.729C-1.307,4.729 -2.364,3.669 -2.364,2.364C-2.364,1.059 -1.307,0.001 0,0.001C1.305,0.001 2.363,1.059 2.363,2.364C2.363,3.669 1.305,4.729 0,4.729M0,-0.533C-1.602,-0.533 -2.898,0.764 -2.898,2.364C-2.898,3.964 -1.602,5.262 0,5.262C1.6,5.262 2.896,3.964 2.896,2.364C2.896,0.764 1.6,-0.533 0,-0.533" style="fill:rgb(35,31,32);"/>
            </g>
            <g transform="matrix(0,-1,-1,0,17.7416,457.005)">
                <path d="M-1.525,-1.525C-2.367,-1.525 -3.05,-0.843 -3.05,-0.002C-3.05,0.841 -2.367,1.525 -1.525,1.525C-0.681,1.525 0,0.841 0,-0.002C0,-0.843 -0.681,-1.525 -1.525,-1.525" style="fill:rgb(35,31,32);"/>
            </g>
            <g transform="matrix(1,0,0,1,23.4614,456.164)">
                <path d="M0,4.729C-1.306,4.729 -2.363,3.669 -2.363,2.364C-2.363,1.059 -1.306,0.001 0,0.001C1.306,0.001 2.363,1.059 2.363,2.364C2.363,3.669 1.306,4.729 0,4.729M0,-0.533C-1.601,-0.533 -2.898,0.764 -2.898,2.364C-2.898,3.964 -1.601,5.262 0,5.262C1.6,5.262 2.897,3.964 2.897,2.364C2.897,0.764 1.6,-0.533 0,-0.533" style="fill:rgb(35,31,32);"/>
            </g>
            <g transform="matrix(0,-1,-1,0,23.4608,457.004)">
                <path d="M-1.525,-1.525C-2.367,-1.525 -3.05,-0.842 -3.05,-0.001C-3.05,0.841 -2.367,1.525 -1.525,1.525C-0.682,1.525 0,0.841 0,-0.001C0,-0.842 -0.682,-1.525 -1.525,-1.525" style="fill:rgb(35,31,32);"/>
            </g>
            <g transform="matrix(0.0295984,-0.999562,-0.999562,-0.0295984,57.6499,454.276)">
                <path d="M-2.161,-1.464C-1.309,-0.391 -0.868,0.92 -0.858,2.245L-2.161,1.779C-2.235,1.084 -2.478,0.412 -2.849,-0.197C-2.54,-0.533 -2.302,-0.956 -2.161,-1.464" style="fill:rgb(35,31,32);fill-rule:nonzero;"/>
            </g>
            <g transform="matrix(1,0,0,1,56.4946,456.997)">
                <path d="M0,6.511C-1.795,6.511 -3.254,5.051 -3.254,3.255C-3.254,1.461 -1.795,0.002 0,0.002C1.794,0.002 3.254,1.461 3.254,3.255C3.254,5.051 1.794,6.511 0,6.511M0,-1.25C-2.484,-1.25 -4.505,0.772 -4.505,3.255C-4.505,5.74 -2.484,7.761 0,7.761C2.483,7.761 4.504,5.74 4.504,3.255C4.504,0.772 2.483,-1.25 0,-1.25" style="fill:rgb(35,31,32);fill-rule:nonzero;"/>
            </g>
            <g transform="matrix(0,-1,-1,0,56.494,458.702)">
                <path d="M-1.549,-1.549C-2.405,-1.549 -3.1,-0.856 -3.1,0C-3.1,0.855 -2.405,1.549 -1.549,1.549C-0.693,1.549 0.001,0.855 0.001,0C0.001,-0.856 -0.693,-1.549 -1.549,-1.549" style="fill:rgb(35,31,32);"/>
            </g>
            <g transform="matrix(1,0,0,1,56.4595,458.104)">
                <path d="M0,4.443C-1.227,4.443 -2.221,3.447 -2.221,2.221C-2.221,0.997 -1.227,0.001 0,0.001C1.227,0.001 2.221,0.997 2.221,2.221C2.221,3.447 1.227,4.443 0,4.443M0,-0.406C-1.451,-0.406 -2.627,0.771 -2.627,2.221C-2.627,3.672 -1.451,4.849 0,4.849C1.451,4.849 2.627,3.672 2.627,2.221C2.627,0.771 1.451,-0.406 0,-0.406" style="fill:rgb(35,31,32);"/>
            </g>
        </g>
    </g>
</svg>
