<?xml version="1.0" encoding="UTF-8" standalone="no"?>
<!DOCTYPE svg PUBLIC "-//W3C//DTD SVG 1.1//EN" "http://www.w3.org/Graphics/SVG/1.1/DTD/svg11.dtd">
<svg width="100%" height="100%" viewBox="0 0 113 166" version="1.1" xmlns="http://www.w3.org/2000/svg" xmlns:xlink="http://www.w3.org/1999/xlink" xml:space="preserve" xmlns:serif="http://www.serif.com/" style="fill-rule:evenodd;clip-rule:evenodd;stroke-linejoin:round;stroke-miterlimit:2;">
    <g transform="matrix(1,0,0,1,-369.047,-946.691)">
        <g transform="matrix(4.16667,0,0,4.16667,0,0)">
            <g transform="matrix(-0.893014,-0.450029,-0.450029,0.893014,100.421,231.583)">
                <path d="M0.315,-4.743C-1.045,-5.032 -1.94,-3.724 -3.214,-3.717C-2.464,-2.139 -0.701,-0.852 0.315,0.652C1.123,-0.364 1.996,-1.145 2.852,-1.996C2.147,-2.954 0.837,-3.735 0.315,-4.743" style="fill:rgb(35,31,32);"/>
            </g>
            <g transform="matrix(1,0,0,1,96.0771,231.869)">
                <path d="M0,0.529C-1.045,0.848 -1.867,1.379 -2.547,2.04C-3.336,1.133 -3.615,-0.965 -2.439,-1.511C-1.252,-1.235 -0.359,-0.64 0,0.529" style="fill:rgb(35,31,32);"/>
            </g>
            <g transform="matrix(-0.594189,-0.804325,-0.804325,0.594189,105.515,231.105)">
                <path d="M-3.386,-4.522C-3.925,-3.605 -4.485,-2.689 -4.926,-1.751C-4.111,-0.805 -4.259,-0.039 -3.386,0.917C-2.32,0.672 -1.234,0.32 -0.183,0.158C-0.567,-1.635 -2.459,-2.66 -3.386,-4.522" style="fill:rgb(35,31,32);"/>
            </g>
            <g transform="matrix(1,0,0,1,97.2842,236.852)">
                <path d="M0,-3.789C1.514,-3.208 2.463,-2.021 3.189,-0.594C0.625,-0.329 -0.477,0 -1.813,-1.596C-1.428,-2.529 -0.336,-2.808 0,-3.789" style="fill:rgb(35,31,32);"/>
            </g>
            <g transform="matrix(1,0,0,1,104.944,234.102)">
                <path d="M0,1.521C-0.982,1.978 -1.709,2.67 -2.783,3.04C-4.457,-0.409 -0.65,-1.519 0,1.521" style="fill:rgb(35,31,32);"/>
            </g>
            <g transform="matrix(1,0,0,1,109.995,236.146)">
                <path d="M0,1.893C-1.043,3.504 -2.654,2.996 -4.688,3.009C-4.783,0.853 -0.98,-1.611 0,1.893" style="fill:rgb(35,31,32);"/>
            </g>
            <g transform="matrix(1,0,0,1,96.3076,238.746)">
                <path d="M0,0.028C-0.697,1.805 -2.654,1.422 -4.916,1.388C-4.668,-0.207 -3.391,-0.845 -2.43,-1.777C-1.336,-1.481 -0.797,-0.588 0,0.028" style="fill:rgb(35,31,32);"/>
            </g>
            <g transform="matrix(1,0,0,1,104.692,237.69)">
                <path d="M0,4.09C-2.373,3.779 -4.813,3.542 -7.354,3.411C-6.143,0.813 -0.154,0 0,4.09" style="fill:rgb(35,31,32);"/>
            </g>
            <g transform="matrix(1,0,0,1,106.591,244.896)">
                <path d="M0,-2.949C-0.086,-1.126 -0.828,0.083 -2.967,-0.004C-3.178,-0.187 -3.131,-0.644 -3.465,-0.696C-3.525,-2.524 -1.223,-3.032 0,-2.949" style="fill:rgb(35,31,32);"/>
            </g>
            <g transform="matrix(1,0,0,1,95.792,264.69)">
                <path d="M0,-20.57C-0.977,-20.101 -1.973,-21.488 -3.795,-20.904C-5.57,-15.329 -5.988,-9.07 -6.674,-2.48C-6.344,-1.775 -5.164,-3.18 -5.004,-2.07C-5.111,-0.814 -5.785,-1.307 -6.639,-1.537C-6.605,-0.592 -6.57,0.352 -6.537,1.297C2.424,1.641 10.98,1.307 19.004,1.316C19.398,-7.39 17.686,-13.442 16.047,-21.514C14.697,-22.089 13.227,-21.405 12.039,-21.133C11.969,-22.838 15.227,-22.525 16.492,-22.241C18.316,-15.116 20.207,-6.775 19.738,1.999C11.16,2.268 1.805,2.152 -6.977,2.258C-7.846,-6.816 -6.242,-13.576 -4.529,-21.588C-2.707,-21.585 -0.379,-22.125 0,-20.57" style="fill:rgb(35,31,32);"/>
            </g>
            <g transform="matrix(1,0,0,1,100.224,243.675)">
                <path d="M0,-1.259C0.051,-0.68 0.076,-0.124 -0.184,0.164C-1.514,0.45 -1.68,-0.516 -2.354,-0.938C-2.301,-1.709 -0.436,-1.55 0,-1.259" style="fill:rgb(35,31,32);"/>
            </g>
            <g transform="matrix(1,0,0,1,102.427,261.491)">
                <path d="M0,-17.027C0.703,-12.091 0.365,-8.576 0.463,-4.274C0.492,-2.961 1.178,-0.918 -0.092,0C-1.355,-0.465 -0.91,-2.702 -0.955,-4.222C-1.08,-8.484 -0.875,-11.439 -1.164,-16.512C-1.115,-16.772 -0.699,-16.691 -0.709,-17.002C-0.473,-17.01 -0.236,-17.019 0,-17.027" style="fill:rgb(35,31,32);"/>
            </g>
            <g transform="matrix(1,0,0,1,95.6885,247.498)">
                <path d="M0,0.285C0.209,3.088 5.654,2.591 4.209,-1.052C2.557,-2.534 -0.154,-1.802 0,0.285M1.559,-2.374C5.488,-3.263 6.285,2.009 3.164,2.77C-0.02,3.548 -2.748,-1.4 1.559,-2.374" style="fill:rgb(35,31,32);"/>
            </g>
            <g transform="matrix(1,0,0,1,108.231,248.648)">
                <path d="M0,-0.612C0.477,-2.342 -1.291,-3.266 -2.684,-2.88C-7.074,-1.655 -1.135,3.511 0,-0.612M-2.475,-3.597C1.186,-4.123 1.895,0.656 -0.867,1.548C-4.273,2.648 -7.365,-2.894 -2.475,-3.597" style="fill:rgb(35,31,32);"/>
            </g>
            <g transform="matrix(1,0,0,1,98.7412,247.93)">
                <path d="M0,-0.731C0.09,0.036 -0.238,0.415 -0.9,0.483C-1.141,0.249 -1.387,0.023 -1.635,-0.199C-1.563,-0.844 -0.549,-1.214 0,-0.731" style="fill:rgb(35,31,32);"/>
            </g>
            <g transform="matrix(1,0,0,1,107.042,247.241)">
                <path d="M0,0.604C-0.436,1.18 -1.178,1.208 -1.652,0.664C-1.783,-0.538 0.043,-0.604 0,0.604" style="fill:rgb(35,31,32);"/>
            </g>
            <g transform="matrix(1,0,0,1,100.171,254.117)">
                <path d="M0,-0.114C0.32,-1.464 -1.072,-3.149 -3.146,-2.127C-6.959,-0.246 -0.871,3.566 0,-0.114M-3.408,-2.827C-1.033,-3.68 0.303,-2.663 0.656,-1.556C2.078,2.886 -5.311,3.492 -5.221,-0.633C-5.211,-1.052 -4.918,-2.284 -3.408,-2.827" style="fill:rgb(35,31,32);"/>
            </g>
            <g transform="matrix(1,0,0,1,103.942,253.262)">
                <path d="M0,0.37C0.066,1.781 2.311,2.96 4.064,1.641C6.266,-2.018 -0.156,-2.817 0,0.37M5.16,-0.764C6.006,3.871 -0.096,3.85 -0.701,0.63C-1.236,-2.218 3.461,-3.501 5.16,-0.764" style="fill:rgb(35,31,32);"/>
            </g>
            <g transform="matrix(-0.731791,-0.681529,-0.681529,0.731791,97.1052,253.559)">
                <path d="M-0.876,-1.429C-1.1,-1.206 -1.321,-0.984 -1.543,-0.76C-1.075,-0.427 -1.488,-0.092 -0.876,0.243C-0.543,0.189 -0.21,0.015 0.126,-0.426C0.14,-0.866 -0.434,-1.442 -0.876,-1.429" style="fill:rgb(35,31,32);"/>
            </g>
            <g transform="matrix(1,0,0,1,107.003,254.178)">
                <path d="M0,-0.896C0.281,-0.025 -0.469,-0.115 -0.666,0.312C-1.088,0.112 -1.504,-0.096 -1.416,-0.844C-1.127,-1.178 -0.314,-1.208 0,-0.896" style="fill:rgb(35,31,32);"/>
            </g>
            <g transform="matrix(1,0,0,1,95.8818,258.88)">
                <path d="M0,0.718C0.285,3.146 5.283,2.96 4.461,-0.155C4.145,-1.345 2.699,-1.776 1.348,-1.222C-0.018,-0.667 -0.063,0.198 0,0.718M1.322,-1.93C6.758,-3.388 5.682,4.106 1.266,3.038C-0.02,2.726 -2.355,-0.944 1.322,-1.93" style="fill:rgb(35,31,32);"/>
            </g>
            <g transform="matrix(1,0,0,1,104.173,258.988)">
                <path d="M0,1.02C0.391,2.154 2.645,2.594 4.039,1.582C6.291,-2.455 -1.279,-2.683 0,1.02M1.068,-2.092C3.25,-2.829 5.184,-1.72 5.18,0.359C5.17,3.811 -0.84,3.849 -0.742,0.099C-0.713,-1.059 -0.188,-1.67 1.068,-2.092" style="fill:rgb(35,31,32);"/>
            </g>
            <g transform="matrix(1,0,0,1,97.9717,260.087)">
                <path d="M0,-1.511C0.451,-1.26 1.148,-1.272 0.988,-0.364C0.697,-0.03 -0.115,0 -0.43,-0.312C-0.658,-1.058 -0.084,-1.057 0,-1.511" style="fill:rgb(35,31,32);"/>
            </g>
            <g transform="matrix(1,0,0,1,107.208,259.05)">
                <path d="M0,-0.1C0.084,0.588 -0.416,0.732 -0.666,1.107C-2.271,0.736 -1.168,-1.207 0,-0.1" style="fill:rgb(35,31,32);"/>
            </g>
            <g transform="matrix(-0.584397,-0.811468,-0.811468,0.584397,94.722,262.652)">
                <path d="M-0.69,-1.349C-0.953,-1.174 -1.217,-0.998 -1.477,-0.825C-1.229,-0.324 -1.32,0.243 -0.69,0.356C-0.429,0.183 -0.167,0.007 0.095,-0.169C-0.15,-0.67 -0.06,-1.237 -0.69,-1.349" style="fill:rgb(35,31,32);"/>
            </g>
            <g transform="matrix(1,0,0,1,103.296,263.356)">
                <path d="M0,-1.426C0.604,-1.417 0.928,-1.114 0.98,-0.514C0.434,-0.148 0.557,0 -0.193,-0.236C-0.289,-0.78 -0.188,-1.143 0,-1.426" style="fill:rgb(35,31,32);"/>
            </g>
            <g transform="matrix(1,0,0,1,108.77,261.874)">
                <path d="M0,1.041C-0.299,1.355 -0.859,1.377 -1.18,1.083C-1.328,0.103 0.213,-0.336 0,1.041" style="fill:rgb(35,31,32);"/>
            </g>
            <g transform="matrix(1,0,0,1,93.4287,262.62)">
                <path d="M0,1.088C-0.266,1.297 -0.621,1.422 -1.172,1.366C-1.957,0.293 -0.027,-0.334 0,1.088" style="fill:rgb(35,31,32);"/>
            </g>
            <g transform="matrix(1,0,0,1,113.948,263.393)">
                <path d="M0,-1.14C0.287,0.309 -1.525,0.311 -1.416,-1.087C-1.127,-1.421 -0.313,-1.451 0,-1.14" style="fill:rgb(35,31,32);"/>
            </g>
            <g transform="matrix(1,0,0,1,101.204,264.387)">
                <path d="M0,-1.434C0.354,-1.242 0.762,-1.108 0.744,-0.515C0.199,-0.148 0.322,0 -0.428,-0.237C-0.658,-0.981 -0.256,-1.14 0,-1.434" style="fill:rgb(35,31,32);"/>
            </g>
            <g transform="matrix(1,0,0,1,111.394,263.021)">
                <path d="M0,0.509C-0.438,0.984 -1.436,0.808 -1.205,-0.159C-0.533,-0.475 -0.133,-0.317 0,0.509" style="fill:rgb(35,31,32);"/>
            </g>
            <g transform="matrix(1,0,0,1,98.8779,263.554)">
                <path d="M0,0.429C-0.34,0.816 -1.334,0.824 -1.197,-0.001C-0.859,-0.387 0.135,-0.395 0,0.429" style="fill:rgb(35,31,32);"/>
            </g>
            <g transform="matrix(-0.584397,-0.811468,-0.811468,0.584397,105.798,263.971)">
                <path d="M-0.554,-1.26C-1.216,-1.053 -0.877,-0.644 -1.405,-0.409C-1.196,0.255 -0.788,-0.083 -0.554,0.445C-0.29,0.27 -0.028,0.095 0.233,-0.079C0.375,-0.706 -0.186,-0.841 -0.554,-1.26" style="fill:rgb(35,31,32);"/>
            </g>
            <g transform="matrix(1,0,0,1,91.7998,265.303)">
                <path d="M0,-0.828C0.01,-0.591 0.018,-0.355 0.027,-0.118C-1.533,0.955 -1.633,-1.783 0,-0.828" style="fill:rgb(35,31,32);"/>
            </g>
            <g transform="matrix(1,0,0,1,94.6338,265.506)">
                <path d="M0,-1.133C0.096,-0.587 -0.004,-0.225 -0.191,0.056C-0.742,-0.007 -1.305,-0.056 -1.17,-0.853C-0.904,-1.062 -0.549,-1.189 0,-1.133" style="fill:rgb(35,31,32);"/>
            </g>
            <g transform="matrix(1,0,0,1,96.5674,263.815)">
                <path d="M0,1.67C-0.551,1.607 -1.113,1.559 -0.979,0.761C-0.355,0 0.711,0.992 0,1.67" style="fill:rgb(35,31,32);"/>
            </g>
            <g transform="matrix(1,0,0,1,99.3584,265.421)">
                <path d="M0,-1.219C0.422,-1.264 0.51,-0.948 0.953,-1.016C1.09,-0.281 0.785,0.045 0.043,-0.038C-0.271,-0.338 -0.293,-0.899 0,-1.219" style="fill:rgb(35,31,32);"/>
            </g>
            <g transform="matrix(1,0,0,1,104.571,265.134)">
                <path d="M0,-0.649C0.195,-0.01 -0.451,-0.157 -0.438,0.313C-1.041,0.306 -1.365,0.001 -1.416,-0.597C-1.127,-0.932 -0.313,-0.962 0,-0.649" style="fill:rgb(35,31,32);"/>
            </g>
            <g transform="matrix(1,0,0,1,110.011,264.873)">
                <path d="M0,-0.347C0.137,0.386 -0.166,0.714 -0.91,0.631C-1.668,0.007 -0.676,-1.061 0,-0.347" style="fill:rgb(35,31,32);"/>
            </g>
            <g transform="matrix(1,0,0,1,112.837,265.318)">
                <path d="M0,-1.133C0.289,-0.402 0.133,-0.512 -0.193,0.056C-0.795,0.05 -1.121,-0.253 -1.172,-0.853C-0.906,-1.061 -0.551,-1.189 0,-1.133" style="fill:rgb(35,31,32);"/>
            </g>
        </g>
    </g>
</svg>
