<?xml version="1.0" encoding="UTF-8" standalone="no"?>
<!DOCTYPE svg PUBLIC "-//W3C//DTD SVG 1.1//EN" "http://www.w3.org/Graphics/SVG/1.1/DTD/svg11.dtd">
<svg width="100%" height="100%" viewBox="0 0 170 115" version="1.1" xmlns="http://www.w3.org/2000/svg" xmlns:xlink="http://www.w3.org/1999/xlink" xml:space="preserve" xmlns:serif="http://www.serif.com/" style="fill-rule:evenodd;clip-rule:evenodd;stroke-linejoin:round;stroke-miterlimit:2;">
    <g transform="matrix(1,0,0,1,-319.06,-2059.73)">
        <g transform="matrix(4.16667,0,0,4.16667,0,0)">
            <g transform="matrix(1,0,0,1,91.4209,507.612)">
                <path d="M0,-0.541C0.008,-1.962 -2.32,-2.736 -3.322,-1.317C-3.844,1.808 -0.01,1.766 0,-0.541M-1.803,-2.465C1.654,-2.547 0.418,2.195 -2.035,1.738C-4.137,1.346 -4.746,-2.397 -1.803,-2.465" style="fill:rgb(35,31,32);"/>
            </g>
            <g transform="matrix(1,0,0,1,91.0029,507.697)">
                <path d="M0,-0.973C-0.027,0.874 -1.744,1.063 -2.471,-0.049C-2.518,-2.018 -0.695,-2.036 0,-0.973" style="fill:rgb(35,31,32);"/>
            </g>
            <g transform="matrix(1,0,0,1,82.1689,508.947)">
                <path d="M0,0.217C0.473,0.804 0.967,1.376 2.207,1.485C2.846,1.098 3.381,0.543 3.475,-0.722C2.746,-2.226 -0.129,-2.462 0,0.217M1.324,-2.228C3.252,-2.477 4.168,-1.107 4.076,-0.082C3.83,2.694 -1.146,2.603 -0.547,-0.662C-0.426,-1.32 0.066,-2.064 1.324,-2.228" style="fill:rgb(35,31,32);"/>
            </g>
            <g transform="matrix(1,0,0,1,85.2412,508.187)">
                <path d="M0,0.694C-0.645,1.874 -1.824,2.082 -2.543,0.852C-2.596,-1.388 -0.002,-0.643 0,0.694" style="fill:rgb(35,31,32);"/>
            </g>
            <g transform="matrix(1,0,0,1,93.6514,514.275)">
                <path d="M0,-0.673C0.189,-1.832 -0.813,-2.688 -2.098,-2.416C-5.846,-1.618 -0.604,3.022 0,-0.673M-2.223,-2.944C1.697,-3.695 0.756,2.348 -2.637,0.965C-4.377,0.255 -4.482,-2.513 -2.223,-2.944" style="fill:rgb(35,31,32);"/>
            </g>
            <g transform="matrix(1,0,0,1,90.999,511.024)">
                <path d="M0,3.21C-0.09,2.467 -0.324,2.496 -0.197,1.912C0.453,-1.104 4.637,4.314 0,3.21" style="fill:rgb(35,31,32);"/>
            </g>
            <g transform="matrix(1,0,0,1,84.2549,514.395)">
                <path d="M0,-0.236C-0.088,1.797 4.131,2.446 3.42,-0.937C2.166,-2.237 0.068,-1.789 0,-0.236M0.324,1.593C0.055,0.577 -0.652,0.141 -0.363,-0.822C0.26,-2.89 3.955,-2.712 4.023,-0.297C4.061,1.152 3.311,2.654 0.324,1.593" style="fill:rgb(35,31,32);"/>
            </g>
            <g transform="matrix(1,0,0,1,79.5928,510.666)">
                <path d="M0,4.155C0.961,4.387 2.436,3.664 2.035,1.879C-0.527,-0.931 -2.729,3.497 0,4.155M-0.172,0.61C3.545,-0.123 2.951,5.086 0.125,4.686C-2.074,4.377 -2.873,1.142 -0.172,0.61" style="fill:rgb(35,31,32);"/>
            </g>
            <g transform="matrix(1,0,0,1,87.3252,514.64)">
                <path d="M0,-0.763C-0.096,1.129 -1.611,1.193 -2.469,0.16C-2.609,-1.783 -0.596,-1.956 0,-0.763" style="fill:rgb(35,31,32);"/>
            </g>
            <g transform="matrix(1,0,0,1,81.0029,511.926)">
                <path d="M0,2.225C-1.014,2.836 -2.34,2.143 -2.207,0.957C-1.588,-0.611 0.945,0.234 0,2.225" style="fill:rgb(35,31,32);"/>
            </g>
            <g transform="matrix(1,0,0,1,94.2021,520.702)">
                <path d="M0,-1.962C0.414,-0.541 2.584,-0.184 3.379,-1.423C4.203,-3.683 0.029,-5.065 0,-1.962M1.268,-4.171C3.039,-4.419 4.252,-3.322 3.965,-1.785C3.053,3.103 -3.953,-3.432 1.268,-4.171" style="fill:rgb(35,31,32);"/>
            </g>
            <g transform="matrix(1,0,0,1,97.1475,518.937)">
                <path d="M0,-1.01C0.15,-0.185 -0.135,-0.204 -0.389,0.65C-1.24,0.854 -2.008,0.479 -2.471,-0.086C-2.566,-1.779 -0.838,-1.864 0,-1.01" style="fill:rgb(35,31,32);"/>
            </g>
            <g transform="matrix(1,0,0,1,89.792,518.127)">
                <path d="M0,2.337C2.422,2.583 2.225,-1.711 -0.52,-0.792C-2.367,-0.171 -1.629,2.168 0,2.337M-0.41,-1.265C1.258,-1.577 2.479,-0.539 2.344,0.881C2.045,4.048 -2.52,3.017 -2.039,0.358C-1.922,-0.293 -1.813,-1.001 -0.41,-1.265" style="fill:rgb(35,31,32);"/>
            </g>
            <g transform="matrix(1,0,0,1,91.2412,517.662)">
                <path d="M0,0.887C-0.059,1.771 -0.543,1.971 -0.861,2.437C-4.102,2.153 -1.469,-1.55 0,0.887" style="fill:rgb(35,31,32);"/>
            </g>
            <g transform="matrix(1,0,0,1,87.3877,499.723)">
                <path d="M0,18.174C-1.262,22.055 5.102,22.932 5.279,19.158C5.338,17.905 4.672,16.859 2.582,16.774C0.941,16.708 0.305,17.237 0,18.174M5.834,16.784C5.668,16.553 5.121,16.771 5.066,16.856C4.521,17.672 6.207,17.302 5.834,16.784M5.865,18.793C5.77,21.529 10.967,22.647 11.311,19.066C11.473,17.374 10.09,16.539 8.666,16.445C6.537,16.304 5.92,17.179 5.865,18.793M-10.018,12.826C-10.828,16.202 -6.16,17.082 -5.018,14.999C-3.668,12.533 -5.678,11.069 -7.617,11.133C-9.184,11.186 -9.82,12.003 -10.018,12.826M-1.258,17.128C1.834,17.349 2.984,11.657 -1.863,12.229C-5.443,12.651 -3.814,16.945 -1.258,17.128M-0.455,11.557C0.656,11.543 0.631,12.235 1.332,12.476C1.641,11.663 2.236,11.317 2.727,10.801C1.156,10.23 0.061,10.425 -0.455,11.557M1.99,12.88C1.188,16.187 6.848,17.75 7.268,13.864C7.451,12.168 5.941,11.18 4.389,11.189C2.529,11.196 2.166,12.154 1.99,12.88M-0.359,10.076L0.115,10.188C0.152,10.029 0.188,9.87 0.225,9.713C0.068,9.677 -0.092,9.64 -0.248,9.603C-0.285,9.761 -0.322,9.92 -0.359,10.076M-3.709,11.546C-0.402,12.056 0.596,6.833 -3.311,6.633C-7.434,6.42 -6.139,11.172 -3.709,11.546M4.707,8.757C5.639,7.079 4.471,4.707 1.811,5.075C-3.145,5.763 2.248,13.178 4.707,8.757M24.814,12.709C26.822,11.594 30.016,10.913 28.887,8.152C28.215,7.487 27.449,6.879 25.967,6.719C20.424,9.662 14.707,12.333 9.363,15.607C11.563,16.271 11.904,18.089 12.094,20.001C15.66,18.073 20.691,15.004 24.814,12.709M20.719,7.743C21.98,7.034 24.426,6.258 24.875,4.96C25.293,3.751 23.906,0.824 21.924,1.516C19.748,2.278 16.754,4.196 13.652,5.841C10.465,7.532 7.213,8.925 5.322,10.403C7.629,11.002 7.848,12.896 8.051,14.799C12.105,12.437 16.385,10.188 20.719,7.743M5.953,1.287C3.012,2.815 -0.059,3.984 -2.852,5.739C-2.328,6.156 -1.533,6.409 -0.826,6.715C-0.824,5.847 -0.258,5.884 -0.199,5.105C4.717,2.346 9.895,0.007 14.701,-2.928C11.361,-2.378 8.758,-0.171 5.953,1.287M18.729,1.27C19.922,0.64 22.535,-0.026 22.883,-1.516C23.232,-3.006 21.5,-4.546 19.822,-4.483C18.852,-4.448 17.047,-3.211 15.594,-2.469C11.414,-0.324 6.463,2.203 3.223,4.404C5.18,5.016 6.004,6.329 5.529,8.45C10.107,6.561 14.119,3.691 18.729,1.27M20.207,1.363C23.408,-0.916 28.443,4.341 23.957,6.748C26.328,5.105 31.236,7.132 29.52,10.804C28.934,12.055 25.449,13.2 24.008,14.023C21.1,15.68 17.355,18.022 14.16,19.733C11.311,21.257 8.145,23.271 5.715,20.512C4.414,23.722 -2.188,22.018 -0.418,17.827C-2.285,17.958 -3.449,17.014 -4.234,15.931C-7.178,17.8 -11.465,16.042 -10.73,12.66C-10.281,10.6 -8.25,10.411 -6.881,9.051C-6.732,8.421 -6.584,7.786 -6.436,7.153C-0.123,2.94 6.977,-0.005 13.625,-3.68C14.264,-3.742 14.969,-3.693 15.816,-3.417C17.309,-3.395 18.436,-5.548 20.281,-5.378C22.422,-5.18 24.127,-2.969 23.541,-1.11C23.08,0.35 21.422,0.443 20.207,1.363" style="fill:rgb(35,31,32);"/>
            </g>
        </g>
    </g>
</svg>
